<?xml version="1.0" standalone="no"?>
<svg xmlns:xlink="http://www.w3.org/1999/xlink" role="img" fill="currentColor" stroke="currentColor" aria-label="Sheet Music for &quot;Old Joe Clark&quot;" viewBox="0 0 770 697.3969999999999" preserveAspectRatio="xMinYMin meet" style="display: inline-block; position: absolute; top: 0px; left: 0px;" width="1600px" height="1449.13330078125px" xmlns="http://www.w3.org/2000/svg"><style></style><title>Sheet Music for "Old Joe Clark"</title><g><text stroke="none" font-size="32" font-style="normal" font-family="&quot;Times New Roman&quot;" font-weight="bold" text-decoration="none" class="" text-anchor="middle" x="385" y="54.56" data-name="title"><tspan x="385">Old Joe Clark</tspan></text><text stroke="none" font-size="17" font-style="normal" font-family="Palatino" font-weight="normal" text-decoration="none" class="" text-anchor="start" x="15" y="88.12" data-name="rhythm"><tspan x="15">reel</tspan></text><text stroke="none" font-size="17" font-style="italic" font-family="&quot;Times New Roman&quot;" font-weight="normal" text-decoration="none" class="" text-anchor="end" x="755" y="88.12" data-name="composer"><tspan x="755">Trad.</tspan></text></g><g><g><line x1="15" x2="755" y1="161.53700000000003" y2="161.53700000000003" stroke="currentColor" stroke-width="0.7" class="abcjs-top-line"></line><line x1="15" x2="755" y1="169.28700000000003" y2="169.28700000000003" stroke="currentColor" stroke-width="0.7"></line><line x1="15" x2="755" y1="177.03700000000003" y2="177.03700000000003" stroke="currentColor" stroke-width="0.7"></line><line x1="15" x2="755" y1="184.78700000000003" y2="184.78700000000003" stroke="currentColor" stroke-width="0.7"></line><line x1="15" x2="755" y1="192.53700000000003" y2="192.53700000000003" stroke="currentColor" stroke-width="0.7"></line></g><g class="" fill="currentColor" stroke="none" data-name="staff-extra clef"><path data-name="clefs.G" d="M 29.689999999999998 147.20200000000003c 0.09 -0.09 0.24 -0.06 0.36 0c 0.12 0.09 0.57 0.6 0.96 1.11c 1.77 2.34 3.21 5.85 3.57 8.73c 0.21 1.56 0.03 3.27 -0.45 4.86c -0.69 2.31 -1.92 4.47 -4.23 7.44c -0.3 0.39 -0.57 0.72 -0.6 0.75c -0.03 0.06 0 0.15 0.18 0.78c 0.54 1.68 1.38 4.44 1.68 5.49l 0.09 0.42l 0.39 0c 1.47 0.09 2.76 0.51 3.96 1.29c 1.83 1.23 3.06 3.21 3.39 5.52c 0.09 0.45 0.12 1.29 0.06 1.74c -0.09 1.02 -0.33 1.83 -0.75 2.73c -0.84 1.71 -2.28 3.06 -4.02 3.72l -0.33 0.12l 0.03 1.26c 0 1.74 -0.06 3.63 -0.21 4.62c -0.45 3.06 -2.19 5.49 -4.47 6.21c -0.57 0.18 -0.9 0.21 -1.59 0.21c -0.69 0 -1.02 -0.03 -1.65 -0.21c -1.14 -0.27 -2.13 -0.84 -2.94 -1.65c -0.99 -0.99 -1.56 -2.16 -1.71 -3.54c -0.09 -0.81 0.06 -1.53 0.45 -2.13c 0.63 -0.99 1.83 -1.56 3 -1.53c 1.5 0.09 2.64 1.32 2.73 2.94c 0.06 1.47 -0.93 2.7 -2.37 2.97c -0.45 0.06 -0.84 0.03 -1.29 -0.09l -0.21 -0.09l 0.09 0.12c 0.39 0.54 0.78 0.93 1.32 1.26c 1.35 0.87 3.06 1.02 4.35 0.36c 1.44 -0.72 2.52 -2.28 2.97 -4.35c 0.15 -0.66 0.24 -1.5 0.3 -3.03c 0.03 -0.84 0.03 -2.94 0 -3c -0.03 0 -0.18 0 -0.36 0.03c -0.66 0.12 -0.99 0.12 -1.83 0.12c -1.05 0 -1.71 -0.06 -2.61 -0.3c -4.02 -0.99 -7.11 -4.35 -7.8 -8.46c -0.12 -0.66 -0.12 -0.99 -0.12 -1.83c 0 -0.84 0 -1.14 0.15 -1.92c 0.36 -2.28 1.41 -4.62 3.3 -7.29l 2.79 -3.6c 0.54 -0.66 0.96 -1.2 0.96 -1.23c 0 -0.03 -0.09 -0.33 -0.18 -0.69c -0.96 -3.21 -1.41 -5.28 -1.59 -7.68c -0.12 -1.38 -0.15 -3.09 -0.06 -3.96c 0.33 -2.67 1.38 -5.07 3.12 -7.08c 0.36 -0.42 0.99 -1.05 1.17 -1.14zm 2.01 4.71c -0.15 -0.3 -0.3 -0.54 -0.3 -0.54c -0.03 0 -0.18 0.09 -0.3 0.21c -2.4 1.74 -3.87 4.2 -4.26 7.11c -0.06 0.54 -0.06 1.41 -0.03 1.89c 0.09 1.29 0.48 3.12 1.08 5.22c 0.15 0.42 0.24 0.78 0.24 0.81c 0 0.03 0.84 -1.11 1.23 -1.68c 1.89 -2.73 2.88 -5.07 3.15 -7.53c 0.09 -0.57 0.12 -1.74 0.06 -2.37c -0.09 -1.23 -0.27 -1.92 -0.87 -3.12zm -2.94 20.7c -0.21 -0.72 -0.39 -1.32 -0.42 -1.32c 0 0 -1.2 1.47 -1.86 2.37c -2.79 3.63 -4.02 6.3 -4.35 9.3c -0.03 0.21 -0.03 0.69 -0.03 1.08c 0 0.69 0 0.75 0.06 1.11c 0.12 0.54 0.27 0.99 0.51 1.47c 0.69 1.38 1.83 2.55 3.42 3.42c 0.96 0.54 2.07 0.9 3.21 1.08c 0.78 0.12 2.04 0.12 2.94 -0.03c 0.51 -0.06 0.45 -0.03 0.42 -0.3c -0.24 -3.33 -0.72 -6.33 -1.62 -10.08c -0.09 -0.39 -0.18 -0.75 -0.18 -0.78c -0.03 -0.03 -0.42 0 -0.81 0.09c -0.9 0.18 -1.65 0.57 -2.22 1.14c -0.72 0.72 -1.08 1.65 -1.05 2.64c 0.06 0.96 0.48 1.83 1.23 2.58c 0.36 0.36 0.72 0.63 1.17 0.9c 0.33 0.18 0.36 0.21 0.42 0.33c 0.18 0.42 -0.18 0.9 -0.6 0.87c -0.18 -0.03 -0.84 -0.36 -1.26 -0.63c -0.78 -0.51 -1.38 -1.11 -1.86 -1.83c -1.77 -2.7 -0.99 -6.42 1.71 -8.19c 0.3 -0.21 0.81 -0.48 1.17 -0.63c 0.3 -0.09 1.02 -0.3 1.14 -0.3c 0.06 0 0.09 0 0.09 -0.03c 0.03 -0.03 -0.51 -1.92 -1.23 -4.26zm 3.78 7.41c -0.18 -0.03 -0.36 -0.06 -0.39 -0.06c -0.03 0 0 0.21 0.18 1.02c 0.75 3.18 1.26 6.3 1.5 9.09c 0.06 0.72 0 0.69 0.51 0.42c 0.78 -0.36 1.44 -0.96 1.98 -1.77c 1.08 -1.62 1.2 -3.69 0.3 -5.55c -0.81 -1.62 -2.31 -2.79 -4.08 -3.15z"></path></g><g class="" fill="currentColor" stroke="none" data-name="staff-extra key-signature"><path data-name="accidentals.sharp" d="M 54.781000000000006 150.17200000000003c 0.21 -0.12 0.54 -0.03 0.66 0.24c 0.06 0.12 0.06 0.21 0.06 2.31c 0 1.23 0 2.22 0.03 2.22c 0 0 0.27 -0.12 0.6 -0.24c 0.69 -0.27 0.78 -0.3 0.96 -0.15c 0.21 0.15 0.21 0.18 0.21 1.38c 0 1.02 0 1.11 -0.06 1.2c -0.03 0.06 -0.09 0.12 -0.12 0.15c -0.06 0.03 -0.42 0.21 -0.84 0.36l -0.75 0.33l -0.03 2.43c 0 1.32 0 2.43 0.03 2.43c 0 0 0.27 -0.12 0.6 -0.24c 0.69 -0.27 0.78 -0.3 0.96 -0.15c 0.21 0.15 0.21 0.18 0.21 1.38c 0 1.02 0 1.11 -0.06 1.2c -0.03 0.06 -0.09 0.12 -0.12 0.15c -0.06 0.03 -0.42 0.21 -0.84 0.36l -0.75 0.33l -0.03 2.52c 0 2.28 -0.03 2.55 -0.06 2.64c -0.21 0.36 -0.72 0.36 -0.93 0c -0.03 -0.09 -0.06 -0.33 -0.06 -2.43l 0 -2.31l -1.29 0.51l -1.26 0.51l 0 2.43c 0 2.58 0 2.52 -0.15 2.67c -0.06 0.09 -0.27 0.18 -0.36 0.18c -0.12 0 -0.33 -0.09 -0.39 -0.18c -0.15 -0.15 -0.15 -0.09 -0.15 -2.43c 0 -1.23 0 -2.22 -0.03 -2.22c 0 0 -0.27 0.12 -0.6 0.24c -0.69 0.27 -0.78 0.3 -0.96 0.15c -0.21 -0.15 -0.21 -0.18 -0.21 -1.38c 0 -1.02 0 -1.11 0.06 -1.2c 0.03 -0.06 0.09 -0.12 0.12 -0.15c 0.06 -0.03 0.42 -0.21 0.84 -0.36l 0.78 -0.33l 0 -2.43c 0 -1.32 0 -2.43 -0.03 -2.43c 0 0 -0.27 0.12 -0.6 0.24c -0.69 0.27 -0.78 0.3 -0.96 0.15c -0.21 -0.15 -0.21 -0.18 -0.21 -1.38c 0 -1.02 0 -1.11 0.06 -1.2c 0.03 -0.06 0.09 -0.12 0.12 -0.15c 0.06 -0.03 0.42 -0.21 0.84 -0.36l 0.78 -0.33l 0 -2.52c 0 -2.28 0.03 -2.55 0.06 -2.64c 0.21 -0.36 0.72 -0.36 0.93 0c 0.03 0.09 0.06 0.33 0.06 2.43l 0.03 2.31l 1.26 -0.51l 1.26 -0.51l 0 -2.43c 0 -2.28 0 -2.43 0.06 -2.55c 0.06 -0.12 0.12 -0.18 0.27 -0.24zm -0.33 10.65l 0 -2.43l -1.29 0.51l -1.26 0.51l 0 2.46l 0 2.43l 0.09 -0.03c 0.06 -0.03 0.63 -0.27 1.29 -0.51l 1.17 -0.48l 0 -2.46z"></path><path data-name="accidentals.sharp" d="M 65.031 161.79700000000003c 0.21 -0.12 0.54 -0.03 0.66 0.24c 0.06 0.12 0.06 0.21 0.06 2.31c 0 1.23 0 2.22 0.03 2.22c 0 0 0.27 -0.12 0.6 -0.24c 0.69 -0.27 0.78 -0.3 0.96 -0.15c 0.21 0.15 0.21 0.18 0.21 1.38c 0 1.02 0 1.11 -0.06 1.2c -0.03 0.06 -0.09 0.12 -0.12 0.15c -0.06 0.03 -0.42 0.21 -0.84 0.36l -0.75 0.33l -0.03 2.43c 0 1.32 0 2.43 0.03 2.43c 0 0 0.27 -0.12 0.6 -0.24c 0.69 -0.27 0.78 -0.3 0.96 -0.15c 0.21 0.15 0.21 0.18 0.21 1.38c 0 1.02 0 1.11 -0.06 1.2c -0.03 0.06 -0.09 0.12 -0.12 0.15c -0.06 0.03 -0.42 0.21 -0.84 0.36l -0.75 0.33l -0.03 2.52c 0 2.28 -0.03 2.55 -0.06 2.64c -0.21 0.36 -0.72 0.36 -0.93 0c -0.03 -0.09 -0.06 -0.33 -0.06 -2.43l 0 -2.31l -1.29 0.51l -1.26 0.51l 0 2.43c 0 2.58 0 2.52 -0.15 2.67c -0.06 0.09 -0.27 0.18 -0.36 0.18c -0.12 0 -0.33 -0.09 -0.39 -0.18c -0.15 -0.15 -0.15 -0.09 -0.15 -2.43c 0 -1.23 0 -2.22 -0.03 -2.22c 0 0 -0.27 0.12 -0.6 0.24c -0.69 0.27 -0.78 0.3 -0.96 0.15c -0.21 -0.15 -0.21 -0.18 -0.21 -1.38c 0 -1.02 0 -1.11 0.06 -1.2c 0.03 -0.06 0.09 -0.12 0.12 -0.15c 0.06 -0.03 0.42 -0.21 0.84 -0.36l 0.78 -0.33l 0 -2.43c 0 -1.32 0 -2.43 -0.03 -2.43c 0 0 -0.27 0.12 -0.6 0.24c -0.69 0.27 -0.78 0.3 -0.96 0.15c -0.21 -0.15 -0.21 -0.18 -0.21 -1.38c 0 -1.02 0 -1.11 0.06 -1.2c 0.03 -0.06 0.09 -0.12 0.12 -0.15c 0.06 -0.03 0.42 -0.21 0.84 -0.36l 0.78 -0.33l 0 -2.52c 0 -2.28 0.03 -2.55 0.06 -2.64c 0.21 -0.36 0.72 -0.36 0.93 0c 0.03 0.09 0.06 0.33 0.06 2.43l 0.03 2.31l 1.26 -0.51l 1.26 -0.51l 0 -2.43c 0 -2.28 0 -2.43 0.06 -2.55c 0.06 -0.12 0.12 -0.18 0.27 -0.24zm -0.33 10.65l 0 -2.43l -1.29 0.51l -1.26 0.51l 0 2.46l 0 2.43l 0.09 -0.03c 0.06 -0.03 0.63 -0.27 1.29 -0.51l 1.17 -0.48l 0 -2.46z"></path></g><g class="" fill="currentColor" stroke="none" data-name="staff-extra time-signature"><path data-name="4" d="M 86.191 161.92200000000003c 0.27 -0.09 0.42 -0.12 0.54 -0.03c 0.09 0.06 0.15 0.21 0.15 0.3c -0.03 0.06 -1.92 2.31 -4.23 5.04c -2.31 2.73 -4.23 4.98 -4.26 5.01c -0.03 0.06 0.12 0.06 2.55 0.06l 2.61 0l 0 -2.37c 0 -2.19 0.03 -2.37 0.06 -2.46c 0.03 -0.06 0.21 -0.18 0.57 -0.42c 1.08 -0.72 1.38 -1.08 1.86 -2.16c 0.12 -0.3 0.24 -0.54 0.27 -0.57c 0.12 -0.12 0.39 -0.06 0.45 0.12c 0.06 0.09 0.06 0.57 0.06 3.96l 0 3.9l 1.08 0c 1.05 0 1.11 0 1.2 0.06c 0.24 0.15 0.24 0.54 0 0.69c -0.09 0.06 -0.15 0.06 -1.2 0.06l -1.08 0l 0 0.33c 0 0.57 0.09 1.11 0.3 1.53c 0.36 0.75 0.93 1.17 1.68 1.26c 0.3 0.03 0.39 0.09 0.39 0.3c 0 0.15 -0.03 0.18 -0.09 0.24c -0.06 0.06 -0.09 0.06 -0.48 0.06c -0.42 0 -0.69 -0.03 -2.1 -0.24c -0.9 -0.15 -1.77 -0.15 -2.67 0c -1.41 0.21 -1.68 0.24 -2.1 0.24c -0.39 0 -0.42 0 -0.48 -0.06c -0.06 -0.06 -0.06 -0.09 -0.06 -0.24c 0 -0.21 0.06 -0.27 0.36 -0.3c 0.75 -0.09 1.32 -0.51 1.68 -1.26c 0.21 -0.42 0.3 -0.96 0.3 -1.53l 0 -0.33l -2.7 0c -2.91 0 -2.85 0 -3.09 -0.15c -0.18 -0.12 -0.3 -0.39 -0.27 -0.54c 0.03 -0.06 0.18 -0.24 0.33 -0.45c 0.75 -0.9 1.59 -2.07 2.13 -3.03c 0.33 -0.54 0.84 -1.62 1.05 -2.16c 0.57 -1.41 0.84 -2.64 0.9 -4.05c 0.03 -0.63 0.06 -0.72 0.24 -0.81l 0.12 -0.06l 0.45 0.12c 0.66 0.18 1.02 0.24 1.47 0.27c 0.6 0.03 1.23 -0.09 2.01 -0.33z"></path><path data-name="4" d="M 86.191 177.42200000000003c 0.27 -0.09 0.42 -0.12 0.54 -0.03c 0.09 0.06 0.15 0.21 0.15 0.3c -0.03 0.06 -1.92 2.31 -4.23 5.04c -2.31 2.73 -4.23 4.98 -4.26 5.01c -0.03 0.06 0.12 0.06 2.55 0.06l 2.61 0l 0 -2.37c 0 -2.19 0.03 -2.37 0.06 -2.46c 0.03 -0.06 0.21 -0.18 0.57 -0.42c 1.08 -0.72 1.38 -1.08 1.86 -2.16c 0.12 -0.3 0.24 -0.54 0.27 -0.57c 0.12 -0.12 0.39 -0.06 0.45 0.12c 0.06 0.09 0.06 0.57 0.06 3.96l 0 3.9l 1.08 0c 1.05 0 1.11 0 1.2 0.06c 0.24 0.15 0.24 0.54 0 0.69c -0.09 0.06 -0.15 0.06 -1.2 0.06l -1.08 0l 0 0.33c 0 0.57 0.09 1.11 0.3 1.53c 0.36 0.75 0.93 1.17 1.68 1.26c 0.3 0.03 0.39 0.09 0.39 0.3c 0 0.15 -0.03 0.18 -0.09 0.24c -0.06 0.06 -0.09 0.06 -0.48 0.06c -0.42 0 -0.69 -0.03 -2.1 -0.24c -0.9 -0.15 -1.77 -0.15 -2.67 0c -1.41 0.21 -1.68 0.24 -2.1 0.24c -0.39 0 -0.42 0 -0.48 -0.06c -0.06 -0.06 -0.06 -0.09 -0.06 -0.24c 0 -0.21 0.06 -0.27 0.36 -0.3c 0.75 -0.09 1.32 -0.51 1.68 -1.26c 0.21 -0.42 0.3 -0.96 0.3 -1.53l 0 -0.33l -2.7 0c -2.91 0 -2.85 0 -3.09 -0.15c -0.18 -0.12 -0.3 -0.39 -0.27 -0.54c 0.03 -0.06 0.18 -0.24 0.33 -0.45c 0.75 -0.9 1.59 -2.07 2.13 -3.03c 0.33 -0.54 0.84 -1.62 1.05 -2.16c 0.57 -1.41 0.84 -2.64 0.9 -4.05c 0.03 -0.63 0.06 -0.72 0.24 -0.81l 0.12 -0.06l 0.45 0.12c 0.66 0.18 1.02 0.24 1.47 0.27c 0.6 0.03 1.23 -0.09 2.01 -0.33z"></path></g><g class="" fill="currentColor" stroke="none" data-name="part"><text stroke="none" font-size="17" font-style="normal" font-family="Helvetica" font-weight="normal" text-decoration="none" class="" text-anchor="start" x="99.35" y="118.68" data-name="A-part"><tspan x="99.35">A-part</tspan></text></g><g class="" fill="currentColor" stroke="none" data-name="note"><path data-name="e" d="M 113.23600019073487 161.187c 0.36 -0.03 1.2 0 1.53 0.06c 1.17 0.24 1.89 0.84 2.16 1.83c 0.06 0.18 0.06 0.3 0.06 0.66c 0 0.45 0 0.63 -0.15 1.08c -0.66 2.04 -3.06 3.93 -5.52 4.38c -0.54 0.09 -1.44 0.09 -1.83 0.03c -1.23 -0.27 -1.98 -0.87 -2.25 -1.86c -0.06 -0.18 -0.06 -0.3 -0.06 -0.66c 0 -0.45 0 -0.63 0.15 -1.08c 0.24 -0.78 0.75 -1.53 1.44 -2.22c 1.2 -1.2 2.85 -2.01 4.47 -2.22z"></path><line x1="107.65" x2="107.65" y1="192.36" y2="166.53" stroke="currentColor" stroke-width="1" class="abcjs-stem" data-name="stem"></line><text stroke="none" font-size="16" font-style="normal" font-family="&quot;Courier New&quot;" font-weight="normal" text-decoration="none" class="" text-anchor="middle" x="112.05" y="139.56" data-name="chord"><tspan x="112.05">A</tspan></text></g><g class="" fill="currentColor" stroke="none" data-name="note"><path data-name="f" d="M 154.69277862165137 157.312c 0.36 -0.03 1.2 0 1.53 0.06c 1.17 0.24 1.89 0.84 2.16 1.83c 0.06 0.18 0.06 0.3 0.06 0.66c 0 0.45 0 0.63 -0.15 1.08c -0.66 2.04 -3.06 3.93 -5.52 4.38c -0.54 0.09 -1.44 0.09 -1.83 0.03c -1.23 -0.27 -1.98 -0.87 -2.25 -1.86c -0.06 -0.18 -0.06 -0.3 -0.06 -0.66c 0 -0.45 0 -0.63 0.15 -1.08c 0.24 -0.78 0.75 -1.53 1.44 -2.22c 1.2 -1.2 2.85 -2.01 4.47 -2.22z"></path><line x1="149.1" x2="149.1" y1="188.49" y2="162.65" stroke="currentColor" stroke-width="1" class="abcjs-stem" data-name="stem"></line></g><g class="" fill="currentColor" stroke="none" data-name="note"><path data-name="g" d="M 196.14955705256787 153.437c 0.36 -0.03 1.2 0 1.53 0.06c 1.17 0.24 1.89 0.84 2.16 1.83c 0.06 0.18 0.06 0.3 0.06 0.66c 0 0.45 0 0.63 -0.15 1.08c -0.66 2.04 -3.06 3.93 -5.52 4.38c -0.54 0.09 -1.44 0.09 -1.83 0.03c -1.23 -0.27 -1.98 -0.87 -2.25 -1.86c -0.06 -0.18 -0.06 -0.3 -0.06 -0.66c 0 -0.45 0 -0.63 0.15 -1.08c 0.24 -0.78 0.75 -1.53 1.44 -2.22c 1.2 -1.2 2.85 -2.01 4.47 -2.22z"></path><line x1="190.56" x2="190.56" y1="184.61" y2="158.78" stroke="currentColor" stroke-width="1" class="abcjs-stem" data-name="stem"></line></g><g class="" fill="currentColor" stroke="none" data-name="note"><path data-name="f" d="M 237.60633548348437 157.312c 0.36 -0.03 1.2 0 1.53 0.06c 1.17 0.24 1.89 0.84 2.16 1.83c 0.06 0.18 0.06 0.3 0.06 0.66c 0 0.45 0 0.63 -0.15 1.08c -0.66 2.04 -3.06 3.93 -5.52 4.38c -0.54 0.09 -1.44 0.09 -1.83 0.03c -1.23 -0.27 -1.98 -0.87 -2.25 -1.86c -0.06 -0.18 -0.06 -0.3 -0.06 -0.66c 0 -0.45 0 -0.63 0.15 -1.08c 0.24 -0.78 0.75 -1.53 1.44 -2.22c 1.2 -1.2 2.85 -2.01 4.47 -2.22z"></path><line x1="232.02" x2="232.02" y1="188.49" y2="162.65" stroke="currentColor" stroke-width="1" class="abcjs-stem" data-name="stem"></line></g><g class="" fill="currentColor" stroke="none" data-name="bar"><line x1="273.27000000000004" x2="273.27000000000004" y1="192.36" y2="161.36" stroke="currentColor" stroke-width="0.6" data-name="bar"></line></g><g class="" fill="currentColor" stroke="none" data-name="note"><path data-name="e" d="M 297.8631141051357 161.187c 0.36 -0.03 1.2 0 1.53 0.06c 1.17 0.24 1.89 0.84 2.16 1.83c 0.06 0.18 0.06 0.3 0.06 0.66c 0 0.45 0 0.63 -0.15 1.08c -0.66 2.04 -3.06 3.93 -5.52 4.38c -0.54 0.09 -1.44 0.09 -1.83 0.03c -1.23 -0.27 -1.98 -0.87 -2.25 -1.86c -0.06 -0.18 -0.06 -0.3 -0.06 -0.66c 0 -0.45 0 -0.63 0.15 -1.08c 0.24 -0.78 0.75 -1.53 1.44 -2.22c 1.2 -1.2 2.85 -2.01 4.47 -2.22z"></path><text stroke="none" font-size="16" font-style="normal" font-family="&quot;Courier New&quot;" font-weight="normal" text-decoration="none" class="" text-anchor="middle" x="296.68" y="139.56" data-name="chord"><tspan x="296.68">A</tspan></text><line x1="292.07" x2="292.07" y1="194.3" y2="166.01" stroke="currentColor" stroke-width="0.6" class="abcjs-stem" data-name="stem"></line></g><g class="" fill="currentColor" stroke="none" data-name="note"><path data-name="f" d="M 327.177483259785 157.312c 0.36 -0.03 1.2 0 1.53 0.06c 1.17 0.24 1.89 0.84 2.16 1.83c 0.06 0.18 0.06 0.3 0.06 0.66c 0 0.45 0 0.63 -0.15 1.08c -0.66 2.04 -3.06 3.93 -5.52 4.38c -0.54 0.09 -1.44 0.09 -1.83 0.03c -1.23 -0.27 -1.98 -0.87 -2.25 -1.86c -0.06 -0.18 -0.06 -0.3 -0.06 -0.66c 0 -0.45 0 -0.63 0.15 -1.08c 0.24 -0.78 0.75 -1.53 1.44 -2.22c 1.2 -1.2 2.85 -2.01 4.47 -2.22z"></path><line x1="321.39" x2="321.39" y1="195.58" y2="162.14" stroke="currentColor" stroke-width="0.6" class="abcjs-stem" data-name="stem"></line></g><g class="" fill="currentColor" stroke="none" data-name="note"><path data-name="e" d="M 356.4918524144343 161.187c 0.36 -0.03 1.2 0 1.53 0.06c 1.17 0.24 1.89 0.84 2.16 1.83c 0.06 0.18 0.06 0.3 0.06 0.66c 0 0.45 0 0.63 -0.15 1.08c -0.66 2.04 -3.06 3.93 -5.52 4.38c -0.54 0.09 -1.44 0.09 -1.83 0.03c -1.23 -0.27 -1.98 -0.87 -2.25 -1.86c -0.06 -0.18 -0.06 -0.3 -0.06 -0.66c 0 -0.45 0 -0.63 0.15 -1.08c 0.24 -0.78 0.75 -1.53 1.44 -2.22c 1.2 -1.2 2.85 -2.01 4.47 -2.22z"></path><line x1="350.7" x2="350.7" y1="196.87" y2="166.01" stroke="currentColor" stroke-width="0.6" class="abcjs-stem" data-name="stem"></line></g><g class="" fill="currentColor" stroke="none" data-name="note"><path data-name="d" d="M 385.80622156908356 165.062c 0.36 -0.03 1.2 0 1.53 0.06c 1.17 0.24 1.89 0.84 2.16 1.83c 0.06 0.18 0.06 0.3 0.06 0.66c 0 0.45 0 0.63 -0.15 1.08c -0.66 2.04 -3.06 3.93 -5.52 4.38c -0.54 0.09 -1.44 0.09 -1.83 0.03c -1.23 -0.27 -1.98 -0.87 -2.25 -1.86c -0.06 -0.18 -0.06 -0.3 -0.06 -0.66c 0 -0.45 0 -0.63 0.15 -1.08c 0.24 -0.78 0.75 -1.53 1.44 -2.22c 1.2 -1.2 2.85 -2.01 4.47 -2.22z"></path><line x1="380.02000000000004" x2="380.02000000000004" y1="198.15" y2="169.89" stroke="currentColor" stroke-width="0.6" class="abcjs-stem" data-name="stem"></line></g><g class="" fill="currentColor" stroke="none" data-name="note"><path data-name="c" d="M 416.47059072373287 168.937c 0.06 -0.03 0.27 -0.03 0.48 -0.03c 1.05 0 1.71 0.24 2.1 0.81c 0.42 0.6 0.45 1.35 0.18 2.4c -0.42 1.59 -1.14 2.73 -2.16 3.39c -1.41 0.93 -3.18 1.44 -5.4 1.53c -1.17 0.03 -1.89 -0.21 -2.28 -0.81c -0.42 -0.6 -0.45 -1.35 -0.18 -2.4c 0.42 -1.59 1.14 -2.73 2.16 -3.39c 0.63 -0.42 1.23 -0.72 1.98 -0.96c 0.9 -0.3 1.65 -0.42 3.12 -0.54zm 1.29 0.87c -0.27 -0.09 -0.63 -0.12 -0.9 -0.03c -0.72 0.24 -1.53 0.69 -3.27 1.8c -2.34 1.5 -3.3 2.25 -3.57 2.79c -0.36 0.72 -0.06 1.5 0.66 1.77c 0.24 0.12 0.69 0.09 0.99 0c 0.84 -0.3 1.92 -0.93 4.14 -2.37c 1.62 -1.08 2.37 -1.71 2.61 -2.19c 0.36 -0.72 0.06 -1.5 -0.66 -1.77z"></path><line x1="409.53" x2="409.53" y1="200.11" y2="174.28" stroke="currentColor" stroke-width="1" class="abcjs-stem" data-name="stem"></line></g><g class="" fill="currentColor" stroke="none" data-name="bar"><line x1="467.96000000000004" x2="467.96000000000004" y1="192.36" y2="161.36" stroke="currentColor" stroke-width="0.6" data-name="bar"></line></g><g class="" fill="currentColor" stroke="none" data-name="note"><path data-name="e" d="M 492.5493292237662 161.187c 0.36 -0.03 1.2 0 1.53 0.06c 1.17 0.24 1.89 0.84 2.16 1.83c 0.06 0.18 0.06 0.3 0.06 0.66c 0 0.45 0 0.63 -0.15 1.08c -0.66 2.04 -3.06 3.93 -5.52 4.38c -0.54 0.09 -1.44 0.09 -1.83 0.03c -1.23 -0.27 -1.98 -0.87 -2.25 -1.86c -0.06 -0.18 -0.06 -0.3 -0.06 -0.66c 0 -0.45 0 -0.63 0.15 -1.08c 0.24 -0.78 0.75 -1.53 1.44 -2.22c 1.2 -1.2 2.85 -2.01 4.47 -2.22z"></path><line x1="486.96" x2="486.96" y1="192.36" y2="166.53" stroke="currentColor" stroke-width="1" class="abcjs-stem" data-name="stem"></line><text stroke="none" font-size="16" font-style="normal" font-family="&quot;Courier New&quot;" font-weight="normal" text-decoration="none" class="" text-anchor="middle" x="491.36" y="139.56" data-name="chord"><tspan x="491.36">A</tspan></text></g><g class="" fill="currentColor" stroke="none" data-name="note"><path data-name="f" d="M 534.0061076546828 157.312c 0.36 -0.03 1.2 0 1.53 0.06c 1.17 0.24 1.89 0.84 2.16 1.83c 0.06 0.18 0.06 0.3 0.06 0.66c 0 0.45 0 0.63 -0.15 1.08c -0.66 2.04 -3.06 3.93 -5.52 4.38c -0.54 0.09 -1.44 0.09 -1.83 0.03c -1.23 -0.27 -1.98 -0.87 -2.25 -1.86c -0.06 -0.18 -0.06 -0.3 -0.06 -0.66c 0 -0.45 0 -0.63 0.15 -1.08c 0.24 -0.78 0.75 -1.53 1.44 -2.22c 1.2 -1.2 2.85 -2.01 4.47 -2.22z"></path><line x1="528.42" x2="528.42" y1="188.49" y2="162.65" stroke="currentColor" stroke-width="1" class="abcjs-stem" data-name="stem"></line></g><g class="" fill="currentColor" stroke="none" data-name="note"><path data-name="g" d="M 575.4628860855993 153.437c 0.36 -0.03 1.2 0 1.53 0.06c 1.17 0.24 1.89 0.84 2.16 1.83c 0.06 0.18 0.06 0.3 0.06 0.66c 0 0.45 0 0.63 -0.15 1.08c -0.66 2.04 -3.06 3.93 -5.52 4.38c -0.54 0.09 -1.44 0.09 -1.83 0.03c -1.23 -0.27 -1.98 -0.87 -2.25 -1.86c -0.06 -0.18 -0.06 -0.3 -0.06 -0.66c 0 -0.45 0 -0.63 0.15 -1.08c 0.24 -0.78 0.75 -1.53 1.44 -2.22c 1.2 -1.2 2.85 -2.01 4.47 -2.22z"></path><line x1="569.87" x2="569.87" y1="184.61" y2="158.78" stroke="currentColor" stroke-width="1" class="abcjs-stem" data-name="stem"></line></g><g class="" fill="currentColor" stroke="none" data-name="note"><path data-name="f" d="M 616.9196645165158 157.312c 0.36 -0.03 1.2 0 1.53 0.06c 1.17 0.24 1.89 0.84 2.16 1.83c 0.06 0.18 0.06 0.3 0.06 0.66c 0 0.45 0 0.63 -0.15 1.08c -0.66 2.04 -3.06 3.93 -5.52 4.38c -0.54 0.09 -1.44 0.09 -1.83 0.03c -1.23 -0.27 -1.98 -0.87 -2.25 -1.86c -0.06 -0.18 -0.06 -0.3 -0.06 -0.66c 0 -0.45 0 -0.63 0.15 -1.08c 0.24 -0.78 0.75 -1.53 1.44 -2.22c 1.2 -1.2 2.85 -2.01 4.47 -2.22z"></path><line x1="611.33" x2="611.33" y1="188.49" y2="162.65" stroke="currentColor" stroke-width="1" class="abcjs-stem" data-name="stem"></line></g><g class="" fill="currentColor" stroke="none" data-name="bar"><line x1="652.5899999999999" x2="652.5899999999999" y1="192.36" y2="161.36" stroke="currentColor" stroke-width="0.6" data-name="bar"></line></g><g class="" fill="currentColor" stroke="none" data-name="note"><path data-name="e" d="M 677.5964431381672 161.187c 0.51 -0.03 2.01 0 2.52 0.03c 1.41 0.18 2.64 0.51 3.72 1.08c 1.2 0.63 1.95 1.41 2.19 2.31c 0.09 0.33 0.09 0.9 0 1.23c -0.24 0.9 -0.99 1.68 -2.19 2.31c -1.08 0.57 -2.28 0.9 -3.75 1.08c -0.66 0.06 -2.31 0.06 -2.97 0c -1.47 -0.18 -2.67 -0.51 -3.75 -1.08c -1.2 -0.63 -1.95 -1.41 -2.19 -2.31c -0.09 -0.33 -0.09 -0.9 0 -1.23c 0.24 -0.9 0.99 -1.68 2.19 -2.31c 1.2 -0.63 2.61 -0.99 4.23 -1.11zm 0.57 0.66c -0.87 -0.15 -1.53 0 -2.04 0.51c -0.15 0.15 -0.24 0.27 -0.33 0.48c -0.24 0.51 -0.36 1.08 -0.33 1.77c 0.03 0.69 0.18 1.26 0.42 1.77c 0.6 1.17 1.74 1.98 3.18 2.22c 1.11 0.21 1.95 -0.15 2.34 -0.99c 0.24 -0.51 0.36 -1.08 0.33 -1.8c -0.06 -1.11 -0.45 -2.04 -1.17 -2.76c -0.63 -0.63 -1.47 -1.05 -2.4 -1.2z"></path><text stroke="none" font-size="16" font-style="normal" font-family="&quot;Courier New&quot;" font-weight="normal" text-decoration="none" class="" text-anchor="middle" x="678.58" y="139.56" data-name="chord"><tspan x="678.58">E</tspan></text></g><g class="" fill="currentColor" stroke="none" data-name="bar"><line x1="754.3" x2="754.3" y1="192.36" y2="161.36" stroke="currentColor" stroke-width="0.6" data-name="bar"></line></g><path d="M291.77 196.24 L380.32 200.11L380.32 196.24 L291.77 192.37z" stroke="none" fill="currentColor" class=""></path></g><g><g><line x1="15" x2="755" y1="253.86700000000002" y2="253.86700000000002" stroke="currentColor" stroke-width="0.7" class="abcjs-top-line"></line><line x1="15" x2="755" y1="261.617" y2="261.617" stroke="currentColor" stroke-width="0.7"></line><line x1="15" x2="755" y1="269.367" y2="269.367" stroke="currentColor" stroke-width="0.7"></line><line x1="15" x2="755" y1="277.117" y2="277.117" stroke="currentColor" stroke-width="0.7"></line><line x1="15" x2="755" y1="284.867" y2="284.867" stroke="currentColor" stroke-width="0.7"></line></g><g class="" fill="currentColor" stroke="none" data-name="staff-extra clef"><path data-name="clefs.G" d="M 29.689999999999998 239.532c 0.09 -0.09 0.24 -0.06 0.36 0c 0.12 0.09 0.57 0.6 0.96 1.11c 1.77 2.34 3.21 5.85 3.57 8.73c 0.21 1.56 0.03 3.27 -0.45 4.86c -0.69 2.31 -1.92 4.47 -4.23 7.44c -0.3 0.39 -0.57 0.72 -0.6 0.75c -0.03 0.06 0 0.15 0.18 0.78c 0.54 1.68 1.38 4.44 1.68 5.49l 0.09 0.42l 0.39 0c 1.47 0.09 2.76 0.51 3.96 1.29c 1.83 1.23 3.06 3.21 3.39 5.52c 0.09 0.45 0.12 1.29 0.06 1.74c -0.09 1.02 -0.33 1.83 -0.75 2.73c -0.84 1.71 -2.28 3.06 -4.02 3.72l -0.33 0.12l 0.03 1.26c 0 1.74 -0.06 3.63 -0.21 4.62c -0.45 3.06 -2.19 5.49 -4.47 6.21c -0.57 0.18 -0.9 0.21 -1.59 0.21c -0.69 0 -1.02 -0.03 -1.65 -0.21c -1.14 -0.27 -2.13 -0.84 -2.94 -1.65c -0.99 -0.99 -1.56 -2.16 -1.71 -3.54c -0.09 -0.81 0.06 -1.53 0.45 -2.13c 0.63 -0.99 1.83 -1.56 3 -1.53c 1.5 0.09 2.64 1.32 2.73 2.94c 0.06 1.47 -0.93 2.7 -2.37 2.97c -0.45 0.06 -0.84 0.03 -1.29 -0.09l -0.21 -0.09l 0.09 0.12c 0.39 0.54 0.78 0.93 1.32 1.26c 1.35 0.87 3.06 1.02 4.35 0.36c 1.44 -0.72 2.52 -2.28 2.97 -4.35c 0.15 -0.66 0.24 -1.5 0.3 -3.03c 0.03 -0.84 0.03 -2.94 0 -3c -0.03 0 -0.18 0 -0.36 0.03c -0.66 0.12 -0.99 0.12 -1.83 0.12c -1.05 0 -1.71 -0.06 -2.61 -0.3c -4.02 -0.99 -7.11 -4.35 -7.8 -8.46c -0.12 -0.66 -0.12 -0.99 -0.12 -1.83c 0 -0.84 0 -1.14 0.15 -1.92c 0.36 -2.28 1.41 -4.62 3.3 -7.29l 2.79 -3.6c 0.54 -0.66 0.96 -1.2 0.96 -1.23c 0 -0.03 -0.09 -0.33 -0.18 -0.69c -0.96 -3.21 -1.41 -5.28 -1.59 -7.68c -0.12 -1.38 -0.15 -3.09 -0.06 -3.96c 0.33 -2.67 1.38 -5.07 3.12 -7.08c 0.36 -0.42 0.99 -1.05 1.17 -1.14zm 2.01 4.71c -0.15 -0.3 -0.3 -0.54 -0.3 -0.54c -0.03 0 -0.18 0.09 -0.3 0.21c -2.4 1.74 -3.87 4.2 -4.26 7.11c -0.06 0.54 -0.06 1.41 -0.03 1.89c 0.09 1.29 0.48 3.12 1.08 5.22c 0.15 0.42 0.24 0.78 0.24 0.81c 0 0.03 0.84 -1.11 1.23 -1.68c 1.89 -2.73 2.88 -5.07 3.15 -7.53c 0.09 -0.57 0.12 -1.74 0.06 -2.37c -0.09 -1.23 -0.27 -1.92 -0.87 -3.12zm -2.94 20.7c -0.21 -0.72 -0.39 -1.32 -0.42 -1.32c 0 0 -1.2 1.47 -1.86 2.37c -2.79 3.63 -4.02 6.3 -4.35 9.3c -0.03 0.21 -0.03 0.69 -0.03 1.08c 0 0.69 0 0.75 0.06 1.11c 0.12 0.54 0.27 0.99 0.51 1.47c 0.69 1.38 1.83 2.55 3.42 3.42c 0.96 0.54 2.07 0.9 3.21 1.08c 0.78 0.12 2.04 0.12 2.94 -0.03c 0.51 -0.06 0.45 -0.03 0.42 -0.3c -0.24 -3.33 -0.72 -6.33 -1.62 -10.08c -0.09 -0.39 -0.18 -0.75 -0.18 -0.78c -0.03 -0.03 -0.42 0 -0.81 0.09c -0.9 0.18 -1.65 0.57 -2.22 1.14c -0.72 0.72 -1.08 1.65 -1.05 2.64c 0.06 0.96 0.48 1.83 1.23 2.58c 0.36 0.36 0.72 0.63 1.17 0.9c 0.33 0.18 0.36 0.21 0.42 0.33c 0.18 0.42 -0.18 0.9 -0.6 0.87c -0.18 -0.03 -0.84 -0.36 -1.26 -0.63c -0.78 -0.51 -1.38 -1.11 -1.86 -1.83c -1.77 -2.7 -0.99 -6.42 1.71 -8.19c 0.3 -0.21 0.81 -0.48 1.17 -0.63c 0.3 -0.09 1.02 -0.3 1.14 -0.3c 0.06 0 0.09 0 0.09 -0.03c 0.03 -0.03 -0.51 -1.92 -1.23 -4.26zm 3.78 7.41c -0.18 -0.03 -0.36 -0.06 -0.39 -0.06c -0.03 0 0 0.21 0.18 1.02c 0.75 3.18 1.26 6.3 1.5 9.09c 0.06 0.72 0 0.69 0.51 0.42c 0.78 -0.36 1.44 -0.96 1.98 -1.77c 1.08 -1.62 1.2 -3.69 0.3 -5.55c -0.81 -1.62 -2.31 -2.79 -4.08 -3.15z"></path></g><g class="" fill="currentColor" stroke="none" data-name="staff-extra key-signature"><path data-name="accidentals.sharp" d="M 54.781000000000006 242.502c 0.21 -0.12 0.54 -0.03 0.66 0.24c 0.06 0.12 0.06 0.21 0.06 2.31c 0 1.23 0 2.22 0.03 2.22c 0 0 0.27 -0.12 0.6 -0.24c 0.69 -0.27 0.78 -0.3 0.96 -0.15c 0.21 0.15 0.21 0.18 0.21 1.38c 0 1.02 0 1.11 -0.06 1.2c -0.03 0.06 -0.09 0.12 -0.12 0.15c -0.06 0.03 -0.42 0.21 -0.84 0.36l -0.75 0.33l -0.03 2.43c 0 1.32 0 2.43 0.03 2.43c 0 0 0.27 -0.12 0.6 -0.24c 0.69 -0.27 0.78 -0.3 0.96 -0.15c 0.21 0.15 0.21 0.18 0.21 1.38c 0 1.02 0 1.11 -0.06 1.2c -0.03 0.06 -0.09 0.12 -0.12 0.15c -0.06 0.03 -0.42 0.21 -0.84 0.36l -0.75 0.33l -0.03 2.52c 0 2.28 -0.03 2.55 -0.06 2.64c -0.21 0.36 -0.72 0.36 -0.93 0c -0.03 -0.09 -0.06 -0.33 -0.06 -2.43l 0 -2.31l -1.29 0.51l -1.26 0.51l 0 2.43c 0 2.58 0 2.52 -0.15 2.67c -0.06 0.09 -0.27 0.18 -0.36 0.18c -0.12 0 -0.33 -0.09 -0.39 -0.18c -0.15 -0.15 -0.15 -0.09 -0.15 -2.43c 0 -1.23 0 -2.22 -0.03 -2.22c 0 0 -0.27 0.12 -0.6 0.24c -0.69 0.27 -0.78 0.3 -0.96 0.15c -0.21 -0.15 -0.21 -0.18 -0.21 -1.38c 0 -1.02 0 -1.11 0.06 -1.2c 0.03 -0.06 0.09 -0.12 0.12 -0.15c 0.06 -0.03 0.42 -0.21 0.84 -0.36l 0.78 -0.33l 0 -2.43c 0 -1.32 0 -2.43 -0.03 -2.43c 0 0 -0.27 0.12 -0.6 0.24c -0.69 0.27 -0.78 0.3 -0.96 0.15c -0.21 -0.15 -0.21 -0.18 -0.21 -1.38c 0 -1.02 0 -1.11 0.06 -1.2c 0.03 -0.06 0.09 -0.12 0.12 -0.15c 0.06 -0.03 0.42 -0.21 0.84 -0.36l 0.78 -0.33l 0 -2.52c 0 -2.28 0.03 -2.55 0.06 -2.64c 0.21 -0.36 0.72 -0.36 0.93 0c 0.03 0.09 0.06 0.33 0.06 2.43l 0.03 2.31l 1.26 -0.51l 1.26 -0.51l 0 -2.43c 0 -2.28 0 -2.43 0.06 -2.55c 0.06 -0.12 0.12 -0.18 0.27 -0.24zm -0.33 10.65l 0 -2.43l -1.29 0.51l -1.26 0.51l 0 2.46l 0 2.43l 0.09 -0.03c 0.06 -0.03 0.63 -0.27 1.29 -0.51l 1.17 -0.48l 0 -2.46z"></path><path data-name="accidentals.sharp" d="M 65.031 254.127c 0.21 -0.12 0.54 -0.03 0.66 0.24c 0.06 0.12 0.06 0.21 0.06 2.31c 0 1.23 0 2.22 0.03 2.22c 0 0 0.27 -0.12 0.6 -0.24c 0.69 -0.27 0.78 -0.3 0.96 -0.15c 0.21 0.15 0.21 0.18 0.21 1.38c 0 1.02 0 1.11 -0.06 1.2c -0.03 0.06 -0.09 0.12 -0.12 0.15c -0.06 0.03 -0.42 0.21 -0.84 0.36l -0.75 0.33l -0.03 2.43c 0 1.32 0 2.43 0.03 2.43c 0 0 0.27 -0.12 0.6 -0.24c 0.69 -0.27 0.78 -0.3 0.96 -0.15c 0.21 0.15 0.21 0.18 0.21 1.38c 0 1.02 0 1.11 -0.06 1.2c -0.03 0.06 -0.09 0.12 -0.12 0.15c -0.06 0.03 -0.42 0.21 -0.84 0.36l -0.75 0.33l -0.03 2.52c 0 2.28 -0.03 2.55 -0.06 2.64c -0.21 0.36 -0.72 0.36 -0.93 0c -0.03 -0.09 -0.06 -0.33 -0.06 -2.43l 0 -2.31l -1.29 0.51l -1.26 0.51l 0 2.43c 0 2.58 0 2.52 -0.15 2.67c -0.06 0.09 -0.27 0.18 -0.36 0.18c -0.12 0 -0.33 -0.09 -0.39 -0.18c -0.15 -0.15 -0.15 -0.09 -0.15 -2.43c 0 -1.23 0 -2.22 -0.03 -2.22c 0 0 -0.27 0.12 -0.6 0.24c -0.69 0.27 -0.78 0.3 -0.96 0.15c -0.21 -0.15 -0.21 -0.18 -0.21 -1.38c 0 -1.02 0 -1.11 0.06 -1.2c 0.03 -0.06 0.09 -0.12 0.12 -0.15c 0.06 -0.03 0.42 -0.21 0.84 -0.36l 0.78 -0.33l 0 -2.43c 0 -1.32 0 -2.43 -0.03 -2.43c 0 0 -0.27 0.12 -0.6 0.24c -0.69 0.27 -0.78 0.3 -0.96 0.15c -0.21 -0.15 -0.21 -0.18 -0.21 -1.38c 0 -1.02 0 -1.11 0.06 -1.2c 0.03 -0.06 0.09 -0.12 0.12 -0.15c 0.06 -0.03 0.42 -0.21 0.84 -0.36l 0.78 -0.33l 0 -2.52c 0 -2.28 0.03 -2.55 0.06 -2.64c 0.21 -0.36 0.72 -0.36 0.93 0c 0.03 0.09 0.06 0.33 0.06 2.43l 0.03 2.31l 1.26 -0.51l 1.26 -0.51l 0 -2.43c 0 -2.28 0 -2.43 0.06 -2.55c 0.06 -0.12 0.12 -0.18 0.27 -0.24zm -0.33 10.65l 0 -2.43l -1.29 0.51l -1.26 0.51l 0 2.46l 0 2.43l 0.09 -0.03c 0.06 -0.03 0.63 -0.27 1.29 -0.51l 1.17 -0.48l 0 -2.46z"></path></g><g class="" fill="currentColor" stroke="none" data-name="note"><path data-name="e" d="M 91.44100019073487 253.517c 0.36 -0.03 1.2 0 1.53 0.06c 1.17 0.24 1.89 0.84 2.16 1.83c 0.06 0.18 0.06 0.3 0.06 0.66c 0 0.45 0 0.63 -0.15 1.08c -0.66 2.04 -3.06 3.93 -5.52 4.38c -0.54 0.09 -1.44 0.09 -1.83 0.03c -1.23 -0.27 -1.98 -0.87 -2.25 -1.86c -0.06 -0.18 -0.06 -0.3 -0.06 -0.66c 0 -0.45 0 -0.63 0.15 -1.08c 0.24 -0.78 0.75 -1.53 1.44 -2.22c 1.2 -1.2 2.85 -2.01 4.47 -2.22z"></path><line x1="85.85" x2="85.85" y1="284.69" y2="258.86" stroke="currentColor" stroke-width="1" class="abcjs-stem" data-name="stem"></line><text stroke="none" font-size="16" font-style="normal" font-family="&quot;Courier New&quot;" font-weight="normal" text-decoration="none" class="" text-anchor="middle" x="90.26" y="230.9" data-name="chord"><tspan x="90.26">A</tspan></text></g><g class="" fill="currentColor" stroke="none" data-name="note"><path data-name="f" d="M 130.13897310803526 249.642c 0.36 -0.03 1.2 0 1.53 0.06c 1.17 0.24 1.89 0.84 2.16 1.83c 0.06 0.18 0.06 0.3 0.06 0.66c 0 0.45 0 0.63 -0.15 1.08c -0.66 2.04 -3.06 3.93 -5.52 4.38c -0.54 0.09 -1.44 0.09 -1.83 0.03c -1.23 -0.27 -1.98 -0.87 -2.25 -1.86c -0.06 -0.18 -0.06 -0.3 -0.06 -0.66c 0 -0.45 0 -0.63 0.15 -1.08c 0.24 -0.78 0.75 -1.53 1.44 -2.22c 1.2 -1.2 2.85 -2.01 4.47 -2.22z"></path><line x1="124.55" x2="124.55" y1="280.82" y2="254.98" stroke="currentColor" stroke-width="1" class="abcjs-stem" data-name="stem"></line></g><g class="" fill="currentColor" stroke="none" data-name="note"><path data-name="g" d="M 168.83694602533566 245.767c 0.36 -0.03 1.2 0 1.53 0.06c 1.17 0.24 1.89 0.84 2.16 1.83c 0.06 0.18 0.06 0.3 0.06 0.66c 0 0.45 0 0.63 -0.15 1.08c -0.66 2.04 -3.06 3.93 -5.52 4.38c -0.54 0.09 -1.44 0.09 -1.83 0.03c -1.23 -0.27 -1.98 -0.87 -2.25 -1.86c -0.06 -0.18 -0.06 -0.3 -0.06 -0.66c 0 -0.45 0 -0.63 0.15 -1.08c 0.24 -0.78 0.75 -1.53 1.44 -2.22c 1.2 -1.2 2.85 -2.01 4.47 -2.22z"></path><line x1="163.25" x2="163.25" y1="276.94" y2="251.11" stroke="currentColor" stroke-width="1" class="abcjs-stem" data-name="stem"></line></g><g class="" fill="currentColor" stroke="none" data-name="note"><path data-name="f" d="M 207.53491894263607 249.642c 0.36 -0.03 1.2 0 1.53 0.06c 1.17 0.24 1.89 0.84 2.16 1.83c 0.06 0.18 0.06 0.3 0.06 0.66c 0 0.45 0 0.63 -0.15 1.08c -0.66 2.04 -3.06 3.93 -5.52 4.38c -0.54 0.09 -1.44 0.09 -1.83 0.03c -1.23 -0.27 -1.98 -0.87 -2.25 -1.86c -0.06 -0.18 -0.06 -0.3 -0.06 -0.66c 0 -0.45 0 -0.63 0.15 -1.08c 0.24 -0.78 0.75 -1.53 1.44 -2.22c 1.2 -1.2 2.85 -2.01 4.47 -2.22z"></path><line x1="201.94" x2="201.94" y1="280.82" y2="254.98" stroke="currentColor" stroke-width="1" class="abcjs-stem" data-name="stem"></line></g><g class="" fill="currentColor" stroke="none" data-name="bar"><line x1="240.44" x2="240.44" y1="284.69" y2="253.69" stroke="currentColor" stroke-width="0.6" data-name="bar"></line></g><g class="" fill="currentColor" stroke="none" data-name="note"><path data-name="e" d="M 265.0328920506713 253.517c 0.36 -0.03 1.2 0 1.53 0.06c 1.17 0.24 1.89 0.84 2.16 1.83c 0.06 0.18 0.06 0.3 0.06 0.66c 0 0.45 0 0.63 -0.15 1.08c -0.66 2.04 -3.06 3.93 -5.52 4.38c -0.54 0.09 -1.44 0.09 -1.83 0.03c -1.23 -0.27 -1.98 -0.87 -2.25 -1.86c -0.06 -0.18 -0.06 -0.3 -0.06 -0.66c 0 -0.45 0 -0.63 0.15 -1.08c 0.24 -0.78 0.75 -1.53 1.44 -2.22c 1.2 -1.2 2.85 -2.01 4.47 -2.22z"></path><text stroke="none" font-size="16" font-style="normal" font-family="&quot;Courier New&quot;" font-weight="normal" text-decoration="none" class="" text-anchor="middle" x="263.85" y="230.9" data-name="chord"><tspan x="263.85">A</tspan></text><line x1="259.24" x2="259.24" y1="286.63" y2="258.34" stroke="currentColor" stroke-width="0.6" class="abcjs-stem" data-name="stem"></line></g><g class="" fill="currentColor" stroke="none" data-name="note"><path data-name="f" d="M 292.39649111866777 249.642c 0.36 -0.03 1.2 0 1.53 0.06c 1.17 0.24 1.89 0.84 2.16 1.83c 0.06 0.18 0.06 0.3 0.06 0.66c 0 0.45 0 0.63 -0.15 1.08c -0.66 2.04 -3.06 3.93 -5.52 4.38c -0.54 0.09 -1.44 0.09 -1.83 0.03c -1.23 -0.27 -1.98 -0.87 -2.25 -1.86c -0.06 -0.18 -0.06 -0.3 -0.06 -0.66c 0 -0.45 0 -0.63 0.15 -1.08c 0.24 -0.78 0.75 -1.53 1.44 -2.22c 1.2 -1.2 2.85 -2.01 4.47 -2.22z"></path><line x1="286.61" x2="286.61" y1="287.91" y2="254.47" stroke="currentColor" stroke-width="0.6" class="abcjs-stem" data-name="stem"></line></g><g class="" fill="currentColor" stroke="none" data-name="note"><path data-name="e" d="M 319.76009018666423 253.517c 0.36 -0.03 1.2 0 1.53 0.06c 1.17 0.24 1.89 0.84 2.16 1.83c 0.06 0.18 0.06 0.3 0.06 0.66c 0 0.45 0 0.63 -0.15 1.08c -0.66 2.04 -3.06 3.93 -5.52 4.38c -0.54 0.09 -1.44 0.09 -1.83 0.03c -1.23 -0.27 -1.98 -0.87 -2.25 -1.86c -0.06 -0.18 -0.06 -0.3 -0.06 -0.66c 0 -0.45 0 -0.63 0.15 -1.08c 0.24 -0.78 0.75 -1.53 1.44 -2.22c 1.2 -1.2 2.85 -2.01 4.47 -2.22z"></path><line x1="313.97" x2="313.97" y1="289.19" y2="258.34" stroke="currentColor" stroke-width="0.6" class="abcjs-stem" data-name="stem"></line></g><g class="" fill="currentColor" stroke="none" data-name="note"><path data-name="d" d="M 347.1236892546607 257.392c 0.36 -0.03 1.2 0 1.53 0.06c 1.17 0.24 1.89 0.84 2.16 1.83c 0.06 0.18 0.06 0.3 0.06 0.66c 0 0.45 0 0.63 -0.15 1.08c -0.66 2.04 -3.06 3.93 -5.52 4.38c -0.54 0.09 -1.44 0.09 -1.83 0.03c -1.23 -0.27 -1.98 -0.87 -2.25 -1.86c -0.06 -0.18 -0.06 -0.3 -0.06 -0.66c 0 -0.45 0 -0.63 0.15 -1.08c 0.24 -0.78 0.75 -1.53 1.44 -2.22c 1.2 -1.2 2.85 -2.01 4.47 -2.22z"></path><line x1="341.33" x2="341.33" y1="290.48" y2="262.22" stroke="currentColor" stroke-width="0.6" class="abcjs-stem" data-name="stem"></line></g><g class="" fill="currentColor" stroke="none" data-name="note"><path data-name="c" d="M 375.8372883226572 261.267c 0.06 -0.03 0.27 -0.03 0.48 -0.03c 1.05 0 1.71 0.24 2.1 0.81c 0.42 0.6 0.45 1.35 0.18 2.4c -0.42 1.59 -1.14 2.73 -2.16 3.39c -1.41 0.93 -3.18 1.44 -5.4 1.53c -1.17 0.03 -1.89 -0.21 -2.28 -0.81c -0.42 -0.6 -0.45 -1.35 -0.18 -2.4c 0.42 -1.59 1.14 -2.73 2.16 -3.39c 0.63 -0.42 1.23 -0.72 1.98 -0.96c 0.9 -0.3 1.65 -0.42 3.12 -0.54zm 1.29 0.87c -0.27 -0.09 -0.63 -0.12 -0.9 -0.03c -0.72 0.24 -1.53 0.69 -3.27 1.8c -2.34 1.5 -3.3 2.25 -3.57 2.79c -0.36 0.72 -0.06 1.5 0.66 1.77c 0.24 0.12 0.69 0.09 0.99 0c 0.84 -0.3 1.92 -0.93 4.14 -2.37c 1.62 -1.08 2.37 -1.71 2.61 -2.19c 0.36 -0.72 0.06 -1.5 -0.66 -1.77z"></path><line x1="368.9" x2="368.9" y1="292.44" y2="266.61" stroke="currentColor" stroke-width="1" class="abcjs-stem" data-name="stem"></line></g><g class="" fill="currentColor" stroke="none" data-name="bar"><line x1="423.42" x2="423.42" y1="284.69" y2="253.69" stroke="currentColor" stroke-width="0.6" data-name="bar"></line></g><g class="" fill="currentColor" stroke="none" data-name="note"><path data-name="c" d="M 448.014486649385 261.267c 0.36 -0.03 1.2 0 1.53 0.06c 1.17 0.24 1.89 0.84 2.16 1.83c 0.06 0.18 0.06 0.3 0.06 0.66c 0 0.45 0 0.63 -0.15 1.08c -0.66 2.04 -3.06 3.93 -5.52 4.38c -0.54 0.09 -1.44 0.09 -1.83 0.03c -1.23 -0.27 -1.98 -0.87 -2.25 -1.86c -0.06 -0.18 -0.06 -0.3 -0.06 -0.66c 0 -0.45 0 -0.63 0.15 -1.08c 0.24 -0.78 0.75 -1.53 1.44 -2.22c 1.2 -1.2 2.85 -2.01 4.47 -2.22z"></path><text stroke="none" font-size="16" font-style="normal" font-family="&quot;Courier New&quot;" font-weight="normal" text-decoration="none" class="" text-anchor="middle" x="446.83" y="230.9" data-name="chord"><tspan x="446.83">A</tspan></text><line x1="442.22" x2="442.22" y1="298.25" y2="266.09" stroke="currentColor" stroke-width="0.6" class="abcjs-stem" data-name="stem"></line></g><g class="" fill="currentColor" stroke="none" data-name="note"><path data-name="B" d="M 475.37808571738145 265.142c 0.36 -0.03 1.2 0 1.53 0.06c 1.17 0.24 1.89 0.84 2.16 1.83c 0.06 0.18 0.06 0.3 0.06 0.66c 0 0.45 0 0.63 -0.15 1.08c -0.66 2.04 -3.06 3.93 -5.52 4.38c -0.54 0.09 -1.44 0.09 -1.83 0.03c -1.23 -0.27 -1.98 -0.87 -2.25 -1.86c -0.06 -0.18 -0.06 -0.3 -0.06 -0.66c 0 -0.45 0 -0.63 0.15 -1.08c 0.24 -0.78 0.75 -1.53 1.44 -2.22c 1.2 -1.2 2.85 -2.01 4.47 -2.22z"></path><line x1="469.59000000000003" x2="469.59000000000003" y1="298.25" y2="269.97" stroke="currentColor" stroke-width="0.6" class="abcjs-stem" data-name="stem"></line></g><g class="" fill="currentColor" stroke="none" data-name="note"><path data-name="A" d="M 502.7416847853779 269.017c 0.36 -0.03 1.2 0 1.53 0.06c 1.17 0.24 1.89 0.84 2.16 1.83c 0.06 0.18 0.06 0.3 0.06 0.66c 0 0.45 0 0.63 -0.15 1.08c -0.66 2.04 -3.06 3.93 -5.52 4.38c -0.54 0.09 -1.44 0.09 -1.83 0.03c -1.23 -0.27 -1.98 -0.87 -2.25 -1.86c -0.06 -0.18 -0.06 -0.3 -0.06 -0.66c 0 -0.45 0 -0.63 0.15 -1.08c 0.24 -0.78 0.75 -1.53 1.44 -2.22c 1.2 -1.2 2.85 -2.01 4.47 -2.22z"></path><line x1="496.95" x2="496.95" y1="298.25" y2="273.84" stroke="currentColor" stroke-width="0.6" class="abcjs-stem" data-name="stem"></line></g><g class="" fill="currentColor" stroke="none" data-name="note"><path data-name="c" d="M 530.1052838533744 261.267c 0.36 -0.03 1.2 0 1.53 0.06c 1.17 0.24 1.89 0.84 2.16 1.83c 0.06 0.18 0.06 0.3 0.06 0.66c 0 0.45 0 0.63 -0.15 1.08c -0.66 2.04 -3.06 3.93 -5.52 4.38c -0.54 0.09 -1.44 0.09 -1.83 0.03c -1.23 -0.27 -1.98 -0.87 -2.25 -1.86c -0.06 -0.18 -0.06 -0.3 -0.06 -0.66c 0 -0.45 0 -0.63 0.15 -1.08c 0.24 -0.78 0.75 -1.53 1.44 -2.22c 1.2 -1.2 2.85 -2.01 4.47 -2.22z"></path><line x1="524.3199999999999" x2="524.3199999999999" y1="298.25" y2="266.09" stroke="currentColor" stroke-width="0.6" class="abcjs-stem" data-name="stem"></line></g><g class="" fill="currentColor" stroke="none" data-name="note"><path data-name="B" d="M 557.4688829213709 265.142c 0.36 -0.03 1.2 0 1.53 0.06c 1.17 0.24 1.89 0.84 2.16 1.83c 0.06 0.18 0.06 0.3 0.06 0.66c 0 0.45 0 0.63 -0.15 1.08c -0.66 2.04 -3.06 3.93 -5.52 4.38c -0.54 0.09 -1.44 0.09 -1.83 0.03c -1.23 -0.27 -1.98 -0.87 -2.25 -1.86c -0.06 -0.18 -0.06 -0.3 -0.06 -0.66c 0 -0.45 0 -0.63 0.15 -1.08c 0.24 -0.78 0.75 -1.53 1.44 -2.22c 1.2 -1.2 2.85 -2.01 4.47 -2.22z"></path><text stroke="none" font-size="16" font-style="normal" font-family="&quot;Courier New&quot;" font-weight="normal" text-decoration="none" class="" text-anchor="middle" x="556.28" y="230.9" data-name="chord"><tspan x="556.28">G</tspan></text><line x1="560.8900000000001" x2="560.8900000000001" y1="238.28" y2="268.42" stroke="currentColor" stroke-width="0.6" class="abcjs-stem" data-name="stem"></line></g><g class="" fill="currentColor" stroke="none" data-name="note"><path data-name="A" d="M 584.8324819893674 269.017c 0.36 -0.03 1.2 0 1.53 0.06c 1.17 0.24 1.89 0.84 2.16 1.83c 0.06 0.18 0.06 0.3 0.06 0.66c 0 0.45 0 0.63 -0.15 1.08c -0.66 2.04 -3.06 3.93 -5.52 4.38c -0.54 0.09 -1.44 0.09 -1.83 0.03c -1.23 -0.27 -1.98 -0.87 -2.25 -1.86c -0.06 -0.18 -0.06 -0.3 -0.06 -0.66c 0 -0.45 0 -0.63 0.15 -1.08c 0.24 -0.78 0.75 -1.53 1.44 -2.22c 1.2 -1.2 2.85 -2.01 4.47 -2.22z"></path><line x1="588.25" x2="588.25" y1="242.07" y2="272.29" stroke="currentColor" stroke-width="0.6" class="abcjs-stem" data-name="stem"></line></g><g class="" fill="currentColor" stroke="none" data-name="note"><path data-name="G" d="M 612.1960810573638 272.892c 0.36 -0.03 1.2 0 1.53 0.06c 1.17 0.24 1.89 0.84 2.16 1.83c 0.06 0.18 0.06 0.3 0.06 0.66c 0 0.45 0 0.63 -0.15 1.08c -0.66 2.04 -3.06 3.93 -5.52 4.38c -0.54 0.09 -1.44 0.09 -1.83 0.03c -1.23 -0.27 -1.98 -0.87 -2.25 -1.86c -0.06 -0.18 -0.06 -0.3 -0.06 -0.66c 0 -0.45 0 -0.63 0.15 -1.08c 0.24 -0.78 0.75 -1.53 1.44 -2.22c 1.2 -1.2 2.85 -2.01 4.47 -2.22z"></path><line x1="615.42" x2="615.42" y1="249.82" y2="275.65" stroke="currentColor" stroke-width="1" class="abcjs-stem" data-name="stem"></line></g><g class="" fill="currentColor" stroke="none" data-name="bar"><line x1="645.0999999999999" x2="645.0999999999999" y1="284.69" y2="253.69" stroke="currentColor" stroke-width="0.6" data-name="bar"></line></g><g class="" fill="currentColor" stroke="none" data-name="note"><path data-name="A" d="M 670.114054165399 269.017c 0.51 -0.03 2.01 0 2.52 0.03c 1.41 0.18 2.64 0.51 3.72 1.08c 1.2 0.63 1.95 1.41 2.19 2.31c 0.09 0.33 0.09 0.9 0 1.23c -0.24 0.9 -0.99 1.68 -2.19 2.31c -1.08 0.57 -2.28 0.9 -3.75 1.08c -0.66 0.06 -2.31 0.06 -2.97 0c -1.47 -0.18 -2.67 -0.51 -3.75 -1.08c -1.2 -0.63 -1.95 -1.41 -2.19 -2.31c -0.09 -0.33 -0.09 -0.9 0 -1.23c 0.24 -0.9 0.99 -1.68 2.19 -2.31c 1.2 -0.63 2.61 -0.99 4.23 -1.11zm 0.57 0.66c -0.87 -0.15 -1.53 0 -2.04 0.51c -0.15 0.15 -0.24 0.27 -0.33 0.48c -0.24 0.51 -0.36 1.08 -0.33 1.77c 0.03 0.69 0.18 1.26 0.42 1.77c 0.6 1.17 1.74 1.98 3.18 2.22c 1.11 0.21 1.95 -0.15 2.34 -0.99c 0.24 -0.51 0.36 -1.08 0.33 -1.8c -0.06 -1.11 -0.45 -2.04 -1.17 -2.76c -0.63 -0.63 -1.47 -1.05 -2.4 -1.2z"></path><text stroke="none" font-size="16" font-style="normal" font-family="&quot;Courier New&quot;" font-weight="normal" text-decoration="none" class="" text-anchor="middle" x="671.1" y="230.9" data-name="chord"><tspan x="671.1">A</tspan></text></g><g class="" fill="currentColor" stroke="none" data-name="bar"><path data-name="dots.dot" d="M 742.3199999999998 263.637c 0.09 -0.03 0.27 -0.06 0.39 -0.06c 0.96 0 1.74 0.78 1.74 1.71c 0 0.96 -0.78 1.74 -1.71 1.74c -0.96 0 -1.74 -0.78 -1.74 -1.71c 0 -0.78 0.54 -1.5 1.32 -1.68z"></path><path data-name="dots.dot" d="M 742.3199999999998 271.387c 0.09 -0.03 0.27 -0.06 0.39 -0.06c 0.96 0 1.74 0.78 1.74 1.71c 0 0.96 -0.78 1.74 -1.71 1.74c -0.96 0 -1.74 -0.78 -1.74 -1.71c 0 -0.78 0.54 -1.5 1.32 -1.68z"></path><line x1="747.3" x2="747.3" y1="284.69" y2="253.69" stroke="currentColor" stroke-width="0.6" data-name="bar"></line><line x1="753" x2="753" y1="284.69" y2="253.69" stroke="currentColor" stroke-width="4" data-name="bar"></line></g><path d="M258.94 288.57 L341.63 292.44L341.63 288.56 L258.94 284.69z" stroke="none" fill="currentColor" class=""></path><path d="M441.92 300.19 L524.62 300.19L524.62 296.31 L441.92 296.31z" stroke="none" fill="currentColor" class=""></path><path d="M560.59 238.19 L588.55 242.07L588.55 245.94 L560.59 242.06z" stroke="none" fill="currentColor" class=""></path></g><g><g><line x1="15" x2="755" y1="359.1795" y2="359.1795" stroke="currentColor" stroke-width="0.7" class="abcjs-top-line"></line><line x1="15" x2="755" y1="366.9295" y2="366.9295" stroke="currentColor" stroke-width="0.7"></line><line x1="15" x2="755" y1="374.6795" y2="374.6795" stroke="currentColor" stroke-width="0.7"></line><line x1="15" x2="755" y1="382.4295" y2="382.4295" stroke="currentColor" stroke-width="0.7"></line><line x1="15" x2="755" y1="390.1795" y2="390.1795" stroke="currentColor" stroke-width="0.7"></line></g><g class="" fill="currentColor" stroke="none" data-name="staff-extra clef"><path data-name="clefs.G" d="M 29.689999999999998 344.84450000000004c 0.09 -0.09 0.24 -0.06 0.36 0c 0.12 0.09 0.57 0.6 0.96 1.11c 1.77 2.34 3.21 5.85 3.57 8.73c 0.21 1.56 0.03 3.27 -0.45 4.86c -0.69 2.31 -1.92 4.47 -4.23 7.44c -0.3 0.39 -0.57 0.72 -0.6 0.75c -0.03 0.06 0 0.15 0.18 0.78c 0.54 1.68 1.38 4.44 1.68 5.49l 0.09 0.42l 0.39 0c 1.47 0.09 2.76 0.51 3.96 1.29c 1.83 1.23 3.06 3.21 3.39 5.52c 0.09 0.45 0.12 1.29 0.06 1.74c -0.09 1.02 -0.33 1.83 -0.75 2.73c -0.84 1.71 -2.28 3.06 -4.02 3.72l -0.33 0.12l 0.03 1.26c 0 1.74 -0.06 3.63 -0.21 4.62c -0.45 3.06 -2.19 5.49 -4.47 6.21c -0.57 0.18 -0.9 0.21 -1.59 0.21c -0.69 0 -1.02 -0.03 -1.65 -0.21c -1.14 -0.27 -2.13 -0.84 -2.94 -1.65c -0.99 -0.99 -1.56 -2.16 -1.71 -3.54c -0.09 -0.81 0.06 -1.53 0.45 -2.13c 0.63 -0.99 1.83 -1.56 3 -1.53c 1.5 0.09 2.64 1.32 2.73 2.94c 0.06 1.47 -0.93 2.7 -2.37 2.97c -0.45 0.06 -0.84 0.03 -1.29 -0.09l -0.21 -0.09l 0.09 0.12c 0.39 0.54 0.78 0.93 1.32 1.26c 1.35 0.87 3.06 1.02 4.35 0.36c 1.44 -0.72 2.52 -2.28 2.97 -4.35c 0.15 -0.66 0.24 -1.5 0.3 -3.03c 0.03 -0.84 0.03 -2.94 0 -3c -0.03 0 -0.18 0 -0.36 0.03c -0.66 0.12 -0.99 0.12 -1.83 0.12c -1.05 0 -1.71 -0.06 -2.61 -0.3c -4.02 -0.99 -7.11 -4.35 -7.8 -8.46c -0.12 -0.66 -0.12 -0.99 -0.12 -1.83c 0 -0.84 0 -1.14 0.15 -1.92c 0.36 -2.28 1.41 -4.62 3.3 -7.29l 2.79 -3.6c 0.54 -0.66 0.96 -1.2 0.96 -1.23c 0 -0.03 -0.09 -0.33 -0.18 -0.69c -0.96 -3.21 -1.41 -5.28 -1.59 -7.68c -0.12 -1.38 -0.15 -3.09 -0.06 -3.96c 0.33 -2.67 1.38 -5.07 3.12 -7.08c 0.36 -0.42 0.99 -1.05 1.17 -1.14zm 2.01 4.71c -0.15 -0.3 -0.3 -0.54 -0.3 -0.54c -0.03 0 -0.18 0.09 -0.3 0.21c -2.4 1.74 -3.87 4.2 -4.26 7.11c -0.06 0.54 -0.06 1.41 -0.03 1.89c 0.09 1.29 0.48 3.12 1.08 5.22c 0.15 0.42 0.24 0.78 0.24 0.81c 0 0.03 0.84 -1.11 1.23 -1.68c 1.89 -2.73 2.88 -5.07 3.15 -7.53c 0.09 -0.57 0.12 -1.74 0.06 -2.37c -0.09 -1.23 -0.27 -1.92 -0.87 -3.12zm -2.94 20.7c -0.21 -0.72 -0.39 -1.32 -0.42 -1.32c 0 0 -1.2 1.47 -1.86 2.37c -2.79 3.63 -4.02 6.3 -4.35 9.3c -0.03 0.21 -0.03 0.69 -0.03 1.08c 0 0.69 0 0.75 0.06 1.11c 0.12 0.54 0.27 0.99 0.51 1.47c 0.69 1.38 1.83 2.55 3.42 3.42c 0.96 0.54 2.07 0.9 3.21 1.08c 0.78 0.12 2.04 0.12 2.94 -0.03c 0.51 -0.06 0.45 -0.03 0.42 -0.3c -0.24 -3.33 -0.72 -6.33 -1.62 -10.08c -0.09 -0.39 -0.18 -0.75 -0.18 -0.78c -0.03 -0.03 -0.42 0 -0.81 0.09c -0.9 0.18 -1.65 0.57 -2.22 1.14c -0.72 0.72 -1.08 1.65 -1.05 2.64c 0.06 0.96 0.48 1.83 1.23 2.58c 0.36 0.36 0.72 0.63 1.17 0.9c 0.33 0.18 0.36 0.21 0.42 0.33c 0.18 0.42 -0.18 0.9 -0.6 0.87c -0.18 -0.03 -0.84 -0.36 -1.26 -0.63c -0.78 -0.51 -1.38 -1.11 -1.86 -1.83c -1.77 -2.7 -0.99 -6.42 1.71 -8.19c 0.3 -0.21 0.81 -0.48 1.17 -0.63c 0.3 -0.09 1.02 -0.3 1.14 -0.3c 0.06 0 0.09 0 0.09 -0.03c 0.03 -0.03 -0.51 -1.92 -1.23 -4.26zm 3.78 7.41c -0.18 -0.03 -0.36 -0.06 -0.39 -0.06c -0.03 0 0 0.21 0.18 1.02c 0.75 3.18 1.26 6.3 1.5 9.09c 0.06 0.72 0 0.69 0.51 0.42c 0.78 -0.36 1.44 -0.96 1.98 -1.77c 1.08 -1.62 1.2 -3.69 0.3 -5.55c -0.81 -1.62 -2.31 -2.79 -4.08 -3.15z"></path></g><g class="" fill="currentColor" stroke="none" data-name="staff-extra key-signature"><path data-name="accidentals.sharp" d="M 54.781000000000006 347.8145c 0.21 -0.12 0.54 -0.03 0.66 0.24c 0.06 0.12 0.06 0.21 0.06 2.31c 0 1.23 0 2.22 0.03 2.22c 0 0 0.27 -0.12 0.6 -0.24c 0.69 -0.27 0.78 -0.3 0.96 -0.15c 0.21 0.15 0.21 0.18 0.21 1.38c 0 1.02 0 1.11 -0.06 1.2c -0.03 0.06 -0.09 0.12 -0.12 0.15c -0.06 0.03 -0.42 0.21 -0.84 0.36l -0.75 0.33l -0.03 2.43c 0 1.32 0 2.43 0.03 2.43c 0 0 0.27 -0.12 0.6 -0.24c 0.69 -0.27 0.78 -0.3 0.96 -0.15c 0.21 0.15 0.21 0.18 0.21 1.38c 0 1.02 0 1.11 -0.06 1.2c -0.03 0.06 -0.09 0.12 -0.12 0.15c -0.06 0.03 -0.42 0.21 -0.84 0.36l -0.75 0.33l -0.03 2.52c 0 2.28 -0.03 2.55 -0.06 2.64c -0.21 0.36 -0.72 0.36 -0.93 0c -0.03 -0.09 -0.06 -0.33 -0.06 -2.43l 0 -2.31l -1.29 0.51l -1.26 0.51l 0 2.43c 0 2.58 0 2.52 -0.15 2.67c -0.06 0.09 -0.27 0.18 -0.36 0.18c -0.12 0 -0.33 -0.09 -0.39 -0.18c -0.15 -0.15 -0.15 -0.09 -0.15 -2.43c 0 -1.23 0 -2.22 -0.03 -2.22c 0 0 -0.27 0.12 -0.6 0.24c -0.69 0.27 -0.78 0.3 -0.96 0.15c -0.21 -0.15 -0.21 -0.18 -0.21 -1.38c 0 -1.02 0 -1.11 0.06 -1.2c 0.03 -0.06 0.09 -0.12 0.12 -0.15c 0.06 -0.03 0.42 -0.21 0.84 -0.36l 0.78 -0.33l 0 -2.43c 0 -1.32 0 -2.43 -0.03 -2.43c 0 0 -0.27 0.12 -0.6 0.24c -0.69 0.27 -0.78 0.3 -0.96 0.15c -0.21 -0.15 -0.21 -0.18 -0.21 -1.38c 0 -1.02 0 -1.11 0.06 -1.2c 0.03 -0.06 0.09 -0.12 0.12 -0.15c 0.06 -0.03 0.42 -0.21 0.84 -0.36l 0.78 -0.33l 0 -2.52c 0 -2.28 0.03 -2.55 0.06 -2.64c 0.21 -0.36 0.72 -0.36 0.93 0c 0.03 0.09 0.06 0.33 0.06 2.43l 0.03 2.31l 1.26 -0.51l 1.26 -0.51l 0 -2.43c 0 -2.28 0 -2.43 0.06 -2.55c 0.06 -0.12 0.12 -0.18 0.27 -0.24zm -0.33 10.65l 0 -2.43l -1.29 0.51l -1.26 0.51l 0 2.46l 0 2.43l 0.09 -0.03c 0.06 -0.03 0.63 -0.27 1.29 -0.51l 1.17 -0.48l 0 -2.46z"></path><path data-name="accidentals.sharp" d="M 65.031 359.4395c 0.21 -0.12 0.54 -0.03 0.66 0.24c 0.06 0.12 0.06 0.21 0.06 2.31c 0 1.23 0 2.22 0.03 2.22c 0 0 0.27 -0.12 0.6 -0.24c 0.69 -0.27 0.78 -0.3 0.96 -0.15c 0.21 0.15 0.21 0.18 0.21 1.38c 0 1.02 0 1.11 -0.06 1.2c -0.03 0.06 -0.09 0.12 -0.12 0.15c -0.06 0.03 -0.42 0.21 -0.84 0.36l -0.75 0.33l -0.03 2.43c 0 1.32 0 2.43 0.03 2.43c 0 0 0.27 -0.12 0.6 -0.24c 0.69 -0.27 0.78 -0.3 0.96 -0.15c 0.21 0.15 0.21 0.18 0.21 1.38c 0 1.02 0 1.11 -0.06 1.2c -0.03 0.06 -0.09 0.12 -0.12 0.15c -0.06 0.03 -0.42 0.21 -0.84 0.36l -0.75 0.33l -0.03 2.52c 0 2.28 -0.03 2.55 -0.06 2.64c -0.21 0.36 -0.72 0.36 -0.93 0c -0.03 -0.09 -0.06 -0.33 -0.06 -2.43l 0 -2.31l -1.29 0.51l -1.26 0.51l 0 2.43c 0 2.58 0 2.52 -0.15 2.67c -0.06 0.09 -0.27 0.18 -0.36 0.18c -0.12 0 -0.33 -0.09 -0.39 -0.18c -0.15 -0.15 -0.15 -0.09 -0.15 -2.43c 0 -1.23 0 -2.22 -0.03 -2.22c 0 0 -0.27 0.12 -0.6 0.24c -0.69 0.27 -0.78 0.3 -0.96 0.15c -0.21 -0.15 -0.21 -0.18 -0.21 -1.38c 0 -1.02 0 -1.11 0.06 -1.2c 0.03 -0.06 0.09 -0.12 0.12 -0.15c 0.06 -0.03 0.42 -0.21 0.84 -0.36l 0.78 -0.33l 0 -2.43c 0 -1.32 0 -2.43 -0.03 -2.43c 0 0 -0.27 0.12 -0.6 0.24c -0.69 0.27 -0.78 0.3 -0.96 0.15c -0.21 -0.15 -0.21 -0.18 -0.21 -1.38c 0 -1.02 0 -1.11 0.06 -1.2c 0.03 -0.06 0.09 -0.12 0.12 -0.15c 0.06 -0.03 0.42 -0.21 0.84 -0.36l 0.78 -0.33l 0 -2.52c 0 -2.28 0.03 -2.55 0.06 -2.64c 0.21 -0.36 0.72 -0.36 0.93 0c 0.03 0.09 0.06 0.33 0.06 2.43l 0.03 2.31l 1.26 -0.51l 1.26 -0.51l 0 -2.43c 0 -2.28 0 -2.43 0.06 -2.55c 0.06 -0.12 0.12 -0.18 0.27 -0.24zm -0.33 10.65l 0 -2.43l -1.29 0.51l -1.26 0.51l 0 2.46l 0 2.43l 0.09 -0.03c 0.06 -0.03 0.63 -0.27 1.29 -0.51l 1.17 -0.48l 0 -2.46z"></path></g><g class="" fill="currentColor" stroke="none" data-name="part"><text stroke="none" font-size="17" font-style="normal" font-family="Helvetica" font-weight="normal" text-decoration="none" class="" text-anchor="start" x="77.55" y="315.25" data-name="B-part"><tspan x="77.55">B-part</tspan></text></g><g class="" fill="currentColor" stroke="none" data-name="note"><path data-name="A" d="M 91.44100019073487 374.3295c 0.36 -0.03 1.2 0 1.53 0.06c 1.17 0.24 1.89 0.84 2.16 1.83c 0.06 0.18 0.06 0.3 0.06 0.66c 0 0.45 0 0.63 -0.15 1.08c -0.66 2.04 -3.06 3.93 -5.52 4.38c -0.54 0.09 -1.44 0.09 -1.83 0.03c -1.23 -0.27 -1.98 -0.87 -2.25 -1.86c -0.06 -0.18 -0.06 -0.3 -0.06 -0.66c 0 -0.45 0 -0.63 0.15 -1.08c 0.24 -0.78 0.75 -1.53 1.44 -2.22c 1.2 -1.2 2.85 -2.01 4.47 -2.22z"></path><line x1="94.66" x2="94.66" y1="351.25" y2="377.09" stroke="currentColor" stroke-width="1" class="abcjs-stem" data-name="stem"></line><text stroke="none" font-size="16" font-style="normal" font-family="&quot;Courier New&quot;" font-weight="normal" text-decoration="none" class="" text-anchor="middle" x="90.26" y="336.13" data-name="chord"><tspan x="90.26">A</tspan></text></g><g class="" fill="currentColor" stroke="none" data-name="note"><path data-name="A" d="M 126.803094872701 374.3295c 0.36 -0.03 1.2 0 1.53 0.06c 1.17 0.24 1.89 0.84 2.16 1.83c 0.06 0.18 0.06 0.3 0.06 0.66c 0 0.45 0 0.63 -0.15 1.08c -0.66 2.04 -3.06 3.93 -5.52 4.38c -0.54 0.09 -1.44 0.09 -1.83 0.03c -1.23 -0.27 -1.98 -0.87 -2.25 -1.86c -0.06 -0.18 -0.06 -0.3 -0.06 -0.66c 0 -0.45 0 -0.63 0.15 -1.08c 0.24 -0.78 0.75 -1.53 1.44 -2.22c 1.2 -1.2 2.85 -2.01 4.47 -2.22z"></path><line x1="130.22" x2="130.22" y1="347.29" y2="377.6" stroke="currentColor" stroke-width="0.6" class="abcjs-stem" data-name="stem"></line></g><g class="" fill="currentColor" stroke="none" data-name="note"><path data-name="B" d="M 151.80787181928 370.4545c 0.36 -0.03 1.2 0 1.53 0.06c 1.17 0.24 1.89 0.84 2.16 1.83c 0.06 0.18 0.06 0.3 0.06 0.66c 0 0.45 0 0.63 -0.15 1.08c -0.66 2.04 -3.06 3.93 -5.52 4.38c -0.54 0.09 -1.44 0.09 -1.83 0.03c -1.23 -0.27 -1.98 -0.87 -2.25 -1.86c -0.06 -0.18 -0.06 -0.3 -0.06 -0.66c 0 -0.45 0 -0.63 0.15 -1.08c 0.24 -0.78 0.75 -1.53 1.44 -2.22c 1.2 -1.2 2.85 -2.01 4.47 -2.22z"></path><line x1="155.23" x2="155.23" y1="343.5" y2="373.73" stroke="currentColor" stroke-width="0.6" class="abcjs-stem" data-name="stem"></line></g><g class="" fill="currentColor" stroke="none" data-name="note"><path data-name="c" d="M 176.812648765859 366.5795c 0.36 -0.03 1.2 0 1.53 0.06c 1.17 0.24 1.89 0.84 2.16 1.83c 0.06 0.18 0.06 0.3 0.06 0.66c 0 0.45 0 0.63 -0.15 1.08c -0.66 2.04 -3.06 3.93 -5.52 4.38c -0.54 0.09 -1.44 0.09 -1.83 0.03c -1.23 -0.27 -1.98 -0.87 -2.25 -1.86c -0.06 -0.18 -0.06 -0.3 -0.06 -0.66c 0 -0.45 0 -0.63 0.15 -1.08c 0.24 -0.78 0.75 -1.53 1.44 -2.22c 1.2 -1.2 2.85 -2.01 4.47 -2.22z"></path><line x1="171.02" x2="171.02" y1="403.57" y2="371.4" stroke="currentColor" stroke-width="0.6" class="abcjs-stem" data-name="stem"></line></g><g class="" fill="currentColor" stroke="none" data-name="note"><path data-name="B" d="M 201.817425712438 370.4545c 0.36 -0.03 1.2 0 1.53 0.06c 1.17 0.24 1.89 0.84 2.16 1.83c 0.06 0.18 0.06 0.3 0.06 0.66c 0 0.45 0 0.63 -0.15 1.08c -0.66 2.04 -3.06 3.93 -5.52 4.38c -0.54 0.09 -1.44 0.09 -1.83 0.03c -1.23 -0.27 -1.98 -0.87 -2.25 -1.86c -0.06 -0.18 -0.06 -0.3 -0.06 -0.66c 0 -0.45 0 -0.63 0.15 -1.08c 0.24 -0.78 0.75 -1.53 1.44 -2.22c 1.2 -1.2 2.85 -2.01 4.47 -2.22z"></path><line x1="196.03" x2="196.03" y1="402.29" y2="375.28" stroke="currentColor" stroke-width="0.6" class="abcjs-stem" data-name="stem"></line></g><g class="" fill="currentColor" stroke="none" data-name="note"><path data-name="c" d="M 226.822202659017 366.5795c 0.36 -0.03 1.2 0 1.53 0.06c 1.17 0.24 1.89 0.84 2.16 1.83c 0.06 0.18 0.06 0.3 0.06 0.66c 0 0.45 0 0.63 -0.15 1.08c -0.66 2.04 -3.06 3.93 -5.52 4.38c -0.54 0.09 -1.44 0.09 -1.83 0.03c -1.23 -0.27 -1.98 -0.87 -2.25 -1.86c -0.06 -0.18 -0.06 -0.3 -0.06 -0.66c 0 -0.45 0 -0.63 0.15 -1.08c 0.24 -0.78 0.75 -1.53 1.44 -2.22c 1.2 -1.2 2.85 -2.01 4.47 -2.22z"></path><line x1="221.03" x2="221.03" y1="401" y2="371.4" stroke="currentColor" stroke-width="0.6" class="abcjs-stem" data-name="stem"></line></g><g class="" fill="currentColor" stroke="none" data-name="note"><path data-name="d" d="M 251.826979605596 362.7045c 0.36 -0.03 1.2 0 1.53 0.06c 1.17 0.24 1.89 0.84 2.16 1.83c 0.06 0.18 0.06 0.3 0.06 0.66c 0 0.45 0 0.63 -0.15 1.08c -0.66 2.04 -3.06 3.93 -5.52 4.38c -0.54 0.09 -1.44 0.09 -1.83 0.03c -1.23 -0.27 -1.98 -0.87 -2.25 -1.86c -0.06 -0.18 -0.06 -0.3 -0.06 -0.66c 0 -0.45 0 -0.63 0.15 -1.08c 0.24 -0.78 0.75 -1.53 1.44 -2.22c 1.2 -1.2 2.85 -2.01 4.47 -2.22z"></path><line x1="246.04000000000002" x2="246.04000000000002" y1="399.72" y2="367.53" stroke="currentColor" stroke-width="0.6" class="abcjs-stem" data-name="stem"></line></g><g class="" fill="currentColor" stroke="none" data-name="bar"><line x1="271.04" x2="271.04" y1="390" y2="359" stroke="currentColor" stroke-width="0.6" data-name="bar"></line></g><g class="" fill="currentColor" stroke="none" data-name="note"><path data-name="e" d="M 295.63175674290983 358.8295c 0.36 -0.03 1.2 0 1.53 0.06c 1.17 0.24 1.89 0.84 2.16 1.83c 0.06 0.18 0.06 0.3 0.06 0.66c 0 0.45 0 0.63 -0.15 1.08c -0.66 2.04 -3.06 3.93 -5.52 4.38c -0.54 0.09 -1.44 0.09 -1.83 0.03c -1.23 -0.27 -1.98 -0.87 -2.25 -1.86c -0.06 -0.18 -0.06 -0.3 -0.06 -0.66c 0 -0.45 0 -0.63 0.15 -1.08c 0.24 -0.78 0.75 -1.53 1.44 -2.22c 1.2 -1.2 2.85 -2.01 4.47 -2.22z"></path><text stroke="none" font-size="16" font-style="normal" font-family="&quot;Courier New&quot;" font-weight="normal" text-decoration="none" class="" text-anchor="middle" x="294.45" y="336.13" data-name="chord"><tspan x="294.45">A</tspan></text><line x1="289.84000000000003" x2="289.84000000000003" y1="391.94" y2="363.65" stroke="currentColor" stroke-width="0.6" class="abcjs-stem" data-name="stem"></line></g><g class="" fill="currentColor" stroke="none" data-name="note"><path data-name="f" d="M 320.63653368948883 354.9545c 0.36 -0.03 1.2 0 1.53 0.06c 1.17 0.24 1.89 0.84 2.16 1.83c 0.06 0.18 0.06 0.3 0.06 0.66c 0 0.45 0 0.63 -0.15 1.08c -0.66 2.04 -3.06 3.93 -5.52 4.38c -0.54 0.09 -1.44 0.09 -1.83 0.03c -1.23 -0.27 -1.98 -0.87 -2.25 -1.86c -0.06 -0.18 -0.06 -0.3 -0.06 -0.66c 0 -0.45 0 -0.63 0.15 -1.08c 0.24 -0.78 0.75 -1.53 1.44 -2.22c 1.2 -1.2 2.85 -2.01 4.47 -2.22z"></path><line x1="314.85" x2="314.85" y1="393.22" y2="359.78" stroke="currentColor" stroke-width="0.6" class="abcjs-stem" data-name="stem"></line></g><g class="" fill="currentColor" stroke="none" data-name="note"><path data-name="e" d="M 345.64131063606783 358.8295c 0.36 -0.03 1.2 0 1.53 0.06c 1.17 0.24 1.89 0.84 2.16 1.83c 0.06 0.18 0.06 0.3 0.06 0.66c 0 0.45 0 0.63 -0.15 1.08c -0.66 2.04 -3.06 3.93 -5.52 4.38c -0.54 0.09 -1.44 0.09 -1.83 0.03c -1.23 -0.27 -1.98 -0.87 -2.25 -1.86c -0.06 -0.18 -0.06 -0.3 -0.06 -0.66c 0 -0.45 0 -0.63 0.15 -1.08c 0.24 -0.78 0.75 -1.53 1.44 -2.22c 1.2 -1.2 2.85 -2.01 4.47 -2.22z"></path><line x1="339.85" x2="339.85" y1="394.5" y2="363.65" stroke="currentColor" stroke-width="0.6" class="abcjs-stem" data-name="stem"></line></g><g class="" fill="currentColor" stroke="none" data-name="note"><path data-name="d" d="M 370.6460875826468 362.7045c 0.36 -0.03 1.2 0 1.53 0.06c 1.17 0.24 1.89 0.84 2.16 1.83c 0.06 0.18 0.06 0.3 0.06 0.66c 0 0.45 0 0.63 -0.15 1.08c -0.66 2.04 -3.06 3.93 -5.52 4.38c -0.54 0.09 -1.44 0.09 -1.83 0.03c -1.23 -0.27 -1.98 -0.87 -2.25 -1.86c -0.06 -0.18 -0.06 -0.3 -0.06 -0.66c 0 -0.45 0 -0.63 0.15 -1.08c 0.24 -0.78 0.75 -1.53 1.44 -2.22c 1.2 -1.2 2.85 -2.01 4.47 -2.22z"></path><line x1="364.86" x2="364.86" y1="395.79" y2="367.53" stroke="currentColor" stroke-width="0.6" class="abcjs-stem" data-name="stem"></line></g><g class="" fill="currentColor" stroke="none" data-name="note"><path data-name="c" d="M 395.6508645292258 366.5795c 0.36 -0.03 1.2 0 1.53 0.06c 1.17 0.24 1.89 0.84 2.16 1.83c 0.06 0.18 0.06 0.3 0.06 0.66c 0 0.45 0 0.63 -0.15 1.08c -0.66 2.04 -3.06 3.93 -5.52 4.38c -0.54 0.09 -1.44 0.09 -1.83 0.03c -1.23 -0.27 -1.98 -0.87 -2.25 -1.86c -0.06 -0.18 -0.06 -0.3 -0.06 -0.66c 0 -0.45 0 -0.63 0.15 -1.08c 0.24 -0.78 0.75 -1.53 1.44 -2.22c 1.2 -1.2 2.85 -2.01 4.47 -2.22z"></path><line x1="389.86" x2="389.86" y1="399.69" y2="371.4" stroke="currentColor" stroke-width="0.6" class="abcjs-stem" data-name="stem"></line></g><g class="" fill="currentColor" stroke="none" data-name="note"><path data-name="B" d="M 420.6556414758048 370.4545c 0.36 -0.03 1.2 0 1.53 0.06c 1.17 0.24 1.89 0.84 2.16 1.83c 0.06 0.18 0.06 0.3 0.06 0.66c 0 0.45 0 0.63 -0.15 1.08c -0.66 2.04 -3.06 3.93 -5.52 4.38c -0.54 0.09 -1.44 0.09 -1.83 0.03c -1.23 -0.27 -1.98 -0.87 -2.25 -1.86c -0.06 -0.18 -0.06 -0.3 -0.06 -0.66c 0 -0.45 0 -0.63 0.15 -1.08c 0.24 -0.78 0.75 -1.53 1.44 -2.22c 1.2 -1.2 2.85 -2.01 4.47 -2.22z"></path><line x1="414.87" x2="414.87" y1="403.48" y2="375.28" stroke="currentColor" stroke-width="0.6" class="abcjs-stem" data-name="stem"></line></g><g class="" fill="currentColor" stroke="none" data-name="note"><path data-name="A" d="M 445.6604184223838 374.3295c 0.36 -0.03 1.2 0 1.53 0.06c 1.17 0.24 1.89 0.84 2.16 1.83c 0.06 0.18 0.06 0.3 0.06 0.66c 0 0.45 0 0.63 -0.15 1.08c -0.66 2.04 -3.06 3.93 -5.52 4.38c -0.54 0.09 -1.44 0.09 -1.83 0.03c -1.23 -0.27 -1.98 -0.87 -2.25 -1.86c -0.06 -0.18 -0.06 -0.3 -0.06 -0.66c 0 -0.45 0 -0.63 0.15 -1.08c 0.24 -0.78 0.75 -1.53 1.44 -2.22c 1.2 -1.2 2.85 -2.01 4.47 -2.22z"></path><line x1="448.88" x2="448.88" y1="351.25" y2="377.09" stroke="currentColor" stroke-width="1" class="abcjs-stem" data-name="stem"></line></g><g class="" fill="currentColor" stroke="none" data-name="bar"><line x1="475.23" x2="475.23" y1="390" y2="359" stroke="currentColor" stroke-width="0.6" data-name="bar"></line></g><g class="" fill="currentColor" stroke="none" data-name="note"><path data-name="A" d="M 499.82251329508483 374.3295c 0.36 -0.03 1.2 0 1.53 0.06c 1.17 0.24 1.89 0.84 2.16 1.83c 0.06 0.18 0.06 0.3 0.06 0.66c 0 0.45 0 0.63 -0.15 1.08c -0.66 2.04 -3.06 3.93 -5.52 4.38c -0.54 0.09 -1.44 0.09 -1.83 0.03c -1.23 -0.27 -1.98 -0.87 -2.25 -1.86c -0.06 -0.18 -0.06 -0.3 -0.06 -0.66c 0 -0.45 0 -0.63 0.15 -1.08c 0.24 -0.78 0.75 -1.53 1.44 -2.22c 1.2 -1.2 2.85 -2.01 4.47 -2.22z"></path><line x1="503.04" x2="503.04" y1="351.25" y2="377.09" stroke="currentColor" stroke-width="1" class="abcjs-stem" data-name="stem"></line><text stroke="none" font-size="16" font-style="normal" font-family="&quot;Courier New&quot;" font-weight="normal" text-decoration="none" class="" text-anchor="middle" x="498.64" y="336.13" data-name="chord"><tspan x="498.64">A</tspan></text></g><g class="" fill="currentColor" stroke="none" data-name="note"><path data-name="A" d="M 535.184607977051 374.3295c 0.36 -0.03 1.2 0 1.53 0.06c 1.17 0.24 1.89 0.84 2.16 1.83c 0.06 0.18 0.06 0.3 0.06 0.66c 0 0.45 0 0.63 -0.15 1.08c -0.66 2.04 -3.06 3.93 -5.52 4.38c -0.54 0.09 -1.44 0.09 -1.83 0.03c -1.23 -0.27 -1.98 -0.87 -2.25 -1.86c -0.06 -0.18 -0.06 -0.3 -0.06 -0.66c 0 -0.45 0 -0.63 0.15 -1.08c 0.24 -0.78 0.75 -1.53 1.44 -2.22c 1.2 -1.2 2.85 -2.01 4.47 -2.22z"></path><line x1="538.6" x2="538.6" y1="347.29" y2="377.6" stroke="currentColor" stroke-width="0.6" class="abcjs-stem" data-name="stem"></line></g><g class="" fill="currentColor" stroke="none" data-name="note"><path data-name="B" d="M 560.18938492363 370.4545c 0.36 -0.03 1.2 0 1.53 0.06c 1.17 0.24 1.89 0.84 2.16 1.83c 0.06 0.18 0.06 0.3 0.06 0.66c 0 0.45 0 0.63 -0.15 1.08c -0.66 2.04 -3.06 3.93 -5.52 4.38c -0.54 0.09 -1.44 0.09 -1.83 0.03c -1.23 -0.27 -1.98 -0.87 -2.25 -1.86c -0.06 -0.18 -0.06 -0.3 -0.06 -0.66c 0 -0.45 0 -0.63 0.15 -1.08c 0.24 -0.78 0.75 -1.53 1.44 -2.22c 1.2 -1.2 2.85 -2.01 4.47 -2.22z"></path><line x1="563.61" x2="563.61" y1="343.5" y2="373.73" stroke="currentColor" stroke-width="0.6" class="abcjs-stem" data-name="stem"></line></g><g class="" fill="currentColor" stroke="none" data-name="note"><path data-name="c" d="M 585.194161870209 366.5795c 0.36 -0.03 1.2 0 1.53 0.06c 1.17 0.24 1.89 0.84 2.16 1.83c 0.06 0.18 0.06 0.3 0.06 0.66c 0 0.45 0 0.63 -0.15 1.08c -0.66 2.04 -3.06 3.93 -5.52 4.38c -0.54 0.09 -1.44 0.09 -1.83 0.03c -1.23 -0.27 -1.98 -0.87 -2.25 -1.86c -0.06 -0.18 -0.06 -0.3 -0.06 -0.66c 0 -0.45 0 -0.63 0.15 -1.08c 0.24 -0.78 0.75 -1.53 1.44 -2.22c 1.2 -1.2 2.85 -2.01 4.47 -2.22z"></path><line x1="579.4" x2="579.4" y1="399.69" y2="371.4" stroke="currentColor" stroke-width="0.6" class="abcjs-stem" data-name="stem"></line></g><g class="" fill="currentColor" stroke="none" data-name="note"><path data-name="B" d="M 610.198938816788 370.4545c 0.36 -0.03 1.2 0 1.53 0.06c 1.17 0.24 1.89 0.84 2.16 1.83c 0.06 0.18 0.06 0.3 0.06 0.66c 0 0.45 0 0.63 -0.15 1.08c -0.66 2.04 -3.06 3.93 -5.52 4.38c -0.54 0.09 -1.44 0.09 -1.83 0.03c -1.23 -0.27 -1.98 -0.87 -2.25 -1.86c -0.06 -0.18 -0.06 -0.3 -0.06 -0.66c 0 -0.45 0 -0.63 0.15 -1.08c 0.24 -0.78 0.75 -1.53 1.44 -2.22c 1.2 -1.2 2.85 -2.01 4.47 -2.22z"></path><line x1="604.41" x2="604.41" y1="403.48" y2="375.28" stroke="currentColor" stroke-width="0.6" class="abcjs-stem" data-name="stem"></line></g><g class="" fill="currentColor" stroke="none" data-name="note"><path data-name="A" d="M 635.203715763367 374.3295c 0.36 -0.03 1.2 0 1.53 0.06c 1.17 0.24 1.89 0.84 2.16 1.83c 0.06 0.18 0.06 0.3 0.06 0.66c 0 0.45 0 0.63 -0.15 1.08c -0.66 2.04 -3.06 3.93 -5.52 4.38c -0.54 0.09 -1.44 0.09 -1.83 0.03c -1.23 -0.27 -1.98 -0.87 -2.25 -1.86c -0.06 -0.18 -0.06 -0.3 -0.06 -0.66c 0 -0.45 0 -0.63 0.15 -1.08c 0.24 -0.78 0.75 -1.53 1.44 -2.22c 1.2 -1.2 2.85 -2.01 4.47 -2.22z"></path><line x1="638.42" x2="638.42" y1="351.25" y2="377.09" stroke="currentColor" stroke-width="1" class="abcjs-stem" data-name="stem"></line></g><g class="" fill="currentColor" stroke="none" data-name="bar"><line x1="664.78" x2="664.78" y1="390" y2="359" stroke="currentColor" stroke-width="0.6" data-name="bar"></line></g><g class="" fill="currentColor" stroke="none" data-name="note"><path data-name="G" d="M 689.7858106360679 378.2045c 0.51 -0.03 2.01 0 2.52 0.03c 1.41 0.18 2.64 0.51 3.72 1.08c 1.2 0.63 1.95 1.41 2.19 2.31c 0.09 0.33 0.09 0.9 0 1.23c -0.24 0.9 -0.99 1.68 -2.19 2.31c -1.08 0.57 -2.28 0.9 -3.75 1.08c -0.66 0.06 -2.31 0.06 -2.97 0c -1.47 -0.18 -2.67 -0.51 -3.75 -1.08c -1.2 -0.63 -1.95 -1.41 -2.19 -2.31c -0.09 -0.33 -0.09 -0.9 0 -1.23c 0.24 -0.9 0.99 -1.68 2.19 -2.31c 1.2 -0.63 2.61 -0.99 4.23 -1.11zm 0.57 0.66c -0.87 -0.15 -1.53 0 -2.04 0.51c -0.15 0.15 -0.24 0.27 -0.33 0.48c -0.24 0.51 -0.36 1.08 -0.33 1.77c 0.03 0.69 0.18 1.26 0.42 1.77c 0.6 1.17 1.74 1.98 3.18 2.22c 1.11 0.21 1.95 -0.15 2.34 -0.99c 0.24 -0.51 0.36 -1.08 0.33 -1.8c -0.06 -1.11 -0.45 -2.04 -1.17 -2.76c -0.63 -0.63 -1.47 -1.05 -2.4 -1.2z"></path><text stroke="none" font-size="16" font-style="normal" font-family="&quot;Courier New&quot;" font-weight="normal" text-decoration="none" class="" text-anchor="middle" x="690.77" y="336.13" data-name="chord"><tspan x="690.77">G</tspan></text></g><g class="" fill="currentColor" stroke="none" data-name="bar"><line x1="754.3" x2="754.3" y1="390" y2="359" stroke="currentColor" stroke-width="0.6" data-name="bar"></line></g><path d="M129.92 347.38 L155.53 343.5L155.53 347.38 L129.92 351.25z" stroke="none" fill="currentColor" class=""></path><path d="M170.72 405.5 L246.34 401.63L246.34 397.75 L170.72 401.63z" stroke="none" fill="currentColor" class=""></path><path d="M289.54 393.88 L365.16 397.75L365.16 393.88 L289.54 390z" stroke="none" fill="currentColor" class=""></path><path d="M389.56 401.63 L415.17 405.5L415.17 401.63 L389.56 397.75z" stroke="none" fill="currentColor" class=""></path><path d="M538.3 347.38 L563.91 343.5L563.91 347.38 L538.3 351.25z" stroke="none" fill="currentColor" class=""></path><path d="M579.1 401.63 L604.71 405.5L604.71 401.63 L579.1 397.75z" stroke="none" fill="currentColor" class=""></path></g><g><g><line x1="15" x2="755" y1="451.5095" y2="451.5095" stroke="currentColor" stroke-width="0.7" class="abcjs-top-line"></line><line x1="15" x2="755" y1="459.2595" y2="459.2595" stroke="currentColor" stroke-width="0.7"></line><line x1="15" x2="755" y1="467.0095" y2="467.0095" stroke="currentColor" stroke-width="0.7"></line><line x1="15" x2="755" y1="474.7595" y2="474.7595" stroke="currentColor" stroke-width="0.7"></line><line x1="15" x2="755" y1="482.5095" y2="482.5095" stroke="currentColor" stroke-width="0.7"></line></g><g class="" fill="currentColor" stroke="none" data-name="staff-extra clef"><path data-name="clefs.G" d="M 29.689999999999998 437.17449999999997c 0.09 -0.09 0.24 -0.06 0.36 0c 0.12 0.09 0.57 0.6 0.96 1.11c 1.77 2.34 3.21 5.85 3.57 8.73c 0.21 1.56 0.03 3.27 -0.45 4.86c -0.69 2.31 -1.92 4.47 -4.23 7.44c -0.3 0.39 -0.57 0.72 -0.6 0.75c -0.03 0.06 0 0.15 0.18 0.78c 0.54 1.68 1.38 4.44 1.68 5.49l 0.09 0.42l 0.39 0c 1.47 0.09 2.76 0.51 3.96 1.29c 1.83 1.23 3.06 3.21 3.39 5.52c 0.09 0.45 0.12 1.29 0.06 1.74c -0.09 1.02 -0.33 1.83 -0.75 2.73c -0.84 1.71 -2.28 3.06 -4.02 3.72l -0.33 0.12l 0.03 1.26c 0 1.74 -0.06 3.63 -0.21 4.62c -0.45 3.06 -2.19 5.49 -4.47 6.21c -0.57 0.18 -0.9 0.21 -1.59 0.21c -0.69 0 -1.02 -0.03 -1.65 -0.21c -1.14 -0.27 -2.13 -0.84 -2.94 -1.65c -0.99 -0.99 -1.56 -2.16 -1.71 -3.54c -0.09 -0.81 0.06 -1.53 0.45 -2.13c 0.63 -0.99 1.83 -1.56 3 -1.53c 1.5 0.09 2.64 1.32 2.73 2.94c 0.06 1.47 -0.93 2.7 -2.37 2.97c -0.45 0.06 -0.84 0.03 -1.29 -0.09l -0.21 -0.09l 0.09 0.12c 0.39 0.54 0.78 0.93 1.32 1.26c 1.35 0.87 3.06 1.02 4.35 0.36c 1.44 -0.72 2.52 -2.28 2.97 -4.35c 0.15 -0.66 0.24 -1.5 0.3 -3.03c 0.03 -0.84 0.03 -2.94 0 -3c -0.03 0 -0.18 0 -0.36 0.03c -0.66 0.12 -0.99 0.12 -1.83 0.12c -1.05 0 -1.71 -0.06 -2.61 -0.3c -4.02 -0.99 -7.11 -4.35 -7.8 -8.46c -0.12 -0.66 -0.12 -0.99 -0.12 -1.83c 0 -0.84 0 -1.14 0.15 -1.92c 0.36 -2.28 1.41 -4.62 3.3 -7.29l 2.79 -3.6c 0.54 -0.66 0.96 -1.2 0.96 -1.23c 0 -0.03 -0.09 -0.33 -0.18 -0.69c -0.96 -3.21 -1.41 -5.28 -1.59 -7.68c -0.12 -1.38 -0.15 -3.09 -0.06 -3.96c 0.33 -2.67 1.38 -5.07 3.12 -7.08c 0.36 -0.42 0.99 -1.05 1.17 -1.14zm 2.01 4.71c -0.15 -0.3 -0.3 -0.54 -0.3 -0.54c -0.03 0 -0.18 0.09 -0.3 0.21c -2.4 1.74 -3.87 4.2 -4.26 7.11c -0.06 0.54 -0.06 1.41 -0.03 1.89c 0.09 1.29 0.48 3.12 1.08 5.22c 0.15 0.42 0.24 0.78 0.24 0.81c 0 0.03 0.84 -1.11 1.23 -1.68c 1.89 -2.73 2.88 -5.07 3.15 -7.53c 0.09 -0.57 0.12 -1.74 0.06 -2.37c -0.09 -1.23 -0.27 -1.92 -0.87 -3.12zm -2.94 20.7c -0.21 -0.72 -0.39 -1.32 -0.42 -1.32c 0 0 -1.2 1.47 -1.86 2.37c -2.79 3.63 -4.02 6.3 -4.35 9.3c -0.03 0.21 -0.03 0.69 -0.03 1.08c 0 0.69 0 0.75 0.06 1.11c 0.12 0.54 0.27 0.99 0.51 1.47c 0.69 1.38 1.83 2.55 3.42 3.42c 0.96 0.54 2.07 0.9 3.21 1.08c 0.78 0.12 2.04 0.12 2.94 -0.03c 0.51 -0.06 0.45 -0.03 0.42 -0.3c -0.24 -3.33 -0.72 -6.33 -1.62 -10.08c -0.09 -0.39 -0.18 -0.75 -0.18 -0.78c -0.03 -0.03 -0.42 0 -0.81 0.09c -0.9 0.18 -1.65 0.57 -2.22 1.14c -0.72 0.72 -1.08 1.65 -1.05 2.64c 0.06 0.96 0.48 1.83 1.23 2.58c 0.36 0.36 0.72 0.63 1.17 0.9c 0.33 0.18 0.36 0.21 0.42 0.33c 0.18 0.42 -0.18 0.9 -0.6 0.87c -0.18 -0.03 -0.84 -0.36 -1.26 -0.63c -0.78 -0.51 -1.38 -1.11 -1.86 -1.83c -1.77 -2.7 -0.99 -6.42 1.71 -8.19c 0.3 -0.21 0.81 -0.48 1.17 -0.63c 0.3 -0.09 1.02 -0.3 1.14 -0.3c 0.06 0 0.09 0 0.09 -0.03c 0.03 -0.03 -0.51 -1.92 -1.23 -4.26zm 3.78 7.41c -0.18 -0.03 -0.36 -0.06 -0.39 -0.06c -0.03 0 0 0.21 0.18 1.02c 0.75 3.18 1.26 6.3 1.5 9.09c 0.06 0.72 0 0.69 0.51 0.42c 0.78 -0.36 1.44 -0.96 1.98 -1.77c 1.08 -1.62 1.2 -3.69 0.3 -5.55c -0.81 -1.62 -2.31 -2.79 -4.08 -3.15z"></path></g><g class="" fill="currentColor" stroke="none" data-name="staff-extra key-signature"><path data-name="accidentals.sharp" d="M 54.781000000000006 440.1445c 0.21 -0.12 0.54 -0.03 0.66 0.24c 0.06 0.12 0.06 0.21 0.06 2.31c 0 1.23 0 2.22 0.03 2.22c 0 0 0.27 -0.12 0.6 -0.24c 0.69 -0.27 0.78 -0.3 0.96 -0.15c 0.21 0.15 0.21 0.18 0.21 1.38c 0 1.02 0 1.11 -0.06 1.2c -0.03 0.06 -0.09 0.12 -0.12 0.15c -0.06 0.03 -0.42 0.21 -0.84 0.36l -0.75 0.33l -0.03 2.43c 0 1.32 0 2.43 0.03 2.43c 0 0 0.27 -0.12 0.6 -0.24c 0.69 -0.27 0.78 -0.3 0.96 -0.15c 0.21 0.15 0.21 0.18 0.21 1.38c 0 1.02 0 1.11 -0.06 1.2c -0.03 0.06 -0.09 0.12 -0.12 0.15c -0.06 0.03 -0.42 0.21 -0.84 0.36l -0.75 0.33l -0.03 2.52c 0 2.28 -0.03 2.55 -0.06 2.64c -0.21 0.36 -0.72 0.36 -0.93 0c -0.03 -0.09 -0.06 -0.33 -0.06 -2.43l 0 -2.31l -1.29 0.51l -1.26 0.51l 0 2.43c 0 2.58 0 2.52 -0.15 2.67c -0.06 0.09 -0.27 0.18 -0.36 0.18c -0.12 0 -0.33 -0.09 -0.39 -0.18c -0.15 -0.15 -0.15 -0.09 -0.15 -2.43c 0 -1.23 0 -2.22 -0.03 -2.22c 0 0 -0.27 0.12 -0.6 0.24c -0.69 0.27 -0.78 0.3 -0.96 0.15c -0.21 -0.15 -0.21 -0.18 -0.21 -1.38c 0 -1.02 0 -1.11 0.06 -1.2c 0.03 -0.06 0.09 -0.12 0.12 -0.15c 0.06 -0.03 0.42 -0.21 0.84 -0.36l 0.78 -0.33l 0 -2.43c 0 -1.32 0 -2.43 -0.03 -2.43c 0 0 -0.27 0.12 -0.6 0.24c -0.69 0.27 -0.78 0.3 -0.96 0.15c -0.21 -0.15 -0.21 -0.18 -0.21 -1.38c 0 -1.02 0 -1.11 0.06 -1.2c 0.03 -0.06 0.09 -0.12 0.12 -0.15c 0.06 -0.03 0.42 -0.21 0.84 -0.36l 0.78 -0.33l 0 -2.52c 0 -2.28 0.03 -2.55 0.06 -2.64c 0.21 -0.36 0.72 -0.36 0.93 0c 0.03 0.09 0.06 0.33 0.06 2.43l 0.03 2.31l 1.26 -0.51l 1.26 -0.51l 0 -2.43c 0 -2.28 0 -2.43 0.06 -2.55c 0.06 -0.12 0.12 -0.18 0.27 -0.24zm -0.33 10.65l 0 -2.43l -1.29 0.51l -1.26 0.51l 0 2.46l 0 2.43l 0.09 -0.03c 0.06 -0.03 0.63 -0.27 1.29 -0.51l 1.17 -0.48l 0 -2.46z"></path><path data-name="accidentals.sharp" d="M 65.031 451.7695c 0.21 -0.12 0.54 -0.03 0.66 0.24c 0.06 0.12 0.06 0.21 0.06 2.31c 0 1.23 0 2.22 0.03 2.22c 0 0 0.27 -0.12 0.6 -0.24c 0.69 -0.27 0.78 -0.3 0.96 -0.15c 0.21 0.15 0.21 0.18 0.21 1.38c 0 1.02 0 1.11 -0.06 1.2c -0.03 0.06 -0.09 0.12 -0.12 0.15c -0.06 0.03 -0.42 0.21 -0.84 0.36l -0.75 0.33l -0.03 2.43c 0 1.32 0 2.43 0.03 2.43c 0 0 0.27 -0.12 0.6 -0.24c 0.69 -0.27 0.78 -0.3 0.96 -0.15c 0.21 0.15 0.21 0.18 0.21 1.38c 0 1.02 0 1.11 -0.06 1.2c -0.03 0.06 -0.09 0.12 -0.12 0.15c -0.06 0.03 -0.42 0.21 -0.84 0.36l -0.75 0.33l -0.03 2.52c 0 2.28 -0.03 2.55 -0.06 2.64c -0.21 0.36 -0.72 0.36 -0.93 0c -0.03 -0.09 -0.06 -0.33 -0.06 -2.43l 0 -2.31l -1.29 0.51l -1.26 0.51l 0 2.43c 0 2.58 0 2.52 -0.15 2.67c -0.06 0.09 -0.27 0.18 -0.36 0.18c -0.12 0 -0.33 -0.09 -0.39 -0.18c -0.15 -0.15 -0.15 -0.09 -0.15 -2.43c 0 -1.23 0 -2.22 -0.03 -2.22c 0 0 -0.27 0.12 -0.6 0.24c -0.69 0.27 -0.78 0.3 -0.96 0.15c -0.21 -0.15 -0.21 -0.18 -0.21 -1.38c 0 -1.02 0 -1.11 0.06 -1.2c 0.03 -0.06 0.09 -0.12 0.12 -0.15c 0.06 -0.03 0.42 -0.21 0.84 -0.36l 0.78 -0.33l 0 -2.43c 0 -1.32 0 -2.43 -0.03 -2.43c 0 0 -0.27 0.12 -0.6 0.24c -0.69 0.27 -0.78 0.3 -0.96 0.15c -0.21 -0.15 -0.21 -0.18 -0.21 -1.38c 0 -1.02 0 -1.11 0.06 -1.2c 0.03 -0.06 0.09 -0.12 0.12 -0.15c 0.06 -0.03 0.42 -0.21 0.84 -0.36l 0.78 -0.33l 0 -2.52c 0 -2.28 0.03 -2.55 0.06 -2.64c 0.21 -0.36 0.72 -0.36 0.93 0c 0.03 0.09 0.06 0.33 0.06 2.43l 0.03 2.31l 1.26 -0.51l 1.26 -0.51l 0 -2.43c 0 -2.28 0 -2.43 0.06 -2.55c 0.06 -0.12 0.12 -0.18 0.27 -0.24zm -0.33 10.65l 0 -2.43l -1.29 0.51l -1.26 0.51l 0 2.46l 0 2.43l 0.09 -0.03c 0.06 -0.03 0.63 -0.27 1.29 -0.51l 1.17 -0.48l 0 -2.46z"></path></g><g class="" fill="currentColor" stroke="none" data-name="note"><path data-name="A" d="M 91.44100019073487 466.6595c 0.36 -0.03 1.2 0 1.53 0.06c 1.17 0.24 1.89 0.84 2.16 1.83c 0.06 0.18 0.06 0.3 0.06 0.66c 0 0.45 0 0.63 -0.15 1.08c -0.66 2.04 -3.06 3.93 -5.52 4.38c -0.54 0.09 -1.44 0.09 -1.83 0.03c -1.23 -0.27 -1.98 -0.87 -2.25 -1.86c -0.06 -0.18 -0.06 -0.3 -0.06 -0.66c 0 -0.45 0 -0.63 0.15 -1.08c 0.24 -0.78 0.75 -1.53 1.44 -2.22c 1.2 -1.2 2.85 -2.01 4.47 -2.22z"></path><line x1="94.66" x2="94.66" y1="443.58" y2="469.42" stroke="currentColor" stroke-width="1" class="abcjs-stem" data-name="stem"></line><text stroke="none" font-size="16" font-style="normal" font-family="&quot;Courier New&quot;" font-weight="normal" text-decoration="none" class="" text-anchor="middle" x="90.26" y="428.46" data-name="chord"><tspan x="90.26">A</tspan></text></g><g class="" fill="currentColor" stroke="none" data-name="note"><path data-name="A" d="M 125.24355173417061 466.6595c 0.36 -0.03 1.2 0 1.53 0.06c 1.17 0.24 1.89 0.84 2.16 1.83c 0.06 0.18 0.06 0.3 0.06 0.66c 0 0.45 0 0.63 -0.15 1.08c -0.66 2.04 -3.06 3.93 -5.52 4.38c -0.54 0.09 -1.44 0.09 -1.83 0.03c -1.23 -0.27 -1.98 -0.87 -2.25 -1.86c -0.06 -0.18 -0.06 -0.3 -0.06 -0.66c 0 -0.45 0 -0.63 0.15 -1.08c 0.24 -0.78 0.75 -1.53 1.44 -2.22c 1.2 -1.2 2.85 -2.01 4.47 -2.22z"></path><line x1="128.66" x2="128.66" y1="439.61" y2="469.93" stroke="currentColor" stroke-width="0.6" class="abcjs-stem" data-name="stem"></line></g><g class="" fill="currentColor" stroke="none" data-name="note"><path data-name="B" d="M 149.14556515194184 462.7845c 0.36 -0.03 1.2 0 1.53 0.06c 1.17 0.24 1.89 0.84 2.16 1.83c 0.06 0.18 0.06 0.3 0.06 0.66c 0 0.45 0 0.63 -0.15 1.08c -0.66 2.04 -3.06 3.93 -5.52 4.38c -0.54 0.09 -1.44 0.09 -1.83 0.03c -1.23 -0.27 -1.98 -0.87 -2.25 -1.86c -0.06 -0.18 -0.06 -0.3 -0.06 -0.66c 0 -0.45 0 -0.63 0.15 -1.08c 0.24 -0.78 0.75 -1.53 1.44 -2.22c 1.2 -1.2 2.85 -2.01 4.47 -2.22z"></path><line x1="152.57" x2="152.57" y1="435.83" y2="466.06" stroke="currentColor" stroke-width="0.6" class="abcjs-stem" data-name="stem"></line></g><g class="" fill="currentColor" stroke="none" data-name="note"><path data-name="c" d="M 173.04757856971307 458.9095c 0.36 -0.03 1.2 0 1.53 0.06c 1.17 0.24 1.89 0.84 2.16 1.83c 0.06 0.18 0.06 0.3 0.06 0.66c 0 0.45 0 0.63 -0.15 1.08c -0.66 2.04 -3.06 3.93 -5.52 4.38c -0.54 0.09 -1.44 0.09 -1.83 0.03c -1.23 -0.27 -1.98 -0.87 -2.25 -1.86c -0.06 -0.18 -0.06 -0.3 -0.06 -0.66c 0 -0.45 0 -0.63 0.15 -1.08c 0.24 -0.78 0.75 -1.53 1.44 -2.22c 1.2 -1.2 2.85 -2.01 4.47 -2.22z"></path><line x1="167.26000000000002" x2="167.26000000000002" y1="495.9" y2="463.73" stroke="currentColor" stroke-width="0.6" class="abcjs-stem" data-name="stem"></line></g><g class="" fill="currentColor" stroke="none" data-name="note"><path data-name="B" d="M 196.9495919874843 462.7845c 0.36 -0.03 1.2 0 1.53 0.06c 1.17 0.24 1.89 0.84 2.16 1.83c 0.06 0.18 0.06 0.3 0.06 0.66c 0 0.45 0 0.63 -0.15 1.08c -0.66 2.04 -3.06 3.93 -5.52 4.38c -0.54 0.09 -1.44 0.09 -1.83 0.03c -1.23 -0.27 -1.98 -0.87 -2.25 -1.86c -0.06 -0.18 -0.06 -0.3 -0.06 -0.66c 0 -0.45 0 -0.63 0.15 -1.08c 0.24 -0.78 0.75 -1.53 1.44 -2.22c 1.2 -1.2 2.85 -2.01 4.47 -2.22z"></path><line x1="191.16000000000003" x2="191.16000000000003" y1="494.62" y2="467.61" stroke="currentColor" stroke-width="0.6" class="abcjs-stem" data-name="stem"></line></g><g class="" fill="currentColor" stroke="none" data-name="note"><path data-name="c" d="M 220.85160540525553 458.9095c 0.36 -0.03 1.2 0 1.53 0.06c 1.17 0.24 1.89 0.84 2.16 1.83c 0.06 0.18 0.06 0.3 0.06 0.66c 0 0.45 0 0.63 -0.15 1.08c -0.66 2.04 -3.06 3.93 -5.52 4.38c -0.54 0.09 -1.44 0.09 -1.83 0.03c -1.23 -0.27 -1.98 -0.87 -2.25 -1.86c -0.06 -0.18 -0.06 -0.3 -0.06 -0.66c 0 -0.45 0 -0.63 0.15 -1.08c 0.24 -0.78 0.75 -1.53 1.44 -2.22c 1.2 -1.2 2.85 -2.01 4.47 -2.22z"></path><line x1="215.06" x2="215.06" y1="493.34" y2="463.73" stroke="currentColor" stroke-width="0.6" class="abcjs-stem" data-name="stem"></line></g><g class="" fill="currentColor" stroke="none" data-name="note"><path data-name="d" d="M 244.75361882302676 455.0345c 0.36 -0.03 1.2 0 1.53 0.06c 1.17 0.24 1.89 0.84 2.16 1.83c 0.06 0.18 0.06 0.3 0.06 0.66c 0 0.45 0 0.63 -0.15 1.08c -0.66 2.04 -3.06 3.93 -5.52 4.38c -0.54 0.09 -1.44 0.09 -1.83 0.03c -1.23 -0.27 -1.98 -0.87 -2.25 -1.86c -0.06 -0.18 -0.06 -0.3 -0.06 -0.66c 0 -0.45 0 -0.63 0.15 -1.08c 0.24 -0.78 0.75 -1.53 1.44 -2.22c 1.2 -1.2 2.85 -2.01 4.47 -2.22z"></path><line x1="238.96" x2="238.96" y1="492.05" y2="459.86" stroke="currentColor" stroke-width="0.6" class="abcjs-stem" data-name="stem"></line></g><g class="" fill="currentColor" stroke="none" data-name="bar"><line x1="262.87" x2="262.87" y1="482.33" y2="451.33" stroke="currentColor" stroke-width="0.6" data-name="bar"></line></g><g class="" fill="currentColor" stroke="none" data-name="note"><path data-name="e" d="M 287.4556324315328 451.1595c 0.36 -0.03 1.2 0 1.53 0.06c 1.17 0.24 1.89 0.84 2.16 1.83c 0.06 0.18 0.06 0.3 0.06 0.66c 0 0.45 0 0.63 -0.15 1.08c -0.66 2.04 -3.06 3.93 -5.52 4.38c -0.54 0.09 -1.44 0.09 -1.83 0.03c -1.23 -0.27 -1.98 -0.87 -2.25 -1.86c -0.06 -0.18 -0.06 -0.3 -0.06 -0.66c 0 -0.45 0 -0.63 0.15 -1.08c 0.24 -0.78 0.75 -1.53 1.44 -2.22c 1.2 -1.2 2.85 -2.01 4.47 -2.22z"></path><text stroke="none" font-size="16" font-style="normal" font-family="&quot;Courier New&quot;" font-weight="normal" text-decoration="none" class="" text-anchor="middle" x="286.27" y="428.46" data-name="chord"><tspan x="286.27">A</tspan></text><line x1="281.67" x2="281.67" y1="484.27" y2="455.98" stroke="currentColor" stroke-width="0.6" class="abcjs-stem" data-name="stem"></line></g><g class="" fill="currentColor" stroke="none" data-name="note"><path data-name="f" d="M 311.35764584930405 447.2845c 0.36 -0.03 1.2 0 1.53 0.06c 1.17 0.24 1.89 0.84 2.16 1.83c 0.06 0.18 0.06 0.3 0.06 0.66c 0 0.45 0 0.63 -0.15 1.08c -0.66 2.04 -3.06 3.93 -5.52 4.38c -0.54 0.09 -1.44 0.09 -1.83 0.03c -1.23 -0.27 -1.98 -0.87 -2.25 -1.86c -0.06 -0.18 -0.06 -0.3 -0.06 -0.66c 0 -0.45 0 -0.63 0.15 -1.08c 0.24 -0.78 0.75 -1.53 1.44 -2.22c 1.2 -1.2 2.85 -2.01 4.47 -2.22z"></path><line x1="305.57" x2="305.57" y1="485.55" y2="452.11" stroke="currentColor" stroke-width="0.6" class="abcjs-stem" data-name="stem"></line></g><g class="" fill="currentColor" stroke="none" data-name="note"><path data-name="e" d="M 335.2596592670753 451.1595c 0.36 -0.03 1.2 0 1.53 0.06c 1.17 0.24 1.89 0.84 2.16 1.83c 0.06 0.18 0.06 0.3 0.06 0.66c 0 0.45 0 0.63 -0.15 1.08c -0.66 2.04 -3.06 3.93 -5.52 4.38c -0.54 0.09 -1.44 0.09 -1.83 0.03c -1.23 -0.27 -1.98 -0.87 -2.25 -1.86c -0.06 -0.18 -0.06 -0.3 -0.06 -0.66c 0 -0.45 0 -0.63 0.15 -1.08c 0.24 -0.78 0.75 -1.53 1.44 -2.22c 1.2 -1.2 2.85 -2.01 4.47 -2.22z"></path><line x1="329.47" x2="329.47" y1="486.83" y2="455.98" stroke="currentColor" stroke-width="0.6" class="abcjs-stem" data-name="stem"></line></g><g class="" fill="currentColor" stroke="none" data-name="note"><path data-name="d" d="M 359.1616726848465 455.0345c 0.36 -0.03 1.2 0 1.53 0.06c 1.17 0.24 1.89 0.84 2.16 1.83c 0.06 0.18 0.06 0.3 0.06 0.66c 0 0.45 0 0.63 -0.15 1.08c -0.66 2.04 -3.06 3.93 -5.52 4.38c -0.54 0.09 -1.44 0.09 -1.83 0.03c -1.23 -0.27 -1.98 -0.87 -2.25 -1.86c -0.06 -0.18 -0.06 -0.3 -0.06 -0.66c 0 -0.45 0 -0.63 0.15 -1.08c 0.24 -0.78 0.75 -1.53 1.44 -2.22c 1.2 -1.2 2.85 -2.01 4.47 -2.22z"></path><line x1="353.37" x2="353.37" y1="488.11" y2="459.86" stroke="currentColor" stroke-width="0.6" class="abcjs-stem" data-name="stem"></line></g><g class="" fill="currentColor" stroke="none" data-name="note"><path data-name="c" d="M 383.06368610261774 458.9095c 0.36 -0.03 1.2 0 1.53 0.06c 1.17 0.24 1.89 0.84 2.16 1.83c 0.06 0.18 0.06 0.3 0.06 0.66c 0 0.45 0 0.63 -0.15 1.08c -0.66 2.04 -3.06 3.93 -5.52 4.38c -0.54 0.09 -1.44 0.09 -1.83 0.03c -1.23 -0.27 -1.98 -0.87 -2.25 -1.86c -0.06 -0.18 -0.06 -0.3 -0.06 -0.66c 0 -0.45 0 -0.63 0.15 -1.08c 0.24 -0.78 0.75 -1.53 1.44 -2.22c 1.2 -1.2 2.85 -2.01 4.47 -2.22z"></path><line x1="377.27000000000004" x2="377.27000000000004" y1="492.02" y2="463.73" stroke="currentColor" stroke-width="0.6" class="abcjs-stem" data-name="stem"></line></g><g class="" fill="currentColor" stroke="none" data-name="note"><path data-name="B" d="M 406.96569952038897 462.7845c 0.36 -0.03 1.2 0 1.53 0.06c 1.17 0.24 1.89 0.84 2.16 1.83c 0.06 0.18 0.06 0.3 0.06 0.66c 0 0.45 0 0.63 -0.15 1.08c -0.66 2.04 -3.06 3.93 -5.52 4.38c -0.54 0.09 -1.44 0.09 -1.83 0.03c -1.23 -0.27 -1.98 -0.87 -2.25 -1.86c -0.06 -0.18 -0.06 -0.3 -0.06 -0.66c 0 -0.45 0 -0.63 0.15 -1.08c 0.24 -0.78 0.75 -1.53 1.44 -2.22c 1.2 -1.2 2.85 -2.01 4.47 -2.22z"></path><line x1="401.18" x2="401.18" y1="495.8" y2="467.61" stroke="currentColor" stroke-width="0.6" class="abcjs-stem" data-name="stem"></line></g><g class="" fill="currentColor" stroke="none" data-name="note"><path data-name="A" d="M 430.8677129381602 466.6595c 0.36 -0.03 1.2 0 1.53 0.06c 1.17 0.24 1.89 0.84 2.16 1.83c 0.06 0.18 0.06 0.3 0.06 0.66c 0 0.45 0 0.63 -0.15 1.08c -0.66 2.04 -3.06 3.93 -5.52 4.38c -0.54 0.09 -1.44 0.09 -1.83 0.03c -1.23 -0.27 -1.98 -0.87 -2.25 -1.86c -0.06 -0.18 -0.06 -0.3 -0.06 -0.66c 0 -0.45 0 -0.63 0.15 -1.08c 0.24 -0.78 0.75 -1.53 1.44 -2.22c 1.2 -1.2 2.85 -2.01 4.47 -2.22z"></path><line x1="434.09" x2="434.09" y1="443.58" y2="469.42" stroke="currentColor" stroke-width="1" class="abcjs-stem" data-name="stem"></line></g><g class="" fill="currentColor" stroke="none" data-name="bar"><line x1="458.88" x2="458.88" y1="482.33" y2="451.33" stroke="currentColor" stroke-width="0.6" data-name="bar"></line></g><g class="" fill="currentColor" stroke="none" data-name="note"><path data-name="c" d="M 483.4702646723308 458.9095c 0.36 -0.03 1.2 0 1.53 0.06c 1.17 0.24 1.89 0.84 2.16 1.83c 0.06 0.18 0.06 0.3 0.06 0.66c 0 0.45 0 0.63 -0.15 1.08c -0.66 2.04 -3.06 3.93 -5.52 4.38c -0.54 0.09 -1.44 0.09 -1.83 0.03c -1.23 -0.27 -1.98 -0.87 -2.25 -1.86c -0.06 -0.18 -0.06 -0.3 -0.06 -0.66c 0 -0.45 0 -0.63 0.15 -1.08c 0.24 -0.78 0.75 -1.53 1.44 -2.22c 1.2 -1.2 2.85 -2.01 4.47 -2.22z"></path><text stroke="none" font-size="16" font-style="normal" font-family="&quot;Courier New&quot;" font-weight="normal" text-decoration="none" class="" text-anchor="middle" x="482.29" y="428.46" data-name="chord"><tspan x="482.29">A</tspan></text><line x1="477.68" x2="477.68" y1="495.9" y2="463.73" stroke="currentColor" stroke-width="0.6" class="abcjs-stem" data-name="stem"></line></g><g class="" fill="currentColor" stroke="none" data-name="note"><path data-name="B" d="M 507.37227809010204 462.7845c 0.36 -0.03 1.2 0 1.53 0.06c 1.17 0.24 1.89 0.84 2.16 1.83c 0.06 0.18 0.06 0.3 0.06 0.66c 0 0.45 0 0.63 -0.15 1.08c -0.66 2.04 -3.06 3.93 -5.52 4.38c -0.54 0.09 -1.44 0.09 -1.83 0.03c -1.23 -0.27 -1.98 -0.87 -2.25 -1.86c -0.06 -0.18 -0.06 -0.3 -0.06 -0.66c 0 -0.45 0 -0.63 0.15 -1.08c 0.24 -0.78 0.75 -1.53 1.44 -2.22c 1.2 -1.2 2.85 -2.01 4.47 -2.22z"></path><line x1="501.58" x2="501.58" y1="495.9" y2="467.61" stroke="currentColor" stroke-width="0.6" class="abcjs-stem" data-name="stem"></line></g><g class="" fill="currentColor" stroke="none" data-name="note"><path data-name="A" d="M 531.2742915078733 466.6595c 0.36 -0.03 1.2 0 1.53 0.06c 1.17 0.24 1.89 0.84 2.16 1.83c 0.06 0.18 0.06 0.3 0.06 0.66c 0 0.45 0 0.63 -0.15 1.08c -0.66 2.04 -3.06 3.93 -5.52 4.38c -0.54 0.09 -1.44 0.09 -1.83 0.03c -1.23 -0.27 -1.98 -0.87 -2.25 -1.86c -0.06 -0.18 -0.06 -0.3 -0.06 -0.66c 0 -0.45 0 -0.63 0.15 -1.08c 0.24 -0.78 0.75 -1.53 1.44 -2.22c 1.2 -1.2 2.85 -2.01 4.47 -2.22z"></path><line x1="525.4799999999999" x2="525.4799999999999" y1="495.9" y2="471.48" stroke="currentColor" stroke-width="0.6" class="abcjs-stem" data-name="stem"></line></g><g class="" fill="currentColor" stroke="none" data-name="note"><path data-name="c" d="M 555.1763049256444 458.9095c 0.36 -0.03 1.2 0 1.53 0.06c 1.17 0.24 1.89 0.84 2.16 1.83c 0.06 0.18 0.06 0.3 0.06 0.66c 0 0.45 0 0.63 -0.15 1.08c -0.66 2.04 -3.06 3.93 -5.52 4.38c -0.54 0.09 -1.44 0.09 -1.83 0.03c -1.23 -0.27 -1.98 -0.87 -2.25 -1.86c -0.06 -0.18 -0.06 -0.3 -0.06 -0.66c 0 -0.45 0 -0.63 0.15 -1.08c 0.24 -0.78 0.75 -1.53 1.44 -2.22c 1.2 -1.2 2.85 -2.01 4.47 -2.22z"></path><line x1="549.39" x2="549.39" y1="495.9" y2="463.73" stroke="currentColor" stroke-width="0.6" class="abcjs-stem" data-name="stem"></line></g><g class="" fill="currentColor" stroke="none" data-name="note"><path data-name="B" d="M 579.0783183434156 462.7845c 0.36 -0.03 1.2 0 1.53 0.06c 1.17 0.24 1.89 0.84 2.16 1.83c 0.06 0.18 0.06 0.3 0.06 0.66c 0 0.45 0 0.63 -0.15 1.08c -0.66 2.04 -3.06 3.93 -5.52 4.38c -0.54 0.09 -1.44 0.09 -1.83 0.03c -1.23 -0.27 -1.98 -0.87 -2.25 -1.86c -0.06 -0.18 -0.06 -0.3 -0.06 -0.66c 0 -0.45 0 -0.63 0.15 -1.08c 0.24 -0.78 0.75 -1.53 1.44 -2.22c 1.2 -1.2 2.85 -2.01 4.47 -2.22z"></path><text stroke="none" font-size="16" font-style="normal" font-family="&quot;Courier New&quot;" font-weight="normal" text-decoration="none" class="" text-anchor="middle" x="577.89" y="428.46" data-name="chord"><tspan x="577.89">G</tspan></text><line x1="582.5" x2="582.5" y1="435.93" y2="466.06" stroke="currentColor" stroke-width="0.6" class="abcjs-stem" data-name="stem"></line></g><g class="" fill="currentColor" stroke="none" data-name="note"><path data-name="A" d="M 602.9803317611868 466.6595c 0.36 -0.03 1.2 0 1.53 0.06c 1.17 0.24 1.89 0.84 2.16 1.83c 0.06 0.18 0.06 0.3 0.06 0.66c 0 0.45 0 0.63 -0.15 1.08c -0.66 2.04 -3.06 3.93 -5.52 4.38c -0.54 0.09 -1.44 0.09 -1.83 0.03c -1.23 -0.27 -1.98 -0.87 -2.25 -1.86c -0.06 -0.18 -0.06 -0.3 -0.06 -0.66c 0 -0.45 0 -0.63 0.15 -1.08c 0.24 -0.78 0.75 -1.53 1.44 -2.22c 1.2 -1.2 2.85 -2.01 4.47 -2.22z"></path><line x1="606.4000000000001" x2="606.4000000000001" y1="439.71" y2="469.93" stroke="currentColor" stroke-width="0.6" class="abcjs-stem" data-name="stem"></line></g><g class="" fill="currentColor" stroke="none" data-name="note"><path data-name="G" d="M 626.882345178958 470.5345c 0.36 -0.03 1.2 0 1.53 0.06c 1.17 0.24 1.89 0.84 2.16 1.83c 0.06 0.18 0.06 0.3 0.06 0.66c 0 0.45 0 0.63 -0.15 1.08c -0.66 2.04 -3.06 3.93 -5.52 4.38c -0.54 0.09 -1.44 0.09 -1.83 0.03c -1.23 -0.27 -1.98 -0.87 -2.25 -1.86c -0.06 -0.18 -0.06 -0.3 -0.06 -0.66c 0 -0.45 0 -0.63 0.15 -1.08c 0.24 -0.78 0.75 -1.53 1.44 -2.22c 1.2 -1.2 2.85 -2.01 4.47 -2.22z"></path><line x1="630.1" x2="630.1" y1="447.46" y2="473.29" stroke="currentColor" stroke-width="1" class="abcjs-stem" data-name="stem"></line></g><g class="" fill="currentColor" stroke="none" data-name="bar"><line x1="654.89" x2="654.89" y1="482.33" y2="451.33" stroke="currentColor" stroke-width="0.6" data-name="bar"></line></g><g class="" fill="currentColor" stroke="none" data-name="note"><path data-name="A" d="M 679.9048969131285 466.6595c 0.51 -0.03 2.01 0 2.52 0.03c 1.41 0.18 2.64 0.51 3.72 1.08c 1.2 0.63 1.95 1.41 2.19 2.31c 0.09 0.33 0.09 0.9 0 1.23c -0.24 0.9 -0.99 1.68 -2.19 2.31c -1.08 0.57 -2.28 0.9 -3.75 1.08c -0.66 0.06 -2.31 0.06 -2.97 0c -1.47 -0.18 -2.67 -0.51 -3.75 -1.08c -1.2 -0.63 -1.95 -1.41 -2.19 -2.31c -0.09 -0.33 -0.09 -0.9 0 -1.23c 0.24 -0.9 0.99 -1.68 2.19 -2.31c 1.2 -0.63 2.61 -0.99 4.23 -1.11zm 0.57 0.66c -0.87 -0.15 -1.53 0 -2.04 0.51c -0.15 0.15 -0.24 0.27 -0.33 0.48c -0.24 0.51 -0.36 1.08 -0.33 1.77c 0.03 0.69 0.18 1.26 0.42 1.77c 0.6 1.17 1.74 1.98 3.18 2.22c 1.11 0.21 1.95 -0.15 2.34 -0.99c 0.24 -0.51 0.36 -1.08 0.33 -1.8c -0.06 -1.11 -0.45 -2.04 -1.17 -2.76c -0.63 -0.63 -1.47 -1.05 -2.4 -1.2z"></path><text stroke="none" font-size="16" font-style="normal" font-family="&quot;Courier New&quot;" font-weight="normal" text-decoration="none" class="" text-anchor="middle" x="680.89" y="428.46" data-name="chord"><tspan x="680.89">A</tspan></text></g><g class="" fill="currentColor" stroke="none" data-name="bar"><path data-name="dots.dot" d="M 742.32 461.2795c 0.09 -0.03 0.27 -0.06 0.39 -0.06c 0.96 0 1.74 0.78 1.74 1.71c 0 0.96 -0.78 1.74 -1.71 1.74c -0.96 0 -1.74 -0.78 -1.74 -1.71c 0 -0.78 0.54 -1.5 1.32 -1.68z"></path><path data-name="dots.dot" d="M 742.32 469.0295c 0.09 -0.03 0.27 -0.06 0.39 -0.06c 0.96 0 1.74 0.78 1.74 1.71c 0 0.96 -0.78 1.74 -1.71 1.74c -0.96 0 -1.74 -0.78 -1.74 -1.71c 0 -0.78 0.54 -1.5 1.32 -1.68z"></path><line x1="747.3" x2="747.3" y1="482.33" y2="451.33" stroke="currentColor" stroke-width="0.6" data-name="bar"></line><line x1="753" x2="753" y1="482.33" y2="451.33" stroke="currentColor" stroke-width="4" data-name="bar"></line></g><path d="M128.36 439.71 L152.87 435.83L152.87 439.7 L128.36 443.58z" stroke="none" fill="currentColor" class=""></path><path d="M166.96 497.83 L239.26 493.96L239.26 490.08 L166.96 493.95z" stroke="none" fill="currentColor" class=""></path><path d="M281.37 486.21 L353.67 490.08L353.67 486.2 L281.37 482.33z" stroke="none" fill="currentColor" class=""></path><path d="M376.97 493.96 L401.48 497.83L401.48 493.95 L376.97 490.08z" stroke="none" fill="currentColor" class=""></path><path d="M477.38 497.83 L549.69 497.83L549.69 493.95 L477.38 493.95z" stroke="none" fill="currentColor" class=""></path><path d="M582.2 435.83 L606.7 439.71L606.7 443.58 L582.2 439.7z" stroke="none" fill="currentColor" class=""></path></g><g><text stroke="none" font-size="17" font-style="normal" font-family="&quot;Courier New&quot;" font-weight="normal" text-decoration="none" class="" text-anchor="start" x="15" y="521.4" data-name="free-text"><tspan x="15">A-part == | B-part ==</tspan></text></g><g><text stroke="none" font-size="17" font-style="normal" font-family="&quot;Courier New&quot;" font-weight="normal" text-decoration="none" class="" text-anchor="start" x="15" y="550.9" data-name="free-text"><tspan x="15">A A A · E | A A A · G</tspan></text></g><g><text stroke="none" font-size="17" font-style="normal" font-family="&quot;Courier New&quot;" font-weight="normal" text-decoration="none" class="" text-anchor="start" x="15" y="580.4" data-name="free-text"><tspan x="15">A A A/G A | A A A/G A</tspan></text></g><g><text stroke="none" font-size="19" font-style="normal" font-family="Times New Roman" font-weight="normal" text-decoration="none" class="" text-anchor="start" x="15" y="627.4" data-name="description"><tspan x="15">Notes: This is a popular bluegrass tune. Here is a simple version I got from a mandolin lesson.</tspan><tspan x="15" dy="1.2em">Will work with this more in the future.</tspan><tspan x="15" dy="1.2em">Transcription: Cam Cross</tspan><tspan x="15" dy="1.2em"></tspan></text></g></svg>