<?xml version="1.0" standalone="no"?>
<svg xmlns:xlink="http://www.w3.org/1999/xlink" role="img" fill="currentColor" stroke="currentColor" aria-label="Sheet Music for &quot;Old Joe Clark&quot;" viewBox="0 0 770 687.6636664123535" preserveAspectRatio="xMinYMin meet" style="display: inline-block; position: absolute; top: 0px; left: 0px;" width="1600px" height="1428.9066485370151px" xmlns="http://www.w3.org/2000/svg"><style></style><title>Sheet Music for "Old Joe Clark"</title><g><text stroke="none" font-size="32" font-style="normal" font-family="&quot;Times New Roman&quot;" font-weight="bold" text-decoration="none" class="" text-anchor="middle" x="385" y="54.56" data-name="title"><tspan x="385">Old Joe Clark</tspan></text><text stroke="none" font-size="17" font-style="normal" font-family="Palatino" font-weight="normal" text-decoration="none" class="" text-anchor="start" x="15" y="87.12" data-name="rhythm"><tspan x="15">reel</tspan></text><text stroke="none" font-size="17" font-style="italic" font-family="&quot;Times New Roman&quot;" font-weight="normal" text-decoration="none" class="" text-anchor="end" x="755" y="87.12" data-name="composer"><tspan x="755">Trad.</tspan></text></g><g><g><line x1="15" x2="755" y1="157.77033358764652" y2="157.77033358764652" stroke="currentColor" stroke-width="0.7" class="abcjs-top-line"></line><line x1="15" x2="755" y1="165.52033358764652" y2="165.52033358764652" stroke="currentColor" stroke-width="0.7"></line><line x1="15" x2="755" y1="173.27033358764652" y2="173.27033358764652" stroke="currentColor" stroke-width="0.7"></line><line x1="15" x2="755" y1="181.02033358764652" y2="181.02033358764652" stroke="currentColor" stroke-width="0.7"></line><line x1="15" x2="755" y1="188.77033358764652" y2="188.77033358764652" stroke="currentColor" stroke-width="0.7"></line></g><g class="" fill="currentColor" stroke="none" data-name="staff-extra clef"><path data-name="clefs.G" d="M 29.689999999999998 143.4353335876465c 0.09 -0.09 0.24 -0.06 0.36 0c 0.12 0.09 0.57 0.6 0.96 1.11c 1.77 2.34 3.21 5.85 3.57 8.73c 0.21 1.56 0.03 3.27 -0.45 4.86c -0.69 2.31 -1.92 4.47 -4.23 7.44c -0.3 0.39 -0.57 0.72 -0.6 0.75c -0.03 0.06 0 0.15 0.18 0.78c 0.54 1.68 1.38 4.44 1.68 5.49l 0.09 0.42l 0.39 0c 1.47 0.09 2.76 0.51 3.96 1.29c 1.83 1.23 3.06 3.21 3.39 5.52c 0.09 0.45 0.12 1.29 0.06 1.74c -0.09 1.02 -0.33 1.83 -0.75 2.73c -0.84 1.71 -2.28 3.06 -4.02 3.72l -0.33 0.12l 0.03 1.26c 0 1.74 -0.06 3.63 -0.21 4.62c -0.45 3.06 -2.19 5.49 -4.47 6.21c -0.57 0.18 -0.9 0.21 -1.59 0.21c -0.69 0 -1.02 -0.03 -1.65 -0.21c -1.14 -0.27 -2.13 -0.84 -2.94 -1.65c -0.99 -0.99 -1.56 -2.16 -1.71 -3.54c -0.09 -0.81 0.06 -1.53 0.45 -2.13c 0.63 -0.99 1.83 -1.56 3 -1.53c 1.5 0.09 2.64 1.32 2.73 2.94c 0.06 1.47 -0.93 2.7 -2.37 2.97c -0.45 0.06 -0.84 0.03 -1.29 -0.09l -0.21 -0.09l 0.09 0.12c 0.39 0.54 0.78 0.93 1.32 1.26c 1.35 0.87 3.06 1.02 4.35 0.36c 1.44 -0.72 2.52 -2.28 2.97 -4.35c 0.15 -0.66 0.24 -1.5 0.3 -3.03c 0.03 -0.84 0.03 -2.94 0 -3c -0.03 0 -0.18 0 -0.36 0.03c -0.66 0.12 -0.99 0.12 -1.83 0.12c -1.05 0 -1.71 -0.06 -2.61 -0.3c -4.02 -0.99 -7.11 -4.35 -7.8 -8.46c -0.12 -0.66 -0.12 -0.99 -0.12 -1.83c 0 -0.84 0 -1.14 0.15 -1.92c 0.36 -2.28 1.41 -4.62 3.3 -7.29l 2.79 -3.6c 0.54 -0.66 0.96 -1.2 0.96 -1.23c 0 -0.03 -0.09 -0.33 -0.18 -0.69c -0.96 -3.21 -1.41 -5.28 -1.59 -7.68c -0.12 -1.38 -0.15 -3.09 -0.06 -3.96c 0.33 -2.67 1.38 -5.07 3.12 -7.08c 0.36 -0.42 0.99 -1.05 1.17 -1.14zm 2.01 4.71c -0.15 -0.3 -0.3 -0.54 -0.3 -0.54c -0.03 0 -0.18 0.09 -0.3 0.21c -2.4 1.74 -3.87 4.2 -4.26 7.11c -0.06 0.54 -0.06 1.41 -0.03 1.89c 0.09 1.29 0.48 3.12 1.08 5.22c 0.15 0.42 0.24 0.78 0.24 0.81c 0 0.03 0.84 -1.11 1.23 -1.68c 1.89 -2.73 2.88 -5.07 3.15 -7.53c 0.09 -0.57 0.12 -1.74 0.06 -2.37c -0.09 -1.23 -0.27 -1.92 -0.87 -3.12zm -2.94 20.7c -0.21 -0.72 -0.39 -1.32 -0.42 -1.32c 0 0 -1.2 1.47 -1.86 2.37c -2.79 3.63 -4.02 6.3 -4.35 9.3c -0.03 0.21 -0.03 0.69 -0.03 1.08c 0 0.69 0 0.75 0.06 1.11c 0.12 0.54 0.27 0.99 0.51 1.47c 0.69 1.38 1.83 2.55 3.42 3.42c 0.96 0.54 2.07 0.9 3.21 1.08c 0.78 0.12 2.04 0.12 2.94 -0.03c 0.51 -0.06 0.45 -0.03 0.42 -0.3c -0.24 -3.33 -0.72 -6.33 -1.62 -10.08c -0.09 -0.39 -0.18 -0.75 -0.18 -0.78c -0.03 -0.03 -0.42 0 -0.81 0.09c -0.9 0.18 -1.65 0.57 -2.22 1.14c -0.72 0.72 -1.08 1.65 -1.05 2.64c 0.06 0.96 0.48 1.83 1.23 2.58c 0.36 0.36 0.72 0.63 1.17 0.9c 0.33 0.18 0.36 0.21 0.42 0.33c 0.18 0.42 -0.18 0.9 -0.6 0.87c -0.18 -0.03 -0.84 -0.36 -1.26 -0.63c -0.78 -0.51 -1.38 -1.11 -1.86 -1.83c -1.77 -2.7 -0.99 -6.42 1.71 -8.19c 0.3 -0.21 0.81 -0.48 1.17 -0.63c 0.3 -0.09 1.02 -0.3 1.14 -0.3c 0.06 0 0.09 0 0.09 -0.03c 0.03 -0.03 -0.51 -1.92 -1.23 -4.26zm 3.78 7.41c -0.18 -0.03 -0.36 -0.06 -0.39 -0.06c -0.03 0 0 0.21 0.18 1.02c 0.75 3.18 1.26 6.3 1.5 9.09c 0.06 0.72 0 0.69 0.51 0.42c 0.78 -0.36 1.44 -0.96 1.98 -1.77c 1.08 -1.62 1.2 -3.69 0.3 -5.55c -0.81 -1.62 -2.31 -2.79 -4.08 -3.15z"></path></g><g class="" fill="currentColor" stroke="none" data-name="staff-extra key-signature"><path data-name="accidentals.sharp" d="M 54.781000000000006 146.4053335876465c 0.21 -0.12 0.54 -0.03 0.66 0.24c 0.06 0.12 0.06 0.21 0.06 2.31c 0 1.23 0 2.22 0.03 2.22c 0 0 0.27 -0.12 0.6 -0.24c 0.69 -0.27 0.78 -0.3 0.96 -0.15c 0.21 0.15 0.21 0.18 0.21 1.38c 0 1.02 0 1.11 -0.06 1.2c -0.03 0.06 -0.09 0.12 -0.12 0.15c -0.06 0.03 -0.42 0.21 -0.84 0.36l -0.75 0.33l -0.03 2.43c 0 1.32 0 2.43 0.03 2.43c 0 0 0.27 -0.12 0.6 -0.24c 0.69 -0.27 0.78 -0.3 0.96 -0.15c 0.21 0.15 0.21 0.18 0.21 1.38c 0 1.02 0 1.11 -0.06 1.2c -0.03 0.06 -0.09 0.12 -0.12 0.15c -0.06 0.03 -0.42 0.21 -0.84 0.36l -0.75 0.33l -0.03 2.52c 0 2.28 -0.03 2.55 -0.06 2.64c -0.21 0.36 -0.72 0.36 -0.93 0c -0.03 -0.09 -0.06 -0.33 -0.06 -2.43l 0 -2.31l -1.29 0.51l -1.26 0.51l 0 2.43c 0 2.58 0 2.52 -0.15 2.67c -0.06 0.09 -0.27 0.18 -0.36 0.18c -0.12 0 -0.33 -0.09 -0.39 -0.18c -0.15 -0.15 -0.15 -0.09 -0.15 -2.43c 0 -1.23 0 -2.22 -0.03 -2.22c 0 0 -0.27 0.12 -0.6 0.24c -0.69 0.27 -0.78 0.3 -0.96 0.15c -0.21 -0.15 -0.21 -0.18 -0.21 -1.38c 0 -1.02 0 -1.11 0.06 -1.2c 0.03 -0.06 0.09 -0.12 0.12 -0.15c 0.06 -0.03 0.42 -0.21 0.84 -0.36l 0.78 -0.33l 0 -2.43c 0 -1.32 0 -2.43 -0.03 -2.43c 0 0 -0.27 0.12 -0.6 0.24c -0.69 0.27 -0.78 0.3 -0.96 0.15c -0.21 -0.15 -0.21 -0.18 -0.21 -1.38c 0 -1.02 0 -1.11 0.06 -1.2c 0.03 -0.06 0.09 -0.12 0.12 -0.15c 0.06 -0.03 0.42 -0.21 0.84 -0.36l 0.78 -0.33l 0 -2.52c 0 -2.28 0.03 -2.55 0.06 -2.64c 0.21 -0.36 0.72 -0.36 0.93 0c 0.03 0.09 0.06 0.33 0.06 2.43l 0.03 2.31l 1.26 -0.51l 1.26 -0.51l 0 -2.43c 0 -2.28 0 -2.43 0.06 -2.55c 0.06 -0.12 0.12 -0.18 0.27 -0.24zm -0.33 10.65l 0 -2.43l -1.29 0.51l -1.26 0.51l 0 2.46l 0 2.43l 0.09 -0.03c 0.06 -0.03 0.63 -0.27 1.29 -0.51l 1.17 -0.48l 0 -2.46z"></path><path data-name="accidentals.sharp" d="M 65.031 158.0303335876465c 0.21 -0.12 0.54 -0.03 0.66 0.24c 0.06 0.12 0.06 0.21 0.06 2.31c 0 1.23 0 2.22 0.03 2.22c 0 0 0.27 -0.12 0.6 -0.24c 0.69 -0.27 0.78 -0.3 0.96 -0.15c 0.21 0.15 0.21 0.18 0.21 1.38c 0 1.02 0 1.11 -0.06 1.2c -0.03 0.06 -0.09 0.12 -0.12 0.15c -0.06 0.03 -0.42 0.21 -0.84 0.36l -0.75 0.33l -0.03 2.43c 0 1.32 0 2.43 0.03 2.43c 0 0 0.27 -0.12 0.6 -0.24c 0.69 -0.27 0.78 -0.3 0.96 -0.15c 0.21 0.15 0.21 0.18 0.21 1.38c 0 1.02 0 1.11 -0.06 1.2c -0.03 0.06 -0.09 0.12 -0.12 0.15c -0.06 0.03 -0.42 0.21 -0.84 0.36l -0.75 0.33l -0.03 2.52c 0 2.28 -0.03 2.55 -0.06 2.64c -0.21 0.36 -0.72 0.36 -0.93 0c -0.03 -0.09 -0.06 -0.33 -0.06 -2.43l 0 -2.31l -1.29 0.51l -1.26 0.51l 0 2.43c 0 2.58 0 2.52 -0.15 2.67c -0.06 0.09 -0.27 0.18 -0.36 0.18c -0.12 0 -0.33 -0.09 -0.39 -0.18c -0.15 -0.15 -0.15 -0.09 -0.15 -2.43c 0 -1.23 0 -2.22 -0.03 -2.22c 0 0 -0.27 0.12 -0.6 0.24c -0.69 0.27 -0.78 0.3 -0.96 0.15c -0.21 -0.15 -0.21 -0.18 -0.21 -1.38c 0 -1.02 0 -1.11 0.06 -1.2c 0.03 -0.06 0.09 -0.12 0.12 -0.15c 0.06 -0.03 0.42 -0.21 0.84 -0.36l 0.78 -0.33l 0 -2.43c 0 -1.32 0 -2.43 -0.03 -2.43c 0 0 -0.27 0.12 -0.6 0.24c -0.69 0.27 -0.78 0.3 -0.96 0.15c -0.21 -0.15 -0.21 -0.18 -0.21 -1.38c 0 -1.02 0 -1.11 0.06 -1.2c 0.03 -0.06 0.09 -0.12 0.12 -0.15c 0.06 -0.03 0.42 -0.21 0.84 -0.36l 0.78 -0.33l 0 -2.52c 0 -2.28 0.03 -2.55 0.06 -2.64c 0.21 -0.36 0.72 -0.36 0.93 0c 0.03 0.09 0.06 0.33 0.06 2.43l 0.03 2.31l 1.26 -0.51l 1.26 -0.51l 0 -2.43c 0 -2.28 0 -2.43 0.06 -2.55c 0.06 -0.12 0.12 -0.18 0.27 -0.24zm -0.33 10.65l 0 -2.43l -1.29 0.51l -1.26 0.51l 0 2.46l 0 2.43l 0.09 -0.03c 0.06 -0.03 0.63 -0.27 1.29 -0.51l 1.17 -0.48l 0 -2.46z"></path></g><g class="" fill="currentColor" stroke="none" data-name="staff-extra time-signature"><path data-name="4" d="M 86.191 158.1553335876465c 0.27 -0.09 0.42 -0.12 0.54 -0.03c 0.09 0.06 0.15 0.21 0.15 0.3c -0.03 0.06 -1.92 2.31 -4.23 5.04c -2.31 2.73 -4.23 4.98 -4.26 5.01c -0.03 0.06 0.12 0.06 2.55 0.06l 2.61 0l 0 -2.37c 0 -2.19 0.03 -2.37 0.06 -2.46c 0.03 -0.06 0.21 -0.18 0.57 -0.42c 1.08 -0.72 1.38 -1.08 1.86 -2.16c 0.12 -0.3 0.24 -0.54 0.27 -0.57c 0.12 -0.12 0.39 -0.06 0.45 0.12c 0.06 0.09 0.06 0.57 0.06 3.96l 0 3.9l 1.08 0c 1.05 0 1.11 0 1.2 0.06c 0.24 0.15 0.24 0.54 0 0.69c -0.09 0.06 -0.15 0.06 -1.2 0.06l -1.08 0l 0 0.33c 0 0.57 0.09 1.11 0.3 1.53c 0.36 0.75 0.93 1.17 1.68 1.26c 0.3 0.03 0.39 0.09 0.39 0.3c 0 0.15 -0.03 0.18 -0.09 0.24c -0.06 0.06 -0.09 0.06 -0.48 0.06c -0.42 0 -0.69 -0.03 -2.1 -0.24c -0.9 -0.15 -1.77 -0.15 -2.67 0c -1.41 0.21 -1.68 0.24 -2.1 0.24c -0.39 0 -0.42 0 -0.48 -0.06c -0.06 -0.06 -0.06 -0.09 -0.06 -0.24c 0 -0.21 0.06 -0.27 0.36 -0.3c 0.75 -0.09 1.32 -0.51 1.68 -1.26c 0.21 -0.42 0.3 -0.96 0.3 -1.53l 0 -0.33l -2.7 0c -2.91 0 -2.85 0 -3.09 -0.15c -0.18 -0.12 -0.3 -0.39 -0.27 -0.54c 0.03 -0.06 0.18 -0.24 0.33 -0.45c 0.75 -0.9 1.59 -2.07 2.13 -3.03c 0.33 -0.54 0.84 -1.62 1.05 -2.16c 0.57 -1.41 0.84 -2.64 0.9 -4.05c 0.03 -0.63 0.06 -0.72 0.24 -0.81l 0.12 -0.06l 0.45 0.12c 0.66 0.18 1.02 0.24 1.47 0.27c 0.6 0.03 1.23 -0.09 2.01 -0.33z"></path><path data-name="4" d="M 86.191 173.6553335876465c 0.27 -0.09 0.42 -0.12 0.54 -0.03c 0.09 0.06 0.15 0.21 0.15 0.3c -0.03 0.06 -1.92 2.31 -4.23 5.04c -2.31 2.73 -4.23 4.98 -4.26 5.01c -0.03 0.06 0.12 0.06 2.55 0.06l 2.61 0l 0 -2.37c 0 -2.19 0.03 -2.37 0.06 -2.46c 0.03 -0.06 0.21 -0.18 0.57 -0.42c 1.08 -0.72 1.38 -1.08 1.86 -2.16c 0.12 -0.3 0.24 -0.54 0.27 -0.57c 0.12 -0.12 0.39 -0.06 0.45 0.12c 0.06 0.09 0.06 0.57 0.06 3.96l 0 3.9l 1.08 0c 1.05 0 1.11 0 1.2 0.06c 0.24 0.15 0.24 0.54 0 0.69c -0.09 0.06 -0.15 0.06 -1.2 0.06l -1.08 0l 0 0.33c 0 0.57 0.09 1.11 0.3 1.53c 0.36 0.75 0.93 1.17 1.68 1.26c 0.3 0.03 0.39 0.09 0.39 0.3c 0 0.15 -0.03 0.18 -0.09 0.24c -0.06 0.06 -0.09 0.06 -0.48 0.06c -0.42 0 -0.69 -0.03 -2.1 -0.24c -0.9 -0.15 -1.77 -0.15 -2.67 0c -1.41 0.21 -1.68 0.24 -2.1 0.24c -0.39 0 -0.42 0 -0.48 -0.06c -0.06 -0.06 -0.06 -0.09 -0.06 -0.24c 0 -0.21 0.06 -0.27 0.36 -0.3c 0.75 -0.09 1.32 -0.51 1.68 -1.26c 0.21 -0.42 0.3 -0.96 0.3 -1.53l 0 -0.33l -2.7 0c -2.91 0 -2.85 0 -3.09 -0.15c -0.18 -0.12 -0.3 -0.39 -0.27 -0.54c 0.03 -0.06 0.18 -0.24 0.33 -0.45c 0.75 -0.9 1.59 -2.07 2.13 -3.03c 0.33 -0.54 0.84 -1.62 1.05 -2.16c 0.57 -1.41 0.84 -2.64 0.9 -4.05c 0.03 -0.63 0.06 -0.72 0.24 -0.81l 0.12 -0.06l 0.45 0.12c 0.66 0.18 1.02 0.24 1.47 0.27c 0.6 0.03 1.23 -0.09 2.01 -0.33z"></path></g><g class="" fill="currentColor" stroke="none" data-name="part"><text stroke="none" font-size="17" font-style="normal" font-family="Helvetica" font-weight="normal" text-decoration="none" class="" text-anchor="start" x="99.35" y="115.68" data-name="A-part"><tspan x="99.35">A-part</tspan></text></g><g class="" fill="currentColor" stroke="none" data-name="note"><path data-name="e" d="M 111.50266660308839 157.4203335876465c 0.36 -0.03 1.2 0 1.53 0.06c 1.17 0.24 1.89 0.84 2.16 1.83c 0.06 0.18 0.06 0.3 0.06 0.66c 0 0.45 0 0.63 -0.15 1.08c -0.66 2.04 -3.06 3.93 -5.52 4.38c -0.54 0.09 -1.44 0.09 -1.83 0.03c -1.23 -0.27 -1.98 -0.87 -2.25 -1.86c -0.06 -0.18 -0.06 -0.3 -0.06 -0.66c 0 -0.45 0 -0.63 0.15 -1.08c 0.24 -0.78 0.75 -1.53 1.44 -2.22c 1.2 -1.2 2.85 -2.01 4.47 -2.22z"></path><line x1="105.91" x2="105.91" y1="188.6" y2="162.76" stroke="currentColor" stroke-width="1" class="abcjs-stem" data-name="stem"></line><text stroke="none" font-size="16" font-style="normal" font-family="&quot;Courier New&quot;" font-weight="normal" text-decoration="none" class="" text-anchor="middle" x="110.32" y="136.29" data-name="chord"><tspan x="110.32">A</tspan></text></g><g class="" fill="currentColor" stroke="none" data-name="note"><path data-name="f" d="M 153.44624621806173 153.5453335876465c 0.36 -0.03 1.2 0 1.53 0.06c 1.17 0.24 1.89 0.84 2.16 1.83c 0.06 0.18 0.06 0.3 0.06 0.66c 0 0.45 0 0.63 -0.15 1.08c -0.66 2.04 -3.06 3.93 -5.52 4.38c -0.54 0.09 -1.44 0.09 -1.83 0.03c -1.23 -0.27 -1.98 -0.87 -2.25 -1.86c -0.06 -0.18 -0.06 -0.3 -0.06 -0.66c 0 -0.45 0 -0.63 0.15 -1.08c 0.24 -0.78 0.75 -1.53 1.44 -2.22c 1.2 -1.2 2.85 -2.01 4.47 -2.22z"></path><line x1="147.86" x2="147.86" y1="184.72" y2="158.89" stroke="currentColor" stroke-width="1" class="abcjs-stem" data-name="stem"></line></g><g class="" fill="currentColor" stroke="none" data-name="note"><path data-name="g" d="M 195.38982583303508 149.6703335876465c 0.36 -0.03 1.2 0 1.53 0.06c 1.17 0.24 1.89 0.84 2.16 1.83c 0.06 0.18 0.06 0.3 0.06 0.66c 0 0.45 0 0.63 -0.15 1.08c -0.66 2.04 -3.06 3.93 -5.52 4.38c -0.54 0.09 -1.44 0.09 -1.83 0.03c -1.23 -0.27 -1.98 -0.87 -2.25 -1.86c -0.06 -0.18 -0.06 -0.3 -0.06 -0.66c 0 -0.45 0 -0.63 0.15 -1.08c 0.24 -0.78 0.75 -1.53 1.44 -2.22c 1.2 -1.2 2.85 -2.01 4.47 -2.22z"></path><line x1="189.8" x2="189.8" y1="180.85" y2="155.01" stroke="currentColor" stroke-width="1" class="abcjs-stem" data-name="stem"></line></g><g class="" fill="currentColor" stroke="none" data-name="note"><path data-name="f" d="M 237.33340544800842 153.5453335876465c 0.36 -0.03 1.2 0 1.53 0.06c 1.17 0.24 1.89 0.84 2.16 1.83c 0.06 0.18 0.06 0.3 0.06 0.66c 0 0.45 0 0.63 -0.15 1.08c -0.66 2.04 -3.06 3.93 -5.52 4.38c -0.54 0.09 -1.44 0.09 -1.83 0.03c -1.23 -0.27 -1.98 -0.87 -2.25 -1.86c -0.06 -0.18 -0.06 -0.3 -0.06 -0.66c 0 -0.45 0 -0.63 0.15 -1.08c 0.24 -0.78 0.75 -1.53 1.44 -2.22c 1.2 -1.2 2.85 -2.01 4.47 -2.22z"></path><line x1="231.74" x2="231.74" y1="184.72" y2="158.89" stroke="currentColor" stroke-width="1" class="abcjs-stem" data-name="stem"></line></g><g class="" fill="currentColor" stroke="none" data-name="bar"><line x1="273.49" x2="273.49" y1="188.6" y2="157.6" stroke="currentColor" stroke-width="0.6" data-name="bar"></line></g><g class="" fill="currentColor" stroke="none" data-name="note"><path data-name="e" d="M 296.3436516660701 157.4203335876465c 0.36 -0.03 1.2 0 1.53 0.06c 1.17 0.24 1.89 0.84 2.16 1.83c 0.06 0.18 0.06 0.3 0.06 0.66c 0 0.45 0 0.63 -0.15 1.08c -0.66 2.04 -3.06 3.93 -5.52 4.38c -0.54 0.09 -1.44 0.09 -1.83 0.03c -1.23 -0.27 -1.98 -0.87 -2.25 -1.86c -0.06 -0.18 -0.06 -0.3 -0.06 -0.66c 0 -0.45 0 -0.63 0.15 -1.08c 0.24 -0.78 0.75 -1.53 1.44 -2.22c 1.2 -1.2 2.85 -2.01 4.47 -2.22z"></path><text stroke="none" font-size="16" font-style="normal" font-family="&quot;Courier New&quot;" font-weight="normal" text-decoration="none" class="" text-anchor="middle" x="295.16" y="136.29" data-name="chord"><tspan x="295.16">A</tspan></text><line x1="290.55" x2="290.55" y1="190.53" y2="162.25" stroke="currentColor" stroke-width="0.6" class="abcjs-stem" data-name="stem"></line></g><g class="" fill="currentColor" stroke="none" data-name="note"><path data-name="f" d="M 326.0022412390556 153.5453335876465c 0.36 -0.03 1.2 0 1.53 0.06c 1.17 0.24 1.89 0.84 2.16 1.83c 0.06 0.18 0.06 0.3 0.06 0.66c 0 0.45 0 0.63 -0.15 1.08c -0.66 2.04 -3.06 3.93 -5.52 4.38c -0.54 0.09 -1.44 0.09 -1.83 0.03c -1.23 -0.27 -1.98 -0.87 -2.25 -1.86c -0.06 -0.18 -0.06 -0.3 -0.06 -0.66c 0 -0.45 0 -0.63 0.15 -1.08c 0.24 -0.78 0.75 -1.53 1.44 -2.22c 1.2 -1.2 2.85 -2.01 4.47 -2.22z"></path><line x1="320.21000000000004" x2="320.21000000000004" y1="191.82" y2="158.37" stroke="currentColor" stroke-width="0.6" class="abcjs-stem" data-name="stem"></line></g><g class="" fill="currentColor" stroke="none" data-name="note"><path data-name="e" d="M 355.66083081204107 157.4203335876465c 0.36 -0.03 1.2 0 1.53 0.06c 1.17 0.24 1.89 0.84 2.16 1.83c 0.06 0.18 0.06 0.3 0.06 0.66c 0 0.45 0 0.63 -0.15 1.08c -0.66 2.04 -3.06 3.93 -5.52 4.38c -0.54 0.09 -1.44 0.09 -1.83 0.03c -1.23 -0.27 -1.98 -0.87 -2.25 -1.86c -0.06 -0.18 -0.06 -0.3 -0.06 -0.66c 0 -0.45 0 -0.63 0.15 -1.08c 0.24 -0.78 0.75 -1.53 1.44 -2.22c 1.2 -1.2 2.85 -2.01 4.47 -2.22z"></path><line x1="349.87" x2="349.87" y1="193.1" y2="162.25" stroke="currentColor" stroke-width="0.6" class="abcjs-stem" data-name="stem"></line></g><g class="" fill="currentColor" stroke="none" data-name="note"><path data-name="d" d="M 385.31942038502655 161.2953335876465c 0.36 -0.03 1.2 0 1.53 0.06c 1.17 0.24 1.89 0.84 2.16 1.83c 0.06 0.18 0.06 0.3 0.06 0.66c 0 0.45 0 0.63 -0.15 1.08c -0.66 2.04 -3.06 3.93 -5.52 4.38c -0.54 0.09 -1.44 0.09 -1.83 0.03c -1.23 -0.27 -1.98 -0.87 -2.25 -1.86c -0.06 -0.18 -0.06 -0.3 -0.06 -0.66c 0 -0.45 0 -0.63 0.15 -1.08c 0.24 -0.78 0.75 -1.53 1.44 -2.22c 1.2 -1.2 2.85 -2.01 4.47 -2.22z"></path><line x1="379.53000000000003" x2="379.53000000000003" y1="194.38" y2="166.12" stroke="currentColor" stroke-width="0.6" class="abcjs-stem" data-name="stem"></line></g><g class="" fill="currentColor" stroke="none" data-name="note"><path data-name="c" d="M 416.32800995801205 165.1703335876465c 0.06 -0.03 0.27 -0.03 0.48 -0.03c 1.05 0 1.71 0.24 2.1 0.81c 0.42 0.6 0.45 1.35 0.18 2.4c -0.42 1.59 -1.14 2.73 -2.16 3.39c -1.41 0.93 -3.18 1.44 -5.4 1.53c -1.17 0.03 -1.89 -0.21 -2.28 -0.81c -0.42 -0.6 -0.45 -1.35 -0.18 -2.4c 0.42 -1.59 1.14 -2.73 2.16 -3.39c 0.63 -0.42 1.23 -0.72 1.98 -0.96c 0.9 -0.3 1.65 -0.42 3.12 -0.54zm 1.29 0.87c -0.27 -0.09 -0.63 -0.12 -0.9 -0.03c -0.72 0.24 -1.53 0.69 -3.27 1.8c -2.34 1.5 -3.3 2.25 -3.57 2.79c -0.36 0.72 -0.06 1.5 0.66 1.77c 0.24 0.12 0.69 0.09 0.99 0c 0.84 -0.3 1.92 -0.93 4.14 -2.37c 1.62 -1.08 2.37 -1.71 2.61 -2.19c 0.36 -0.72 0.06 -1.5 -0.66 -1.77z"></path><line x1="409.39" x2="409.39" y1="196.35" y2="170.51" stroke="currentColor" stroke-width="1" class="abcjs-stem" data-name="stem"></line></g><g class="" fill="currentColor" stroke="none" data-name="bar"><line x1="468.51" x2="468.51" y1="188.6" y2="157.6" stroke="currentColor" stroke-width="0.6" data-name="bar"></line></g><g class="" fill="currentColor" stroke="none" data-name="note"><path data-name="e" d="M 491.3618557070714 157.4203335876465c 0.36 -0.03 1.2 0 1.53 0.06c 1.17 0.24 1.89 0.84 2.16 1.83c 0.06 0.18 0.06 0.3 0.06 0.66c 0 0.45 0 0.63 -0.15 1.08c -0.66 2.04 -3.06 3.93 -5.52 4.38c -0.54 0.09 -1.44 0.09 -1.83 0.03c -1.23 -0.27 -1.98 -0.87 -2.25 -1.86c -0.06 -0.18 -0.06 -0.3 -0.06 -0.66c 0 -0.45 0 -0.63 0.15 -1.08c 0.24 -0.78 0.75 -1.53 1.44 -2.22c 1.2 -1.2 2.85 -2.01 4.47 -2.22z"></path><line x1="485.77" x2="485.77" y1="188.6" y2="162.76" stroke="currentColor" stroke-width="1" class="abcjs-stem" data-name="stem"></line><text stroke="none" font-size="16" font-style="normal" font-family="&quot;Courier New&quot;" font-weight="normal" text-decoration="none" class="" text-anchor="middle" x="490.18" y="136.29" data-name="chord"><tspan x="490.18">A</tspan></text></g><g class="" fill="currentColor" stroke="none" data-name="note"><path data-name="f" d="M 533.3054353220448 153.5453335876465c 0.36 -0.03 1.2 0 1.53 0.06c 1.17 0.24 1.89 0.84 2.16 1.83c 0.06 0.18 0.06 0.3 0.06 0.66c 0 0.45 0 0.63 -0.15 1.08c -0.66 2.04 -3.06 3.93 -5.52 4.38c -0.54 0.09 -1.44 0.09 -1.83 0.03c -1.23 -0.27 -1.98 -0.87 -2.25 -1.86c -0.06 -0.18 -0.06 -0.3 -0.06 -0.66c 0 -0.45 0 -0.63 0.15 -1.08c 0.24 -0.78 0.75 -1.53 1.44 -2.22c 1.2 -1.2 2.85 -2.01 4.47 -2.22z"></path><line x1="527.72" x2="527.72" y1="184.72" y2="158.89" stroke="currentColor" stroke-width="1" class="abcjs-stem" data-name="stem"></line></g><g class="" fill="currentColor" stroke="none" data-name="note"><path data-name="g" d="M 575.2490149370182 149.6703335876465c 0.36 -0.03 1.2 0 1.53 0.06c 1.17 0.24 1.89 0.84 2.16 1.83c 0.06 0.18 0.06 0.3 0.06 0.66c 0 0.45 0 0.63 -0.15 1.08c -0.66 2.04 -3.06 3.93 -5.52 4.38c -0.54 0.09 -1.44 0.09 -1.83 0.03c -1.23 -0.27 -1.98 -0.87 -2.25 -1.86c -0.06 -0.18 -0.06 -0.3 -0.06 -0.66c 0 -0.45 0 -0.63 0.15 -1.08c 0.24 -0.78 0.75 -1.53 1.44 -2.22c 1.2 -1.2 2.85 -2.01 4.47 -2.22z"></path><line x1="569.66" x2="569.66" y1="180.85" y2="155.01" stroke="currentColor" stroke-width="1" class="abcjs-stem" data-name="stem"></line></g><g class="" fill="currentColor" stroke="none" data-name="note"><path data-name="f" d="M 617.1925945519915 153.5453335876465c 0.36 -0.03 1.2 0 1.53 0.06c 1.17 0.24 1.89 0.84 2.16 1.83c 0.06 0.18 0.06 0.3 0.06 0.66c 0 0.45 0 0.63 -0.15 1.08c -0.66 2.04 -3.06 3.93 -5.52 4.38c -0.54 0.09 -1.44 0.09 -1.83 0.03c -1.23 -0.27 -1.98 -0.87 -2.25 -1.86c -0.06 -0.18 -0.06 -0.3 -0.06 -0.66c 0 -0.45 0 -0.63 0.15 -1.08c 0.24 -0.78 0.75 -1.53 1.44 -2.22c 1.2 -1.2 2.85 -2.01 4.47 -2.22z"></path><line x1="611.6" x2="611.6" y1="184.72" y2="158.89" stroke="currentColor" stroke-width="1" class="abcjs-stem" data-name="stem"></line></g><g class="" fill="currentColor" stroke="none" data-name="bar"><line x1="653.3499999999999" x2="653.3499999999999" y1="188.6" y2="157.6" stroke="currentColor" stroke-width="0.6" data-name="bar"></line></g><g class="" fill="currentColor" stroke="none" data-name="note"><path data-name="e" d="M 676.6228407700532 157.4203335876465c 0.51 -0.03 2.01 0 2.52 0.03c 1.41 0.18 2.64 0.51 3.72 1.08c 1.2 0.63 1.95 1.41 2.19 2.31c 0.09 0.33 0.09 0.9 0 1.23c -0.24 0.9 -0.99 1.68 -2.19 2.31c -1.08 0.57 -2.28 0.9 -3.75 1.08c -0.66 0.06 -2.31 0.06 -2.97 0c -1.47 -0.18 -2.67 -0.51 -3.75 -1.08c -1.2 -0.63 -1.95 -1.41 -2.19 -2.31c -0.09 -0.33 -0.09 -0.9 0 -1.23c 0.24 -0.9 0.99 -1.68 2.19 -2.31c 1.2 -0.63 2.61 -0.99 4.23 -1.11zm 0.57 0.66c -0.87 -0.15 -1.53 0 -2.04 0.51c -0.15 0.15 -0.24 0.27 -0.33 0.48c -0.24 0.51 -0.36 1.08 -0.33 1.77c 0.03 0.69 0.18 1.26 0.42 1.77c 0.6 1.17 1.74 1.98 3.18 2.22c 1.11 0.21 1.95 -0.15 2.34 -0.99c 0.24 -0.51 0.36 -1.08 0.33 -1.8c -0.06 -1.11 -0.45 -2.04 -1.17 -2.76c -0.63 -0.63 -1.47 -1.05 -2.4 -1.2z"></path><text stroke="none" font-size="16" font-style="normal" font-family="&quot;Courier New&quot;" font-weight="normal" text-decoration="none" class="" text-anchor="middle" x="677.61" y="136.29" data-name="chord"><tspan x="677.61">E</tspan></text></g><g class="" fill="currentColor" stroke="none" data-name="bar"><line x1="754.3" x2="754.3" y1="188.6" y2="157.6" stroke="currentColor" stroke-width="0.6" data-name="bar"></line></g><path d="M290.25 192.47 L379.83 196.35L379.83 192.47 L290.25 188.59z" stroke="none" fill="currentColor" class=""></path></g><g><g><line x1="15" x2="755" y1="250.1003335876465" y2="250.1003335876465" stroke="currentColor" stroke-width="0.7" class="abcjs-top-line"></line><line x1="15" x2="755" y1="257.8503335876465" y2="257.8503335876465" stroke="currentColor" stroke-width="0.7"></line><line x1="15" x2="755" y1="265.6003335876465" y2="265.6003335876465" stroke="currentColor" stroke-width="0.7"></line><line x1="15" x2="755" y1="273.3503335876465" y2="273.3503335876465" stroke="currentColor" stroke-width="0.7"></line><line x1="15" x2="755" y1="281.1003335876465" y2="281.1003335876465" stroke="currentColor" stroke-width="0.7"></line></g><g class="" fill="currentColor" stroke="none" data-name="staff-extra clef"><path data-name="clefs.G" d="M 29.689999999999998 235.7653335876465c 0.09 -0.09 0.24 -0.06 0.36 0c 0.12 0.09 0.57 0.6 0.96 1.11c 1.77 2.34 3.21 5.85 3.57 8.73c 0.21 1.56 0.03 3.27 -0.45 4.86c -0.69 2.31 -1.92 4.47 -4.23 7.44c -0.3 0.39 -0.57 0.72 -0.6 0.75c -0.03 0.06 0 0.15 0.18 0.78c 0.54 1.68 1.38 4.44 1.68 5.49l 0.09 0.42l 0.39 0c 1.47 0.09 2.76 0.51 3.96 1.29c 1.83 1.23 3.06 3.21 3.39 5.52c 0.09 0.45 0.12 1.29 0.06 1.74c -0.09 1.02 -0.33 1.83 -0.75 2.73c -0.84 1.71 -2.28 3.06 -4.02 3.72l -0.33 0.12l 0.03 1.26c 0 1.74 -0.06 3.63 -0.21 4.62c -0.45 3.06 -2.19 5.49 -4.47 6.21c -0.57 0.18 -0.9 0.21 -1.59 0.21c -0.69 0 -1.02 -0.03 -1.65 -0.21c -1.14 -0.27 -2.13 -0.84 -2.94 -1.65c -0.99 -0.99 -1.56 -2.16 -1.71 -3.54c -0.09 -0.81 0.06 -1.53 0.45 -2.13c 0.63 -0.99 1.83 -1.56 3 -1.53c 1.5 0.09 2.64 1.32 2.73 2.94c 0.06 1.47 -0.93 2.7 -2.37 2.97c -0.45 0.06 -0.84 0.03 -1.29 -0.09l -0.21 -0.09l 0.09 0.12c 0.39 0.54 0.78 0.93 1.32 1.26c 1.35 0.87 3.06 1.02 4.35 0.36c 1.44 -0.72 2.52 -2.28 2.97 -4.35c 0.15 -0.66 0.24 -1.5 0.3 -3.03c 0.03 -0.84 0.03 -2.94 0 -3c -0.03 0 -0.18 0 -0.36 0.03c -0.66 0.12 -0.99 0.12 -1.83 0.12c -1.05 0 -1.71 -0.06 -2.61 -0.3c -4.02 -0.99 -7.11 -4.35 -7.8 -8.46c -0.12 -0.66 -0.12 -0.99 -0.12 -1.83c 0 -0.84 0 -1.14 0.15 -1.92c 0.36 -2.28 1.41 -4.62 3.3 -7.29l 2.79 -3.6c 0.54 -0.66 0.96 -1.2 0.96 -1.23c 0 -0.03 -0.09 -0.33 -0.18 -0.69c -0.96 -3.21 -1.41 -5.28 -1.59 -7.68c -0.12 -1.38 -0.15 -3.09 -0.06 -3.96c 0.33 -2.67 1.38 -5.07 3.12 -7.08c 0.36 -0.42 0.99 -1.05 1.17 -1.14zm 2.01 4.71c -0.15 -0.3 -0.3 -0.54 -0.3 -0.54c -0.03 0 -0.18 0.09 -0.3 0.21c -2.4 1.74 -3.87 4.2 -4.26 7.11c -0.06 0.54 -0.06 1.41 -0.03 1.89c 0.09 1.29 0.48 3.12 1.08 5.22c 0.15 0.42 0.24 0.78 0.24 0.81c 0 0.03 0.84 -1.11 1.23 -1.68c 1.89 -2.73 2.88 -5.07 3.15 -7.53c 0.09 -0.57 0.12 -1.74 0.06 -2.37c -0.09 -1.23 -0.27 -1.92 -0.87 -3.12zm -2.94 20.7c -0.21 -0.72 -0.39 -1.32 -0.42 -1.32c 0 0 -1.2 1.47 -1.86 2.37c -2.79 3.63 -4.02 6.3 -4.35 9.3c -0.03 0.21 -0.03 0.69 -0.03 1.08c 0 0.69 0 0.75 0.06 1.11c 0.12 0.54 0.27 0.99 0.51 1.47c 0.69 1.38 1.83 2.55 3.42 3.42c 0.96 0.54 2.07 0.9 3.21 1.08c 0.78 0.12 2.04 0.12 2.94 -0.03c 0.51 -0.06 0.45 -0.03 0.42 -0.3c -0.24 -3.33 -0.72 -6.33 -1.62 -10.08c -0.09 -0.39 -0.18 -0.75 -0.18 -0.78c -0.03 -0.03 -0.42 0 -0.81 0.09c -0.9 0.18 -1.65 0.57 -2.22 1.14c -0.72 0.72 -1.08 1.65 -1.05 2.64c 0.06 0.96 0.48 1.83 1.23 2.58c 0.36 0.36 0.72 0.63 1.17 0.9c 0.33 0.18 0.36 0.21 0.42 0.33c 0.18 0.42 -0.18 0.9 -0.6 0.87c -0.18 -0.03 -0.84 -0.36 -1.26 -0.63c -0.78 -0.51 -1.38 -1.11 -1.86 -1.83c -1.77 -2.7 -0.99 -6.42 1.71 -8.19c 0.3 -0.21 0.81 -0.48 1.17 -0.63c 0.3 -0.09 1.02 -0.3 1.14 -0.3c 0.06 0 0.09 0 0.09 -0.03c 0.03 -0.03 -0.51 -1.92 -1.23 -4.26zm 3.78 7.41c -0.18 -0.03 -0.36 -0.06 -0.39 -0.06c -0.03 0 0 0.21 0.18 1.02c 0.75 3.18 1.26 6.3 1.5 9.09c 0.06 0.72 0 0.69 0.51 0.42c 0.78 -0.36 1.44 -0.96 1.98 -1.77c 1.08 -1.62 1.2 -3.69 0.3 -5.55c -0.81 -1.62 -2.31 -2.79 -4.08 -3.15z"></path></g><g class="" fill="currentColor" stroke="none" data-name="staff-extra key-signature"><path data-name="accidentals.sharp" d="M 54.781000000000006 238.7353335876465c 0.21 -0.12 0.54 -0.03 0.66 0.24c 0.06 0.12 0.06 0.21 0.06 2.31c 0 1.23 0 2.22 0.03 2.22c 0 0 0.27 -0.12 0.6 -0.24c 0.69 -0.27 0.78 -0.3 0.96 -0.15c 0.21 0.15 0.21 0.18 0.21 1.38c 0 1.02 0 1.11 -0.06 1.2c -0.03 0.06 -0.09 0.12 -0.12 0.15c -0.06 0.03 -0.42 0.21 -0.84 0.36l -0.75 0.33l -0.03 2.43c 0 1.32 0 2.43 0.03 2.43c 0 0 0.27 -0.12 0.6 -0.24c 0.69 -0.27 0.78 -0.3 0.96 -0.15c 0.21 0.15 0.21 0.18 0.21 1.38c 0 1.02 0 1.11 -0.06 1.2c -0.03 0.06 -0.09 0.12 -0.12 0.15c -0.06 0.03 -0.42 0.21 -0.84 0.36l -0.75 0.33l -0.03 2.52c 0 2.28 -0.03 2.55 -0.06 2.64c -0.21 0.36 -0.72 0.36 -0.93 0c -0.03 -0.09 -0.06 -0.33 -0.06 -2.43l 0 -2.31l -1.29 0.51l -1.26 0.51l 0 2.43c 0 2.58 0 2.52 -0.15 2.67c -0.06 0.09 -0.27 0.18 -0.36 0.18c -0.12 0 -0.33 -0.09 -0.39 -0.18c -0.15 -0.15 -0.15 -0.09 -0.15 -2.43c 0 -1.23 0 -2.22 -0.03 -2.22c 0 0 -0.27 0.12 -0.6 0.24c -0.69 0.27 -0.78 0.3 -0.96 0.15c -0.21 -0.15 -0.21 -0.18 -0.21 -1.38c 0 -1.02 0 -1.11 0.06 -1.2c 0.03 -0.06 0.09 -0.12 0.12 -0.15c 0.06 -0.03 0.42 -0.21 0.84 -0.36l 0.78 -0.33l 0 -2.43c 0 -1.32 0 -2.43 -0.03 -2.43c 0 0 -0.27 0.12 -0.6 0.24c -0.69 0.27 -0.78 0.3 -0.96 0.15c -0.21 -0.15 -0.21 -0.18 -0.21 -1.38c 0 -1.02 0 -1.11 0.06 -1.2c 0.03 -0.06 0.09 -0.12 0.12 -0.15c 0.06 -0.03 0.42 -0.21 0.84 -0.36l 0.78 -0.33l 0 -2.52c 0 -2.28 0.03 -2.55 0.06 -2.64c 0.21 -0.36 0.72 -0.36 0.93 0c 0.03 0.09 0.06 0.33 0.06 2.43l 0.03 2.31l 1.26 -0.51l 1.26 -0.51l 0 -2.43c 0 -2.28 0 -2.43 0.06 -2.55c 0.06 -0.12 0.12 -0.18 0.27 -0.24zm -0.33 10.65l 0 -2.43l -1.29 0.51l -1.26 0.51l 0 2.46l 0 2.43l 0.09 -0.03c 0.06 -0.03 0.63 -0.27 1.29 -0.51l 1.17 -0.48l 0 -2.46z"></path><path data-name="accidentals.sharp" d="M 65.031 250.3603335876465c 0.21 -0.12 0.54 -0.03 0.66 0.24c 0.06 0.12 0.06 0.21 0.06 2.31c 0 1.23 0 2.22 0.03 2.22c 0 0 0.27 -0.12 0.6 -0.24c 0.69 -0.27 0.78 -0.3 0.96 -0.15c 0.21 0.15 0.21 0.18 0.21 1.38c 0 1.02 0 1.11 -0.06 1.2c -0.03 0.06 -0.09 0.12 -0.12 0.15c -0.06 0.03 -0.42 0.21 -0.84 0.36l -0.75 0.33l -0.03 2.43c 0 1.32 0 2.43 0.03 2.43c 0 0 0.27 -0.12 0.6 -0.24c 0.69 -0.27 0.78 -0.3 0.96 -0.15c 0.21 0.15 0.21 0.18 0.21 1.38c 0 1.02 0 1.11 -0.06 1.2c -0.03 0.06 -0.09 0.12 -0.12 0.15c -0.06 0.03 -0.42 0.21 -0.84 0.36l -0.75 0.33l -0.03 2.52c 0 2.28 -0.03 2.55 -0.06 2.64c -0.21 0.36 -0.72 0.36 -0.93 0c -0.03 -0.09 -0.06 -0.33 -0.06 -2.43l 0 -2.31l -1.29 0.51l -1.26 0.51l 0 2.43c 0 2.58 0 2.52 -0.15 2.67c -0.06 0.09 -0.27 0.18 -0.36 0.18c -0.12 0 -0.33 -0.09 -0.39 -0.18c -0.15 -0.15 -0.15 -0.09 -0.15 -2.43c 0 -1.23 0 -2.22 -0.03 -2.22c 0 0 -0.27 0.12 -0.6 0.24c -0.69 0.27 -0.78 0.3 -0.96 0.15c -0.21 -0.15 -0.21 -0.18 -0.21 -1.38c 0 -1.02 0 -1.11 0.06 -1.2c 0.03 -0.06 0.09 -0.12 0.12 -0.15c 0.06 -0.03 0.42 -0.21 0.84 -0.36l 0.78 -0.33l 0 -2.43c 0 -1.32 0 -2.43 -0.03 -2.43c 0 0 -0.27 0.12 -0.6 0.24c -0.69 0.27 -0.78 0.3 -0.96 0.15c -0.21 -0.15 -0.21 -0.18 -0.21 -1.38c 0 -1.02 0 -1.11 0.06 -1.2c 0.03 -0.06 0.09 -0.12 0.12 -0.15c 0.06 -0.03 0.42 -0.21 0.84 -0.36l 0.78 -0.33l 0 -2.52c 0 -2.28 0.03 -2.55 0.06 -2.64c 0.21 -0.36 0.72 -0.36 0.93 0c 0.03 0.09 0.06 0.33 0.06 2.43l 0.03 2.31l 1.26 -0.51l 1.26 -0.51l 0 -2.43c 0 -2.28 0 -2.43 0.06 -2.55c 0.06 -0.12 0.12 -0.18 0.27 -0.24zm -0.33 10.65l 0 -2.43l -1.29 0.51l -1.26 0.51l 0 2.46l 0 2.43l 0.09 -0.03c 0.06 -0.03 0.63 -0.27 1.29 -0.51l 1.17 -0.48l 0 -2.46z"></path></g><g class="" fill="currentColor" stroke="none" data-name="note"><path data-name="e" d="M 89.70766660308838 249.75033358764648c 0.36 -0.03 1.2 0 1.53 0.06c 1.17 0.24 1.89 0.84 2.16 1.83c 0.06 0.18 0.06 0.3 0.06 0.66c 0 0.45 0 0.63 -0.15 1.08c -0.66 2.04 -3.06 3.93 -5.52 4.38c -0.54 0.09 -1.44 0.09 -1.83 0.03c -1.23 -0.27 -1.98 -0.87 -2.25 -1.86c -0.06 -0.18 -0.06 -0.3 -0.06 -0.66c 0 -0.45 0 -0.63 0.15 -1.08c 0.24 -0.78 0.75 -1.53 1.44 -2.22c 1.2 -1.2 2.85 -2.01 4.47 -2.22z"></path><line x1="84.12" x2="84.12" y1="280.93" y2="255.09" stroke="currentColor" stroke-width="1" class="abcjs-stem" data-name="stem"></line><text stroke="none" font-size="16" font-style="normal" font-family="&quot;Courier New&quot;" font-weight="normal" text-decoration="none" class="" text-anchor="middle" x="88.52" y="227.63" data-name="chord"><tspan x="88.52">A</tspan></text></g><g class="" fill="currentColor" stroke="none" data-name="note"><path data-name="f" d="M 128.85337658005372 245.87533358764648c 0.36 -0.03 1.2 0 1.53 0.06c 1.17 0.24 1.89 0.84 2.16 1.83c 0.06 0.18 0.06 0.3 0.06 0.66c 0 0.45 0 0.63 -0.15 1.08c -0.66 2.04 -3.06 3.93 -5.52 4.38c -0.54 0.09 -1.44 0.09 -1.83 0.03c -1.23 -0.27 -1.98 -0.87 -2.25 -1.86c -0.06 -0.18 -0.06 -0.3 -0.06 -0.66c 0 -0.45 0 -0.63 0.15 -1.08c 0.24 -0.78 0.75 -1.53 1.44 -2.22c 1.2 -1.2 2.85 -2.01 4.47 -2.22z"></path><line x1="123.26" x2="123.26" y1="277.05" y2="251.22" stroke="currentColor" stroke-width="1" class="abcjs-stem" data-name="stem"></line></g><g class="" fill="currentColor" stroke="none" data-name="note"><path data-name="g" d="M 167.99908655701907 242.00033358764648c 0.36 -0.03 1.2 0 1.53 0.06c 1.17 0.24 1.89 0.84 2.16 1.83c 0.06 0.18 0.06 0.3 0.06 0.66c 0 0.45 0 0.63 -0.15 1.08c -0.66 2.04 -3.06 3.93 -5.52 4.38c -0.54 0.09 -1.44 0.09 -1.83 0.03c -1.23 -0.27 -1.98 -0.87 -2.25 -1.86c -0.06 -0.18 -0.06 -0.3 -0.06 -0.66c 0 -0.45 0 -0.63 0.15 -1.08c 0.24 -0.78 0.75 -1.53 1.44 -2.22c 1.2 -1.2 2.85 -2.01 4.47 -2.22z"></path><line x1="162.41" x2="162.41" y1="273.18" y2="247.34" stroke="currentColor" stroke-width="1" class="abcjs-stem" data-name="stem"></line></g><g class="" fill="currentColor" stroke="none" data-name="note"><path data-name="f" d="M 207.14479653398442 245.87533358764648c 0.36 -0.03 1.2 0 1.53 0.06c 1.17 0.24 1.89 0.84 2.16 1.83c 0.06 0.18 0.06 0.3 0.06 0.66c 0 0.45 0 0.63 -0.15 1.08c -0.66 2.04 -3.06 3.93 -5.52 4.38c -0.54 0.09 -1.44 0.09 -1.83 0.03c -1.23 -0.27 -1.98 -0.87 -2.25 -1.86c -0.06 -0.18 -0.06 -0.3 -0.06 -0.66c 0 -0.45 0 -0.63 0.15 -1.08c 0.24 -0.78 0.75 -1.53 1.44 -2.22c 1.2 -1.2 2.85 -2.01 4.47 -2.22z"></path><line x1="201.55" x2="201.55" y1="277.05" y2="251.22" stroke="currentColor" stroke-width="1" class="abcjs-stem" data-name="stem"></line></g><g class="" fill="currentColor" stroke="none" data-name="bar"><line x1="240.5" x2="240.5" y1="280.93" y2="249.93" stroke="currentColor" stroke-width="0.6" data-name="bar"></line></g><g class="" fill="currentColor" stroke="none" data-name="note"><path data-name="e" d="M 263.3571731140381 249.75033358764648c 0.36 -0.03 1.2 0 1.53 0.06c 1.17 0.24 1.89 0.84 2.16 1.83c 0.06 0.18 0.06 0.3 0.06 0.66c 0 0.45 0 0.63 -0.15 1.08c -0.66 2.04 -3.06 3.93 -5.52 4.38c -0.54 0.09 -1.44 0.09 -1.83 0.03c -1.23 -0.27 -1.98 -0.87 -2.25 -1.86c -0.06 -0.18 -0.06 -0.3 -0.06 -0.66c 0 -0.45 0 -0.63 0.15 -1.08c 0.24 -0.78 0.75 -1.53 1.44 -2.22c 1.2 -1.2 2.85 -2.01 4.47 -2.22z"></path><text stroke="none" font-size="16" font-style="normal" font-family="&quot;Courier New&quot;" font-weight="normal" text-decoration="none" class="" text-anchor="middle" x="262.17" y="227.63" data-name="chord"><tspan x="262.17">A</tspan></text><line x1="257.57" x2="257.57" y1="282.86" y2="254.58" stroke="currentColor" stroke-width="0.6" class="abcjs-stem" data-name="stem"></line></g><g class="" fill="currentColor" stroke="none" data-name="note"><path data-name="f" d="M 291.0373700931122 245.87533358764648c 0.36 -0.03 1.2 0 1.53 0.06c 1.17 0.24 1.89 0.84 2.16 1.83c 0.06 0.18 0.06 0.3 0.06 0.66c 0 0.45 0 0.63 -0.15 1.08c -0.66 2.04 -3.06 3.93 -5.52 4.38c -0.54 0.09 -1.44 0.09 -1.83 0.03c -1.23 -0.27 -1.98 -0.87 -2.25 -1.86c -0.06 -0.18 -0.06 -0.3 -0.06 -0.66c 0 -0.45 0 -0.63 0.15 -1.08c 0.24 -0.78 0.75 -1.53 1.44 -2.22c 1.2 -1.2 2.85 -2.01 4.47 -2.22z"></path><line x1="285.25" x2="285.25" y1="284.15" y2="250.7" stroke="currentColor" stroke-width="0.6" class="abcjs-stem" data-name="stem"></line></g><g class="" fill="currentColor" stroke="none" data-name="note"><path data-name="e" d="M 318.7175670721863 249.75033358764648c 0.36 -0.03 1.2 0 1.53 0.06c 1.17 0.24 1.89 0.84 2.16 1.83c 0.06 0.18 0.06 0.3 0.06 0.66c 0 0.45 0 0.63 -0.15 1.08c -0.66 2.04 -3.06 3.93 -5.52 4.38c -0.54 0.09 -1.44 0.09 -1.83 0.03c -1.23 -0.27 -1.98 -0.87 -2.25 -1.86c -0.06 -0.18 -0.06 -0.3 -0.06 -0.66c 0 -0.45 0 -0.63 0.15 -1.08c 0.24 -0.78 0.75 -1.53 1.44 -2.22c 1.2 -1.2 2.85 -2.01 4.47 -2.22z"></path><line x1="312.93" x2="312.93" y1="285.43" y2="254.58" stroke="currentColor" stroke-width="0.6" class="abcjs-stem" data-name="stem"></line></g><g class="" fill="currentColor" stroke="none" data-name="note"><path data-name="d" d="M 346.39776405126037 253.62533358764648c 0.36 -0.03 1.2 0 1.53 0.06c 1.17 0.24 1.89 0.84 2.16 1.83c 0.06 0.18 0.06 0.3 0.06 0.66c 0 0.45 0 0.63 -0.15 1.08c -0.66 2.04 -3.06 3.93 -5.52 4.38c -0.54 0.09 -1.44 0.09 -1.83 0.03c -1.23 -0.27 -1.98 -0.87 -2.25 -1.86c -0.06 -0.18 -0.06 -0.3 -0.06 -0.66c 0 -0.45 0 -0.63 0.15 -1.08c 0.24 -0.78 0.75 -1.53 1.44 -2.22c 1.2 -1.2 2.85 -2.01 4.47 -2.22z"></path><line x1="340.61" x2="340.61" y1="286.71" y2="258.45" stroke="currentColor" stroke-width="0.6" class="abcjs-stem" data-name="stem"></line></g><g class="" fill="currentColor" stroke="none" data-name="note"><path data-name="c" d="M 375.4279610303345 257.5003335876465c 0.06 -0.03 0.27 -0.03 0.48 -0.03c 1.05 0 1.71 0.24 2.1 0.81c 0.42 0.6 0.45 1.35 0.18 2.4c -0.42 1.59 -1.14 2.73 -2.16 3.39c -1.41 0.93 -3.18 1.44 -5.4 1.53c -1.17 0.03 -1.89 -0.21 -2.28 -0.81c -0.42 -0.6 -0.45 -1.35 -0.18 -2.4c 0.42 -1.59 1.14 -2.73 2.16 -3.39c 0.63 -0.42 1.23 -0.72 1.98 -0.96c 0.9 -0.3 1.65 -0.42 3.12 -0.54zm 1.29 0.87c -0.27 -0.09 -0.63 -0.12 -0.9 -0.03c -0.72 0.24 -1.53 0.69 -3.27 1.8c -2.34 1.5 -3.3 2.25 -3.57 2.79c -0.36 0.72 -0.06 1.5 0.66 1.77c 0.24 0.12 0.69 0.09 0.99 0c 0.84 -0.3 1.92 -0.93 4.14 -2.37c 1.62 -1.08 2.37 -1.71 2.61 -2.19c 0.36 -0.72 0.06 -1.5 -0.66 -1.77z"></path><line x1="368.49" x2="368.49" y1="288.68" y2="262.84" stroke="currentColor" stroke-width="1" class="abcjs-stem" data-name="stem"></line></g><g class="" fill="currentColor" stroke="none" data-name="bar"><line x1="423.65000000000003" x2="423.65000000000003" y1="280.93" y2="249.93" stroke="currentColor" stroke-width="0.6" data-name="bar"></line></g><g class="" fill="currentColor" stroke="none" data-name="note"><path data-name="c" d="M 446.505021591571 257.5003335876465c 0.36 -0.03 1.2 0 1.53 0.06c 1.17 0.24 1.89 0.84 2.16 1.83c 0.06 0.18 0.06 0.3 0.06 0.66c 0 0.45 0 0.63 -0.15 1.08c -0.66 2.04 -3.06 3.93 -5.52 4.38c -0.54 0.09 -1.44 0.09 -1.83 0.03c -1.23 -0.27 -1.98 -0.87 -2.25 -1.86c -0.06 -0.18 -0.06 -0.3 -0.06 -0.66c 0 -0.45 0 -0.63 0.15 -1.08c 0.24 -0.78 0.75 -1.53 1.44 -2.22c 1.2 -1.2 2.85 -2.01 4.47 -2.22z"></path><text stroke="none" font-size="16" font-style="normal" font-family="&quot;Courier New&quot;" font-weight="normal" text-decoration="none" class="" text-anchor="middle" x="445.32" y="227.63" data-name="chord"><tspan x="445.32">A</tspan></text><line x1="440.72" x2="440.72" y1="294.49" y2="262.33" stroke="currentColor" stroke-width="0.6" class="abcjs-stem" data-name="stem"></line></g><g class="" fill="currentColor" stroke="none" data-name="note"><path data-name="B" d="M 474.1852185706451 261.3753335876465c 0.36 -0.03 1.2 0 1.53 0.06c 1.17 0.24 1.89 0.84 2.16 1.83c 0.06 0.18 0.06 0.3 0.06 0.66c 0 0.45 0 0.63 -0.15 1.08c -0.66 2.04 -3.06 3.93 -5.52 4.38c -0.54 0.09 -1.44 0.09 -1.83 0.03c -1.23 -0.27 -1.98 -0.87 -2.25 -1.86c -0.06 -0.18 -0.06 -0.3 -0.06 -0.66c 0 -0.45 0 -0.63 0.15 -1.08c 0.24 -0.78 0.75 -1.53 1.44 -2.22c 1.2 -1.2 2.85 -2.01 4.47 -2.22z"></path><line x1="468.40000000000003" x2="468.40000000000003" y1="294.49" y2="266.2" stroke="currentColor" stroke-width="0.6" class="abcjs-stem" data-name="stem"></line></g><g class="" fill="currentColor" stroke="none" data-name="note"><path data-name="A" d="M 501.86541554971916 265.2503335876465c 0.36 -0.03 1.2 0 1.53 0.06c 1.17 0.24 1.89 0.84 2.16 1.83c 0.06 0.18 0.06 0.3 0.06 0.66c 0 0.45 0 0.63 -0.15 1.08c -0.66 2.04 -3.06 3.93 -5.52 4.38c -0.54 0.09 -1.44 0.09 -1.83 0.03c -1.23 -0.27 -1.98 -0.87 -2.25 -1.86c -0.06 -0.18 -0.06 -0.3 -0.06 -0.66c 0 -0.45 0 -0.63 0.15 -1.08c 0.24 -0.78 0.75 -1.53 1.44 -2.22c 1.2 -1.2 2.85 -2.01 4.47 -2.22z"></path><line x1="496.08" x2="496.08" y1="294.49" y2="270.08" stroke="currentColor" stroke-width="0.6" class="abcjs-stem" data-name="stem"></line></g><g class="" fill="currentColor" stroke="none" data-name="note"><path data-name="c" d="M 529.5456125287933 257.5003335876465c 0.36 -0.03 1.2 0 1.53 0.06c 1.17 0.24 1.89 0.84 2.16 1.83c 0.06 0.18 0.06 0.3 0.06 0.66c 0 0.45 0 0.63 -0.15 1.08c -0.66 2.04 -3.06 3.93 -5.52 4.38c -0.54 0.09 -1.44 0.09 -1.83 0.03c -1.23 -0.27 -1.98 -0.87 -2.25 -1.86c -0.06 -0.18 -0.06 -0.3 -0.06 -0.66c 0 -0.45 0 -0.63 0.15 -1.08c 0.24 -0.78 0.75 -1.53 1.44 -2.22c 1.2 -1.2 2.85 -2.01 4.47 -2.22z"></path><line x1="523.76" x2="523.76" y1="294.49" y2="262.33" stroke="currentColor" stroke-width="0.6" class="abcjs-stem" data-name="stem"></line></g><g class="" fill="currentColor" stroke="none" data-name="note"><path data-name="B" d="M 557.2258095078674 261.3753335876465c 0.36 -0.03 1.2 0 1.53 0.06c 1.17 0.24 1.89 0.84 2.16 1.83c 0.06 0.18 0.06 0.3 0.06 0.66c 0 0.45 0 0.63 -0.15 1.08c -0.66 2.04 -3.06 3.93 -5.52 4.38c -0.54 0.09 -1.44 0.09 -1.83 0.03c -1.23 -0.27 -1.98 -0.87 -2.25 -1.86c -0.06 -0.18 -0.06 -0.3 -0.06 -0.66c 0 -0.45 0 -0.63 0.15 -1.08c 0.24 -0.78 0.75 -1.53 1.44 -2.22c 1.2 -1.2 2.85 -2.01 4.47 -2.22z"></path><text stroke="none" font-size="16" font-style="normal" font-family="&quot;Courier New&quot;" font-weight="normal" text-decoration="none" class="" text-anchor="middle" x="556.04" y="227.63" data-name="chord"><tspan x="556.04">G</tspan></text><line x1="560.6500000000001" x2="560.6500000000001" y1="234.51" y2="264.65" stroke="currentColor" stroke-width="0.6" class="abcjs-stem" data-name="stem"></line></g><g class="" fill="currentColor" stroke="none" data-name="note"><path data-name="A" d="M 584.9060064869416 265.2503335876465c 0.36 -0.03 1.2 0 1.53 0.06c 1.17 0.24 1.89 0.84 2.16 1.83c 0.06 0.18 0.06 0.3 0.06 0.66c 0 0.45 0 0.63 -0.15 1.08c -0.66 2.04 -3.06 3.93 -5.52 4.38c -0.54 0.09 -1.44 0.09 -1.83 0.03c -1.23 -0.27 -1.98 -0.87 -2.25 -1.86c -0.06 -0.18 -0.06 -0.3 -0.06 -0.66c 0 -0.45 0 -0.63 0.15 -1.08c 0.24 -0.78 0.75 -1.53 1.44 -2.22c 1.2 -1.2 2.85 -2.01 4.47 -2.22z"></path><line x1="588.33" x2="588.33" y1="238.3" y2="268.53" stroke="currentColor" stroke-width="0.6" class="abcjs-stem" data-name="stem"></line></g><g class="" fill="currentColor" stroke="none" data-name="note"><path data-name="G" d="M 612.5862034660157 269.1253335876465c 0.36 -0.03 1.2 0 1.53 0.06c 1.17 0.24 1.89 0.84 2.16 1.83c 0.06 0.18 0.06 0.3 0.06 0.66c 0 0.45 0 0.63 -0.15 1.08c -0.66 2.04 -3.06 3.93 -5.52 4.38c -0.54 0.09 -1.44 0.09 -1.83 0.03c -1.23 -0.27 -1.98 -0.87 -2.25 -1.86c -0.06 -0.18 -0.06 -0.3 -0.06 -0.66c 0 -0.45 0 -0.63 0.15 -1.08c 0.24 -0.78 0.75 -1.53 1.44 -2.22c 1.2 -1.2 2.85 -2.01 4.47 -2.22z"></path><line x1="615.81" x2="615.81" y1="246.05" y2="271.88" stroke="currentColor" stroke-width="1" class="abcjs-stem" data-name="stem"></line></g><g class="" fill="currentColor" stroke="none" data-name="bar"><line x1="645.9399999999999" x2="645.9399999999999" y1="280.93" y2="249.93" stroke="currentColor" stroke-width="0.6" data-name="bar"></line></g><g class="" fill="currentColor" stroke="none" data-name="note"><path data-name="A" d="M 669.2185800460694 265.2503335876465c 0.51 -0.03 2.01 0 2.52 0.03c 1.41 0.18 2.64 0.51 3.72 1.08c 1.2 0.63 1.95 1.41 2.19 2.31c 0.09 0.33 0.09 0.9 0 1.23c -0.24 0.9 -0.99 1.68 -2.19 2.31c -1.08 0.57 -2.28 0.9 -3.75 1.08c -0.66 0.06 -2.31 0.06 -2.97 0c -1.47 -0.18 -2.67 -0.51 -3.75 -1.08c -1.2 -0.63 -1.95 -1.41 -2.19 -2.31c -0.09 -0.33 -0.09 -0.9 0 -1.23c 0.24 -0.9 0.99 -1.68 2.19 -2.31c 1.2 -0.63 2.61 -0.99 4.23 -1.11zm 0.57 0.66c -0.87 -0.15 -1.53 0 -2.04 0.51c -0.15 0.15 -0.24 0.27 -0.33 0.48c -0.24 0.51 -0.36 1.08 -0.33 1.77c 0.03 0.69 0.18 1.26 0.42 1.77c 0.6 1.17 1.74 1.98 3.18 2.22c 1.11 0.21 1.95 -0.15 2.34 -0.99c 0.24 -0.51 0.36 -1.08 0.33 -1.8c -0.06 -1.11 -0.45 -2.04 -1.17 -2.76c -0.63 -0.63 -1.47 -1.05 -2.4 -1.2z"></path><text stroke="none" font-size="16" font-style="normal" font-family="&quot;Courier New&quot;" font-weight="normal" text-decoration="none" class="" text-anchor="middle" x="670.2" y="227.63" data-name="chord"><tspan x="670.2">A</tspan></text></g><g class="" fill="currentColor" stroke="none" data-name="bar"><path data-name="dots.dot" d="M 742.3200000000002 259.8703335876465c 0.09 -0.03 0.27 -0.06 0.39 -0.06c 0.96 0 1.74 0.78 1.74 1.71c 0 0.96 -0.78 1.74 -1.71 1.74c -0.96 0 -1.74 -0.78 -1.74 -1.71c 0 -0.78 0.54 -1.5 1.32 -1.68z"></path><path data-name="dots.dot" d="M 742.3200000000002 267.6203335876465c 0.09 -0.03 0.27 -0.06 0.39 -0.06c 0.96 0 1.74 0.78 1.74 1.71c 0 0.96 -0.78 1.74 -1.71 1.74c -0.96 0 -1.74 -0.78 -1.74 -1.71c 0 -0.78 0.54 -1.5 1.32 -1.68z"></path><line x1="747.3" x2="747.3" y1="280.93" y2="249.93" stroke="currentColor" stroke-width="0.6" data-name="bar"></line><line x1="753" x2="753" y1="280.93" y2="249.93" stroke="currentColor" stroke-width="4" data-name="bar"></line></g><path d="M257.27 284.8 L340.91 288.68L340.91 284.81 L257.27 280.93z" stroke="none" fill="currentColor" class=""></path><path d="M440.42 296.43 L524.06 296.43L524.06 292.56 L440.42 292.56z" stroke="none" fill="currentColor" class=""></path><path d="M560.35 234.43 L588.63 238.3L588.63 242.18 L560.35 238.31z" stroke="none" fill="currentColor" class=""></path></g><g><g><line x1="15" x2="755" y1="354.646167175293" y2="354.646167175293" stroke="currentColor" stroke-width="0.7" class="abcjs-top-line"></line><line x1="15" x2="755" y1="362.396167175293" y2="362.396167175293" stroke="currentColor" stroke-width="0.7"></line><line x1="15" x2="755" y1="370.146167175293" y2="370.146167175293" stroke="currentColor" stroke-width="0.7"></line><line x1="15" x2="755" y1="377.896167175293" y2="377.896167175293" stroke="currentColor" stroke-width="0.7"></line><line x1="15" x2="755" y1="385.646167175293" y2="385.646167175293" stroke="currentColor" stroke-width="0.7"></line></g><g class="" fill="currentColor" stroke="none" data-name="staff-extra clef"><path data-name="clefs.G" d="M 29.689999999999998 340.311167175293c 0.09 -0.09 0.24 -0.06 0.36 0c 0.12 0.09 0.57 0.6 0.96 1.11c 1.77 2.34 3.21 5.85 3.57 8.73c 0.21 1.56 0.03 3.27 -0.45 4.86c -0.69 2.31 -1.92 4.47 -4.23 7.44c -0.3 0.39 -0.57 0.72 -0.6 0.75c -0.03 0.06 0 0.15 0.18 0.78c 0.54 1.68 1.38 4.44 1.68 5.49l 0.09 0.42l 0.39 0c 1.47 0.09 2.76 0.51 3.96 1.29c 1.83 1.23 3.06 3.21 3.39 5.52c 0.09 0.45 0.12 1.29 0.06 1.74c -0.09 1.02 -0.33 1.83 -0.75 2.73c -0.84 1.71 -2.28 3.06 -4.02 3.72l -0.33 0.12l 0.03 1.26c 0 1.74 -0.06 3.63 -0.21 4.62c -0.45 3.06 -2.19 5.49 -4.47 6.21c -0.57 0.18 -0.9 0.21 -1.59 0.21c -0.69 0 -1.02 -0.03 -1.65 -0.21c -1.14 -0.27 -2.13 -0.84 -2.94 -1.65c -0.99 -0.99 -1.56 -2.16 -1.71 -3.54c -0.09 -0.81 0.06 -1.53 0.45 -2.13c 0.63 -0.99 1.83 -1.56 3 -1.53c 1.5 0.09 2.64 1.32 2.73 2.94c 0.06 1.47 -0.93 2.7 -2.37 2.97c -0.45 0.06 -0.84 0.03 -1.29 -0.09l -0.21 -0.09l 0.09 0.12c 0.39 0.54 0.78 0.93 1.32 1.26c 1.35 0.87 3.06 1.02 4.35 0.36c 1.44 -0.72 2.52 -2.28 2.97 -4.35c 0.15 -0.66 0.24 -1.5 0.3 -3.03c 0.03 -0.84 0.03 -2.94 0 -3c -0.03 0 -0.18 0 -0.36 0.03c -0.66 0.12 -0.99 0.12 -1.83 0.12c -1.05 0 -1.71 -0.06 -2.61 -0.3c -4.02 -0.99 -7.11 -4.35 -7.8 -8.46c -0.12 -0.66 -0.12 -0.99 -0.12 -1.83c 0 -0.84 0 -1.14 0.15 -1.92c 0.36 -2.28 1.41 -4.62 3.3 -7.29l 2.79 -3.6c 0.54 -0.66 0.96 -1.2 0.96 -1.23c 0 -0.03 -0.09 -0.33 -0.18 -0.69c -0.96 -3.21 -1.41 -5.28 -1.59 -7.68c -0.12 -1.38 -0.15 -3.09 -0.06 -3.96c 0.33 -2.67 1.38 -5.07 3.12 -7.08c 0.36 -0.42 0.99 -1.05 1.17 -1.14zm 2.01 4.71c -0.15 -0.3 -0.3 -0.54 -0.3 -0.54c -0.03 0 -0.18 0.09 -0.3 0.21c -2.4 1.74 -3.87 4.2 -4.26 7.11c -0.06 0.54 -0.06 1.41 -0.03 1.89c 0.09 1.29 0.48 3.12 1.08 5.22c 0.15 0.42 0.24 0.78 0.24 0.81c 0 0.03 0.84 -1.11 1.23 -1.68c 1.89 -2.73 2.88 -5.07 3.15 -7.53c 0.09 -0.57 0.12 -1.74 0.06 -2.37c -0.09 -1.23 -0.27 -1.92 -0.87 -3.12zm -2.94 20.7c -0.21 -0.72 -0.39 -1.32 -0.42 -1.32c 0 0 -1.2 1.47 -1.86 2.37c -2.79 3.63 -4.02 6.3 -4.35 9.3c -0.03 0.21 -0.03 0.69 -0.03 1.08c 0 0.69 0 0.75 0.06 1.11c 0.12 0.54 0.27 0.99 0.51 1.47c 0.69 1.38 1.83 2.55 3.42 3.42c 0.96 0.54 2.07 0.9 3.21 1.08c 0.78 0.12 2.04 0.12 2.94 -0.03c 0.51 -0.06 0.45 -0.03 0.42 -0.3c -0.24 -3.33 -0.72 -6.33 -1.62 -10.08c -0.09 -0.39 -0.18 -0.75 -0.18 -0.78c -0.03 -0.03 -0.42 0 -0.81 0.09c -0.9 0.18 -1.65 0.57 -2.22 1.14c -0.72 0.72 -1.08 1.65 -1.05 2.64c 0.06 0.96 0.48 1.83 1.23 2.58c 0.36 0.36 0.72 0.63 1.17 0.9c 0.33 0.18 0.36 0.21 0.42 0.33c 0.18 0.42 -0.18 0.9 -0.6 0.87c -0.18 -0.03 -0.84 -0.36 -1.26 -0.63c -0.78 -0.51 -1.38 -1.11 -1.86 -1.83c -1.77 -2.7 -0.99 -6.42 1.71 -8.19c 0.3 -0.21 0.81 -0.48 1.17 -0.63c 0.3 -0.09 1.02 -0.3 1.14 -0.3c 0.06 0 0.09 0 0.09 -0.03c 0.03 -0.03 -0.51 -1.92 -1.23 -4.26zm 3.78 7.41c -0.18 -0.03 -0.36 -0.06 -0.39 -0.06c -0.03 0 0 0.21 0.18 1.02c 0.75 3.18 1.26 6.3 1.5 9.09c 0.06 0.72 0 0.69 0.51 0.42c 0.78 -0.36 1.44 -0.96 1.98 -1.77c 1.08 -1.62 1.2 -3.69 0.3 -5.55c -0.81 -1.62 -2.31 -2.79 -4.08 -3.15z"></path></g><g class="" fill="currentColor" stroke="none" data-name="staff-extra key-signature"><path data-name="accidentals.sharp" d="M 54.781000000000006 343.281167175293c 0.21 -0.12 0.54 -0.03 0.66 0.24c 0.06 0.12 0.06 0.21 0.06 2.31c 0 1.23 0 2.22 0.03 2.22c 0 0 0.27 -0.12 0.6 -0.24c 0.69 -0.27 0.78 -0.3 0.96 -0.15c 0.21 0.15 0.21 0.18 0.21 1.38c 0 1.02 0 1.11 -0.06 1.2c -0.03 0.06 -0.09 0.12 -0.12 0.15c -0.06 0.03 -0.42 0.21 -0.84 0.36l -0.75 0.33l -0.03 2.43c 0 1.32 0 2.43 0.03 2.43c 0 0 0.27 -0.12 0.6 -0.24c 0.69 -0.27 0.78 -0.3 0.96 -0.15c 0.21 0.15 0.21 0.18 0.21 1.38c 0 1.02 0 1.11 -0.06 1.2c -0.03 0.06 -0.09 0.12 -0.12 0.15c -0.06 0.03 -0.42 0.21 -0.84 0.36l -0.75 0.33l -0.03 2.52c 0 2.28 -0.03 2.55 -0.06 2.64c -0.21 0.36 -0.72 0.36 -0.93 0c -0.03 -0.09 -0.06 -0.33 -0.06 -2.43l 0 -2.31l -1.29 0.51l -1.26 0.51l 0 2.43c 0 2.58 0 2.52 -0.15 2.67c -0.06 0.09 -0.27 0.18 -0.36 0.18c -0.12 0 -0.33 -0.09 -0.39 -0.18c -0.15 -0.15 -0.15 -0.09 -0.15 -2.43c 0 -1.23 0 -2.22 -0.03 -2.22c 0 0 -0.27 0.12 -0.6 0.24c -0.69 0.27 -0.78 0.3 -0.96 0.15c -0.21 -0.15 -0.21 -0.18 -0.21 -1.38c 0 -1.02 0 -1.11 0.06 -1.2c 0.03 -0.06 0.09 -0.12 0.12 -0.15c 0.06 -0.03 0.42 -0.21 0.84 -0.36l 0.78 -0.33l 0 -2.43c 0 -1.32 0 -2.43 -0.03 -2.43c 0 0 -0.27 0.12 -0.6 0.24c -0.69 0.27 -0.78 0.3 -0.96 0.15c -0.21 -0.15 -0.21 -0.18 -0.21 -1.38c 0 -1.02 0 -1.11 0.06 -1.2c 0.03 -0.06 0.09 -0.12 0.12 -0.15c 0.06 -0.03 0.42 -0.21 0.84 -0.36l 0.78 -0.33l 0 -2.52c 0 -2.28 0.03 -2.55 0.06 -2.64c 0.21 -0.36 0.72 -0.36 0.93 0c 0.03 0.09 0.06 0.33 0.06 2.43l 0.03 2.31l 1.26 -0.51l 1.26 -0.51l 0 -2.43c 0 -2.28 0 -2.43 0.06 -2.55c 0.06 -0.12 0.12 -0.18 0.27 -0.24zm -0.33 10.65l 0 -2.43l -1.29 0.51l -1.26 0.51l 0 2.46l 0 2.43l 0.09 -0.03c 0.06 -0.03 0.63 -0.27 1.29 -0.51l 1.17 -0.48l 0 -2.46z"></path><path data-name="accidentals.sharp" d="M 65.031 354.906167175293c 0.21 -0.12 0.54 -0.03 0.66 0.24c 0.06 0.12 0.06 0.21 0.06 2.31c 0 1.23 0 2.22 0.03 2.22c 0 0 0.27 -0.12 0.6 -0.24c 0.69 -0.27 0.78 -0.3 0.96 -0.15c 0.21 0.15 0.21 0.18 0.21 1.38c 0 1.02 0 1.11 -0.06 1.2c -0.03 0.06 -0.09 0.12 -0.12 0.15c -0.06 0.03 -0.42 0.21 -0.84 0.36l -0.75 0.33l -0.03 2.43c 0 1.32 0 2.43 0.03 2.43c 0 0 0.27 -0.12 0.6 -0.24c 0.69 -0.27 0.78 -0.3 0.96 -0.15c 0.21 0.15 0.21 0.18 0.21 1.38c 0 1.02 0 1.11 -0.06 1.2c -0.03 0.06 -0.09 0.12 -0.12 0.15c -0.06 0.03 -0.42 0.21 -0.84 0.36l -0.75 0.33l -0.03 2.52c 0 2.28 -0.03 2.55 -0.06 2.64c -0.21 0.36 -0.72 0.36 -0.93 0c -0.03 -0.09 -0.06 -0.33 -0.06 -2.43l 0 -2.31l -1.29 0.51l -1.26 0.51l 0 2.43c 0 2.58 0 2.52 -0.15 2.67c -0.06 0.09 -0.27 0.18 -0.36 0.18c -0.12 0 -0.33 -0.09 -0.39 -0.18c -0.15 -0.15 -0.15 -0.09 -0.15 -2.43c 0 -1.23 0 -2.22 -0.03 -2.22c 0 0 -0.27 0.12 -0.6 0.24c -0.69 0.27 -0.78 0.3 -0.96 0.15c -0.21 -0.15 -0.21 -0.18 -0.21 -1.38c 0 -1.02 0 -1.11 0.06 -1.2c 0.03 -0.06 0.09 -0.12 0.12 -0.15c 0.06 -0.03 0.42 -0.21 0.84 -0.36l 0.78 -0.33l 0 -2.43c 0 -1.32 0 -2.43 -0.03 -2.43c 0 0 -0.27 0.12 -0.6 0.24c -0.69 0.27 -0.78 0.3 -0.96 0.15c -0.21 -0.15 -0.21 -0.18 -0.21 -1.38c 0 -1.02 0 -1.11 0.06 -1.2c 0.03 -0.06 0.09 -0.12 0.12 -0.15c 0.06 -0.03 0.42 -0.21 0.84 -0.36l 0.78 -0.33l 0 -2.52c 0 -2.28 0.03 -2.55 0.06 -2.64c 0.21 -0.36 0.72 -0.36 0.93 0c 0.03 0.09 0.06 0.33 0.06 2.43l 0.03 2.31l 1.26 -0.51l 1.26 -0.51l 0 -2.43c 0 -2.28 0 -2.43 0.06 -2.55c 0.06 -0.12 0.12 -0.18 0.27 -0.24zm -0.33 10.65l 0 -2.43l -1.29 0.51l -1.26 0.51l 0 2.46l 0 2.43l 0.09 -0.03c 0.06 -0.03 0.63 -0.27 1.29 -0.51l 1.17 -0.48l 0 -2.46z"></path></g><g class="" fill="currentColor" stroke="none" data-name="part"><text stroke="none" font-size="17" font-style="normal" font-family="Helvetica" font-weight="normal" text-decoration="none" class="" text-anchor="start" x="77.55" y="311.49" data-name="B-part"><tspan x="77.55">B-part</tspan></text></g><g class="" fill="currentColor" stroke="none" data-name="note"><path data-name="A" d="M 89.70766660308838 369.79616717529296c 0.36 -0.03 1.2 0 1.53 0.06c 1.17 0.24 1.89 0.84 2.16 1.83c 0.06 0.18 0.06 0.3 0.06 0.66c 0 0.45 0 0.63 -0.15 1.08c -0.66 2.04 -3.06 3.93 -5.52 4.38c -0.54 0.09 -1.44 0.09 -1.83 0.03c -1.23 -0.27 -1.98 -0.87 -2.25 -1.86c -0.06 -0.18 -0.06 -0.3 -0.06 -0.66c 0 -0.45 0 -0.63 0.15 -1.08c 0.24 -0.78 0.75 -1.53 1.44 -2.22c 1.2 -1.2 2.85 -2.01 4.47 -2.22z"></path><line x1="92.93" x2="92.93" y1="346.72" y2="372.55" stroke="currentColor" stroke-width="1" class="abcjs-stem" data-name="stem"></line><text stroke="none" font-size="16" font-style="normal" font-family="&quot;Courier New&quot;" font-weight="normal" text-decoration="none" class="" text-anchor="middle" x="88.52" y="332.1" data-name="chord"><tspan x="88.52">A</tspan></text></g><g class="" fill="currentColor" stroke="none" data-name="note"><path data-name="A" d="M 125.47021473793507 369.79616717529296c 0.36 -0.03 1.2 0 1.53 0.06c 1.17 0.24 1.89 0.84 2.16 1.83c 0.06 0.18 0.06 0.3 0.06 0.66c 0 0.45 0 0.63 -0.15 1.08c -0.66 2.04 -3.06 3.93 -5.52 4.38c -0.54 0.09 -1.44 0.09 -1.83 0.03c -1.23 -0.27 -1.98 -0.87 -2.25 -1.86c -0.06 -0.18 -0.06 -0.3 -0.06 -0.66c 0 -0.45 0 -0.63 0.15 -1.08c 0.24 -0.78 0.75 -1.53 1.44 -2.22c 1.2 -1.2 2.85 -2.01 4.47 -2.22z"></path><line x1="128.89" x2="128.89" y1="342.76" y2="373.07" stroke="currentColor" stroke-width="0.6" class="abcjs-stem" data-name="stem"></line></g><g class="" fill="currentColor" stroke="none" data-name="note"><path data-name="B" d="M 150.75815503659547 365.92116717529296c 0.36 -0.03 1.2 0 1.53 0.06c 1.17 0.24 1.89 0.84 2.16 1.83c 0.06 0.18 0.06 0.3 0.06 0.66c 0 0.45 0 0.63 -0.15 1.08c -0.66 2.04 -3.06 3.93 -5.52 4.38c -0.54 0.09 -1.44 0.09 -1.83 0.03c -1.23 -0.27 -1.98 -0.87 -2.25 -1.86c -0.06 -0.18 -0.06 -0.3 -0.06 -0.66c 0 -0.45 0 -0.63 0.15 -1.08c 0.24 -0.78 0.75 -1.53 1.44 -2.22c 1.2 -1.2 2.85 -2.01 4.47 -2.22z"></path><line x1="154.17999999999998" x2="154.17999999999998" y1="338.97" y2="369.2" stroke="currentColor" stroke-width="0.6" class="abcjs-stem" data-name="stem"></line></g><g class="" fill="currentColor" stroke="none" data-name="note"><path data-name="c" d="M 176.04609533525587 362.04616717529296c 0.36 -0.03 1.2 0 1.53 0.06c 1.17 0.24 1.89 0.84 2.16 1.83c 0.06 0.18 0.06 0.3 0.06 0.66c 0 0.45 0 0.63 -0.15 1.08c -0.66 2.04 -3.06 3.93 -5.52 4.38c -0.54 0.09 -1.44 0.09 -1.83 0.03c -1.23 -0.27 -1.98 -0.87 -2.25 -1.86c -0.06 -0.18 -0.06 -0.3 -0.06 -0.66c 0 -0.45 0 -0.63 0.15 -1.08c 0.24 -0.78 0.75 -1.53 1.44 -2.22c 1.2 -1.2 2.85 -2.01 4.47 -2.22z"></path><line x1="170.26000000000002" x2="170.26000000000002" y1="399.03" y2="366.87" stroke="currentColor" stroke-width="0.6" class="abcjs-stem" data-name="stem"></line></g><g class="" fill="currentColor" stroke="none" data-name="note"><path data-name="B" d="M 201.33403563391627 365.92116717529296c 0.36 -0.03 1.2 0 1.53 0.06c 1.17 0.24 1.89 0.84 2.16 1.83c 0.06 0.18 0.06 0.3 0.06 0.66c 0 0.45 0 0.63 -0.15 1.08c -0.66 2.04 -3.06 3.93 -5.52 4.38c -0.54 0.09 -1.44 0.09 -1.83 0.03c -1.23 -0.27 -1.98 -0.87 -2.25 -1.86c -0.06 -0.18 -0.06 -0.3 -0.06 -0.66c 0 -0.45 0 -0.63 0.15 -1.08c 0.24 -0.78 0.75 -1.53 1.44 -2.22c 1.2 -1.2 2.85 -2.01 4.47 -2.22z"></path><line x1="195.54000000000002" x2="195.54000000000002" y1="397.75" y2="370.75" stroke="currentColor" stroke-width="0.6" class="abcjs-stem" data-name="stem"></line></g><g class="" fill="currentColor" stroke="none" data-name="note"><path data-name="c" d="M 226.62197593257667 362.04616717529296c 0.36 -0.03 1.2 0 1.53 0.06c 1.17 0.24 1.89 0.84 2.16 1.83c 0.06 0.18 0.06 0.3 0.06 0.66c 0 0.45 0 0.63 -0.15 1.08c -0.66 2.04 -3.06 3.93 -5.52 4.38c -0.54 0.09 -1.44 0.09 -1.83 0.03c -1.23 -0.27 -1.98 -0.87 -2.25 -1.86c -0.06 -0.18 -0.06 -0.3 -0.06 -0.66c 0 -0.45 0 -0.63 0.15 -1.08c 0.24 -0.78 0.75 -1.53 1.44 -2.22c 1.2 -1.2 2.85 -2.01 4.47 -2.22z"></path><line x1="220.83" x2="220.83" y1="396.47" y2="366.87" stroke="currentColor" stroke-width="0.6" class="abcjs-stem" data-name="stem"></line></g><g class="" fill="currentColor" stroke="none" data-name="note"><path data-name="d" d="M 251.90991623123708 358.17116717529296c 0.36 -0.03 1.2 0 1.53 0.06c 1.17 0.24 1.89 0.84 2.16 1.83c 0.06 0.18 0.06 0.3 0.06 0.66c 0 0.45 0 0.63 -0.15 1.08c -0.66 2.04 -3.06 3.93 -5.52 4.38c -0.54 0.09 -1.44 0.09 -1.83 0.03c -1.23 -0.27 -1.98 -0.87 -2.25 -1.86c -0.06 -0.18 -0.06 -0.3 -0.06 -0.66c 0 -0.45 0 -0.63 0.15 -1.08c 0.24 -0.78 0.75 -1.53 1.44 -2.22c 1.2 -1.2 2.85 -2.01 4.47 -2.22z"></path><line x1="246.12" x2="246.12" y1="395.19" y2="363" stroke="currentColor" stroke-width="0.6" class="abcjs-stem" data-name="stem"></line></g><g class="" fill="currentColor" stroke="none" data-name="bar"><line x1="271.41" x2="271.41" y1="385.47" y2="354.47" stroke="currentColor" stroke-width="0.6" data-name="bar"></line></g><g class="" fill="currentColor" stroke="none" data-name="note"><path data-name="e" d="M 294.26452313298586 354.29616717529296c 0.36 -0.03 1.2 0 1.53 0.06c 1.17 0.24 1.89 0.84 2.16 1.83c 0.06 0.18 0.06 0.3 0.06 0.66c 0 0.45 0 0.63 -0.15 1.08c -0.66 2.04 -3.06 3.93 -5.52 4.38c -0.54 0.09 -1.44 0.09 -1.83 0.03c -1.23 -0.27 -1.98 -0.87 -2.25 -1.86c -0.06 -0.18 -0.06 -0.3 -0.06 -0.66c 0 -0.45 0 -0.63 0.15 -1.08c 0.24 -0.78 0.75 -1.53 1.44 -2.22c 1.2 -1.2 2.85 -2.01 4.47 -2.22z"></path><text stroke="none" font-size="16" font-style="normal" font-family="&quot;Courier New&quot;" font-weight="normal" text-decoration="none" class="" text-anchor="middle" x="293.08" y="332.1" data-name="chord"><tspan x="293.08">A</tspan></text><line x1="288.47" x2="288.47" y1="387.41" y2="359.12" stroke="currentColor" stroke-width="0.6" class="abcjs-stem" data-name="stem"></line></g><g class="" fill="currentColor" stroke="none" data-name="note"><path data-name="f" d="M 319.5524634316463 350.42116717529296c 0.36 -0.03 1.2 0 1.53 0.06c 1.17 0.24 1.89 0.84 2.16 1.83c 0.06 0.18 0.06 0.3 0.06 0.66c 0 0.45 0 0.63 -0.15 1.08c -0.66 2.04 -3.06 3.93 -5.52 4.38c -0.54 0.09 -1.44 0.09 -1.83 0.03c -1.23 -0.27 -1.98 -0.87 -2.25 -1.86c -0.06 -0.18 -0.06 -0.3 -0.06 -0.66c 0 -0.45 0 -0.63 0.15 -1.08c 0.24 -0.78 0.75 -1.53 1.44 -2.22c 1.2 -1.2 2.85 -2.01 4.47 -2.22z"></path><line x1="313.76" x2="313.76" y1="388.69" y2="355.25" stroke="currentColor" stroke-width="0.6" class="abcjs-stem" data-name="stem"></line></g><g class="" fill="currentColor" stroke="none" data-name="note"><path data-name="e" d="M 344.8404037303067 354.29616717529296c 0.36 -0.03 1.2 0 1.53 0.06c 1.17 0.24 1.89 0.84 2.16 1.83c 0.06 0.18 0.06 0.3 0.06 0.66c 0 0.45 0 0.63 -0.15 1.08c -0.66 2.04 -3.06 3.93 -5.52 4.38c -0.54 0.09 -1.44 0.09 -1.83 0.03c -1.23 -0.27 -1.98 -0.87 -2.25 -1.86c -0.06 -0.18 -0.06 -0.3 -0.06 -0.66c 0 -0.45 0 -0.63 0.15 -1.08c 0.24 -0.78 0.75 -1.53 1.44 -2.22c 1.2 -1.2 2.85 -2.01 4.47 -2.22z"></path><line x1="339.05" x2="339.05" y1="389.97" y2="359.12" stroke="currentColor" stroke-width="0.6" class="abcjs-stem" data-name="stem"></line></g><g class="" fill="currentColor" stroke="none" data-name="note"><path data-name="d" d="M 370.12834402896715 358.17116717529296c 0.36 -0.03 1.2 0 1.53 0.06c 1.17 0.24 1.89 0.84 2.16 1.83c 0.06 0.18 0.06 0.3 0.06 0.66c 0 0.45 0 0.63 -0.15 1.08c -0.66 2.04 -3.06 3.93 -5.52 4.38c -0.54 0.09 -1.44 0.09 -1.83 0.03c -1.23 -0.27 -1.98 -0.87 -2.25 -1.86c -0.06 -0.18 -0.06 -0.3 -0.06 -0.66c 0 -0.45 0 -0.63 0.15 -1.08c 0.24 -0.78 0.75 -1.53 1.44 -2.22c 1.2 -1.2 2.85 -2.01 4.47 -2.22z"></path><line x1="364.34000000000003" x2="364.34000000000003" y1="391.25" y2="363" stroke="currentColor" stroke-width="0.6" class="abcjs-stem" data-name="stem"></line></g><g class="" fill="currentColor" stroke="none" data-name="note"><path data-name="c" d="M 395.4162843276276 362.04616717529296c 0.36 -0.03 1.2 0 1.53 0.06c 1.17 0.24 1.89 0.84 2.16 1.83c 0.06 0.18 0.06 0.3 0.06 0.66c 0 0.45 0 0.63 -0.15 1.08c -0.66 2.04 -3.06 3.93 -5.52 4.38c -0.54 0.09 -1.44 0.09 -1.83 0.03c -1.23 -0.27 -1.98 -0.87 -2.25 -1.86c -0.06 -0.18 -0.06 -0.3 -0.06 -0.66c 0 -0.45 0 -0.63 0.15 -1.08c 0.24 -0.78 0.75 -1.53 1.44 -2.22c 1.2 -1.2 2.85 -2.01 4.47 -2.22z"></path><line x1="389.63" x2="389.63" y1="395.16" y2="366.87" stroke="currentColor" stroke-width="0.6" class="abcjs-stem" data-name="stem"></line></g><g class="" fill="currentColor" stroke="none" data-name="note"><path data-name="B" d="M 420.704224626288 365.92116717529296c 0.36 -0.03 1.2 0 1.53 0.06c 1.17 0.24 1.89 0.84 2.16 1.83c 0.06 0.18 0.06 0.3 0.06 0.66c 0 0.45 0 0.63 -0.15 1.08c -0.66 2.04 -3.06 3.93 -5.52 4.38c -0.54 0.09 -1.44 0.09 -1.83 0.03c -1.23 -0.27 -1.98 -0.87 -2.25 -1.86c -0.06 -0.18 -0.06 -0.3 -0.06 -0.66c 0 -0.45 0 -0.63 0.15 -1.08c 0.24 -0.78 0.75 -1.53 1.44 -2.22c 1.2 -1.2 2.85 -2.01 4.47 -2.22z"></path><line x1="414.91" x2="414.91" y1="398.94" y2="370.75" stroke="currentColor" stroke-width="0.6" class="abcjs-stem" data-name="stem"></line></g><g class="" fill="currentColor" stroke="none" data-name="note"><path data-name="A" d="M 445.99216492494844 369.79616717529296c 0.36 -0.03 1.2 0 1.53 0.06c 1.17 0.24 1.89 0.84 2.16 1.83c 0.06 0.18 0.06 0.3 0.06 0.66c 0 0.45 0 0.63 -0.15 1.08c -0.66 2.04 -3.06 3.93 -5.52 4.38c -0.54 0.09 -1.44 0.09 -1.83 0.03c -1.23 -0.27 -1.98 -0.87 -2.25 -1.86c -0.06 -0.18 -0.06 -0.3 -0.06 -0.66c 0 -0.45 0 -0.63 0.15 -1.08c 0.24 -0.78 0.75 -1.53 1.44 -2.22c 1.2 -1.2 2.85 -2.01 4.47 -2.22z"></path><line x1="449.21" x2="449.21" y1="346.72" y2="372.55" stroke="currentColor" stroke-width="1" class="abcjs-stem" data-name="stem"></line></g><g class="" fill="currentColor" stroke="none" data-name="bar"><line x1="475.96000000000004" x2="475.96000000000004" y1="385.47" y2="354.47" stroke="currentColor" stroke-width="0.6" data-name="bar"></line></g><g class="" fill="currentColor" stroke="none" data-name="note"><path data-name="A" d="M 498.8213796628835 369.79616717529296c 0.36 -0.03 1.2 0 1.53 0.06c 1.17 0.24 1.89 0.84 2.16 1.83c 0.06 0.18 0.06 0.3 0.06 0.66c 0 0.45 0 0.63 -0.15 1.08c -0.66 2.04 -3.06 3.93 -5.52 4.38c -0.54 0.09 -1.44 0.09 -1.83 0.03c -1.23 -0.27 -1.98 -0.87 -2.25 -1.86c -0.06 -0.18 -0.06 -0.3 -0.06 -0.66c 0 -0.45 0 -0.63 0.15 -1.08c 0.24 -0.78 0.75 -1.53 1.44 -2.22c 1.2 -1.2 2.85 -2.01 4.47 -2.22z"></path><line x1="502.04" x2="502.04" y1="346.72" y2="372.55" stroke="currentColor" stroke-width="1" class="abcjs-stem" data-name="stem"></line><text stroke="none" font-size="16" font-style="normal" font-family="&quot;Courier New&quot;" font-weight="normal" text-decoration="none" class="" text-anchor="middle" x="497.64" y="332.1" data-name="chord"><tspan x="497.64">A</tspan></text></g><g class="" fill="currentColor" stroke="none" data-name="note"><path data-name="A" d="M 534.5839277977302 369.79616717529296c 0.36 -0.03 1.2 0 1.53 0.06c 1.17 0.24 1.89 0.84 2.16 1.83c 0.06 0.18 0.06 0.3 0.06 0.66c 0 0.45 0 0.63 -0.15 1.08c -0.66 2.04 -3.06 3.93 -5.52 4.38c -0.54 0.09 -1.44 0.09 -1.83 0.03c -1.23 -0.27 -1.98 -0.87 -2.25 -1.86c -0.06 -0.18 -0.06 -0.3 -0.06 -0.66c 0 -0.45 0 -0.63 0.15 -1.08c 0.24 -0.78 0.75 -1.53 1.44 -2.22c 1.2 -1.2 2.85 -2.01 4.47 -2.22z"></path><line x1="538" x2="538" y1="342.76" y2="373.07" stroke="currentColor" stroke-width="0.6" class="abcjs-stem" data-name="stem"></line></g><g class="" fill="currentColor" stroke="none" data-name="note"><path data-name="B" d="M 559.8718680963906 365.92116717529296c 0.36 -0.03 1.2 0 1.53 0.06c 1.17 0.24 1.89 0.84 2.16 1.83c 0.06 0.18 0.06 0.3 0.06 0.66c 0 0.45 0 0.63 -0.15 1.08c -0.66 2.04 -3.06 3.93 -5.52 4.38c -0.54 0.09 -1.44 0.09 -1.83 0.03c -1.23 -0.27 -1.98 -0.87 -2.25 -1.86c -0.06 -0.18 -0.06 -0.3 -0.06 -0.66c 0 -0.45 0 -0.63 0.15 -1.08c 0.24 -0.78 0.75 -1.53 1.44 -2.22c 1.2 -1.2 2.85 -2.01 4.47 -2.22z"></path><line x1="563.2900000000001" x2="563.2900000000001" y1="338.97" y2="369.2" stroke="currentColor" stroke-width="0.6" class="abcjs-stem" data-name="stem"></line></g><g class="" fill="currentColor" stroke="none" data-name="note"><path data-name="c" d="M 585.159808395051 362.04616717529296c 0.36 -0.03 1.2 0 1.53 0.06c 1.17 0.24 1.89 0.84 2.16 1.83c 0.06 0.18 0.06 0.3 0.06 0.66c 0 0.45 0 0.63 -0.15 1.08c -0.66 2.04 -3.06 3.93 -5.52 4.38c -0.54 0.09 -1.44 0.09 -1.83 0.03c -1.23 -0.27 -1.98 -0.87 -2.25 -1.86c -0.06 -0.18 -0.06 -0.3 -0.06 -0.66c 0 -0.45 0 -0.63 0.15 -1.08c 0.24 -0.78 0.75 -1.53 1.44 -2.22c 1.2 -1.2 2.85 -2.01 4.47 -2.22z"></path><line x1="579.37" x2="579.37" y1="395.16" y2="366.87" stroke="currentColor" stroke-width="0.6" class="abcjs-stem" data-name="stem"></line></g><g class="" fill="currentColor" stroke="none" data-name="note"><path data-name="B" d="M 610.4477486937113 365.92116717529296c 0.36 -0.03 1.2 0 1.53 0.06c 1.17 0.24 1.89 0.84 2.16 1.83c 0.06 0.18 0.06 0.3 0.06 0.66c 0 0.45 0 0.63 -0.15 1.08c -0.66 2.04 -3.06 3.93 -5.52 4.38c -0.54 0.09 -1.44 0.09 -1.83 0.03c -1.23 -0.27 -1.98 -0.87 -2.25 -1.86c -0.06 -0.18 -0.06 -0.3 -0.06 -0.66c 0 -0.45 0 -0.63 0.15 -1.08c 0.24 -0.78 0.75 -1.53 1.44 -2.22c 1.2 -1.2 2.85 -2.01 4.47 -2.22z"></path><line x1="604.66" x2="604.66" y1="398.94" y2="370.75" stroke="currentColor" stroke-width="0.6" class="abcjs-stem" data-name="stem"></line></g><g class="" fill="currentColor" stroke="none" data-name="note"><path data-name="A" d="M 635.7356889923717 369.79616717529296c 0.36 -0.03 1.2 0 1.53 0.06c 1.17 0.24 1.89 0.84 2.16 1.83c 0.06 0.18 0.06 0.3 0.06 0.66c 0 0.45 0 0.63 -0.15 1.08c -0.66 2.04 -3.06 3.93 -5.52 4.38c -0.54 0.09 -1.44 0.09 -1.83 0.03c -1.23 -0.27 -1.98 -0.87 -2.25 -1.86c -0.06 -0.18 -0.06 -0.3 -0.06 -0.66c 0 -0.45 0 -0.63 0.15 -1.08c 0.24 -0.78 0.75 -1.53 1.44 -2.22c 1.2 -1.2 2.85 -2.01 4.47 -2.22z"></path><line x1="638.96" x2="638.96" y1="346.72" y2="372.55" stroke="currentColor" stroke-width="1" class="abcjs-stem" data-name="stem"></line></g><g class="" fill="currentColor" stroke="none" data-name="bar"><line x1="665.7099999999999" x2="665.7099999999999" y1="385.47" y2="354.47" stroke="currentColor" stroke-width="0.6" data-name="bar"></line></g><g class="" fill="currentColor" stroke="none" data-name="note"><path data-name="G" d="M 688.9849037303068 373.67116717529296c 0.51 -0.03 2.01 0 2.52 0.03c 1.41 0.18 2.64 0.51 3.72 1.08c 1.2 0.63 1.95 1.41 2.19 2.31c 0.09 0.33 0.09 0.9 0 1.23c -0.24 0.9 -0.99 1.68 -2.19 2.31c -1.08 0.57 -2.28 0.9 -3.75 1.08c -0.66 0.06 -2.31 0.06 -2.97 0c -1.47 -0.18 -2.67 -0.51 -3.75 -1.08c -1.2 -0.63 -1.95 -1.41 -2.19 -2.31c -0.09 -0.33 -0.09 -0.9 0 -1.23c 0.24 -0.9 0.99 -1.68 2.19 -2.31c 1.2 -0.63 2.61 -0.99 4.23 -1.11zm 0.57 0.66c -0.87 -0.15 -1.53 0 -2.04 0.51c -0.15 0.15 -0.24 0.27 -0.33 0.48c -0.24 0.51 -0.36 1.08 -0.33 1.77c 0.03 0.69 0.18 1.26 0.42 1.77c 0.6 1.17 1.74 1.98 3.18 2.22c 1.11 0.21 1.95 -0.15 2.34 -0.99c 0.24 -0.51 0.36 -1.08 0.33 -1.8c -0.06 -1.11 -0.45 -2.04 -1.17 -2.76c -0.63 -0.63 -1.47 -1.05 -2.4 -1.2z"></path><text stroke="none" font-size="16" font-style="normal" font-family="&quot;Courier New&quot;" font-weight="normal" text-decoration="none" class="" text-anchor="middle" x="689.97" y="332.1" data-name="chord"><tspan x="689.97">G</tspan></text></g><g class="" fill="currentColor" stroke="none" data-name="bar"><line x1="754.3" x2="754.3" y1="385.47" y2="354.47" stroke="currentColor" stroke-width="0.6" data-name="bar"></line></g><path d="M128.59 342.85 L154.48 338.97L154.48 342.85 L128.59 346.73z" stroke="none" fill="currentColor" class=""></path><path d="M169.96 400.97 L246.42 397.1L246.42 393.23 L169.96 397.1z" stroke="none" fill="currentColor" class=""></path><path d="M288.17 389.35 L364.64 393.22L364.64 389.35 L288.17 385.48z" stroke="none" fill="currentColor" class=""></path><path d="M389.33 397.1 L415.21 400.97L415.21 397.1 L389.33 393.23z" stroke="none" fill="currentColor" class=""></path><path d="M537.7 342.85 L563.59 338.97L563.59 342.85 L537.7 346.73z" stroke="none" fill="currentColor" class=""></path><path d="M579.07 397.1 L604.96 400.97L604.96 397.1 L579.07 393.23z" stroke="none" fill="currentColor" class=""></path></g><g><g><line x1="15" x2="755" y1="446.97616717529297" y2="446.97616717529297" stroke="currentColor" stroke-width="0.7" class="abcjs-top-line"></line><line x1="15" x2="755" y1="454.72616717529297" y2="454.72616717529297" stroke="currentColor" stroke-width="0.7"></line><line x1="15" x2="755" y1="462.47616717529297" y2="462.47616717529297" stroke="currentColor" stroke-width="0.7"></line><line x1="15" x2="755" y1="470.22616717529297" y2="470.22616717529297" stroke="currentColor" stroke-width="0.7"></line><line x1="15" x2="755" y1="477.97616717529297" y2="477.97616717529297" stroke="currentColor" stroke-width="0.7"></line></g><g class="" fill="currentColor" stroke="none" data-name="staff-extra clef"><path data-name="clefs.G" d="M 29.689999999999998 432.64116717529294c 0.09 -0.09 0.24 -0.06 0.36 0c 0.12 0.09 0.57 0.6 0.96 1.11c 1.77 2.34 3.21 5.85 3.57 8.73c 0.21 1.56 0.03 3.27 -0.45 4.86c -0.69 2.31 -1.92 4.47 -4.23 7.44c -0.3 0.39 -0.57 0.72 -0.6 0.75c -0.03 0.06 0 0.15 0.18 0.78c 0.54 1.68 1.38 4.44 1.68 5.49l 0.09 0.42l 0.39 0c 1.47 0.09 2.76 0.51 3.96 1.29c 1.83 1.23 3.06 3.21 3.39 5.52c 0.09 0.45 0.12 1.29 0.06 1.74c -0.09 1.02 -0.33 1.83 -0.75 2.73c -0.84 1.71 -2.28 3.06 -4.02 3.72l -0.33 0.12l 0.03 1.26c 0 1.74 -0.06 3.63 -0.21 4.62c -0.45 3.06 -2.19 5.49 -4.47 6.21c -0.57 0.18 -0.9 0.21 -1.59 0.21c -0.69 0 -1.02 -0.03 -1.65 -0.21c -1.14 -0.27 -2.13 -0.84 -2.94 -1.65c -0.99 -0.99 -1.56 -2.16 -1.71 -3.54c -0.09 -0.81 0.06 -1.53 0.45 -2.13c 0.63 -0.99 1.83 -1.56 3 -1.53c 1.5 0.09 2.64 1.32 2.73 2.94c 0.06 1.47 -0.93 2.7 -2.37 2.97c -0.45 0.06 -0.84 0.03 -1.29 -0.09l -0.21 -0.09l 0.09 0.12c 0.39 0.54 0.78 0.93 1.32 1.26c 1.35 0.87 3.06 1.02 4.35 0.36c 1.44 -0.72 2.52 -2.28 2.97 -4.35c 0.15 -0.66 0.24 -1.5 0.3 -3.03c 0.03 -0.84 0.03 -2.94 0 -3c -0.03 0 -0.18 0 -0.36 0.03c -0.66 0.12 -0.99 0.12 -1.83 0.12c -1.05 0 -1.71 -0.06 -2.61 -0.3c -4.02 -0.99 -7.11 -4.35 -7.8 -8.46c -0.12 -0.66 -0.12 -0.99 -0.12 -1.83c 0 -0.84 0 -1.14 0.15 -1.92c 0.36 -2.28 1.41 -4.62 3.3 -7.29l 2.79 -3.6c 0.54 -0.66 0.96 -1.2 0.96 -1.23c 0 -0.03 -0.09 -0.33 -0.18 -0.69c -0.96 -3.21 -1.41 -5.28 -1.59 -7.68c -0.12 -1.38 -0.15 -3.09 -0.06 -3.96c 0.33 -2.67 1.38 -5.07 3.12 -7.08c 0.36 -0.42 0.99 -1.05 1.17 -1.14zm 2.01 4.71c -0.15 -0.3 -0.3 -0.54 -0.3 -0.54c -0.03 0 -0.18 0.09 -0.3 0.21c -2.4 1.74 -3.87 4.2 -4.26 7.11c -0.06 0.54 -0.06 1.41 -0.03 1.89c 0.09 1.29 0.48 3.12 1.08 5.22c 0.15 0.42 0.24 0.78 0.24 0.81c 0 0.03 0.84 -1.11 1.23 -1.68c 1.89 -2.73 2.88 -5.07 3.15 -7.53c 0.09 -0.57 0.12 -1.74 0.06 -2.37c -0.09 -1.23 -0.27 -1.92 -0.87 -3.12zm -2.94 20.7c -0.21 -0.72 -0.39 -1.32 -0.42 -1.32c 0 0 -1.2 1.47 -1.86 2.37c -2.79 3.63 -4.02 6.3 -4.35 9.3c -0.03 0.21 -0.03 0.69 -0.03 1.08c 0 0.69 0 0.75 0.06 1.11c 0.12 0.54 0.27 0.99 0.51 1.47c 0.69 1.38 1.83 2.55 3.42 3.42c 0.96 0.54 2.07 0.9 3.21 1.08c 0.78 0.12 2.04 0.12 2.94 -0.03c 0.51 -0.06 0.45 -0.03 0.42 -0.3c -0.24 -3.33 -0.72 -6.33 -1.62 -10.08c -0.09 -0.39 -0.18 -0.75 -0.18 -0.78c -0.03 -0.03 -0.42 0 -0.81 0.09c -0.9 0.18 -1.65 0.57 -2.22 1.14c -0.72 0.72 -1.08 1.65 -1.05 2.64c 0.06 0.96 0.48 1.83 1.23 2.58c 0.36 0.36 0.72 0.63 1.17 0.9c 0.33 0.18 0.36 0.21 0.42 0.33c 0.18 0.42 -0.18 0.9 -0.6 0.87c -0.18 -0.03 -0.84 -0.36 -1.26 -0.63c -0.78 -0.51 -1.38 -1.11 -1.86 -1.83c -1.77 -2.7 -0.99 -6.42 1.71 -8.19c 0.3 -0.21 0.81 -0.48 1.17 -0.63c 0.3 -0.09 1.02 -0.3 1.14 -0.3c 0.06 0 0.09 0 0.09 -0.03c 0.03 -0.03 -0.51 -1.92 -1.23 -4.26zm 3.78 7.41c -0.18 -0.03 -0.36 -0.06 -0.39 -0.06c -0.03 0 0 0.21 0.18 1.02c 0.75 3.18 1.26 6.3 1.5 9.09c 0.06 0.72 0 0.69 0.51 0.42c 0.78 -0.36 1.44 -0.96 1.98 -1.77c 1.08 -1.62 1.2 -3.69 0.3 -5.55c -0.81 -1.62 -2.31 -2.79 -4.08 -3.15z"></path></g><g class="" fill="currentColor" stroke="none" data-name="staff-extra key-signature"><path data-name="accidentals.sharp" d="M 54.781000000000006 435.61116717529296c 0.21 -0.12 0.54 -0.03 0.66 0.24c 0.06 0.12 0.06 0.21 0.06 2.31c 0 1.23 0 2.22 0.03 2.22c 0 0 0.27 -0.12 0.6 -0.24c 0.69 -0.27 0.78 -0.3 0.96 -0.15c 0.21 0.15 0.21 0.18 0.21 1.38c 0 1.02 0 1.11 -0.06 1.2c -0.03 0.06 -0.09 0.12 -0.12 0.15c -0.06 0.03 -0.42 0.21 -0.84 0.36l -0.75 0.33l -0.03 2.43c 0 1.32 0 2.43 0.03 2.43c 0 0 0.27 -0.12 0.6 -0.24c 0.69 -0.27 0.78 -0.3 0.96 -0.15c 0.21 0.15 0.21 0.18 0.21 1.38c 0 1.02 0 1.11 -0.06 1.2c -0.03 0.06 -0.09 0.12 -0.12 0.15c -0.06 0.03 -0.42 0.21 -0.84 0.36l -0.75 0.33l -0.03 2.52c 0 2.28 -0.03 2.55 -0.06 2.64c -0.21 0.36 -0.72 0.36 -0.93 0c -0.03 -0.09 -0.06 -0.33 -0.06 -2.43l 0 -2.31l -1.29 0.51l -1.26 0.51l 0 2.43c 0 2.58 0 2.52 -0.15 2.67c -0.06 0.09 -0.27 0.18 -0.36 0.18c -0.12 0 -0.33 -0.09 -0.39 -0.18c -0.15 -0.15 -0.15 -0.09 -0.15 -2.43c 0 -1.23 0 -2.22 -0.03 -2.22c 0 0 -0.27 0.12 -0.6 0.24c -0.69 0.27 -0.78 0.3 -0.96 0.15c -0.21 -0.15 -0.21 -0.18 -0.21 -1.38c 0 -1.02 0 -1.11 0.06 -1.2c 0.03 -0.06 0.09 -0.12 0.12 -0.15c 0.06 -0.03 0.42 -0.21 0.84 -0.36l 0.78 -0.33l 0 -2.43c 0 -1.32 0 -2.43 -0.03 -2.43c 0 0 -0.27 0.12 -0.6 0.24c -0.69 0.27 -0.78 0.3 -0.96 0.15c -0.21 -0.15 -0.21 -0.18 -0.21 -1.38c 0 -1.02 0 -1.11 0.06 -1.2c 0.03 -0.06 0.09 -0.12 0.12 -0.15c 0.06 -0.03 0.42 -0.21 0.84 -0.36l 0.78 -0.33l 0 -2.52c 0 -2.28 0.03 -2.55 0.06 -2.64c 0.21 -0.36 0.72 -0.36 0.93 0c 0.03 0.09 0.06 0.33 0.06 2.43l 0.03 2.31l 1.26 -0.51l 1.26 -0.51l 0 -2.43c 0 -2.28 0 -2.43 0.06 -2.55c 0.06 -0.12 0.12 -0.18 0.27 -0.24zm -0.33 10.65l 0 -2.43l -1.29 0.51l -1.26 0.51l 0 2.46l 0 2.43l 0.09 -0.03c 0.06 -0.03 0.63 -0.27 1.29 -0.51l 1.17 -0.48l 0 -2.46z"></path><path data-name="accidentals.sharp" d="M 65.031 447.23616717529296c 0.21 -0.12 0.54 -0.03 0.66 0.24c 0.06 0.12 0.06 0.21 0.06 2.31c 0 1.23 0 2.22 0.03 2.22c 0 0 0.27 -0.12 0.6 -0.24c 0.69 -0.27 0.78 -0.3 0.96 -0.15c 0.21 0.15 0.21 0.18 0.21 1.38c 0 1.02 0 1.11 -0.06 1.2c -0.03 0.06 -0.09 0.12 -0.12 0.15c -0.06 0.03 -0.42 0.21 -0.84 0.36l -0.75 0.33l -0.03 2.43c 0 1.32 0 2.43 0.03 2.43c 0 0 0.27 -0.12 0.6 -0.24c 0.69 -0.27 0.78 -0.3 0.96 -0.15c 0.21 0.15 0.21 0.18 0.21 1.38c 0 1.02 0 1.11 -0.06 1.2c -0.03 0.06 -0.09 0.12 -0.12 0.15c -0.06 0.03 -0.42 0.21 -0.84 0.36l -0.75 0.33l -0.03 2.52c 0 2.28 -0.03 2.55 -0.06 2.64c -0.21 0.36 -0.72 0.36 -0.93 0c -0.03 -0.09 -0.06 -0.33 -0.06 -2.43l 0 -2.31l -1.29 0.51l -1.26 0.51l 0 2.43c 0 2.58 0 2.52 -0.15 2.67c -0.06 0.09 -0.27 0.18 -0.36 0.18c -0.12 0 -0.33 -0.09 -0.39 -0.18c -0.15 -0.15 -0.15 -0.09 -0.15 -2.43c 0 -1.23 0 -2.22 -0.03 -2.22c 0 0 -0.27 0.12 -0.6 0.24c -0.69 0.27 -0.78 0.3 -0.96 0.15c -0.21 -0.15 -0.21 -0.18 -0.21 -1.38c 0 -1.02 0 -1.11 0.06 -1.2c 0.03 -0.06 0.09 -0.12 0.12 -0.15c 0.06 -0.03 0.42 -0.21 0.84 -0.36l 0.78 -0.33l 0 -2.43c 0 -1.32 0 -2.43 -0.03 -2.43c 0 0 -0.27 0.12 -0.6 0.24c -0.69 0.27 -0.78 0.3 -0.96 0.15c -0.21 -0.15 -0.21 -0.18 -0.21 -1.38c 0 -1.02 0 -1.11 0.06 -1.2c 0.03 -0.06 0.09 -0.12 0.12 -0.15c 0.06 -0.03 0.42 -0.21 0.84 -0.36l 0.78 -0.33l 0 -2.52c 0 -2.28 0.03 -2.55 0.06 -2.64c 0.21 -0.36 0.72 -0.36 0.93 0c 0.03 0.09 0.06 0.33 0.06 2.43l 0.03 2.31l 1.26 -0.51l 1.26 -0.51l 0 -2.43c 0 -2.28 0 -2.43 0.06 -2.55c 0.06 -0.12 0.12 -0.18 0.27 -0.24zm -0.33 10.65l 0 -2.43l -1.29 0.51l -1.26 0.51l 0 2.46l 0 2.43l 0.09 -0.03c 0.06 -0.03 0.63 -0.27 1.29 -0.51l 1.17 -0.48l 0 -2.46z"></path></g><g class="" fill="currentColor" stroke="none" data-name="note"><path data-name="A" d="M 89.70766660308838 462.12616717529295c 0.36 -0.03 1.2 0 1.53 0.06c 1.17 0.24 1.89 0.84 2.16 1.83c 0.06 0.18 0.06 0.3 0.06 0.66c 0 0.45 0 0.63 -0.15 1.08c -0.66 2.04 -3.06 3.93 -5.52 4.38c -0.54 0.09 -1.44 0.09 -1.83 0.03c -1.23 -0.27 -1.98 -0.87 -2.25 -1.86c -0.06 -0.18 -0.06 -0.3 -0.06 -0.66c 0 -0.45 0 -0.63 0.15 -1.08c 0.24 -0.78 0.75 -1.53 1.44 -2.22c 1.2 -1.2 2.85 -2.01 4.47 -2.22z"></path><line x1="92.93" x2="92.93" y1="439.05" y2="464.88" stroke="currentColor" stroke-width="1" class="abcjs-stem" data-name="stem"></line><text stroke="none" font-size="16" font-style="normal" font-family="&quot;Courier New&quot;" font-weight="normal" text-decoration="none" class="" text-anchor="middle" x="88.52" y="424.43" data-name="chord"><tspan x="88.52">A</tspan></text></g><g class="" fill="currentColor" stroke="none" data-name="note"><path data-name="A" d="M 123.90131498949248 462.12616717529295c 0.36 -0.03 1.2 0 1.53 0.06c 1.17 0.24 1.89 0.84 2.16 1.83c 0.06 0.18 0.06 0.3 0.06 0.66c 0 0.45 0 0.63 -0.15 1.08c -0.66 2.04 -3.06 3.93 -5.52 4.38c -0.54 0.09 -1.44 0.09 -1.83 0.03c -1.23 -0.27 -1.98 -0.87 -2.25 -1.86c -0.06 -0.18 -0.06 -0.3 -0.06 -0.66c 0 -0.45 0 -0.63 0.15 -1.08c 0.24 -0.78 0.75 -1.53 1.44 -2.22c 1.2 -1.2 2.85 -2.01 4.47 -2.22z"></path><line x1="127.32000000000001" x2="127.32000000000001" y1="435.08" y2="465.4" stroke="currentColor" stroke-width="0.6" class="abcjs-stem" data-name="stem"></line></g><g class="" fill="currentColor" stroke="none" data-name="note"><path data-name="B" d="M 148.07987563702727 458.25116717529295c 0.36 -0.03 1.2 0 1.53 0.06c 1.17 0.24 1.89 0.84 2.16 1.83c 0.06 0.18 0.06 0.3 0.06 0.66c 0 0.45 0 0.63 -0.15 1.08c -0.66 2.04 -3.06 3.93 -5.52 4.38c -0.54 0.09 -1.44 0.09 -1.83 0.03c -1.23 -0.27 -1.98 -0.87 -2.25 -1.86c -0.06 -0.18 -0.06 -0.3 -0.06 -0.66c 0 -0.45 0 -0.63 0.15 -1.08c 0.24 -0.78 0.75 -1.53 1.44 -2.22c 1.2 -1.2 2.85 -2.01 4.47 -2.22z"></path><line x1="151.5" x2="151.5" y1="431.3" y2="461.53" stroke="currentColor" stroke-width="0.6" class="abcjs-stem" data-name="stem"></line></g><g class="" fill="currentColor" stroke="none" data-name="note"><path data-name="c" d="M 172.25843628456207 454.37616717529295c 0.36 -0.03 1.2 0 1.53 0.06c 1.17 0.24 1.89 0.84 2.16 1.83c 0.06 0.18 0.06 0.3 0.06 0.66c 0 0.45 0 0.63 -0.15 1.08c -0.66 2.04 -3.06 3.93 -5.52 4.38c -0.54 0.09 -1.44 0.09 -1.83 0.03c -1.23 -0.27 -1.98 -0.87 -2.25 -1.86c -0.06 -0.18 -0.06 -0.3 -0.06 -0.66c 0 -0.45 0 -0.63 0.15 -1.08c 0.24 -0.78 0.75 -1.53 1.44 -2.22c 1.2 -1.2 2.85 -2.01 4.47 -2.22z"></path><line x1="166.47" x2="166.47" y1="491.36" y2="459.2" stroke="currentColor" stroke-width="0.6" class="abcjs-stem" data-name="stem"></line></g><g class="" fill="currentColor" stroke="none" data-name="note"><path data-name="B" d="M 196.43699693209686 458.25116717529295c 0.36 -0.03 1.2 0 1.53 0.06c 1.17 0.24 1.89 0.84 2.16 1.83c 0.06 0.18 0.06 0.3 0.06 0.66c 0 0.45 0 0.63 -0.15 1.08c -0.66 2.04 -3.06 3.93 -5.52 4.38c -0.54 0.09 -1.44 0.09 -1.83 0.03c -1.23 -0.27 -1.98 -0.87 -2.25 -1.86c -0.06 -0.18 -0.06 -0.3 -0.06 -0.66c 0 -0.45 0 -0.63 0.15 -1.08c 0.24 -0.78 0.75 -1.53 1.44 -2.22c 1.2 -1.2 2.85 -2.01 4.47 -2.22z"></path><line x1="190.65" x2="190.65" y1="490.08" y2="463.08" stroke="currentColor" stroke-width="0.6" class="abcjs-stem" data-name="stem"></line></g><g class="" fill="currentColor" stroke="none" data-name="note"><path data-name="c" d="M 220.61555757963166 454.37616717529295c 0.36 -0.03 1.2 0 1.53 0.06c 1.17 0.24 1.89 0.84 2.16 1.83c 0.06 0.18 0.06 0.3 0.06 0.66c 0 0.45 0 0.63 -0.15 1.08c -0.66 2.04 -3.06 3.93 -5.52 4.38c -0.54 0.09 -1.44 0.09 -1.83 0.03c -1.23 -0.27 -1.98 -0.87 -2.25 -1.86c -0.06 -0.18 -0.06 -0.3 -0.06 -0.66c 0 -0.45 0 -0.63 0.15 -1.08c 0.24 -0.78 0.75 -1.53 1.44 -2.22c 1.2 -1.2 2.85 -2.01 4.47 -2.22z"></path><line x1="214.83" x2="214.83" y1="488.8" y2="459.2" stroke="currentColor" stroke-width="0.6" class="abcjs-stem" data-name="stem"></line></g><g class="" fill="currentColor" stroke="none" data-name="note"><path data-name="d" d="M 244.79411822716645 450.50116717529295c 0.36 -0.03 1.2 0 1.53 0.06c 1.17 0.24 1.89 0.84 2.16 1.83c 0.06 0.18 0.06 0.3 0.06 0.66c 0 0.45 0 0.63 -0.15 1.08c -0.66 2.04 -3.06 3.93 -5.52 4.38c -0.54 0.09 -1.44 0.09 -1.83 0.03c -1.23 -0.27 -1.98 -0.87 -2.25 -1.86c -0.06 -0.18 -0.06 -0.3 -0.06 -0.66c 0 -0.45 0 -0.63 0.15 -1.08c 0.24 -0.78 0.75 -1.53 1.44 -2.22c 1.2 -1.2 2.85 -2.01 4.47 -2.22z"></path><line x1="239" x2="239" y1="487.52" y2="455.33" stroke="currentColor" stroke-width="0.6" class="abcjs-stem" data-name="stem"></line></g><g class="" fill="currentColor" stroke="none" data-name="bar"><line x1="263.18" x2="263.18" y1="477.8" y2="446.8" stroke="currentColor" stroke-width="0.6" data-name="bar"></line></g><g class="" fill="currentColor" stroke="none" data-name="note"><path data-name="e" d="M 286.0393454777896 446.62616717529295c 0.36 -0.03 1.2 0 1.53 0.06c 1.17 0.24 1.89 0.84 2.16 1.83c 0.06 0.18 0.06 0.3 0.06 0.66c 0 0.45 0 0.63 -0.15 1.08c -0.66 2.04 -3.06 3.93 -5.52 4.38c -0.54 0.09 -1.44 0.09 -1.83 0.03c -1.23 -0.27 -1.98 -0.87 -2.25 -1.86c -0.06 -0.18 -0.06 -0.3 -0.06 -0.66c 0 -0.45 0 -0.63 0.15 -1.08c 0.24 -0.78 0.75 -1.53 1.44 -2.22c 1.2 -1.2 2.85 -2.01 4.47 -2.22z"></path><text stroke="none" font-size="16" font-style="normal" font-family="&quot;Courier New&quot;" font-weight="normal" text-decoration="none" class="" text-anchor="middle" x="284.85" y="424.43" data-name="chord"><tspan x="284.85">A</tspan></text><line x1="280.25" x2="280.25" y1="479.74" y2="451.45" stroke="currentColor" stroke-width="0.6" class="abcjs-stem" data-name="stem"></line></g><g class="" fill="currentColor" stroke="none" data-name="note"><path data-name="f" d="M 310.21790612532436 442.75116717529295c 0.36 -0.03 1.2 0 1.53 0.06c 1.17 0.24 1.89 0.84 2.16 1.83c 0.06 0.18 0.06 0.3 0.06 0.66c 0 0.45 0 0.63 -0.15 1.08c -0.66 2.04 -3.06 3.93 -5.52 4.38c -0.54 0.09 -1.44 0.09 -1.83 0.03c -1.23 -0.27 -1.98 -0.87 -2.25 -1.86c -0.06 -0.18 -0.06 -0.3 -0.06 -0.66c 0 -0.45 0 -0.63 0.15 -1.08c 0.24 -0.78 0.75 -1.53 1.44 -2.22c 1.2 -1.2 2.85 -2.01 4.47 -2.22z"></path><line x1="304.43" x2="304.43" y1="481.02" y2="447.58" stroke="currentColor" stroke-width="0.6" class="abcjs-stem" data-name="stem"></line></g><g class="" fill="currentColor" stroke="none" data-name="note"><path data-name="e" d="M 334.3964667728591 446.62616717529295c 0.36 -0.03 1.2 0 1.53 0.06c 1.17 0.24 1.89 0.84 2.16 1.83c 0.06 0.18 0.06 0.3 0.06 0.66c 0 0.45 0 0.63 -0.15 1.08c -0.66 2.04 -3.06 3.93 -5.52 4.38c -0.54 0.09 -1.44 0.09 -1.83 0.03c -1.23 -0.27 -1.98 -0.87 -2.25 -1.86c -0.06 -0.18 -0.06 -0.3 -0.06 -0.66c 0 -0.45 0 -0.63 0.15 -1.08c 0.24 -0.78 0.75 -1.53 1.44 -2.22c 1.2 -1.2 2.85 -2.01 4.47 -2.22z"></path><line x1="328.61" x2="328.61" y1="482.3" y2="451.45" stroke="currentColor" stroke-width="0.6" class="abcjs-stem" data-name="stem"></line></g><g class="" fill="currentColor" stroke="none" data-name="note"><path data-name="d" d="M 358.5750274203939 450.50116717529295c 0.36 -0.03 1.2 0 1.53 0.06c 1.17 0.24 1.89 0.84 2.16 1.83c 0.06 0.18 0.06 0.3 0.06 0.66c 0 0.45 0 0.63 -0.15 1.08c -0.66 2.04 -3.06 3.93 -5.52 4.38c -0.54 0.09 -1.44 0.09 -1.83 0.03c -1.23 -0.27 -1.98 -0.87 -2.25 -1.86c -0.06 -0.18 -0.06 -0.3 -0.06 -0.66c 0 -0.45 0 -0.63 0.15 -1.08c 0.24 -0.78 0.75 -1.53 1.44 -2.22c 1.2 -1.2 2.85 -2.01 4.47 -2.22z"></path><line x1="352.79" x2="352.79" y1="483.58" y2="455.33" stroke="currentColor" stroke-width="0.6" class="abcjs-stem" data-name="stem"></line></g><g class="" fill="currentColor" stroke="none" data-name="note"><path data-name="c" d="M 382.75358806792866 454.37616717529295c 0.36 -0.03 1.2 0 1.53 0.06c 1.17 0.24 1.89 0.84 2.16 1.83c 0.06 0.18 0.06 0.3 0.06 0.66c 0 0.45 0 0.63 -0.15 1.08c -0.66 2.04 -3.06 3.93 -5.52 4.38c -0.54 0.09 -1.44 0.09 -1.83 0.03c -1.23 -0.27 -1.98 -0.87 -2.25 -1.86c -0.06 -0.18 -0.06 -0.3 -0.06 -0.66c 0 -0.45 0 -0.63 0.15 -1.08c 0.24 -0.78 0.75 -1.53 1.44 -2.22c 1.2 -1.2 2.85 -2.01 4.47 -2.22z"></path><line x1="376.96000000000004" x2="376.96000000000004" y1="487.49" y2="459.2" stroke="currentColor" stroke-width="0.6" class="abcjs-stem" data-name="stem"></line></g><g class="" fill="currentColor" stroke="none" data-name="note"><path data-name="B" d="M 406.9321487154634 458.25116717529295c 0.36 -0.03 1.2 0 1.53 0.06c 1.17 0.24 1.89 0.84 2.16 1.83c 0.06 0.18 0.06 0.3 0.06 0.66c 0 0.45 0 0.63 -0.15 1.08c -0.66 2.04 -3.06 3.93 -5.52 4.38c -0.54 0.09 -1.44 0.09 -1.83 0.03c -1.23 -0.27 -1.98 -0.87 -2.25 -1.86c -0.06 -0.18 -0.06 -0.3 -0.06 -0.66c 0 -0.45 0 -0.63 0.15 -1.08c 0.24 -0.78 0.75 -1.53 1.44 -2.22c 1.2 -1.2 2.85 -2.01 4.47 -2.22z"></path><line x1="401.14" x2="401.14" y1="491.27" y2="463.08" stroke="currentColor" stroke-width="0.6" class="abcjs-stem" data-name="stem"></line></g><g class="" fill="currentColor" stroke="none" data-name="note"><path data-name="A" d="M 431.1107093629982 462.12616717529295c 0.36 -0.03 1.2 0 1.53 0.06c 1.17 0.24 1.89 0.84 2.16 1.83c 0.06 0.18 0.06 0.3 0.06 0.66c 0 0.45 0 0.63 -0.15 1.08c -0.66 2.04 -3.06 3.93 -5.52 4.38c -0.54 0.09 -1.44 0.09 -1.83 0.03c -1.23 -0.27 -1.98 -0.87 -2.25 -1.86c -0.06 -0.18 -0.06 -0.3 -0.06 -0.66c 0 -0.45 0 -0.63 0.15 -1.08c 0.24 -0.78 0.75 -1.53 1.44 -2.22c 1.2 -1.2 2.85 -2.01 4.47 -2.22z"></path><line x1="434.33" x2="434.33" y1="439.05" y2="464.88" stroke="currentColor" stroke-width="1" class="abcjs-stem" data-name="stem"></line></g><g class="" fill="currentColor" stroke="none" data-name="bar"><line x1="459.51" x2="459.51" y1="477.8" y2="446.8" stroke="currentColor" stroke-width="0.6" data-name="bar"></line></g><g class="" fill="currentColor" stroke="none" data-name="note"><path data-name="c" d="M 482.3710243524907 454.37616717529295c 0.36 -0.03 1.2 0 1.53 0.06c 1.17 0.24 1.89 0.84 2.16 1.83c 0.06 0.18 0.06 0.3 0.06 0.66c 0 0.45 0 0.63 -0.15 1.08c -0.66 2.04 -3.06 3.93 -5.52 4.38c -0.54 0.09 -1.44 0.09 -1.83 0.03c -1.23 -0.27 -1.98 -0.87 -2.25 -1.86c -0.06 -0.18 -0.06 -0.3 -0.06 -0.66c 0 -0.45 0 -0.63 0.15 -1.08c 0.24 -0.78 0.75 -1.53 1.44 -2.22c 1.2 -1.2 2.85 -2.01 4.47 -2.22z"></path><text stroke="none" font-size="16" font-style="normal" font-family="&quot;Courier New&quot;" font-weight="normal" text-decoration="none" class="" text-anchor="middle" x="481.19" y="424.43" data-name="chord"><tspan x="481.19">A</tspan></text><line x1="476.58" x2="476.58" y1="491.36" y2="459.2" stroke="currentColor" stroke-width="0.6" class="abcjs-stem" data-name="stem"></line></g><g class="" fill="currentColor" stroke="none" data-name="note"><path data-name="B" d="M 506.54958500002544 458.25116717529295c 0.36 -0.03 1.2 0 1.53 0.06c 1.17 0.24 1.89 0.84 2.16 1.83c 0.06 0.18 0.06 0.3 0.06 0.66c 0 0.45 0 0.63 -0.15 1.08c -0.66 2.04 -3.06 3.93 -5.52 4.38c -0.54 0.09 -1.44 0.09 -1.83 0.03c -1.23 -0.27 -1.98 -0.87 -2.25 -1.86c -0.06 -0.18 -0.06 -0.3 -0.06 -0.66c 0 -0.45 0 -0.63 0.15 -1.08c 0.24 -0.78 0.75 -1.53 1.44 -2.22c 1.2 -1.2 2.85 -2.01 4.47 -2.22z"></path><line x1="500.76" x2="500.76" y1="491.36" y2="463.08" stroke="currentColor" stroke-width="0.6" class="abcjs-stem" data-name="stem"></line></g><g class="" fill="currentColor" stroke="none" data-name="note"><path data-name="A" d="M 530.7281456475603 462.12616717529295c 0.36 -0.03 1.2 0 1.53 0.06c 1.17 0.24 1.89 0.84 2.16 1.83c 0.06 0.18 0.06 0.3 0.06 0.66c 0 0.45 0 0.63 -0.15 1.08c -0.66 2.04 -3.06 3.93 -5.52 4.38c -0.54 0.09 -1.44 0.09 -1.83 0.03c -1.23 -0.27 -1.98 -0.87 -2.25 -1.86c -0.06 -0.18 -0.06 -0.3 -0.06 -0.66c 0 -0.45 0 -0.63 0.15 -1.08c 0.24 -0.78 0.75 -1.53 1.44 -2.22c 1.2 -1.2 2.85 -2.01 4.47 -2.22z"></path><line x1="524.9399999999999" x2="524.9399999999999" y1="491.36" y2="466.95" stroke="currentColor" stroke-width="0.6" class="abcjs-stem" data-name="stem"></line></g><g class="" fill="currentColor" stroke="none" data-name="note"><path data-name="c" d="M 554.9067062950951 454.37616717529295c 0.36 -0.03 1.2 0 1.53 0.06c 1.17 0.24 1.89 0.84 2.16 1.83c 0.06 0.18 0.06 0.3 0.06 0.66c 0 0.45 0 0.63 -0.15 1.08c -0.66 2.04 -3.06 3.93 -5.52 4.38c -0.54 0.09 -1.44 0.09 -1.83 0.03c -1.23 -0.27 -1.98 -0.87 -2.25 -1.86c -0.06 -0.18 -0.06 -0.3 -0.06 -0.66c 0 -0.45 0 -0.63 0.15 -1.08c 0.24 -0.78 0.75 -1.53 1.44 -2.22c 1.2 -1.2 2.85 -2.01 4.47 -2.22z"></path><line x1="549.12" x2="549.12" y1="491.36" y2="459.2" stroke="currentColor" stroke-width="0.6" class="abcjs-stem" data-name="stem"></line></g><g class="" fill="currentColor" stroke="none" data-name="note"><path data-name="B" d="M 579.0852669426299 458.25116717529295c 0.36 -0.03 1.2 0 1.53 0.06c 1.17 0.24 1.89 0.84 2.16 1.83c 0.06 0.18 0.06 0.3 0.06 0.66c 0 0.45 0 0.63 -0.15 1.08c -0.66 2.04 -3.06 3.93 -5.52 4.38c -0.54 0.09 -1.44 0.09 -1.83 0.03c -1.23 -0.27 -1.98 -0.87 -2.25 -1.86c -0.06 -0.18 -0.06 -0.3 -0.06 -0.66c 0 -0.45 0 -0.63 0.15 -1.08c 0.24 -0.78 0.75 -1.53 1.44 -2.22c 1.2 -1.2 2.85 -2.01 4.47 -2.22z"></path><text stroke="none" font-size="16" font-style="normal" font-family="&quot;Courier New&quot;" font-weight="normal" text-decoration="none" class="" text-anchor="middle" x="577.9" y="424.43" data-name="chord"><tspan x="577.9">G</tspan></text><line x1="582.51" x2="582.51" y1="431.39" y2="461.53" stroke="currentColor" stroke-width="0.6" class="abcjs-stem" data-name="stem"></line></g><g class="" fill="currentColor" stroke="none" data-name="note"><path data-name="A" d="M 603.2638275901647 462.12616717529295c 0.36 -0.03 1.2 0 1.53 0.06c 1.17 0.24 1.89 0.84 2.16 1.83c 0.06 0.18 0.06 0.3 0.06 0.66c 0 0.45 0 0.63 -0.15 1.08c -0.66 2.04 -3.06 3.93 -5.52 4.38c -0.54 0.09 -1.44 0.09 -1.83 0.03c -1.23 -0.27 -1.98 -0.87 -2.25 -1.86c -0.06 -0.18 -0.06 -0.3 -0.06 -0.66c 0 -0.45 0 -0.63 0.15 -1.08c 0.24 -0.78 0.75 -1.53 1.44 -2.22c 1.2 -1.2 2.85 -2.01 4.47 -2.22z"></path><line x1="606.6800000000001" x2="606.6800000000001" y1="435.18" y2="465.4" stroke="currentColor" stroke-width="0.6" class="abcjs-stem" data-name="stem"></line></g><g class="" fill="currentColor" stroke="none" data-name="note"><path data-name="G" d="M 627.4423882376996 466.00116717529295c 0.36 -0.03 1.2 0 1.53 0.06c 1.17 0.24 1.89 0.84 2.16 1.83c 0.06 0.18 0.06 0.3 0.06 0.66c 0 0.45 0 0.63 -0.15 1.08c -0.66 2.04 -3.06 3.93 -5.52 4.38c -0.54 0.09 -1.44 0.09 -1.83 0.03c -1.23 -0.27 -1.98 -0.87 -2.25 -1.86c -0.06 -0.18 -0.06 -0.3 -0.06 -0.66c 0 -0.45 0 -0.63 0.15 -1.08c 0.24 -0.78 0.75 -1.53 1.44 -2.22c 1.2 -1.2 2.85 -2.01 4.47 -2.22z"></path><line x1="630.66" x2="630.66" y1="442.93" y2="468.76" stroke="currentColor" stroke-width="1" class="abcjs-stem" data-name="stem"></line></g><g class="" fill="currentColor" stroke="none" data-name="bar"><line x1="655.8499999999999" x2="655.8499999999999" y1="477.8" y2="446.8" stroke="currentColor" stroke-width="0.6" data-name="bar"></line></g><g class="" fill="currentColor" stroke="none" data-name="note"><path data-name="A" d="M 679.122703227192 462.12616717529295c 0.51 -0.03 2.01 0 2.52 0.03c 1.41 0.18 2.64 0.51 3.72 1.08c 1.2 0.63 1.95 1.41 2.19 2.31c 0.09 0.33 0.09 0.9 0 1.23c -0.24 0.9 -0.99 1.68 -2.19 2.31c -1.08 0.57 -2.28 0.9 -3.75 1.08c -0.66 0.06 -2.31 0.06 -2.97 0c -1.47 -0.18 -2.67 -0.51 -3.75 -1.08c -1.2 -0.63 -1.95 -1.41 -2.19 -2.31c -0.09 -0.33 -0.09 -0.9 0 -1.23c 0.24 -0.9 0.99 -1.68 2.19 -2.31c 1.2 -0.63 2.61 -0.99 4.23 -1.11zm 0.57 0.66c -0.87 -0.15 -1.53 0 -2.04 0.51c -0.15 0.15 -0.24 0.27 -0.33 0.48c -0.24 0.51 -0.36 1.08 -0.33 1.77c 0.03 0.69 0.18 1.26 0.42 1.77c 0.6 1.17 1.74 1.98 3.18 2.22c 1.11 0.21 1.95 -0.15 2.34 -0.99c 0.24 -0.51 0.36 -1.08 0.33 -1.8c -0.06 -1.11 -0.45 -2.04 -1.17 -2.76c -0.63 -0.63 -1.47 -1.05 -2.4 -1.2z"></path><text stroke="none" font-size="16" font-style="normal" font-family="&quot;Courier New&quot;" font-weight="normal" text-decoration="none" class="" text-anchor="middle" x="680.11" y="424.43" data-name="chord"><tspan x="680.11">A</tspan></text></g><g class="" fill="currentColor" stroke="none" data-name="bar"><path data-name="dots.dot" d="M 742.3200000000003 456.74616717529295c 0.09 -0.03 0.27 -0.06 0.39 -0.06c 0.96 0 1.74 0.78 1.74 1.71c 0 0.96 -0.78 1.74 -1.71 1.74c -0.96 0 -1.74 -0.78 -1.74 -1.71c 0 -0.78 0.54 -1.5 1.32 -1.68z"></path><path data-name="dots.dot" d="M 742.3200000000003 464.49616717529295c 0.09 -0.03 0.27 -0.06 0.39 -0.06c 0.96 0 1.74 0.78 1.74 1.71c 0 0.96 -0.78 1.74 -1.71 1.74c -0.96 0 -1.74 -0.78 -1.74 -1.71c 0 -0.78 0.54 -1.5 1.32 -1.68z"></path><line x1="747.3" x2="747.3" y1="477.8" y2="446.8" stroke="currentColor" stroke-width="0.6" data-name="bar"></line><line x1="753" x2="753" y1="477.8" y2="446.8" stroke="currentColor" stroke-width="4" data-name="bar"></line></g><path d="M127.02 435.18 L151.8 431.3L151.8 435.18 L127.02 439.06z" stroke="none" fill="currentColor" class=""></path><path d="M166.17 493.3 L239.3 489.43L239.3 485.56 L166.17 489.43z" stroke="none" fill="currentColor" class=""></path><path d="M279.95 481.68 L353.09 485.55L353.09 481.68 L279.95 477.81z" stroke="none" fill="currentColor" class=""></path><path d="M376.66 489.43 L401.44 493.3L401.44 489.43 L376.66 485.56z" stroke="none" fill="currentColor" class=""></path><path d="M476.28 493.3 L549.42 493.3L549.42 489.43 L476.28 489.43z" stroke="none" fill="currentColor" class=""></path><path d="M582.21 431.3 L606.98 435.18L606.98 439.06 L582.21 435.18z" stroke="none" fill="currentColor" class=""></path></g><g><text stroke="none" font-size="17" font-style="normal" font-family="&quot;Courier New&quot;" font-weight="normal" text-decoration="none" class="" text-anchor="start" x="15" y="516.86" data-name="free-text"><tspan x="15">A-part == | B-part ==</tspan></text></g><g><text stroke="none" font-size="17" font-style="normal" font-family="&quot;Courier New&quot;" font-weight="normal" text-decoration="none" class="" text-anchor="start" x="15" y="545.63" data-name="free-text"><tspan x="15">A A A · E | A A A · G</tspan></text></g><g><text stroke="none" font-size="17" font-style="normal" font-family="&quot;Courier New&quot;" font-weight="normal" text-decoration="none" class="" text-anchor="start" x="15" y="574.4" data-name="free-text"><tspan x="15">A A A/G A | A A A/G A</tspan></text></g><g><text stroke="none" font-size="19" font-style="normal" font-family="Times New Roman" font-weight="normal" text-decoration="none" class="" text-anchor="start" x="15" y="620.66" data-name="description"><tspan x="15">Notes: This is a popular bluegrass tune. Here is a simple version I got from a mandolin lesson.</tspan><tspan x="15" dy="1.2em">Will work with this more in the future.</tspan><tspan x="15" dy="1.2em">Transcription: Cam Cross</tspan><tspan x="15" dy="1.2em"></tspan></text></g></svg>