<?xml version="1.0" standalone="no"?>
<svg xmlns:xlink="http://www.w3.org/1999/xlink" role="img" fill="currentColor" stroke="currentColor" aria-label="Sheet Music for &quot;Old Joe Clark&quot;" viewBox="0 0 770 696.1469999999999" preserveAspectRatio="xMinYMin meet" style="display: inline-block; position: absolute; top: 0px; left: 0px;" width="1600px" height="1446.5485314477849px" xmlns="http://www.w3.org/2000/svg"><style></style><title>Sheet Music for "Old Joe Clark"</title><g><text stroke="none" font-size="32" font-style="normal" font-family="&quot;Times New Roman&quot;" font-weight="bold" text-decoration="none" class="" text-anchor="middle" x="385" y="54.56" data-name="title"><tspan x="385">Old Joe Clark</tspan></text><text stroke="none" font-size="17" font-style="normal" font-family="Palatino" font-weight="normal" text-decoration="none" class="" text-anchor="start" x="15" y="87.12" data-name="rhythm"><tspan x="15">reel</tspan></text><text stroke="none" font-size="17" font-style="italic" font-family="&quot;Times New Roman&quot;" font-weight="normal" text-decoration="none" class="" text-anchor="end" x="755" y="87.12" data-name="composer"><tspan x="755">Trad.</tspan></text></g><g><g><line x1="15" x2="755" y1="159.53700000000003" y2="159.53700000000003" stroke="currentColor" stroke-width="0.7" class="abcjs-top-line"></line><line x1="15" x2="755" y1="167.28700000000003" y2="167.28700000000003" stroke="currentColor" stroke-width="0.7"></line><line x1="15" x2="755" y1="175.03700000000003" y2="175.03700000000003" stroke="currentColor" stroke-width="0.7"></line><line x1="15" x2="755" y1="182.78700000000003" y2="182.78700000000003" stroke="currentColor" stroke-width="0.7"></line><line x1="15" x2="755" y1="190.53700000000003" y2="190.53700000000003" stroke="currentColor" stroke-width="0.7"></line></g><g class="" fill="currentColor" stroke="none" data-name="staff-extra clef"><path data-name="clefs.G" d="M 29.689999999999998 145.20200000000003c 0.09 -0.09 0.24 -0.06 0.36 0c 0.12 0.09 0.57 0.6 0.96 1.11c 1.77 2.34 3.21 5.85 3.57 8.73c 0.21 1.56 0.03 3.27 -0.45 4.86c -0.69 2.31 -1.92 4.47 -4.23 7.44c -0.3 0.39 -0.57 0.72 -0.6 0.75c -0.03 0.06 0 0.15 0.18 0.78c 0.54 1.68 1.38 4.44 1.68 5.49l 0.09 0.42l 0.39 0c 1.47 0.09 2.76 0.51 3.96 1.29c 1.83 1.23 3.06 3.21 3.39 5.52c 0.09 0.45 0.12 1.29 0.06 1.74c -0.09 1.02 -0.33 1.83 -0.75 2.73c -0.84 1.71 -2.28 3.06 -4.02 3.72l -0.33 0.12l 0.03 1.26c 0 1.74 -0.06 3.63 -0.21 4.62c -0.45 3.06 -2.19 5.49 -4.47 6.21c -0.57 0.18 -0.9 0.21 -1.59 0.21c -0.69 0 -1.02 -0.03 -1.65 -0.21c -1.14 -0.27 -2.13 -0.84 -2.94 -1.65c -0.99 -0.99 -1.56 -2.16 -1.71 -3.54c -0.09 -0.81 0.06 -1.53 0.45 -2.13c 0.63 -0.99 1.83 -1.56 3 -1.53c 1.5 0.09 2.64 1.32 2.73 2.94c 0.06 1.47 -0.93 2.7 -2.37 2.97c -0.45 0.06 -0.84 0.03 -1.29 -0.09l -0.21 -0.09l 0.09 0.12c 0.39 0.54 0.78 0.93 1.32 1.26c 1.35 0.87 3.06 1.02 4.35 0.36c 1.44 -0.72 2.52 -2.28 2.97 -4.35c 0.15 -0.66 0.24 -1.5 0.3 -3.03c 0.03 -0.84 0.03 -2.94 0 -3c -0.03 0 -0.18 0 -0.36 0.03c -0.66 0.12 -0.99 0.12 -1.83 0.12c -1.05 0 -1.71 -0.06 -2.61 -0.3c -4.02 -0.99 -7.11 -4.35 -7.8 -8.46c -0.12 -0.66 -0.12 -0.99 -0.12 -1.83c 0 -0.84 0 -1.14 0.15 -1.92c 0.36 -2.28 1.41 -4.62 3.3 -7.29l 2.79 -3.6c 0.54 -0.66 0.96 -1.2 0.96 -1.23c 0 -0.03 -0.09 -0.33 -0.18 -0.69c -0.96 -3.21 -1.41 -5.28 -1.59 -7.68c -0.12 -1.38 -0.15 -3.09 -0.06 -3.96c 0.33 -2.67 1.38 -5.07 3.12 -7.08c 0.36 -0.42 0.99 -1.05 1.17 -1.14zm 2.01 4.71c -0.15 -0.3 -0.3 -0.54 -0.3 -0.54c -0.03 0 -0.18 0.09 -0.3 0.21c -2.4 1.74 -3.87 4.2 -4.26 7.11c -0.06 0.54 -0.06 1.41 -0.03 1.89c 0.09 1.29 0.48 3.12 1.08 5.22c 0.15 0.42 0.24 0.78 0.24 0.81c 0 0.03 0.84 -1.11 1.23 -1.68c 1.89 -2.73 2.88 -5.07 3.15 -7.53c 0.09 -0.57 0.12 -1.74 0.06 -2.37c -0.09 -1.23 -0.27 -1.92 -0.87 -3.12zm -2.94 20.7c -0.21 -0.72 -0.39 -1.32 -0.42 -1.32c 0 0 -1.2 1.47 -1.86 2.37c -2.79 3.63 -4.02 6.3 -4.35 9.3c -0.03 0.21 -0.03 0.69 -0.03 1.08c 0 0.69 0 0.75 0.06 1.11c 0.12 0.54 0.27 0.99 0.51 1.47c 0.69 1.38 1.83 2.55 3.42 3.42c 0.96 0.54 2.07 0.9 3.21 1.08c 0.78 0.12 2.04 0.12 2.94 -0.03c 0.51 -0.06 0.45 -0.03 0.42 -0.3c -0.24 -3.33 -0.72 -6.33 -1.62 -10.08c -0.09 -0.39 -0.18 -0.75 -0.18 -0.78c -0.03 -0.03 -0.42 0 -0.81 0.09c -0.9 0.18 -1.65 0.57 -2.22 1.14c -0.72 0.72 -1.08 1.65 -1.05 2.64c 0.06 0.96 0.48 1.83 1.23 2.58c 0.36 0.36 0.72 0.63 1.17 0.9c 0.33 0.18 0.36 0.21 0.42 0.33c 0.18 0.42 -0.18 0.9 -0.6 0.87c -0.18 -0.03 -0.84 -0.36 -1.26 -0.63c -0.78 -0.51 -1.38 -1.11 -1.86 -1.83c -1.77 -2.7 -0.99 -6.42 1.71 -8.19c 0.3 -0.21 0.81 -0.48 1.17 -0.63c 0.3 -0.09 1.02 -0.3 1.14 -0.3c 0.06 0 0.09 0 0.09 -0.03c 0.03 -0.03 -0.51 -1.92 -1.23 -4.26zm 3.78 7.41c -0.18 -0.03 -0.36 -0.06 -0.39 -0.06c -0.03 0 0 0.21 0.18 1.02c 0.75 3.18 1.26 6.3 1.5 9.09c 0.06 0.72 0 0.69 0.51 0.42c 0.78 -0.36 1.44 -0.96 1.98 -1.77c 1.08 -1.62 1.2 -3.69 0.3 -5.55c -0.81 -1.62 -2.31 -2.79 -4.08 -3.15z"></path></g><g class="" fill="currentColor" stroke="none" data-name="staff-extra key-signature"><path data-name="accidentals.sharp" d="M 54.781000000000006 148.17200000000003c 0.21 -0.12 0.54 -0.03 0.66 0.24c 0.06 0.12 0.06 0.21 0.06 2.31c 0 1.23 0 2.22 0.03 2.22c 0 0 0.27 -0.12 0.6 -0.24c 0.69 -0.27 0.78 -0.3 0.96 -0.15c 0.21 0.15 0.21 0.18 0.21 1.38c 0 1.02 0 1.11 -0.06 1.2c -0.03 0.06 -0.09 0.12 -0.12 0.15c -0.06 0.03 -0.42 0.21 -0.84 0.36l -0.75 0.33l -0.03 2.43c 0 1.32 0 2.43 0.03 2.43c 0 0 0.27 -0.12 0.6 -0.24c 0.69 -0.27 0.78 -0.3 0.96 -0.15c 0.21 0.15 0.21 0.18 0.21 1.38c 0 1.02 0 1.11 -0.06 1.2c -0.03 0.06 -0.09 0.12 -0.12 0.15c -0.06 0.03 -0.42 0.21 -0.84 0.36l -0.75 0.33l -0.03 2.52c 0 2.28 -0.03 2.55 -0.06 2.64c -0.21 0.36 -0.72 0.36 -0.93 0c -0.03 -0.09 -0.06 -0.33 -0.06 -2.43l 0 -2.31l -1.29 0.51l -1.26 0.51l 0 2.43c 0 2.58 0 2.52 -0.15 2.67c -0.06 0.09 -0.27 0.18 -0.36 0.18c -0.12 0 -0.33 -0.09 -0.39 -0.18c -0.15 -0.15 -0.15 -0.09 -0.15 -2.43c 0 -1.23 0 -2.22 -0.03 -2.22c 0 0 -0.27 0.12 -0.6 0.24c -0.69 0.27 -0.78 0.3 -0.96 0.15c -0.21 -0.15 -0.21 -0.18 -0.21 -1.38c 0 -1.02 0 -1.11 0.06 -1.2c 0.03 -0.06 0.09 -0.12 0.12 -0.15c 0.06 -0.03 0.42 -0.21 0.84 -0.36l 0.78 -0.33l 0 -2.43c 0 -1.32 0 -2.43 -0.03 -2.43c 0 0 -0.27 0.12 -0.6 0.24c -0.69 0.27 -0.78 0.3 -0.96 0.15c -0.21 -0.15 -0.21 -0.18 -0.21 -1.38c 0 -1.02 0 -1.11 0.06 -1.2c 0.03 -0.06 0.09 -0.12 0.12 -0.15c 0.06 -0.03 0.42 -0.21 0.84 -0.36l 0.78 -0.33l 0 -2.52c 0 -2.28 0.03 -2.55 0.06 -2.64c 0.21 -0.36 0.72 -0.36 0.93 0c 0.03 0.09 0.06 0.33 0.06 2.43l 0.03 2.31l 1.26 -0.51l 1.26 -0.51l 0 -2.43c 0 -2.28 0 -2.43 0.06 -2.55c 0.06 -0.12 0.12 -0.18 0.27 -0.24zm -0.33 10.65l 0 -2.43l -1.29 0.51l -1.26 0.51l 0 2.46l 0 2.43l 0.09 -0.03c 0.06 -0.03 0.63 -0.27 1.29 -0.51l 1.17 -0.48l 0 -2.46z"></path><path data-name="accidentals.sharp" d="M 65.031 159.79700000000003c 0.21 -0.12 0.54 -0.03 0.66 0.24c 0.06 0.12 0.06 0.21 0.06 2.31c 0 1.23 0 2.22 0.03 2.22c 0 0 0.27 -0.12 0.6 -0.24c 0.69 -0.27 0.78 -0.3 0.96 -0.15c 0.21 0.15 0.21 0.18 0.21 1.38c 0 1.02 0 1.11 -0.06 1.2c -0.03 0.06 -0.09 0.12 -0.12 0.15c -0.06 0.03 -0.42 0.21 -0.84 0.36l -0.75 0.33l -0.03 2.43c 0 1.32 0 2.43 0.03 2.43c 0 0 0.27 -0.12 0.6 -0.24c 0.69 -0.27 0.78 -0.3 0.96 -0.15c 0.21 0.15 0.21 0.18 0.21 1.38c 0 1.02 0 1.11 -0.06 1.2c -0.03 0.06 -0.09 0.12 -0.12 0.15c -0.06 0.03 -0.42 0.21 -0.84 0.36l -0.75 0.33l -0.03 2.52c 0 2.28 -0.03 2.55 -0.06 2.64c -0.21 0.36 -0.72 0.36 -0.93 0c -0.03 -0.09 -0.06 -0.33 -0.06 -2.43l 0 -2.31l -1.29 0.51l -1.26 0.51l 0 2.43c 0 2.58 0 2.52 -0.15 2.67c -0.06 0.09 -0.27 0.18 -0.36 0.18c -0.12 0 -0.33 -0.09 -0.39 -0.18c -0.15 -0.15 -0.15 -0.09 -0.15 -2.43c 0 -1.23 0 -2.22 -0.03 -2.22c 0 0 -0.27 0.12 -0.6 0.24c -0.69 0.27 -0.78 0.3 -0.96 0.15c -0.21 -0.15 -0.21 -0.18 -0.21 -1.38c 0 -1.02 0 -1.11 0.06 -1.2c 0.03 -0.06 0.09 -0.12 0.12 -0.15c 0.06 -0.03 0.42 -0.21 0.84 -0.36l 0.78 -0.33l 0 -2.43c 0 -1.32 0 -2.43 -0.03 -2.43c 0 0 -0.27 0.12 -0.6 0.24c -0.69 0.27 -0.78 0.3 -0.96 0.15c -0.21 -0.15 -0.21 -0.18 -0.21 -1.38c 0 -1.02 0 -1.11 0.06 -1.2c 0.03 -0.06 0.09 -0.12 0.12 -0.15c 0.06 -0.03 0.42 -0.21 0.84 -0.36l 0.78 -0.33l 0 -2.52c 0 -2.28 0.03 -2.55 0.06 -2.64c 0.21 -0.36 0.72 -0.36 0.93 0c 0.03 0.09 0.06 0.33 0.06 2.43l 0.03 2.31l 1.26 -0.51l 1.26 -0.51l 0 -2.43c 0 -2.28 0 -2.43 0.06 -2.55c 0.06 -0.12 0.12 -0.18 0.27 -0.24zm -0.33 10.65l 0 -2.43l -1.29 0.51l -1.26 0.51l 0 2.46l 0 2.43l 0.09 -0.03c 0.06 -0.03 0.63 -0.27 1.29 -0.51l 1.17 -0.48l 0 -2.46z"></path></g><g class="" fill="currentColor" stroke="none" data-name="staff-extra time-signature"><path data-name="4" d="M 86.191 159.92200000000003c 0.27 -0.09 0.42 -0.12 0.54 -0.03c 0.09 0.06 0.15 0.21 0.15 0.3c -0.03 0.06 -1.92 2.31 -4.23 5.04c -2.31 2.73 -4.23 4.98 -4.26 5.01c -0.03 0.06 0.12 0.06 2.55 0.06l 2.61 0l 0 -2.37c 0 -2.19 0.03 -2.37 0.06 -2.46c 0.03 -0.06 0.21 -0.18 0.57 -0.42c 1.08 -0.72 1.38 -1.08 1.86 -2.16c 0.12 -0.3 0.24 -0.54 0.27 -0.57c 0.12 -0.12 0.39 -0.06 0.45 0.12c 0.06 0.09 0.06 0.57 0.06 3.96l 0 3.9l 1.08 0c 1.05 0 1.11 0 1.2 0.06c 0.24 0.15 0.24 0.54 0 0.69c -0.09 0.06 -0.15 0.06 -1.2 0.06l -1.08 0l 0 0.33c 0 0.57 0.09 1.11 0.3 1.53c 0.36 0.75 0.93 1.17 1.68 1.26c 0.3 0.03 0.39 0.09 0.39 0.3c 0 0.15 -0.03 0.18 -0.09 0.24c -0.06 0.06 -0.09 0.06 -0.48 0.06c -0.42 0 -0.69 -0.03 -2.1 -0.24c -0.9 -0.15 -1.77 -0.15 -2.67 0c -1.41 0.21 -1.68 0.24 -2.1 0.24c -0.39 0 -0.42 0 -0.48 -0.06c -0.06 -0.06 -0.06 -0.09 -0.06 -0.24c 0 -0.21 0.06 -0.27 0.36 -0.3c 0.75 -0.09 1.32 -0.51 1.68 -1.26c 0.21 -0.42 0.3 -0.96 0.3 -1.53l 0 -0.33l -2.7 0c -2.91 0 -2.85 0 -3.09 -0.15c -0.18 -0.12 -0.3 -0.39 -0.27 -0.54c 0.03 -0.06 0.18 -0.24 0.33 -0.45c 0.75 -0.9 1.59 -2.07 2.13 -3.03c 0.33 -0.54 0.84 -1.62 1.05 -2.16c 0.57 -1.41 0.84 -2.64 0.9 -4.05c 0.03 -0.63 0.06 -0.72 0.24 -0.81l 0.12 -0.06l 0.45 0.12c 0.66 0.18 1.02 0.24 1.47 0.27c 0.6 0.03 1.23 -0.09 2.01 -0.33z"></path><path data-name="4" d="M 86.191 175.42200000000003c 0.27 -0.09 0.42 -0.12 0.54 -0.03c 0.09 0.06 0.15 0.21 0.15 0.3c -0.03 0.06 -1.92 2.31 -4.23 5.04c -2.31 2.73 -4.23 4.98 -4.26 5.01c -0.03 0.06 0.12 0.06 2.55 0.06l 2.61 0l 0 -2.37c 0 -2.19 0.03 -2.37 0.06 -2.46c 0.03 -0.06 0.21 -0.18 0.57 -0.42c 1.08 -0.72 1.38 -1.08 1.86 -2.16c 0.12 -0.3 0.24 -0.54 0.27 -0.57c 0.12 -0.12 0.39 -0.06 0.45 0.12c 0.06 0.09 0.06 0.57 0.06 3.96l 0 3.9l 1.08 0c 1.05 0 1.11 0 1.2 0.06c 0.24 0.15 0.24 0.54 0 0.69c -0.09 0.06 -0.15 0.06 -1.2 0.06l -1.08 0l 0 0.33c 0 0.57 0.09 1.11 0.3 1.53c 0.36 0.75 0.93 1.17 1.68 1.26c 0.3 0.03 0.39 0.09 0.39 0.3c 0 0.15 -0.03 0.18 -0.09 0.24c -0.06 0.06 -0.09 0.06 -0.48 0.06c -0.42 0 -0.69 -0.03 -2.1 -0.24c -0.9 -0.15 -1.77 -0.15 -2.67 0c -1.41 0.21 -1.68 0.24 -2.1 0.24c -0.39 0 -0.42 0 -0.48 -0.06c -0.06 -0.06 -0.06 -0.09 -0.06 -0.24c 0 -0.21 0.06 -0.27 0.36 -0.3c 0.75 -0.09 1.32 -0.51 1.68 -1.26c 0.21 -0.42 0.3 -0.96 0.3 -1.53l 0 -0.33l -2.7 0c -2.91 0 -2.85 0 -3.09 -0.15c -0.18 -0.12 -0.3 -0.39 -0.27 -0.54c 0.03 -0.06 0.18 -0.24 0.33 -0.45c 0.75 -0.9 1.59 -2.07 2.13 -3.03c 0.33 -0.54 0.84 -1.62 1.05 -2.16c 0.57 -1.41 0.84 -2.64 0.9 -4.05c 0.03 -0.63 0.06 -0.72 0.24 -0.81l 0.12 -0.06l 0.45 0.12c 0.66 0.18 1.02 0.24 1.47 0.27c 0.6 0.03 1.23 -0.09 2.01 -0.33z"></path></g><g class="" fill="currentColor" stroke="none" data-name="part"><text stroke="none" font-size="17" font-style="normal" font-family="Helvetica" font-weight="normal" text-decoration="none" class="" text-anchor="start" x="99.35" y="116.68" data-name="A-part"><tspan x="99.35">A-part</tspan></text></g><g class="" fill="currentColor" stroke="none" data-name="note"><path data-name="e" d="M 112.73600019073487 159.187c 0.36 -0.03 1.2 0 1.53 0.06c 1.17 0.24 1.89 0.84 2.16 1.83c 0.06 0.18 0.06 0.3 0.06 0.66c 0 0.45 0 0.63 -0.15 1.08c -0.66 2.04 -3.06 3.93 -5.52 4.38c -0.54 0.09 -1.44 0.09 -1.83 0.03c -1.23 -0.27 -1.98 -0.87 -2.25 -1.86c -0.06 -0.18 -0.06 -0.3 -0.06 -0.66c 0 -0.45 0 -0.63 0.15 -1.08c 0.24 -0.78 0.75 -1.53 1.44 -2.22c 1.2 -1.2 2.85 -2.01 4.47 -2.22z"></path><line x1="107.15" x2="107.15" y1="190.36" y2="164.53" stroke="currentColor" stroke-width="1" class="abcjs-stem" data-name="stem"></line><text stroke="none" font-size="16" font-style="normal" font-family="&quot;Courier New&quot;" font-weight="normal" text-decoration="none" class="" text-anchor="middle" x="111.55" y="138.31" data-name="chord"><tspan x="111.55">A</tspan></text></g><g class="" fill="currentColor" stroke="none" data-name="note"><path data-name="f" d="M 154.3332020195265 155.312c 0.36 -0.03 1.2 0 1.53 0.06c 1.17 0.24 1.89 0.84 2.16 1.83c 0.06 0.18 0.06 0.3 0.06 0.66c 0 0.45 0 0.63 -0.15 1.08c -0.66 2.04 -3.06 3.93 -5.52 4.38c -0.54 0.09 -1.44 0.09 -1.83 0.03c -1.23 -0.27 -1.98 -0.87 -2.25 -1.86c -0.06 -0.18 -0.06 -0.3 -0.06 -0.66c 0 -0.45 0 -0.63 0.15 -1.08c 0.24 -0.78 0.75 -1.53 1.44 -2.22c 1.2 -1.2 2.85 -2.01 4.47 -2.22z"></path><line x1="148.74" x2="148.74" y1="186.49" y2="160.65" stroke="currentColor" stroke-width="1" class="abcjs-stem" data-name="stem"></line></g><g class="" fill="currentColor" stroke="none" data-name="note"><path data-name="g" d="M 195.93040384831815 151.437c 0.36 -0.03 1.2 0 1.53 0.06c 1.17 0.24 1.89 0.84 2.16 1.83c 0.06 0.18 0.06 0.3 0.06 0.66c 0 0.45 0 0.63 -0.15 1.08c -0.66 2.04 -3.06 3.93 -5.52 4.38c -0.54 0.09 -1.44 0.09 -1.83 0.03c -1.23 -0.27 -1.98 -0.87 -2.25 -1.86c -0.06 -0.18 -0.06 -0.3 -0.06 -0.66c 0 -0.45 0 -0.63 0.15 -1.08c 0.24 -0.78 0.75 -1.53 1.44 -2.22c 1.2 -1.2 2.85 -2.01 4.47 -2.22z"></path><line x1="190.34" x2="190.34" y1="182.61" y2="156.78" stroke="currentColor" stroke-width="1" class="abcjs-stem" data-name="stem"></line></g><g class="" fill="currentColor" stroke="none" data-name="note"><path data-name="f" d="M 237.5276056771098 155.312c 0.36 -0.03 1.2 0 1.53 0.06c 1.17 0.24 1.89 0.84 2.16 1.83c 0.06 0.18 0.06 0.3 0.06 0.66c 0 0.45 0 0.63 -0.15 1.08c -0.66 2.04 -3.06 3.93 -5.52 4.38c -0.54 0.09 -1.44 0.09 -1.83 0.03c -1.23 -0.27 -1.98 -0.87 -2.25 -1.86c -0.06 -0.18 -0.06 -0.3 -0.06 -0.66c 0 -0.45 0 -0.63 0.15 -1.08c 0.24 -0.78 0.75 -1.53 1.44 -2.22c 1.2 -1.2 2.85 -2.01 4.47 -2.22z"></path><line x1="231.94" x2="231.94" y1="186.49" y2="160.65" stroke="currentColor" stroke-width="1" class="abcjs-stem" data-name="stem"></line></g><g class="" fill="currentColor" stroke="none" data-name="bar"><line x1="273.33" x2="273.33" y1="190.36" y2="159.36" stroke="currentColor" stroke-width="0.6" data-name="bar"></line></g><g class="" fill="currentColor" stroke="none" data-name="note"><path data-name="e" d="M 297.42480769663626 159.187c 0.36 -0.03 1.2 0 1.53 0.06c 1.17 0.24 1.89 0.84 2.16 1.83c 0.06 0.18 0.06 0.3 0.06 0.66c 0 0.45 0 0.63 -0.15 1.08c -0.66 2.04 -3.06 3.93 -5.52 4.38c -0.54 0.09 -1.44 0.09 -1.83 0.03c -1.23 -0.27 -1.98 -0.87 -2.25 -1.86c -0.06 -0.18 -0.06 -0.3 -0.06 -0.66c 0 -0.45 0 -0.63 0.15 -1.08c 0.24 -0.78 0.75 -1.53 1.44 -2.22c 1.2 -1.2 2.85 -2.01 4.47 -2.22z"></path><text stroke="none" font-size="16" font-style="normal" font-family="&quot;Courier New&quot;" font-weight="normal" text-decoration="none" class="" text-anchor="middle" x="296.24" y="138.31" data-name="chord"><tspan x="296.24">A</tspan></text><line x1="291.63" x2="291.63" y1="192.3" y2="164.01" stroke="currentColor" stroke-width="0.6" class="abcjs-stem" data-name="stem"></line></g><g class="" fill="currentColor" stroke="none" data-name="note"><path data-name="f" d="M 326.83847118816027 155.312c 0.36 -0.03 1.2 0 1.53 0.06c 1.17 0.24 1.89 0.84 2.16 1.83c 0.06 0.18 0.06 0.3 0.06 0.66c 0 0.45 0 0.63 -0.15 1.08c -0.66 2.04 -3.06 3.93 -5.52 4.38c -0.54 0.09 -1.44 0.09 -1.83 0.03c -1.23 -0.27 -1.98 -0.87 -2.25 -1.86c -0.06 -0.18 -0.06 -0.3 -0.06 -0.66c 0 -0.45 0 -0.63 0.15 -1.08c 0.24 -0.78 0.75 -1.53 1.44 -2.22c 1.2 -1.2 2.85 -2.01 4.47 -2.22z"></path><line x1="321.05" x2="321.05" y1="193.58" y2="160.14" stroke="currentColor" stroke-width="0.6" class="abcjs-stem" data-name="stem"></line></g><g class="" fill="currentColor" stroke="none" data-name="note"><path data-name="e" d="M 356.2521346796843 159.187c 0.36 -0.03 1.2 0 1.53 0.06c 1.17 0.24 1.89 0.84 2.16 1.83c 0.06 0.18 0.06 0.3 0.06 0.66c 0 0.45 0 0.63 -0.15 1.08c -0.66 2.04 -3.06 3.93 -5.52 4.38c -0.54 0.09 -1.44 0.09 -1.83 0.03c -1.23 -0.27 -1.98 -0.87 -2.25 -1.86c -0.06 -0.18 -0.06 -0.3 -0.06 -0.66c 0 -0.45 0 -0.63 0.15 -1.08c 0.24 -0.78 0.75 -1.53 1.44 -2.22c 1.2 -1.2 2.85 -2.01 4.47 -2.22z"></path><line x1="350.46000000000004" x2="350.46000000000004" y1="194.87" y2="164.01" stroke="currentColor" stroke-width="0.6" class="abcjs-stem" data-name="stem"></line></g><g class="" fill="currentColor" stroke="none" data-name="note"><path data-name="d" d="M 385.6657981712083 163.062c 0.36 -0.03 1.2 0 1.53 0.06c 1.17 0.24 1.89 0.84 2.16 1.83c 0.06 0.18 0.06 0.3 0.06 0.66c 0 0.45 0 0.63 -0.15 1.08c -0.66 2.04 -3.06 3.93 -5.52 4.38c -0.54 0.09 -1.44 0.09 -1.83 0.03c -1.23 -0.27 -1.98 -0.87 -2.25 -1.86c -0.06 -0.18 -0.06 -0.3 -0.06 -0.66c 0 -0.45 0 -0.63 0.15 -1.08c 0.24 -0.78 0.75 -1.53 1.44 -2.22c 1.2 -1.2 2.85 -2.01 4.47 -2.22z"></path><line x1="379.88" x2="379.88" y1="196.15" y2="167.89" stroke="currentColor" stroke-width="0.6" class="abcjs-stem" data-name="stem"></line></g><g class="" fill="currentColor" stroke="none" data-name="note"><path data-name="c" d="M 416.4294616627323 166.937c 0.06 -0.03 0.27 -0.03 0.48 -0.03c 1.05 0 1.71 0.24 2.1 0.81c 0.42 0.6 0.45 1.35 0.18 2.4c -0.42 1.59 -1.14 2.73 -2.16 3.39c -1.41 0.93 -3.18 1.44 -5.4 1.53c -1.17 0.03 -1.89 -0.21 -2.28 -0.81c -0.42 -0.6 -0.45 -1.35 -0.18 -2.4c 0.42 -1.59 1.14 -2.73 2.16 -3.39c 0.63 -0.42 1.23 -0.72 1.98 -0.96c 0.9 -0.3 1.65 -0.42 3.12 -0.54zm 1.29 0.87c -0.27 -0.09 -0.63 -0.12 -0.9 -0.03c -0.72 0.24 -1.53 0.69 -3.27 1.8c -2.34 1.5 -3.3 2.25 -3.57 2.79c -0.36 0.72 -0.06 1.5 0.66 1.77c 0.24 0.12 0.69 0.09 0.99 0c 0.84 -0.3 1.92 -0.93 4.14 -2.37c 1.62 -1.08 2.37 -1.71 2.61 -2.19c 0.36 -0.72 0.06 -1.5 -0.66 -1.77z"></path><line x1="409.49" x2="409.49" y1="198.11" y2="172.28" stroke="currentColor" stroke-width="1" class="abcjs-stem" data-name="stem"></line></g><g class="" fill="currentColor" stroke="none" data-name="bar"><line x1="468.12" x2="468.12" y1="190.36" y2="159.36" stroke="currentColor" stroke-width="0.6" data-name="bar"></line></g><g class="" fill="currentColor" stroke="none" data-name="note"><path data-name="e" d="M 492.2067888365152 159.187c 0.36 -0.03 1.2 0 1.53 0.06c 1.17 0.24 1.89 0.84 2.16 1.83c 0.06 0.18 0.06 0.3 0.06 0.66c 0 0.45 0 0.63 -0.15 1.08c -0.66 2.04 -3.06 3.93 -5.52 4.38c -0.54 0.09 -1.44 0.09 -1.83 0.03c -1.23 -0.27 -1.98 -0.87 -2.25 -1.86c -0.06 -0.18 -0.06 -0.3 -0.06 -0.66c 0 -0.45 0 -0.63 0.15 -1.08c 0.24 -0.78 0.75 -1.53 1.44 -2.22c 1.2 -1.2 2.85 -2.01 4.47 -2.22z"></path><line x1="486.62" x2="486.62" y1="190.36" y2="164.53" stroke="currentColor" stroke-width="1" class="abcjs-stem" data-name="stem"></line><text stroke="none" font-size="16" font-style="normal" font-family="&quot;Courier New&quot;" font-weight="normal" text-decoration="none" class="" text-anchor="middle" x="491.02" y="138.31" data-name="chord"><tspan x="491.02">A</tspan></text></g><g class="" fill="currentColor" stroke="none" data-name="note"><path data-name="f" d="M 533.803990665307 155.312c 0.36 -0.03 1.2 0 1.53 0.06c 1.17 0.24 1.89 0.84 2.16 1.83c 0.06 0.18 0.06 0.3 0.06 0.66c 0 0.45 0 0.63 -0.15 1.08c -0.66 2.04 -3.06 3.93 -5.52 4.38c -0.54 0.09 -1.44 0.09 -1.83 0.03c -1.23 -0.27 -1.98 -0.87 -2.25 -1.86c -0.06 -0.18 -0.06 -0.3 -0.06 -0.66c 0 -0.45 0 -0.63 0.15 -1.08c 0.24 -0.78 0.75 -1.53 1.44 -2.22c 1.2 -1.2 2.85 -2.01 4.47 -2.22z"></path><line x1="528.21" x2="528.21" y1="186.49" y2="160.65" stroke="currentColor" stroke-width="1" class="abcjs-stem" data-name="stem"></line></g><g class="" fill="currentColor" stroke="none" data-name="note"><path data-name="g" d="M 575.4011924940986 151.437c 0.36 -0.03 1.2 0 1.53 0.06c 1.17 0.24 1.89 0.84 2.16 1.83c 0.06 0.18 0.06 0.3 0.06 0.66c 0 0.45 0 0.63 -0.15 1.08c -0.66 2.04 -3.06 3.93 -5.52 4.38c -0.54 0.09 -1.44 0.09 -1.83 0.03c -1.23 -0.27 -1.98 -0.87 -2.25 -1.86c -0.06 -0.18 -0.06 -0.3 -0.06 -0.66c 0 -0.45 0 -0.63 0.15 -1.08c 0.24 -0.78 0.75 -1.53 1.44 -2.22c 1.2 -1.2 2.85 -2.01 4.47 -2.22z"></path><line x1="569.81" x2="569.81" y1="182.61" y2="156.78" stroke="currentColor" stroke-width="1" class="abcjs-stem" data-name="stem"></line></g><g class="" fill="currentColor" stroke="none" data-name="note"><path data-name="f" d="M 616.9983943228902 155.312c 0.36 -0.03 1.2 0 1.53 0.06c 1.17 0.24 1.89 0.84 2.16 1.83c 0.06 0.18 0.06 0.3 0.06 0.66c 0 0.45 0 0.63 -0.15 1.08c -0.66 2.04 -3.06 3.93 -5.52 4.38c -0.54 0.09 -1.44 0.09 -1.83 0.03c -1.23 -0.27 -1.98 -0.87 -2.25 -1.86c -0.06 -0.18 -0.06 -0.3 -0.06 -0.66c 0 -0.45 0 -0.63 0.15 -1.08c 0.24 -0.78 0.75 -1.53 1.44 -2.22c 1.2 -1.2 2.85 -2.01 4.47 -2.22z"></path><line x1="611.41" x2="611.41" y1="186.49" y2="160.65" stroke="currentColor" stroke-width="1" class="abcjs-stem" data-name="stem"></line></g><g class="" fill="currentColor" stroke="none" data-name="bar"><line x1="652.81" x2="652.81" y1="190.36" y2="159.36" stroke="currentColor" stroke-width="0.6" data-name="bar"></line></g><g class="" fill="currentColor" stroke="none" data-name="note"><path data-name="e" d="M 677.3155963424167 159.187c 0.51 -0.03 2.01 0 2.52 0.03c 1.41 0.18 2.64 0.51 3.72 1.08c 1.2 0.63 1.95 1.41 2.19 2.31c 0.09 0.33 0.09 0.9 0 1.23c -0.24 0.9 -0.99 1.68 -2.19 2.31c -1.08 0.57 -2.28 0.9 -3.75 1.08c -0.66 0.06 -2.31 0.06 -2.97 0c -1.47 -0.18 -2.67 -0.51 -3.75 -1.08c -1.2 -0.63 -1.95 -1.41 -2.19 -2.31c -0.09 -0.33 -0.09 -0.9 0 -1.23c 0.24 -0.9 0.99 -1.68 2.19 -2.31c 1.2 -0.63 2.61 -0.99 4.23 -1.11zm 0.57 0.66c -0.87 -0.15 -1.53 0 -2.04 0.51c -0.15 0.15 -0.24 0.27 -0.33 0.48c -0.24 0.51 -0.36 1.08 -0.33 1.77c 0.03 0.69 0.18 1.26 0.42 1.77c 0.6 1.17 1.74 1.98 3.18 2.22c 1.11 0.21 1.95 -0.15 2.34 -0.99c 0.24 -0.51 0.36 -1.08 0.33 -1.8c -0.06 -1.11 -0.45 -2.04 -1.17 -2.76c -0.63 -0.63 -1.47 -1.05 -2.4 -1.2z"></path><text stroke="none" font-size="16" font-style="normal" font-family="&quot;Courier New&quot;" font-weight="normal" text-decoration="none" class="" text-anchor="middle" x="678.3" y="138.31" data-name="chord"><tspan x="678.3">E</tspan></text></g><g class="" fill="currentColor" stroke="none" data-name="bar"><line x1="754.3" x2="754.3" y1="190.36" y2="159.36" stroke="currentColor" stroke-width="0.6" data-name="bar"></line></g><path d="M291.33 194.24 L380.18 198.11L380.18 194.24 L291.33 190.37z" stroke="none" fill="currentColor" class=""></path></g><g><g><line x1="15" x2="755" y1="251.86700000000002" y2="251.86700000000002" stroke="currentColor" stroke-width="0.7" class="abcjs-top-line"></line><line x1="15" x2="755" y1="259.617" y2="259.617" stroke="currentColor" stroke-width="0.7"></line><line x1="15" x2="755" y1="267.367" y2="267.367" stroke="currentColor" stroke-width="0.7"></line><line x1="15" x2="755" y1="275.117" y2="275.117" stroke="currentColor" stroke-width="0.7"></line><line x1="15" x2="755" y1="282.867" y2="282.867" stroke="currentColor" stroke-width="0.7"></line></g><g class="" fill="currentColor" stroke="none" data-name="staff-extra clef"><path data-name="clefs.G" d="M 29.689999999999998 237.532c 0.09 -0.09 0.24 -0.06 0.36 0c 0.12 0.09 0.57 0.6 0.96 1.11c 1.77 2.34 3.21 5.85 3.57 8.73c 0.21 1.56 0.03 3.27 -0.45 4.86c -0.69 2.31 -1.92 4.47 -4.23 7.44c -0.3 0.39 -0.57 0.72 -0.6 0.75c -0.03 0.06 0 0.15 0.18 0.78c 0.54 1.68 1.38 4.44 1.68 5.49l 0.09 0.42l 0.39 0c 1.47 0.09 2.76 0.51 3.96 1.29c 1.83 1.23 3.06 3.21 3.39 5.52c 0.09 0.45 0.12 1.29 0.06 1.74c -0.09 1.02 -0.33 1.83 -0.75 2.73c -0.84 1.71 -2.28 3.06 -4.02 3.72l -0.33 0.12l 0.03 1.26c 0 1.74 -0.06 3.63 -0.21 4.62c -0.45 3.06 -2.19 5.49 -4.47 6.21c -0.57 0.18 -0.9 0.21 -1.59 0.21c -0.69 0 -1.02 -0.03 -1.65 -0.21c -1.14 -0.27 -2.13 -0.84 -2.94 -1.65c -0.99 -0.99 -1.56 -2.16 -1.71 -3.54c -0.09 -0.81 0.06 -1.53 0.45 -2.13c 0.63 -0.99 1.83 -1.56 3 -1.53c 1.5 0.09 2.64 1.32 2.73 2.94c 0.06 1.47 -0.93 2.7 -2.37 2.97c -0.45 0.06 -0.84 0.03 -1.29 -0.09l -0.21 -0.09l 0.09 0.12c 0.39 0.54 0.78 0.93 1.32 1.26c 1.35 0.87 3.06 1.02 4.35 0.36c 1.44 -0.72 2.52 -2.28 2.97 -4.35c 0.15 -0.66 0.24 -1.5 0.3 -3.03c 0.03 -0.84 0.03 -2.94 0 -3c -0.03 0 -0.18 0 -0.36 0.03c -0.66 0.12 -0.99 0.12 -1.83 0.12c -1.05 0 -1.71 -0.06 -2.61 -0.3c -4.02 -0.99 -7.11 -4.35 -7.8 -8.46c -0.12 -0.66 -0.12 -0.99 -0.12 -1.83c 0 -0.84 0 -1.14 0.15 -1.92c 0.36 -2.28 1.41 -4.62 3.3 -7.29l 2.79 -3.6c 0.54 -0.66 0.96 -1.2 0.96 -1.23c 0 -0.03 -0.09 -0.33 -0.18 -0.69c -0.96 -3.21 -1.41 -5.28 -1.59 -7.68c -0.12 -1.38 -0.15 -3.09 -0.06 -3.96c 0.33 -2.67 1.38 -5.07 3.12 -7.08c 0.36 -0.42 0.99 -1.05 1.17 -1.14zm 2.01 4.71c -0.15 -0.3 -0.3 -0.54 -0.3 -0.54c -0.03 0 -0.18 0.09 -0.3 0.21c -2.4 1.74 -3.87 4.2 -4.26 7.11c -0.06 0.54 -0.06 1.41 -0.03 1.89c 0.09 1.29 0.48 3.12 1.08 5.22c 0.15 0.42 0.24 0.78 0.24 0.81c 0 0.03 0.84 -1.11 1.23 -1.68c 1.89 -2.73 2.88 -5.07 3.15 -7.53c 0.09 -0.57 0.12 -1.74 0.06 -2.37c -0.09 -1.23 -0.27 -1.92 -0.87 -3.12zm -2.94 20.7c -0.21 -0.72 -0.39 -1.32 -0.42 -1.32c 0 0 -1.2 1.47 -1.86 2.37c -2.79 3.63 -4.02 6.3 -4.35 9.3c -0.03 0.21 -0.03 0.69 -0.03 1.08c 0 0.69 0 0.75 0.06 1.11c 0.12 0.54 0.27 0.99 0.51 1.47c 0.69 1.38 1.83 2.55 3.42 3.42c 0.96 0.54 2.07 0.9 3.21 1.08c 0.78 0.12 2.04 0.12 2.94 -0.03c 0.51 -0.06 0.45 -0.03 0.42 -0.3c -0.24 -3.33 -0.72 -6.33 -1.62 -10.08c -0.09 -0.39 -0.18 -0.75 -0.18 -0.78c -0.03 -0.03 -0.42 0 -0.81 0.09c -0.9 0.18 -1.65 0.57 -2.22 1.14c -0.72 0.72 -1.08 1.65 -1.05 2.64c 0.06 0.96 0.48 1.83 1.23 2.58c 0.36 0.36 0.72 0.63 1.17 0.9c 0.33 0.18 0.36 0.21 0.42 0.33c 0.18 0.42 -0.18 0.9 -0.6 0.87c -0.18 -0.03 -0.84 -0.36 -1.26 -0.63c -0.78 -0.51 -1.38 -1.11 -1.86 -1.83c -1.77 -2.7 -0.99 -6.42 1.71 -8.19c 0.3 -0.21 0.81 -0.48 1.17 -0.63c 0.3 -0.09 1.02 -0.3 1.14 -0.3c 0.06 0 0.09 0 0.09 -0.03c 0.03 -0.03 -0.51 -1.92 -1.23 -4.26zm 3.78 7.41c -0.18 -0.03 -0.36 -0.06 -0.39 -0.06c -0.03 0 0 0.21 0.18 1.02c 0.75 3.18 1.26 6.3 1.5 9.09c 0.06 0.72 0 0.69 0.51 0.42c 0.78 -0.36 1.44 -0.96 1.98 -1.77c 1.08 -1.62 1.2 -3.69 0.3 -5.55c -0.81 -1.62 -2.31 -2.79 -4.08 -3.15z"></path></g><g class="" fill="currentColor" stroke="none" data-name="staff-extra key-signature"><path data-name="accidentals.sharp" d="M 54.781000000000006 240.502c 0.21 -0.12 0.54 -0.03 0.66 0.24c 0.06 0.12 0.06 0.21 0.06 2.31c 0 1.23 0 2.22 0.03 2.22c 0 0 0.27 -0.12 0.6 -0.24c 0.69 -0.27 0.78 -0.3 0.96 -0.15c 0.21 0.15 0.21 0.18 0.21 1.38c 0 1.02 0 1.11 -0.06 1.2c -0.03 0.06 -0.09 0.12 -0.12 0.15c -0.06 0.03 -0.42 0.21 -0.84 0.36l -0.75 0.33l -0.03 2.43c 0 1.32 0 2.43 0.03 2.43c 0 0 0.27 -0.12 0.6 -0.24c 0.69 -0.27 0.78 -0.3 0.96 -0.15c 0.21 0.15 0.21 0.18 0.21 1.38c 0 1.02 0 1.11 -0.06 1.2c -0.03 0.06 -0.09 0.12 -0.12 0.15c -0.06 0.03 -0.42 0.21 -0.84 0.36l -0.75 0.33l -0.03 2.52c 0 2.28 -0.03 2.55 -0.06 2.64c -0.21 0.36 -0.72 0.36 -0.93 0c -0.03 -0.09 -0.06 -0.33 -0.06 -2.43l 0 -2.31l -1.29 0.51l -1.26 0.51l 0 2.43c 0 2.58 0 2.52 -0.15 2.67c -0.06 0.09 -0.27 0.18 -0.36 0.18c -0.12 0 -0.33 -0.09 -0.39 -0.18c -0.15 -0.15 -0.15 -0.09 -0.15 -2.43c 0 -1.23 0 -2.22 -0.03 -2.22c 0 0 -0.27 0.12 -0.6 0.24c -0.69 0.27 -0.78 0.3 -0.96 0.15c -0.21 -0.15 -0.21 -0.18 -0.21 -1.38c 0 -1.02 0 -1.11 0.06 -1.2c 0.03 -0.06 0.09 -0.12 0.12 -0.15c 0.06 -0.03 0.42 -0.21 0.84 -0.36l 0.78 -0.33l 0 -2.43c 0 -1.32 0 -2.43 -0.03 -2.43c 0 0 -0.27 0.12 -0.6 0.24c -0.69 0.27 -0.78 0.3 -0.96 0.15c -0.21 -0.15 -0.21 -0.18 -0.21 -1.38c 0 -1.02 0 -1.11 0.06 -1.2c 0.03 -0.06 0.09 -0.12 0.12 -0.15c 0.06 -0.03 0.42 -0.21 0.84 -0.36l 0.78 -0.33l 0 -2.52c 0 -2.28 0.03 -2.55 0.06 -2.64c 0.21 -0.36 0.72 -0.36 0.93 0c 0.03 0.09 0.06 0.33 0.06 2.43l 0.03 2.31l 1.26 -0.51l 1.26 -0.51l 0 -2.43c 0 -2.28 0 -2.43 0.06 -2.55c 0.06 -0.12 0.12 -0.18 0.27 -0.24zm -0.33 10.65l 0 -2.43l -1.29 0.51l -1.26 0.51l 0 2.46l 0 2.43l 0.09 -0.03c 0.06 -0.03 0.63 -0.27 1.29 -0.51l 1.17 -0.48l 0 -2.46z"></path><path data-name="accidentals.sharp" d="M 65.031 252.127c 0.21 -0.12 0.54 -0.03 0.66 0.24c 0.06 0.12 0.06 0.21 0.06 2.31c 0 1.23 0 2.22 0.03 2.22c 0 0 0.27 -0.12 0.6 -0.24c 0.69 -0.27 0.78 -0.3 0.96 -0.15c 0.21 0.15 0.21 0.18 0.21 1.38c 0 1.02 0 1.11 -0.06 1.2c -0.03 0.06 -0.09 0.12 -0.12 0.15c -0.06 0.03 -0.42 0.21 -0.84 0.36l -0.75 0.33l -0.03 2.43c 0 1.32 0 2.43 0.03 2.43c 0 0 0.27 -0.12 0.6 -0.24c 0.69 -0.27 0.78 -0.3 0.96 -0.15c 0.21 0.15 0.21 0.18 0.21 1.38c 0 1.02 0 1.11 -0.06 1.2c -0.03 0.06 -0.09 0.12 -0.12 0.15c -0.06 0.03 -0.42 0.21 -0.84 0.36l -0.75 0.33l -0.03 2.52c 0 2.28 -0.03 2.55 -0.06 2.64c -0.21 0.36 -0.72 0.36 -0.93 0c -0.03 -0.09 -0.06 -0.33 -0.06 -2.43l 0 -2.31l -1.29 0.51l -1.26 0.51l 0 2.43c 0 2.58 0 2.52 -0.15 2.67c -0.06 0.09 -0.27 0.18 -0.36 0.18c -0.12 0 -0.33 -0.09 -0.39 -0.18c -0.15 -0.15 -0.15 -0.09 -0.15 -2.43c 0 -1.23 0 -2.22 -0.03 -2.22c 0 0 -0.27 0.12 -0.6 0.24c -0.69 0.27 -0.78 0.3 -0.96 0.15c -0.21 -0.15 -0.21 -0.18 -0.21 -1.38c 0 -1.02 0 -1.11 0.06 -1.2c 0.03 -0.06 0.09 -0.12 0.12 -0.15c 0.06 -0.03 0.42 -0.21 0.84 -0.36l 0.78 -0.33l 0 -2.43c 0 -1.32 0 -2.43 -0.03 -2.43c 0 0 -0.27 0.12 -0.6 0.24c -0.69 0.27 -0.78 0.3 -0.96 0.15c -0.21 -0.15 -0.21 -0.18 -0.21 -1.38c 0 -1.02 0 -1.11 0.06 -1.2c 0.03 -0.06 0.09 -0.12 0.12 -0.15c 0.06 -0.03 0.42 -0.21 0.84 -0.36l 0.78 -0.33l 0 -2.52c 0 -2.28 0.03 -2.55 0.06 -2.64c 0.21 -0.36 0.72 -0.36 0.93 0c 0.03 0.09 0.06 0.33 0.06 2.43l 0.03 2.31l 1.26 -0.51l 1.26 -0.51l 0 -2.43c 0 -2.28 0 -2.43 0.06 -2.55c 0.06 -0.12 0.12 -0.18 0.27 -0.24zm -0.33 10.65l 0 -2.43l -1.29 0.51l -1.26 0.51l 0 2.46l 0 2.43l 0.09 -0.03c 0.06 -0.03 0.63 -0.27 1.29 -0.51l 1.17 -0.48l 0 -2.46z"></path></g><g class="" fill="currentColor" stroke="none" data-name="note"><path data-name="e" d="M 90.94100019073487 251.517c 0.36 -0.03 1.2 0 1.53 0.06c 1.17 0.24 1.89 0.84 2.16 1.83c 0.06 0.18 0.06 0.3 0.06 0.66c 0 0.45 0 0.63 -0.15 1.08c -0.66 2.04 -3.06 3.93 -5.52 4.38c -0.54 0.09 -1.44 0.09 -1.83 0.03c -1.23 -0.27 -1.98 -0.87 -2.25 -1.86c -0.06 -0.18 -0.06 -0.3 -0.06 -0.66c 0 -0.45 0 -0.63 0.15 -1.08c 0.24 -0.78 0.75 -1.53 1.44 -2.22c 1.2 -1.2 2.85 -2.01 4.47 -2.22z"></path><line x1="85.35" x2="85.35" y1="282.69" y2="256.86" stroke="currentColor" stroke-width="1" class="abcjs-stem" data-name="stem"></line><text stroke="none" font-size="16" font-style="normal" font-family="&quot;Courier New&quot;" font-weight="normal" text-decoration="none" class="" text-anchor="middle" x="89.76" y="229.65" data-name="chord"><tspan x="89.76">A</tspan></text></g><g class="" fill="currentColor" stroke="none" data-name="note"><path data-name="f" d="M 129.768128010143 247.642c 0.36 -0.03 1.2 0 1.53 0.06c 1.17 0.24 1.89 0.84 2.16 1.83c 0.06 0.18 0.06 0.3 0.06 0.66c 0 0.45 0 0.63 -0.15 1.08c -0.66 2.04 -3.06 3.93 -5.52 4.38c -0.54 0.09 -1.44 0.09 -1.83 0.03c -1.23 -0.27 -1.98 -0.87 -2.25 -1.86c -0.06 -0.18 -0.06 -0.3 -0.06 -0.66c 0 -0.45 0 -0.63 0.15 -1.08c 0.24 -0.78 0.75 -1.53 1.44 -2.22c 1.2 -1.2 2.85 -2.01 4.47 -2.22z"></path><line x1="124.18" x2="124.18" y1="278.82" y2="252.98" stroke="currentColor" stroke-width="1" class="abcjs-stem" data-name="stem"></line></g><g class="" fill="currentColor" stroke="none" data-name="note"><path data-name="g" d="M 168.5952558295511 243.767c 0.36 -0.03 1.2 0 1.53 0.06c 1.17 0.24 1.89 0.84 2.16 1.83c 0.06 0.18 0.06 0.3 0.06 0.66c 0 0.45 0 0.63 -0.15 1.08c -0.66 2.04 -3.06 3.93 -5.52 4.38c -0.54 0.09 -1.44 0.09 -1.83 0.03c -1.23 -0.27 -1.98 -0.87 -2.25 -1.86c -0.06 -0.18 -0.06 -0.3 -0.06 -0.66c 0 -0.45 0 -0.63 0.15 -1.08c 0.24 -0.78 0.75 -1.53 1.44 -2.22c 1.2 -1.2 2.85 -2.01 4.47 -2.22z"></path><line x1="163.01" x2="163.01" y1="274.94" y2="249.11" stroke="currentColor" stroke-width="1" class="abcjs-stem" data-name="stem"></line></g><g class="" fill="currentColor" stroke="none" data-name="note"><path data-name="f" d="M 207.4223836489592 247.642c 0.36 -0.03 1.2 0 1.53 0.06c 1.17 0.24 1.89 0.84 2.16 1.83c 0.06 0.18 0.06 0.3 0.06 0.66c 0 0.45 0 0.63 -0.15 1.08c -0.66 2.04 -3.06 3.93 -5.52 4.38c -0.54 0.09 -1.44 0.09 -1.83 0.03c -1.23 -0.27 -1.98 -0.87 -2.25 -1.86c -0.06 -0.18 -0.06 -0.3 -0.06 -0.66c 0 -0.45 0 -0.63 0.15 -1.08c 0.24 -0.78 0.75 -1.53 1.44 -2.22c 1.2 -1.2 2.85 -2.01 4.47 -2.22z"></path><line x1="201.83" x2="201.83" y1="278.82" y2="252.98" stroke="currentColor" stroke-width="1" class="abcjs-stem" data-name="stem"></line></g><g class="" fill="currentColor" stroke="none" data-name="bar"><line x1="240.46" x2="240.46" y1="282.69" y2="251.69" stroke="currentColor" stroke-width="0.6" data-name="bar"></line></g><g class="" fill="currentColor" stroke="none" data-name="note"><path data-name="e" d="M 264.54951165910217 251.517c 0.36 -0.03 1.2 0 1.53 0.06c 1.17 0.24 1.89 0.84 2.16 1.83c 0.06 0.18 0.06 0.3 0.06 0.66c 0 0.45 0 0.63 -0.15 1.08c -0.66 2.04 -3.06 3.93 -5.52 4.38c -0.54 0.09 -1.44 0.09 -1.83 0.03c -1.23 -0.27 -1.98 -0.87 -2.25 -1.86c -0.06 -0.18 -0.06 -0.3 -0.06 -0.66c 0 -0.45 0 -0.63 0.15 -1.08c 0.24 -0.78 0.75 -1.53 1.44 -2.22c 1.2 -1.2 2.85 -2.01 4.47 -2.22z"></path><text stroke="none" font-size="16" font-style="normal" font-family="&quot;Courier New&quot;" font-weight="normal" text-decoration="none" class="" text-anchor="middle" x="263.36" y="229.65" data-name="chord"><tspan x="263.36">A</tspan></text><line x1="258.76" x2="258.76" y1="284.63" y2="256.34" stroke="currentColor" stroke-width="0.6" class="abcjs-stem" data-name="stem"></line></g><g class="" fill="currentColor" stroke="none" data-name="note"><path data-name="f" d="M 292.0044370342025 247.642c 0.36 -0.03 1.2 0 1.53 0.06c 1.17 0.24 1.89 0.84 2.16 1.83c 0.06 0.18 0.06 0.3 0.06 0.66c 0 0.45 0 0.63 -0.15 1.08c -0.66 2.04 -3.06 3.93 -5.52 4.38c -0.54 0.09 -1.44 0.09 -1.83 0.03c -1.23 -0.27 -1.98 -0.87 -2.25 -1.86c -0.06 -0.18 -0.06 -0.3 -0.06 -0.66c 0 -0.45 0 -0.63 0.15 -1.08c 0.24 -0.78 0.75 -1.53 1.44 -2.22c 1.2 -1.2 2.85 -2.01 4.47 -2.22z"></path><line x1="286.21000000000004" x2="286.21000000000004" y1="285.91" y2="252.47" stroke="currentColor" stroke-width="0.6" class="abcjs-stem" data-name="stem"></line></g><g class="" fill="currentColor" stroke="none" data-name="note"><path data-name="e" d="M 319.45936240930286 251.517c 0.36 -0.03 1.2 0 1.53 0.06c 1.17 0.24 1.89 0.84 2.16 1.83c 0.06 0.18 0.06 0.3 0.06 0.66c 0 0.45 0 0.63 -0.15 1.08c -0.66 2.04 -3.06 3.93 -5.52 4.38c -0.54 0.09 -1.44 0.09 -1.83 0.03c -1.23 -0.27 -1.98 -0.87 -2.25 -1.86c -0.06 -0.18 -0.06 -0.3 -0.06 -0.66c 0 -0.45 0 -0.63 0.15 -1.08c 0.24 -0.78 0.75 -1.53 1.44 -2.22c 1.2 -1.2 2.85 -2.01 4.47 -2.22z"></path><line x1="313.67" x2="313.67" y1="287.19" y2="256.34" stroke="currentColor" stroke-width="0.6" class="abcjs-stem" data-name="stem"></line></g><g class="" fill="currentColor" stroke="none" data-name="note"><path data-name="d" d="M 346.9142877844032 255.392c 0.36 -0.03 1.2 0 1.53 0.06c 1.17 0.24 1.89 0.84 2.16 1.83c 0.06 0.18 0.06 0.3 0.06 0.66c 0 0.45 0 0.63 -0.15 1.08c -0.66 2.04 -3.06 3.93 -5.52 4.38c -0.54 0.09 -1.44 0.09 -1.83 0.03c -1.23 -0.27 -1.98 -0.87 -2.25 -1.86c -0.06 -0.18 -0.06 -0.3 -0.06 -0.66c 0 -0.45 0 -0.63 0.15 -1.08c 0.24 -0.78 0.75 -1.53 1.44 -2.22c 1.2 -1.2 2.85 -2.01 4.47 -2.22z"></path><line x1="341.12" x2="341.12" y1="288.48" y2="260.22" stroke="currentColor" stroke-width="0.6" class="abcjs-stem" data-name="stem"></line></g><g class="" fill="currentColor" stroke="none" data-name="note"><path data-name="c" d="M 375.71921315950357 259.267c 0.06 -0.03 0.27 -0.03 0.48 -0.03c 1.05 0 1.71 0.24 2.1 0.81c 0.42 0.6 0.45 1.35 0.18 2.4c -0.42 1.59 -1.14 2.73 -2.16 3.39c -1.41 0.93 -3.18 1.44 -5.4 1.53c -1.17 0.03 -1.89 -0.21 -2.28 -0.81c -0.42 -0.6 -0.45 -1.35 -0.18 -2.4c 0.42 -1.59 1.14 -2.73 2.16 -3.39c 0.63 -0.42 1.23 -0.72 1.98 -0.96c 0.9 -0.3 1.65 -0.42 3.12 -0.54zm 1.29 0.87c -0.27 -0.09 -0.63 -0.12 -0.9 -0.03c -0.72 0.24 -1.53 0.69 -3.27 1.8c -2.34 1.5 -3.3 2.25 -3.57 2.79c -0.36 0.72 -0.06 1.5 0.66 1.77c 0.24 0.12 0.69 0.09 0.99 0c 0.84 -0.3 1.92 -0.93 4.14 -2.37c 1.62 -1.08 2.37 -1.71 2.61 -2.19c 0.36 -0.72 0.06 -1.5 -0.66 -1.77z"></path><line x1="368.78" x2="368.78" y1="290.44" y2="264.61" stroke="currentColor" stroke-width="1" class="abcjs-stem" data-name="stem"></line></g><g class="" fill="currentColor" stroke="none" data-name="bar"><line x1="423.49" x2="423.49" y1="282.69" y2="251.69" stroke="currentColor" stroke-width="0.6" data-name="bar"></line></g><g class="" fill="currentColor" stroke="none" data-name="note"><path data-name="c" d="M 447.57906410043904 259.267c 0.36 -0.03 1.2 0 1.53 0.06c 1.17 0.24 1.89 0.84 2.16 1.83c 0.06 0.18 0.06 0.3 0.06 0.66c 0 0.45 0 0.63 -0.15 1.08c -0.66 2.04 -3.06 3.93 -5.52 4.38c -0.54 0.09 -1.44 0.09 -1.83 0.03c -1.23 -0.27 -1.98 -0.87 -2.25 -1.86c -0.06 -0.18 -0.06 -0.3 -0.06 -0.66c 0 -0.45 0 -0.63 0.15 -1.08c 0.24 -0.78 0.75 -1.53 1.44 -2.22c 1.2 -1.2 2.85 -2.01 4.47 -2.22z"></path><text stroke="none" font-size="16" font-style="normal" font-family="&quot;Courier New&quot;" font-weight="normal" text-decoration="none" class="" text-anchor="middle" x="446.39" y="229.65" data-name="chord"><tspan x="446.39">A</tspan></text><line x1="441.79" x2="441.79" y1="296.25" y2="264.09" stroke="currentColor" stroke-width="0.6" class="abcjs-stem" data-name="stem"></line></g><g class="" fill="currentColor" stroke="none" data-name="note"><path data-name="B" d="M 475.0339894755394 263.142c 0.36 -0.03 1.2 0 1.53 0.06c 1.17 0.24 1.89 0.84 2.16 1.83c 0.06 0.18 0.06 0.3 0.06 0.66c 0 0.45 0 0.63 -0.15 1.08c -0.66 2.04 -3.06 3.93 -5.52 4.38c -0.54 0.09 -1.44 0.09 -1.83 0.03c -1.23 -0.27 -1.98 -0.87 -2.25 -1.86c -0.06 -0.18 -0.06 -0.3 -0.06 -0.66c 0 -0.45 0 -0.63 0.15 -1.08c 0.24 -0.78 0.75 -1.53 1.44 -2.22c 1.2 -1.2 2.85 -2.01 4.47 -2.22z"></path><line x1="469.24" x2="469.24" y1="296.25" y2="267.97" stroke="currentColor" stroke-width="0.6" class="abcjs-stem" data-name="stem"></line></g><g class="" fill="currentColor" stroke="none" data-name="note"><path data-name="A" d="M 502.48891485063973 267.017c 0.36 -0.03 1.2 0 1.53 0.06c 1.17 0.24 1.89 0.84 2.16 1.83c 0.06 0.18 0.06 0.3 0.06 0.66c 0 0.45 0 0.63 -0.15 1.08c -0.66 2.04 -3.06 3.93 -5.52 4.38c -0.54 0.09 -1.44 0.09 -1.83 0.03c -1.23 -0.27 -1.98 -0.87 -2.25 -1.86c -0.06 -0.18 -0.06 -0.3 -0.06 -0.66c 0 -0.45 0 -0.63 0.15 -1.08c 0.24 -0.78 0.75 -1.53 1.44 -2.22c 1.2 -1.2 2.85 -2.01 4.47 -2.22z"></path><line x1="496.7" x2="496.7" y1="296.25" y2="271.84" stroke="currentColor" stroke-width="0.6" class="abcjs-stem" data-name="stem"></line></g><g class="" fill="currentColor" stroke="none" data-name="note"><path data-name="c" d="M 529.9438402257401 259.267c 0.36 -0.03 1.2 0 1.53 0.06c 1.17 0.24 1.89 0.84 2.16 1.83c 0.06 0.18 0.06 0.3 0.06 0.66c 0 0.45 0 0.63 -0.15 1.08c -0.66 2.04 -3.06 3.93 -5.52 4.38c -0.54 0.09 -1.44 0.09 -1.83 0.03c -1.23 -0.27 -1.98 -0.87 -2.25 -1.86c -0.06 -0.18 -0.06 -0.3 -0.06 -0.66c 0 -0.45 0 -0.63 0.15 -1.08c 0.24 -0.78 0.75 -1.53 1.44 -2.22c 1.2 -1.2 2.85 -2.01 4.47 -2.22z"></path><line x1="524.15" x2="524.15" y1="296.25" y2="264.09" stroke="currentColor" stroke-width="0.6" class="abcjs-stem" data-name="stem"></line></g><g class="" fill="currentColor" stroke="none" data-name="note"><path data-name="B" d="M 557.3987656008404 263.142c 0.36 -0.03 1.2 0 1.53 0.06c 1.17 0.24 1.89 0.84 2.16 1.83c 0.06 0.18 0.06 0.3 0.06 0.66c 0 0.45 0 0.63 -0.15 1.08c -0.66 2.04 -3.06 3.93 -5.52 4.38c -0.54 0.09 -1.44 0.09 -1.83 0.03c -1.23 -0.27 -1.98 -0.87 -2.25 -1.86c -0.06 -0.18 -0.06 -0.3 -0.06 -0.66c 0 -0.45 0 -0.63 0.15 -1.08c 0.24 -0.78 0.75 -1.53 1.44 -2.22c 1.2 -1.2 2.85 -2.01 4.47 -2.22z"></path><text stroke="none" font-size="16" font-style="normal" font-family="&quot;Courier New&quot;" font-weight="normal" text-decoration="none" class="" text-anchor="middle" x="556.21" y="229.65" data-name="chord"><tspan x="556.21">G</tspan></text><line x1="560.82" x2="560.82" y1="236.27" y2="266.42" stroke="currentColor" stroke-width="0.6" class="abcjs-stem" data-name="stem"></line></g><g class="" fill="currentColor" stroke="none" data-name="note"><path data-name="A" d="M 584.8536909759407 267.017c 0.36 -0.03 1.2 0 1.53 0.06c 1.17 0.24 1.89 0.84 2.16 1.83c 0.06 0.18 0.06 0.3 0.06 0.66c 0 0.45 0 0.63 -0.15 1.08c -0.66 2.04 -3.06 3.93 -5.52 4.38c -0.54 0.09 -1.44 0.09 -1.83 0.03c -1.23 -0.27 -1.98 -0.87 -2.25 -1.86c -0.06 -0.18 -0.06 -0.3 -0.06 -0.66c 0 -0.45 0 -0.63 0.15 -1.08c 0.24 -0.78 0.75 -1.53 1.44 -2.22c 1.2 -1.2 2.85 -2.01 4.47 -2.22z"></path><line x1="588.2700000000001" x2="588.2700000000001" y1="240.07" y2="270.29" stroke="currentColor" stroke-width="0.6" class="abcjs-stem" data-name="stem"></line></g><g class="" fill="currentColor" stroke="none" data-name="note"><path data-name="G" d="M 612.308616351041 270.892c 0.36 -0.03 1.2 0 1.53 0.06c 1.17 0.24 1.89 0.84 2.16 1.83c 0.06 0.18 0.06 0.3 0.06 0.66c 0 0.45 0 0.63 -0.15 1.08c -0.66 2.04 -3.06 3.93 -5.52 4.38c -0.54 0.09 -1.44 0.09 -1.83 0.03c -1.23 -0.27 -1.98 -0.87 -2.25 -1.86c -0.06 -0.18 -0.06 -0.3 -0.06 -0.66c 0 -0.45 0 -0.63 0.15 -1.08c 0.24 -0.78 0.75 -1.53 1.44 -2.22c 1.2 -1.2 2.85 -2.01 4.47 -2.22z"></path><line x1="615.53" x2="615.53" y1="247.82" y2="273.65" stroke="currentColor" stroke-width="1" class="abcjs-stem" data-name="stem"></line></g><g class="" fill="currentColor" stroke="none" data-name="bar"><line x1="645.3499999999999" x2="645.3499999999999" y1="282.69" y2="251.69" stroke="currentColor" stroke-width="0.6" data-name="bar"></line></g><g class="" fill="currentColor" stroke="none" data-name="note"><path data-name="A" d="M 669.855744361184 267.017c 0.51 -0.03 2.01 0 2.52 0.03c 1.41 0.18 2.64 0.51 3.72 1.08c 1.2 0.63 1.95 1.41 2.19 2.31c 0.09 0.33 0.09 0.9 0 1.23c -0.24 0.9 -0.99 1.68 -2.19 2.31c -1.08 0.57 -2.28 0.9 -3.75 1.08c -0.66 0.06 -2.31 0.06 -2.97 0c -1.47 -0.18 -2.67 -0.51 -3.75 -1.08c -1.2 -0.63 -1.95 -1.41 -2.19 -2.31c -0.09 -0.33 -0.09 -0.9 0 -1.23c 0.24 -0.9 0.99 -1.68 2.19 -2.31c 1.2 -0.63 2.61 -0.99 4.23 -1.11zm 0.57 0.66c -0.87 -0.15 -1.53 0 -2.04 0.51c -0.15 0.15 -0.24 0.27 -0.33 0.48c -0.24 0.51 -0.36 1.08 -0.33 1.77c 0.03 0.69 0.18 1.26 0.42 1.77c 0.6 1.17 1.74 1.98 3.18 2.22c 1.11 0.21 1.95 -0.15 2.34 -0.99c 0.24 -0.51 0.36 -1.08 0.33 -1.8c -0.06 -1.11 -0.45 -2.04 -1.17 -2.76c -0.63 -0.63 -1.47 -1.05 -2.4 -1.2z"></path><text stroke="none" font-size="16" font-style="normal" font-family="&quot;Courier New&quot;" font-weight="normal" text-decoration="none" class="" text-anchor="middle" x="670.84" y="229.65" data-name="chord"><tspan x="670.84">A</tspan></text></g><g class="" fill="currentColor" stroke="none" data-name="bar"><path data-name="dots.dot" d="M 742.3200000000003 261.637c 0.09 -0.03 0.27 -0.06 0.39 -0.06c 0.96 0 1.74 0.78 1.74 1.71c 0 0.96 -0.78 1.74 -1.71 1.74c -0.96 0 -1.74 -0.78 -1.74 -1.71c 0 -0.78 0.54 -1.5 1.32 -1.68z"></path><path data-name="dots.dot" d="M 742.3200000000003 269.387c 0.09 -0.03 0.27 -0.06 0.39 -0.06c 0.96 0 1.74 0.78 1.74 1.71c 0 0.96 -0.78 1.74 -1.71 1.74c -0.96 0 -1.74 -0.78 -1.74 -1.71c 0 -0.78 0.54 -1.5 1.32 -1.68z"></path><line x1="747.3" x2="747.3" y1="282.69" y2="251.69" stroke="currentColor" stroke-width="0.6" data-name="bar"></line><line x1="753" x2="753" y1="282.69" y2="251.69" stroke="currentColor" stroke-width="4" data-name="bar"></line></g><path d="M258.46 286.57 L341.42 290.44L341.42 286.56 L258.46 282.69z" stroke="none" fill="currentColor" class=""></path><path d="M441.49 298.19 L524.45 298.19L524.45 294.31 L441.49 294.31z" stroke="none" fill="currentColor" class=""></path><path d="M560.52 236.19 L588.57 240.07L588.57 243.94 L560.52 240.06z" stroke="none" fill="currentColor" class=""></path></g><g><g><line x1="15" x2="755" y1="357.1795" y2="357.1795" stroke="currentColor" stroke-width="0.7" class="abcjs-top-line"></line><line x1="15" x2="755" y1="364.9295" y2="364.9295" stroke="currentColor" stroke-width="0.7"></line><line x1="15" x2="755" y1="372.6795" y2="372.6795" stroke="currentColor" stroke-width="0.7"></line><line x1="15" x2="755" y1="380.4295" y2="380.4295" stroke="currentColor" stroke-width="0.7"></line><line x1="15" x2="755" y1="388.1795" y2="388.1795" stroke="currentColor" stroke-width="0.7"></line></g><g class="" fill="currentColor" stroke="none" data-name="staff-extra clef"><path data-name="clefs.G" d="M 29.689999999999998 342.84450000000004c 0.09 -0.09 0.24 -0.06 0.36 0c 0.12 0.09 0.57 0.6 0.96 1.11c 1.77 2.34 3.21 5.85 3.57 8.73c 0.21 1.56 0.03 3.27 -0.45 4.86c -0.69 2.31 -1.92 4.47 -4.23 7.44c -0.3 0.39 -0.57 0.72 -0.6 0.75c -0.03 0.06 0 0.15 0.18 0.78c 0.54 1.68 1.38 4.44 1.68 5.49l 0.09 0.42l 0.39 0c 1.47 0.09 2.76 0.51 3.96 1.29c 1.83 1.23 3.06 3.21 3.39 5.52c 0.09 0.45 0.12 1.29 0.06 1.74c -0.09 1.02 -0.33 1.83 -0.75 2.73c -0.84 1.71 -2.28 3.06 -4.02 3.72l -0.33 0.12l 0.03 1.26c 0 1.74 -0.06 3.63 -0.21 4.62c -0.45 3.06 -2.19 5.49 -4.47 6.21c -0.57 0.18 -0.9 0.21 -1.59 0.21c -0.69 0 -1.02 -0.03 -1.65 -0.21c -1.14 -0.27 -2.13 -0.84 -2.94 -1.65c -0.99 -0.99 -1.56 -2.16 -1.71 -3.54c -0.09 -0.81 0.06 -1.53 0.45 -2.13c 0.63 -0.99 1.83 -1.56 3 -1.53c 1.5 0.09 2.64 1.32 2.73 2.94c 0.06 1.47 -0.93 2.7 -2.37 2.97c -0.45 0.06 -0.84 0.03 -1.29 -0.09l -0.21 -0.09l 0.09 0.12c 0.39 0.54 0.78 0.93 1.32 1.26c 1.35 0.87 3.06 1.02 4.35 0.36c 1.44 -0.72 2.52 -2.28 2.97 -4.35c 0.15 -0.66 0.24 -1.5 0.3 -3.03c 0.03 -0.84 0.03 -2.94 0 -3c -0.03 0 -0.18 0 -0.36 0.03c -0.66 0.12 -0.99 0.12 -1.83 0.12c -1.05 0 -1.71 -0.06 -2.61 -0.3c -4.02 -0.99 -7.11 -4.35 -7.8 -8.46c -0.12 -0.66 -0.12 -0.99 -0.12 -1.83c 0 -0.84 0 -1.14 0.15 -1.92c 0.36 -2.28 1.41 -4.62 3.3 -7.29l 2.79 -3.6c 0.54 -0.66 0.96 -1.2 0.96 -1.23c 0 -0.03 -0.09 -0.33 -0.18 -0.69c -0.96 -3.21 -1.41 -5.28 -1.59 -7.68c -0.12 -1.38 -0.15 -3.09 -0.06 -3.96c 0.33 -2.67 1.38 -5.07 3.12 -7.08c 0.36 -0.42 0.99 -1.05 1.17 -1.14zm 2.01 4.71c -0.15 -0.3 -0.3 -0.54 -0.3 -0.54c -0.03 0 -0.18 0.09 -0.3 0.21c -2.4 1.74 -3.87 4.2 -4.26 7.11c -0.06 0.54 -0.06 1.41 -0.03 1.89c 0.09 1.29 0.48 3.12 1.08 5.22c 0.15 0.42 0.24 0.78 0.24 0.81c 0 0.03 0.84 -1.11 1.23 -1.68c 1.89 -2.73 2.88 -5.07 3.15 -7.53c 0.09 -0.57 0.12 -1.74 0.06 -2.37c -0.09 -1.23 -0.27 -1.92 -0.87 -3.12zm -2.94 20.7c -0.21 -0.72 -0.39 -1.32 -0.42 -1.32c 0 0 -1.2 1.47 -1.86 2.37c -2.79 3.63 -4.02 6.3 -4.35 9.3c -0.03 0.21 -0.03 0.69 -0.03 1.08c 0 0.69 0 0.75 0.06 1.11c 0.12 0.54 0.27 0.99 0.51 1.47c 0.69 1.38 1.83 2.55 3.42 3.42c 0.96 0.54 2.07 0.9 3.21 1.08c 0.78 0.12 2.04 0.12 2.94 -0.03c 0.51 -0.06 0.45 -0.03 0.42 -0.3c -0.24 -3.33 -0.72 -6.33 -1.62 -10.08c -0.09 -0.39 -0.18 -0.75 -0.18 -0.78c -0.03 -0.03 -0.42 0 -0.81 0.09c -0.9 0.18 -1.65 0.57 -2.22 1.14c -0.72 0.72 -1.08 1.65 -1.05 2.64c 0.06 0.96 0.48 1.83 1.23 2.58c 0.36 0.36 0.72 0.63 1.17 0.9c 0.33 0.18 0.36 0.21 0.42 0.33c 0.18 0.42 -0.18 0.9 -0.6 0.87c -0.18 -0.03 -0.84 -0.36 -1.26 -0.63c -0.78 -0.51 -1.38 -1.11 -1.86 -1.83c -1.77 -2.7 -0.99 -6.42 1.71 -8.19c 0.3 -0.21 0.81 -0.48 1.17 -0.63c 0.3 -0.09 1.02 -0.3 1.14 -0.3c 0.06 0 0.09 0 0.09 -0.03c 0.03 -0.03 -0.51 -1.92 -1.23 -4.26zm 3.78 7.41c -0.18 -0.03 -0.36 -0.06 -0.39 -0.06c -0.03 0 0 0.21 0.18 1.02c 0.75 3.18 1.26 6.3 1.5 9.09c 0.06 0.72 0 0.69 0.51 0.42c 0.78 -0.36 1.44 -0.96 1.98 -1.77c 1.08 -1.62 1.2 -3.69 0.3 -5.55c -0.81 -1.62 -2.31 -2.79 -4.08 -3.15z"></path></g><g class="" fill="currentColor" stroke="none" data-name="staff-extra key-signature"><path data-name="accidentals.sharp" d="M 54.781000000000006 345.8145c 0.21 -0.12 0.54 -0.03 0.66 0.24c 0.06 0.12 0.06 0.21 0.06 2.31c 0 1.23 0 2.22 0.03 2.22c 0 0 0.27 -0.12 0.6 -0.24c 0.69 -0.27 0.78 -0.3 0.96 -0.15c 0.21 0.15 0.21 0.18 0.21 1.38c 0 1.02 0 1.11 -0.06 1.2c -0.03 0.06 -0.09 0.12 -0.12 0.15c -0.06 0.03 -0.42 0.21 -0.84 0.36l -0.75 0.33l -0.03 2.43c 0 1.32 0 2.43 0.03 2.43c 0 0 0.27 -0.12 0.6 -0.24c 0.69 -0.27 0.78 -0.3 0.96 -0.15c 0.21 0.15 0.21 0.18 0.21 1.38c 0 1.02 0 1.11 -0.06 1.2c -0.03 0.06 -0.09 0.12 -0.12 0.15c -0.06 0.03 -0.42 0.21 -0.84 0.36l -0.75 0.33l -0.03 2.52c 0 2.28 -0.03 2.55 -0.06 2.64c -0.21 0.36 -0.72 0.36 -0.93 0c -0.03 -0.09 -0.06 -0.33 -0.06 -2.43l 0 -2.31l -1.29 0.51l -1.26 0.51l 0 2.43c 0 2.58 0 2.52 -0.15 2.67c -0.06 0.09 -0.27 0.18 -0.36 0.18c -0.12 0 -0.33 -0.09 -0.39 -0.18c -0.15 -0.15 -0.15 -0.09 -0.15 -2.43c 0 -1.23 0 -2.22 -0.03 -2.22c 0 0 -0.27 0.12 -0.6 0.24c -0.69 0.27 -0.78 0.3 -0.96 0.15c -0.21 -0.15 -0.21 -0.18 -0.21 -1.38c 0 -1.02 0 -1.11 0.06 -1.2c 0.03 -0.06 0.09 -0.12 0.12 -0.15c 0.06 -0.03 0.42 -0.21 0.84 -0.36l 0.78 -0.33l 0 -2.43c 0 -1.32 0 -2.43 -0.03 -2.43c 0 0 -0.27 0.12 -0.6 0.24c -0.69 0.27 -0.78 0.3 -0.96 0.15c -0.21 -0.15 -0.21 -0.18 -0.21 -1.38c 0 -1.02 0 -1.11 0.06 -1.2c 0.03 -0.06 0.09 -0.12 0.12 -0.15c 0.06 -0.03 0.42 -0.21 0.84 -0.36l 0.78 -0.33l 0 -2.52c 0 -2.28 0.03 -2.55 0.06 -2.64c 0.21 -0.36 0.72 -0.36 0.93 0c 0.03 0.09 0.06 0.33 0.06 2.43l 0.03 2.31l 1.26 -0.51l 1.26 -0.51l 0 -2.43c 0 -2.28 0 -2.43 0.06 -2.55c 0.06 -0.12 0.12 -0.18 0.27 -0.24zm -0.33 10.65l 0 -2.43l -1.29 0.51l -1.26 0.51l 0 2.46l 0 2.43l 0.09 -0.03c 0.06 -0.03 0.63 -0.27 1.29 -0.51l 1.17 -0.48l 0 -2.46z"></path><path data-name="accidentals.sharp" d="M 65.031 357.4395c 0.21 -0.12 0.54 -0.03 0.66 0.24c 0.06 0.12 0.06 0.21 0.06 2.31c 0 1.23 0 2.22 0.03 2.22c 0 0 0.27 -0.12 0.6 -0.24c 0.69 -0.27 0.78 -0.3 0.96 -0.15c 0.21 0.15 0.21 0.18 0.21 1.38c 0 1.02 0 1.11 -0.06 1.2c -0.03 0.06 -0.09 0.12 -0.12 0.15c -0.06 0.03 -0.42 0.21 -0.84 0.36l -0.75 0.33l -0.03 2.43c 0 1.32 0 2.43 0.03 2.43c 0 0 0.27 -0.12 0.6 -0.24c 0.69 -0.27 0.78 -0.3 0.96 -0.15c 0.21 0.15 0.21 0.18 0.21 1.38c 0 1.02 0 1.11 -0.06 1.2c -0.03 0.06 -0.09 0.12 -0.12 0.15c -0.06 0.03 -0.42 0.21 -0.84 0.36l -0.75 0.33l -0.03 2.52c 0 2.28 -0.03 2.55 -0.06 2.64c -0.21 0.36 -0.72 0.36 -0.93 0c -0.03 -0.09 -0.06 -0.33 -0.06 -2.43l 0 -2.31l -1.29 0.51l -1.26 0.51l 0 2.43c 0 2.58 0 2.52 -0.15 2.67c -0.06 0.09 -0.27 0.18 -0.36 0.18c -0.12 0 -0.33 -0.09 -0.39 -0.18c -0.15 -0.15 -0.15 -0.09 -0.15 -2.43c 0 -1.23 0 -2.22 -0.03 -2.22c 0 0 -0.27 0.12 -0.6 0.24c -0.69 0.27 -0.78 0.3 -0.96 0.15c -0.21 -0.15 -0.21 -0.18 -0.21 -1.38c 0 -1.02 0 -1.11 0.06 -1.2c 0.03 -0.06 0.09 -0.12 0.12 -0.15c 0.06 -0.03 0.42 -0.21 0.84 -0.36l 0.78 -0.33l 0 -2.43c 0 -1.32 0 -2.43 -0.03 -2.43c 0 0 -0.27 0.12 -0.6 0.24c -0.69 0.27 -0.78 0.3 -0.96 0.15c -0.21 -0.15 -0.21 -0.18 -0.21 -1.38c 0 -1.02 0 -1.11 0.06 -1.2c 0.03 -0.06 0.09 -0.12 0.12 -0.15c 0.06 -0.03 0.42 -0.21 0.84 -0.36l 0.78 -0.33l 0 -2.52c 0 -2.28 0.03 -2.55 0.06 -2.64c 0.21 -0.36 0.72 -0.36 0.93 0c 0.03 0.09 0.06 0.33 0.06 2.43l 0.03 2.31l 1.26 -0.51l 1.26 -0.51l 0 -2.43c 0 -2.28 0 -2.43 0.06 -2.55c 0.06 -0.12 0.12 -0.18 0.27 -0.24zm -0.33 10.65l 0 -2.43l -1.29 0.51l -1.26 0.51l 0 2.46l 0 2.43l 0.09 -0.03c 0.06 -0.03 0.63 -0.27 1.29 -0.51l 1.17 -0.48l 0 -2.46z"></path></g><g class="" fill="currentColor" stroke="none" data-name="part"><text stroke="none" font-size="17" font-style="normal" font-family="Helvetica" font-weight="normal" text-decoration="none" class="" text-anchor="start" x="77.55" y="313.25" data-name="B-part"><tspan x="77.55">B-part</tspan></text></g><g class="" fill="currentColor" stroke="none" data-name="note"><path data-name="A" d="M 90.94100019073487 372.3295c 0.36 -0.03 1.2 0 1.53 0.06c 1.17 0.24 1.89 0.84 2.16 1.83c 0.06 0.18 0.06 0.3 0.06 0.66c 0 0.45 0 0.63 -0.15 1.08c -0.66 2.04 -3.06 3.93 -5.52 4.38c -0.54 0.09 -1.44 0.09 -1.83 0.03c -1.23 -0.27 -1.98 -0.87 -2.25 -1.86c -0.06 -0.18 -0.06 -0.3 -0.06 -0.66c 0 -0.45 0 -0.63 0.15 -1.08c 0.24 -0.78 0.75 -1.53 1.44 -2.22c 1.2 -1.2 2.85 -2.01 4.47 -2.22z"></path><line x1="94.16" x2="94.16" y1="349.25" y2="375.09" stroke="currentColor" stroke-width="1" class="abcjs-stem" data-name="stem"></line><text stroke="none" font-size="16" font-style="normal" font-family="&quot;Courier New&quot;" font-weight="normal" text-decoration="none" class="" text-anchor="middle" x="89.76" y="334.88" data-name="chord"><tspan x="89.76">A</tspan></text></g><g class="" fill="currentColor" stroke="none" data-name="note"><path data-name="A" d="M 126.41861027485284 372.3295c 0.36 -0.03 1.2 0 1.53 0.06c 1.17 0.24 1.89 0.84 2.16 1.83c 0.06 0.18 0.06 0.3 0.06 0.66c 0 0.45 0 0.63 -0.15 1.08c -0.66 2.04 -3.06 3.93 -5.52 4.38c -0.54 0.09 -1.44 0.09 -1.83 0.03c -1.23 -0.27 -1.98 -0.87 -2.25 -1.86c -0.06 -0.18 -0.06 -0.3 -0.06 -0.66c 0 -0.45 0 -0.63 0.15 -1.08c 0.24 -0.78 0.75 -1.53 1.44 -2.22c 1.2 -1.2 2.85 -2.01 4.47 -2.22z"></path><line x1="129.83999999999997" x2="129.83999999999997" y1="345.29" y2="375.6" stroke="currentColor" stroke-width="0.6" class="abcjs-stem" data-name="stem"></line></g><g class="" fill="currentColor" stroke="none" data-name="note"><path data-name="B" d="M 151.50506894562488 368.4545c 0.36 -0.03 1.2 0 1.53 0.06c 1.17 0.24 1.89 0.84 2.16 1.83c 0.06 0.18 0.06 0.3 0.06 0.66c 0 0.45 0 0.63 -0.15 1.08c -0.66 2.04 -3.06 3.93 -5.52 4.38c -0.54 0.09 -1.44 0.09 -1.83 0.03c -1.23 -0.27 -1.98 -0.87 -2.25 -1.86c -0.06 -0.18 -0.06 -0.3 -0.06 -0.66c 0 -0.45 0 -0.63 0.15 -1.08c 0.24 -0.78 0.75 -1.53 1.44 -2.22c 1.2 -1.2 2.85 -2.01 4.47 -2.22z"></path><line x1="154.92999999999998" x2="154.92999999999998" y1="341.5" y2="371.73" stroke="currentColor" stroke-width="0.6" class="abcjs-stem" data-name="stem"></line></g><g class="" fill="currentColor" stroke="none" data-name="note"><path data-name="c" d="M 176.59152761639695 364.5795c 0.36 -0.03 1.2 0 1.53 0.06c 1.17 0.24 1.89 0.84 2.16 1.83c 0.06 0.18 0.06 0.3 0.06 0.66c 0 0.45 0 0.63 -0.15 1.08c -0.66 2.04 -3.06 3.93 -5.52 4.38c -0.54 0.09 -1.44 0.09 -1.83 0.03c -1.23 -0.27 -1.98 -0.87 -2.25 -1.86c -0.06 -0.18 -0.06 -0.3 -0.06 -0.66c 0 -0.45 0 -0.63 0.15 -1.08c 0.24 -0.78 0.75 -1.53 1.44 -2.22c 1.2 -1.2 2.85 -2.01 4.47 -2.22z"></path><line x1="170.8" x2="170.8" y1="401.57" y2="369.4" stroke="currentColor" stroke-width="0.6" class="abcjs-stem" data-name="stem"></line></g><g class="" fill="currentColor" stroke="none" data-name="note"><path data-name="B" d="M 201.677986287169 368.4545c 0.36 -0.03 1.2 0 1.53 0.06c 1.17 0.24 1.89 0.84 2.16 1.83c 0.06 0.18 0.06 0.3 0.06 0.66c 0 0.45 0 0.63 -0.15 1.08c -0.66 2.04 -3.06 3.93 -5.52 4.38c -0.54 0.09 -1.44 0.09 -1.83 0.03c -1.23 -0.27 -1.98 -0.87 -2.25 -1.86c -0.06 -0.18 -0.06 -0.3 -0.06 -0.66c 0 -0.45 0 -0.63 0.15 -1.08c 0.24 -0.78 0.75 -1.53 1.44 -2.22c 1.2 -1.2 2.85 -2.01 4.47 -2.22z"></path><line x1="195.89000000000001" x2="195.89000000000001" y1="400.29" y2="373.28" stroke="currentColor" stroke-width="0.6" class="abcjs-stem" data-name="stem"></line></g><g class="" fill="currentColor" stroke="none" data-name="note"><path data-name="c" d="M 226.76444495794107 364.5795c 0.36 -0.03 1.2 0 1.53 0.06c 1.17 0.24 1.89 0.84 2.16 1.83c 0.06 0.18 0.06 0.3 0.06 0.66c 0 0.45 0 0.63 -0.15 1.08c -0.66 2.04 -3.06 3.93 -5.52 4.38c -0.54 0.09 -1.44 0.09 -1.83 0.03c -1.23 -0.27 -1.98 -0.87 -2.25 -1.86c -0.06 -0.18 -0.06 -0.3 -0.06 -0.66c 0 -0.45 0 -0.63 0.15 -1.08c 0.24 -0.78 0.75 -1.53 1.44 -2.22c 1.2 -1.2 2.85 -2.01 4.47 -2.22z"></path><line x1="220.97" x2="220.97" y1="399" y2="369.4" stroke="currentColor" stroke-width="0.6" class="abcjs-stem" data-name="stem"></line></g><g class="" fill="currentColor" stroke="none" data-name="note"><path data-name="d" d="M 251.85090362871313 360.7045c 0.36 -0.03 1.2 0 1.53 0.06c 1.17 0.24 1.89 0.84 2.16 1.83c 0.06 0.18 0.06 0.3 0.06 0.66c 0 0.45 0 0.63 -0.15 1.08c -0.66 2.04 -3.06 3.93 -5.52 4.38c -0.54 0.09 -1.44 0.09 -1.83 0.03c -1.23 -0.27 -1.98 -0.87 -2.25 -1.86c -0.06 -0.18 -0.06 -0.3 -0.06 -0.66c 0 -0.45 0 -0.63 0.15 -1.08c 0.24 -0.78 0.75 -1.53 1.44 -2.22c 1.2 -1.2 2.85 -2.01 4.47 -2.22z"></path><line x1="246.06" x2="246.06" y1="397.72" y2="365.53" stroke="currentColor" stroke-width="0.6" class="abcjs-stem" data-name="stem"></line></g><g class="" fill="currentColor" stroke="none" data-name="bar"><line x1="271.15000000000003" x2="271.15000000000003" y1="388" y2="357" stroke="currentColor" stroke-width="0.6" data-name="bar"></line></g><g class="" fill="currentColor" stroke="none" data-name="note"><path data-name="e" d="M 295.23736249022 356.8295c 0.36 -0.03 1.2 0 1.53 0.06c 1.17 0.24 1.89 0.84 2.16 1.83c 0.06 0.18 0.06 0.3 0.06 0.66c 0 0.45 0 0.63 -0.15 1.08c -0.66 2.04 -3.06 3.93 -5.52 4.38c -0.54 0.09 -1.44 0.09 -1.83 0.03c -1.23 -0.27 -1.98 -0.87 -2.25 -1.86c -0.06 -0.18 -0.06 -0.3 -0.06 -0.66c 0 -0.45 0 -0.63 0.15 -1.08c 0.24 -0.78 0.75 -1.53 1.44 -2.22c 1.2 -1.2 2.85 -2.01 4.47 -2.22z"></path><text stroke="none" font-size="16" font-style="normal" font-family="&quot;Courier New&quot;" font-weight="normal" text-decoration="none" class="" text-anchor="middle" x="294.05" y="334.88" data-name="chord"><tspan x="294.05">A</tspan></text><line x1="289.45" x2="289.45" y1="389.94" y2="361.65" stroke="currentColor" stroke-width="0.6" class="abcjs-stem" data-name="stem"></line></g><g class="" fill="currentColor" stroke="none" data-name="note"><path data-name="f" d="M 320.32382116099205 352.9545c 0.36 -0.03 1.2 0 1.53 0.06c 1.17 0.24 1.89 0.84 2.16 1.83c 0.06 0.18 0.06 0.3 0.06 0.66c 0 0.45 0 0.63 -0.15 1.08c -0.66 2.04 -3.06 3.93 -5.52 4.38c -0.54 0.09 -1.44 0.09 -1.83 0.03c -1.23 -0.27 -1.98 -0.87 -2.25 -1.86c -0.06 -0.18 -0.06 -0.3 -0.06 -0.66c 0 -0.45 0 -0.63 0.15 -1.08c 0.24 -0.78 0.75 -1.53 1.44 -2.22c 1.2 -1.2 2.85 -2.01 4.47 -2.22z"></path><line x1="314.53000000000003" x2="314.53000000000003" y1="391.22" y2="357.78" stroke="currentColor" stroke-width="0.6" class="abcjs-stem" data-name="stem"></line></g><g class="" fill="currentColor" stroke="none" data-name="note"><path data-name="e" d="M 345.4102798317641 356.8295c 0.36 -0.03 1.2 0 1.53 0.06c 1.17 0.24 1.89 0.84 2.16 1.83c 0.06 0.18 0.06 0.3 0.06 0.66c 0 0.45 0 0.63 -0.15 1.08c -0.66 2.04 -3.06 3.93 -5.52 4.38c -0.54 0.09 -1.44 0.09 -1.83 0.03c -1.23 -0.27 -1.98 -0.87 -2.25 -1.86c -0.06 -0.18 -0.06 -0.3 -0.06 -0.66c 0 -0.45 0 -0.63 0.15 -1.08c 0.24 -0.78 0.75 -1.53 1.44 -2.22c 1.2 -1.2 2.85 -2.01 4.47 -2.22z"></path><line x1="339.62" x2="339.62" y1="392.5" y2="361.65" stroke="currentColor" stroke-width="0.6" class="abcjs-stem" data-name="stem"></line></g><g class="" fill="currentColor" stroke="none" data-name="note"><path data-name="d" d="M 370.4967385025362 360.7045c 0.36 -0.03 1.2 0 1.53 0.06c 1.17 0.24 1.89 0.84 2.16 1.83c 0.06 0.18 0.06 0.3 0.06 0.66c 0 0.45 0 0.63 -0.15 1.08c -0.66 2.04 -3.06 3.93 -5.52 4.38c -0.54 0.09 -1.44 0.09 -1.83 0.03c -1.23 -0.27 -1.98 -0.87 -2.25 -1.86c -0.06 -0.18 -0.06 -0.3 -0.06 -0.66c 0 -0.45 0 -0.63 0.15 -1.08c 0.24 -0.78 0.75 -1.53 1.44 -2.22c 1.2 -1.2 2.85 -2.01 4.47 -2.22z"></path><line x1="364.71000000000004" x2="364.71000000000004" y1="393.79" y2="365.53" stroke="currentColor" stroke-width="0.6" class="abcjs-stem" data-name="stem"></line></g><g class="" fill="currentColor" stroke="none" data-name="note"><path data-name="c" d="M 395.58319717330824 364.5795c 0.36 -0.03 1.2 0 1.53 0.06c 1.17 0.24 1.89 0.84 2.16 1.83c 0.06 0.18 0.06 0.3 0.06 0.66c 0 0.45 0 0.63 -0.15 1.08c -0.66 2.04 -3.06 3.93 -5.52 4.38c -0.54 0.09 -1.44 0.09 -1.83 0.03c -1.23 -0.27 -1.98 -0.87 -2.25 -1.86c -0.06 -0.18 -0.06 -0.3 -0.06 -0.66c 0 -0.45 0 -0.63 0.15 -1.08c 0.24 -0.78 0.75 -1.53 1.44 -2.22c 1.2 -1.2 2.85 -2.01 4.47 -2.22z"></path><line x1="389.79" x2="389.79" y1="397.69" y2="369.4" stroke="currentColor" stroke-width="0.6" class="abcjs-stem" data-name="stem"></line></g><g class="" fill="currentColor" stroke="none" data-name="note"><path data-name="B" d="M 420.6696558440803 368.4545c 0.36 -0.03 1.2 0 1.53 0.06c 1.17 0.24 1.89 0.84 2.16 1.83c 0.06 0.18 0.06 0.3 0.06 0.66c 0 0.45 0 0.63 -0.15 1.08c -0.66 2.04 -3.06 3.93 -5.52 4.38c -0.54 0.09 -1.44 0.09 -1.83 0.03c -1.23 -0.27 -1.98 -0.87 -2.25 -1.86c -0.06 -0.18 -0.06 -0.3 -0.06 -0.66c 0 -0.45 0 -0.63 0.15 -1.08c 0.24 -0.78 0.75 -1.53 1.44 -2.22c 1.2 -1.2 2.85 -2.01 4.47 -2.22z"></path><line x1="414.88" x2="414.88" y1="401.48" y2="373.28" stroke="currentColor" stroke-width="0.6" class="abcjs-stem" data-name="stem"></line></g><g class="" fill="currentColor" stroke="none" data-name="note"><path data-name="A" d="M 445.75611451485236 372.3295c 0.36 -0.03 1.2 0 1.53 0.06c 1.17 0.24 1.89 0.84 2.16 1.83c 0.06 0.18 0.06 0.3 0.06 0.66c 0 0.45 0 0.63 -0.15 1.08c -0.66 2.04 -3.06 3.93 -5.52 4.38c -0.54 0.09 -1.44 0.09 -1.83 0.03c -1.23 -0.27 -1.98 -0.87 -2.25 -1.86c -0.06 -0.18 -0.06 -0.3 -0.06 -0.66c 0 -0.45 0 -0.63 0.15 -1.08c 0.24 -0.78 0.75 -1.53 1.44 -2.22c 1.2 -1.2 2.85 -2.01 4.47 -2.22z"></path><line x1="448.98" x2="448.98" y1="349.25" y2="375.09" stroke="currentColor" stroke-width="1" class="abcjs-stem" data-name="stem"></line></g><g class="" fill="currentColor" stroke="none" data-name="bar"><line x1="475.44" x2="475.44" y1="388" y2="357" stroke="currentColor" stroke-width="0.6" data-name="bar"></line></g><g class="" fill="currentColor" stroke="none" data-name="note"><path data-name="A" d="M 499.5337247897052 372.3295c 0.36 -0.03 1.2 0 1.53 0.06c 1.17 0.24 1.89 0.84 2.16 1.83c 0.06 0.18 0.06 0.3 0.06 0.66c 0 0.45 0 0.63 -0.15 1.08c -0.66 2.04 -3.06 3.93 -5.52 4.38c -0.54 0.09 -1.44 0.09 -1.83 0.03c -1.23 -0.27 -1.98 -0.87 -2.25 -1.86c -0.06 -0.18 -0.06 -0.3 -0.06 -0.66c 0 -0.45 0 -0.63 0.15 -1.08c 0.24 -0.78 0.75 -1.53 1.44 -2.22c 1.2 -1.2 2.85 -2.01 4.47 -2.22z"></path><line x1="502.75" x2="502.75" y1="349.25" y2="375.09" stroke="currentColor" stroke-width="1" class="abcjs-stem" data-name="stem"></line><text stroke="none" font-size="16" font-style="normal" font-family="&quot;Courier New&quot;" font-weight="normal" text-decoration="none" class="" text-anchor="middle" x="498.35" y="334.88" data-name="chord"><tspan x="498.35">A</tspan></text></g><g class="" fill="currentColor" stroke="none" data-name="note"><path data-name="A" d="M 535.0113348738232 372.3295c 0.36 -0.03 1.2 0 1.53 0.06c 1.17 0.24 1.89 0.84 2.16 1.83c 0.06 0.18 0.06 0.3 0.06 0.66c 0 0.45 0 0.63 -0.15 1.08c -0.66 2.04 -3.06 3.93 -5.52 4.38c -0.54 0.09 -1.44 0.09 -1.83 0.03c -1.23 -0.27 -1.98 -0.87 -2.25 -1.86c -0.06 -0.18 -0.06 -0.3 -0.06 -0.66c 0 -0.45 0 -0.63 0.15 -1.08c 0.24 -0.78 0.75 -1.53 1.44 -2.22c 1.2 -1.2 2.85 -2.01 4.47 -2.22z"></path><line x1="538.4300000000001" x2="538.4300000000001" y1="345.29" y2="375.6" stroke="currentColor" stroke-width="0.6" class="abcjs-stem" data-name="stem"></line></g><g class="" fill="currentColor" stroke="none" data-name="note"><path data-name="B" d="M 560.0977935445952 368.4545c 0.36 -0.03 1.2 0 1.53 0.06c 1.17 0.24 1.89 0.84 2.16 1.83c 0.06 0.18 0.06 0.3 0.06 0.66c 0 0.45 0 0.63 -0.15 1.08c -0.66 2.04 -3.06 3.93 -5.52 4.38c -0.54 0.09 -1.44 0.09 -1.83 0.03c -1.23 -0.27 -1.98 -0.87 -2.25 -1.86c -0.06 -0.18 -0.06 -0.3 -0.06 -0.66c 0 -0.45 0 -0.63 0.15 -1.08c 0.24 -0.78 0.75 -1.53 1.44 -2.22c 1.2 -1.2 2.85 -2.01 4.47 -2.22z"></path><line x1="563.5200000000001" x2="563.5200000000001" y1="341.5" y2="371.73" stroke="currentColor" stroke-width="0.6" class="abcjs-stem" data-name="stem"></line></g><g class="" fill="currentColor" stroke="none" data-name="note"><path data-name="c" d="M 585.1842522153672 364.5795c 0.36 -0.03 1.2 0 1.53 0.06c 1.17 0.24 1.89 0.84 2.16 1.83c 0.06 0.18 0.06 0.3 0.06 0.66c 0 0.45 0 0.63 -0.15 1.08c -0.66 2.04 -3.06 3.93 -5.52 4.38c -0.54 0.09 -1.44 0.09 -1.83 0.03c -1.23 -0.27 -1.98 -0.87 -2.25 -1.86c -0.06 -0.18 -0.06 -0.3 -0.06 -0.66c 0 -0.45 0 -0.63 0.15 -1.08c 0.24 -0.78 0.75 -1.53 1.44 -2.22c 1.2 -1.2 2.85 -2.01 4.47 -2.22z"></path><line x1="579.39" x2="579.39" y1="397.69" y2="369.4" stroke="currentColor" stroke-width="0.6" class="abcjs-stem" data-name="stem"></line></g><g class="" fill="currentColor" stroke="none" data-name="note"><path data-name="B" d="M 610.2707108861392 368.4545c 0.36 -0.03 1.2 0 1.53 0.06c 1.17 0.24 1.89 0.84 2.16 1.83c 0.06 0.18 0.06 0.3 0.06 0.66c 0 0.45 0 0.63 -0.15 1.08c -0.66 2.04 -3.06 3.93 -5.52 4.38c -0.54 0.09 -1.44 0.09 -1.83 0.03c -1.23 -0.27 -1.98 -0.87 -2.25 -1.86c -0.06 -0.18 -0.06 -0.3 -0.06 -0.66c 0 -0.45 0 -0.63 0.15 -1.08c 0.24 -0.78 0.75 -1.53 1.44 -2.22c 1.2 -1.2 2.85 -2.01 4.47 -2.22z"></path><line x1="604.4799999999999" x2="604.4799999999999" y1="401.48" y2="373.28" stroke="currentColor" stroke-width="0.6" class="abcjs-stem" data-name="stem"></line></g><g class="" fill="currentColor" stroke="none" data-name="note"><path data-name="A" d="M 635.3571695569112 372.3295c 0.36 -0.03 1.2 0 1.53 0.06c 1.17 0.24 1.89 0.84 2.16 1.83c 0.06 0.18 0.06 0.3 0.06 0.66c 0 0.45 0 0.63 -0.15 1.08c -0.66 2.04 -3.06 3.93 -5.52 4.38c -0.54 0.09 -1.44 0.09 -1.83 0.03c -1.23 -0.27 -1.98 -0.87 -2.25 -1.86c -0.06 -0.18 -0.06 -0.3 -0.06 -0.66c 0 -0.45 0 -0.63 0.15 -1.08c 0.24 -0.78 0.75 -1.53 1.44 -2.22c 1.2 -1.2 2.85 -2.01 4.47 -2.22z"></path><line x1="638.58" x2="638.58" y1="349.25" y2="375.09" stroke="currentColor" stroke-width="1" class="abcjs-stem" data-name="stem"></line></g><g class="" fill="currentColor" stroke="none" data-name="bar"><line x1="665.04" x2="665.04" y1="388" y2="357" stroke="currentColor" stroke-width="0.6" data-name="bar"></line></g><g class="" fill="currentColor" stroke="none" data-name="note"><path data-name="G" d="M 689.554779831764 376.2045c 0.51 -0.03 2.01 0 2.52 0.03c 1.41 0.18 2.64 0.51 3.72 1.08c 1.2 0.63 1.95 1.41 2.19 2.31c 0.09 0.33 0.09 0.9 0 1.23c -0.24 0.9 -0.99 1.68 -2.19 2.31c -1.08 0.57 -2.28 0.9 -3.75 1.08c -0.66 0.06 -2.31 0.06 -2.97 0c -1.47 -0.18 -2.67 -0.51 -3.75 -1.08c -1.2 -0.63 -1.95 -1.41 -2.19 -2.31c -0.09 -0.33 -0.09 -0.9 0 -1.23c 0.24 -0.9 0.99 -1.68 2.19 -2.31c 1.2 -0.63 2.61 -0.99 4.23 -1.11zm 0.57 0.66c -0.87 -0.15 -1.53 0 -2.04 0.51c -0.15 0.15 -0.24 0.27 -0.33 0.48c -0.24 0.51 -0.36 1.08 -0.33 1.77c 0.03 0.69 0.18 1.26 0.42 1.77c 0.6 1.17 1.74 1.98 3.18 2.22c 1.11 0.21 1.95 -0.15 2.34 -0.99c 0.24 -0.51 0.36 -1.08 0.33 -1.8c -0.06 -1.11 -0.45 -2.04 -1.17 -2.76c -0.63 -0.63 -1.47 -1.05 -2.4 -1.2z"></path><text stroke="none" font-size="16" font-style="normal" font-family="&quot;Courier New&quot;" font-weight="normal" text-decoration="none" class="" text-anchor="middle" x="690.54" y="334.88" data-name="chord"><tspan x="690.54">G</tspan></text></g><g class="" fill="currentColor" stroke="none" data-name="bar"><line x1="754.3" x2="754.3" y1="388" y2="357" stroke="currentColor" stroke-width="0.6" data-name="bar"></line></g><path d="M129.54 345.38 L155.23 341.5L155.23 345.38 L129.54 349.25z" stroke="none" fill="currentColor" class=""></path><path d="M170.5 403.5 L246.36 399.63L246.36 395.75 L170.5 399.63z" stroke="none" fill="currentColor" class=""></path><path d="M289.15 391.88 L365.01 395.75L365.01 391.88 L289.15 388z" stroke="none" fill="currentColor" class=""></path><path d="M389.49 399.63 L415.18 403.5L415.18 399.63 L389.49 395.75z" stroke="none" fill="currentColor" class=""></path><path d="M538.13 345.38 L563.82 341.5L563.82 345.38 L538.13 349.25z" stroke="none" fill="currentColor" class=""></path><path d="M579.09 399.63 L604.78 403.5L604.78 399.63 L579.09 395.75z" stroke="none" fill="currentColor" class=""></path></g><g><g><line x1="15" x2="755" y1="449.5095" y2="449.5095" stroke="currentColor" stroke-width="0.7" class="abcjs-top-line"></line><line x1="15" x2="755" y1="457.2595" y2="457.2595" stroke="currentColor" stroke-width="0.7"></line><line x1="15" x2="755" y1="465.0095" y2="465.0095" stroke="currentColor" stroke-width="0.7"></line><line x1="15" x2="755" y1="472.7595" y2="472.7595" stroke="currentColor" stroke-width="0.7"></line><line x1="15" x2="755" y1="480.5095" y2="480.5095" stroke="currentColor" stroke-width="0.7"></line></g><g class="" fill="currentColor" stroke="none" data-name="staff-extra clef"><path data-name="clefs.G" d="M 29.689999999999998 435.17449999999997c 0.09 -0.09 0.24 -0.06 0.36 0c 0.12 0.09 0.57 0.6 0.96 1.11c 1.77 2.34 3.21 5.85 3.57 8.73c 0.21 1.56 0.03 3.27 -0.45 4.86c -0.69 2.31 -1.92 4.47 -4.23 7.44c -0.3 0.39 -0.57 0.72 -0.6 0.75c -0.03 0.06 0 0.15 0.18 0.78c 0.54 1.68 1.38 4.44 1.68 5.49l 0.09 0.42l 0.39 0c 1.47 0.09 2.76 0.51 3.96 1.29c 1.83 1.23 3.06 3.21 3.39 5.52c 0.09 0.45 0.12 1.29 0.06 1.74c -0.09 1.02 -0.33 1.83 -0.75 2.73c -0.84 1.71 -2.28 3.06 -4.02 3.72l -0.33 0.12l 0.03 1.26c 0 1.74 -0.06 3.63 -0.21 4.62c -0.45 3.06 -2.19 5.49 -4.47 6.21c -0.57 0.18 -0.9 0.21 -1.59 0.21c -0.69 0 -1.02 -0.03 -1.65 -0.21c -1.14 -0.27 -2.13 -0.84 -2.94 -1.65c -0.99 -0.99 -1.56 -2.16 -1.71 -3.54c -0.09 -0.81 0.06 -1.53 0.45 -2.13c 0.63 -0.99 1.83 -1.56 3 -1.53c 1.5 0.09 2.64 1.32 2.73 2.94c 0.06 1.47 -0.93 2.7 -2.37 2.97c -0.45 0.06 -0.84 0.03 -1.29 -0.09l -0.21 -0.09l 0.09 0.12c 0.39 0.54 0.78 0.93 1.32 1.26c 1.35 0.87 3.06 1.02 4.35 0.36c 1.44 -0.72 2.52 -2.28 2.97 -4.35c 0.15 -0.66 0.24 -1.5 0.3 -3.03c 0.03 -0.84 0.03 -2.94 0 -3c -0.03 0 -0.18 0 -0.36 0.03c -0.66 0.12 -0.99 0.12 -1.83 0.12c -1.05 0 -1.71 -0.06 -2.61 -0.3c -4.02 -0.99 -7.11 -4.35 -7.8 -8.46c -0.12 -0.66 -0.12 -0.99 -0.12 -1.83c 0 -0.84 0 -1.14 0.15 -1.92c 0.36 -2.28 1.41 -4.62 3.3 -7.29l 2.79 -3.6c 0.54 -0.66 0.96 -1.2 0.96 -1.23c 0 -0.03 -0.09 -0.33 -0.18 -0.69c -0.96 -3.21 -1.41 -5.28 -1.59 -7.68c -0.12 -1.38 -0.15 -3.09 -0.06 -3.96c 0.33 -2.67 1.38 -5.07 3.12 -7.08c 0.36 -0.42 0.99 -1.05 1.17 -1.14zm 2.01 4.71c -0.15 -0.3 -0.3 -0.54 -0.3 -0.54c -0.03 0 -0.18 0.09 -0.3 0.21c -2.4 1.74 -3.87 4.2 -4.26 7.11c -0.06 0.54 -0.06 1.41 -0.03 1.89c 0.09 1.29 0.48 3.12 1.08 5.22c 0.15 0.42 0.24 0.78 0.24 0.81c 0 0.03 0.84 -1.11 1.23 -1.68c 1.89 -2.73 2.88 -5.07 3.15 -7.53c 0.09 -0.57 0.12 -1.74 0.06 -2.37c -0.09 -1.23 -0.27 -1.92 -0.87 -3.12zm -2.94 20.7c -0.21 -0.72 -0.39 -1.32 -0.42 -1.32c 0 0 -1.2 1.47 -1.86 2.37c -2.79 3.63 -4.02 6.3 -4.35 9.3c -0.03 0.21 -0.03 0.69 -0.03 1.08c 0 0.69 0 0.75 0.06 1.11c 0.12 0.54 0.27 0.99 0.51 1.47c 0.69 1.38 1.83 2.55 3.42 3.42c 0.96 0.54 2.07 0.9 3.21 1.08c 0.78 0.12 2.04 0.12 2.94 -0.03c 0.51 -0.06 0.45 -0.03 0.42 -0.3c -0.24 -3.33 -0.72 -6.33 -1.62 -10.08c -0.09 -0.39 -0.18 -0.75 -0.18 -0.78c -0.03 -0.03 -0.42 0 -0.81 0.09c -0.9 0.18 -1.65 0.57 -2.22 1.14c -0.72 0.72 -1.08 1.65 -1.05 2.64c 0.06 0.96 0.48 1.83 1.23 2.58c 0.36 0.36 0.72 0.63 1.17 0.9c 0.33 0.18 0.36 0.21 0.42 0.33c 0.18 0.42 -0.18 0.9 -0.6 0.87c -0.18 -0.03 -0.84 -0.36 -1.26 -0.63c -0.78 -0.51 -1.38 -1.11 -1.86 -1.83c -1.77 -2.7 -0.99 -6.42 1.71 -8.19c 0.3 -0.21 0.81 -0.48 1.17 -0.63c 0.3 -0.09 1.02 -0.3 1.14 -0.3c 0.06 0 0.09 0 0.09 -0.03c 0.03 -0.03 -0.51 -1.92 -1.23 -4.26zm 3.78 7.41c -0.18 -0.03 -0.36 -0.06 -0.39 -0.06c -0.03 0 0 0.21 0.18 1.02c 0.75 3.18 1.26 6.3 1.5 9.09c 0.06 0.72 0 0.69 0.51 0.42c 0.78 -0.36 1.44 -0.96 1.98 -1.77c 1.08 -1.62 1.2 -3.69 0.3 -5.55c -0.81 -1.62 -2.31 -2.79 -4.08 -3.15z"></path></g><g class="" fill="currentColor" stroke="none" data-name="staff-extra key-signature"><path data-name="accidentals.sharp" d="M 54.781000000000006 438.1445c 0.21 -0.12 0.54 -0.03 0.66 0.24c 0.06 0.12 0.06 0.21 0.06 2.31c 0 1.23 0 2.22 0.03 2.22c 0 0 0.27 -0.12 0.6 -0.24c 0.69 -0.27 0.78 -0.3 0.96 -0.15c 0.21 0.15 0.21 0.18 0.21 1.38c 0 1.02 0 1.11 -0.06 1.2c -0.03 0.06 -0.09 0.12 -0.12 0.15c -0.06 0.03 -0.42 0.21 -0.84 0.36l -0.75 0.33l -0.03 2.43c 0 1.32 0 2.43 0.03 2.43c 0 0 0.27 -0.12 0.6 -0.24c 0.69 -0.27 0.78 -0.3 0.96 -0.15c 0.21 0.15 0.21 0.18 0.21 1.38c 0 1.02 0 1.11 -0.06 1.2c -0.03 0.06 -0.09 0.12 -0.12 0.15c -0.06 0.03 -0.42 0.21 -0.84 0.36l -0.75 0.33l -0.03 2.52c 0 2.28 -0.03 2.55 -0.06 2.64c -0.21 0.36 -0.72 0.36 -0.93 0c -0.03 -0.09 -0.06 -0.33 -0.06 -2.43l 0 -2.31l -1.29 0.51l -1.26 0.51l 0 2.43c 0 2.58 0 2.52 -0.15 2.67c -0.06 0.09 -0.27 0.18 -0.36 0.18c -0.12 0 -0.33 -0.09 -0.39 -0.18c -0.15 -0.15 -0.15 -0.09 -0.15 -2.43c 0 -1.23 0 -2.22 -0.03 -2.22c 0 0 -0.27 0.12 -0.6 0.24c -0.69 0.27 -0.78 0.3 -0.96 0.15c -0.21 -0.15 -0.21 -0.18 -0.21 -1.38c 0 -1.02 0 -1.11 0.06 -1.2c 0.03 -0.06 0.09 -0.12 0.12 -0.15c 0.06 -0.03 0.42 -0.21 0.84 -0.36l 0.78 -0.33l 0 -2.43c 0 -1.32 0 -2.43 -0.03 -2.43c 0 0 -0.27 0.12 -0.6 0.24c -0.69 0.27 -0.78 0.3 -0.96 0.15c -0.21 -0.15 -0.21 -0.18 -0.21 -1.38c 0 -1.02 0 -1.11 0.06 -1.2c 0.03 -0.06 0.09 -0.12 0.12 -0.15c 0.06 -0.03 0.42 -0.21 0.84 -0.36l 0.78 -0.33l 0 -2.52c 0 -2.28 0.03 -2.55 0.06 -2.64c 0.21 -0.36 0.72 -0.36 0.93 0c 0.03 0.09 0.06 0.33 0.06 2.43l 0.03 2.31l 1.26 -0.51l 1.26 -0.51l 0 -2.43c 0 -2.28 0 -2.43 0.06 -2.55c 0.06 -0.12 0.12 -0.18 0.27 -0.24zm -0.33 10.65l 0 -2.43l -1.29 0.51l -1.26 0.51l 0 2.46l 0 2.43l 0.09 -0.03c 0.06 -0.03 0.63 -0.27 1.29 -0.51l 1.17 -0.48l 0 -2.46z"></path><path data-name="accidentals.sharp" d="M 65.031 449.7695c 0.21 -0.12 0.54 -0.03 0.66 0.24c 0.06 0.12 0.06 0.21 0.06 2.31c 0 1.23 0 2.22 0.03 2.22c 0 0 0.27 -0.12 0.6 -0.24c 0.69 -0.27 0.78 -0.3 0.96 -0.15c 0.21 0.15 0.21 0.18 0.21 1.38c 0 1.02 0 1.11 -0.06 1.2c -0.03 0.06 -0.09 0.12 -0.12 0.15c -0.06 0.03 -0.42 0.21 -0.84 0.36l -0.75 0.33l -0.03 2.43c 0 1.32 0 2.43 0.03 2.43c 0 0 0.27 -0.12 0.6 -0.24c 0.69 -0.27 0.78 -0.3 0.96 -0.15c 0.21 0.15 0.21 0.18 0.21 1.38c 0 1.02 0 1.11 -0.06 1.2c -0.03 0.06 -0.09 0.12 -0.12 0.15c -0.06 0.03 -0.42 0.21 -0.84 0.36l -0.75 0.33l -0.03 2.52c 0 2.28 -0.03 2.55 -0.06 2.64c -0.21 0.36 -0.72 0.36 -0.93 0c -0.03 -0.09 -0.06 -0.33 -0.06 -2.43l 0 -2.31l -1.29 0.51l -1.26 0.51l 0 2.43c 0 2.58 0 2.52 -0.15 2.67c -0.06 0.09 -0.27 0.18 -0.36 0.18c -0.12 0 -0.33 -0.09 -0.39 -0.18c -0.15 -0.15 -0.15 -0.09 -0.15 -2.43c 0 -1.23 0 -2.22 -0.03 -2.22c 0 0 -0.27 0.12 -0.6 0.24c -0.69 0.27 -0.78 0.3 -0.96 0.15c -0.21 -0.15 -0.21 -0.18 -0.21 -1.38c 0 -1.02 0 -1.11 0.06 -1.2c 0.03 -0.06 0.09 -0.12 0.12 -0.15c 0.06 -0.03 0.42 -0.21 0.84 -0.36l 0.78 -0.33l 0 -2.43c 0 -1.32 0 -2.43 -0.03 -2.43c 0 0 -0.27 0.12 -0.6 0.24c -0.69 0.27 -0.78 0.3 -0.96 0.15c -0.21 -0.15 -0.21 -0.18 -0.21 -1.38c 0 -1.02 0 -1.11 0.06 -1.2c 0.03 -0.06 0.09 -0.12 0.12 -0.15c 0.06 -0.03 0.42 -0.21 0.84 -0.36l 0.78 -0.33l 0 -2.52c 0 -2.28 0.03 -2.55 0.06 -2.64c 0.21 -0.36 0.72 -0.36 0.93 0c 0.03 0.09 0.06 0.33 0.06 2.43l 0.03 2.31l 1.26 -0.51l 1.26 -0.51l 0 -2.43c 0 -2.28 0 -2.43 0.06 -2.55c 0.06 -0.12 0.12 -0.18 0.27 -0.24zm -0.33 10.65l 0 -2.43l -1.29 0.51l -1.26 0.51l 0 2.46l 0 2.43l 0.09 -0.03c 0.06 -0.03 0.63 -0.27 1.29 -0.51l 1.17 -0.48l 0 -2.46z"></path></g><g class="" fill="currentColor" stroke="none" data-name="note"><path data-name="A" d="M 90.94100019073487 464.6595c 0.36 -0.03 1.2 0 1.53 0.06c 1.17 0.24 1.89 0.84 2.16 1.83c 0.06 0.18 0.06 0.3 0.06 0.66c 0 0.45 0 0.63 -0.15 1.08c -0.66 2.04 -3.06 3.93 -5.52 4.38c -0.54 0.09 -1.44 0.09 -1.83 0.03c -1.23 -0.27 -1.98 -0.87 -2.25 -1.86c -0.06 -0.18 -0.06 -0.3 -0.06 -0.66c 0 -0.45 0 -0.63 0.15 -1.08c 0.24 -0.78 0.75 -1.53 1.44 -2.22c 1.2 -1.2 2.85 -2.01 4.47 -2.22z"></path><line x1="94.16" x2="94.16" y1="441.58" y2="467.42" stroke="currentColor" stroke-width="1" class="abcjs-stem" data-name="stem"></line><text stroke="none" font-size="16" font-style="normal" font-family="&quot;Courier New&quot;" font-weight="normal" text-decoration="none" class="" text-anchor="middle" x="89.76" y="427.21" data-name="chord"><tspan x="89.76">A</tspan></text></g><g class="" fill="currentColor" stroke="none" data-name="note"><path data-name="A" d="M 124.8563681146284 464.6595c 0.36 -0.03 1.2 0 1.53 0.06c 1.17 0.24 1.89 0.84 2.16 1.83c 0.06 0.18 0.06 0.3 0.06 0.66c 0 0.45 0 0.63 -0.15 1.08c -0.66 2.04 -3.06 3.93 -5.52 4.38c -0.54 0.09 -1.44 0.09 -1.83 0.03c -1.23 -0.27 -1.98 -0.87 -2.25 -1.86c -0.06 -0.18 -0.06 -0.3 -0.06 -0.66c 0 -0.45 0 -0.63 0.15 -1.08c 0.24 -0.78 0.75 -1.53 1.44 -2.22c 1.2 -1.2 2.85 -2.01 4.47 -2.22z"></path><line x1="128.28" x2="128.28" y1="437.61" y2="467.93" stroke="currentColor" stroke-width="0.6" class="abcjs-stem" data-name="stem"></line></g><g class="" fill="currentColor" stroke="none" data-name="note"><path data-name="B" d="M 148.83815476005023 460.7845c 0.36 -0.03 1.2 0 1.53 0.06c 1.17 0.24 1.89 0.84 2.16 1.83c 0.06 0.18 0.06 0.3 0.06 0.66c 0 0.45 0 0.63 -0.15 1.08c -0.66 2.04 -3.06 3.93 -5.52 4.38c -0.54 0.09 -1.44 0.09 -1.83 0.03c -1.23 -0.27 -1.98 -0.87 -2.25 -1.86c -0.06 -0.18 -0.06 -0.3 -0.06 -0.66c 0 -0.45 0 -0.63 0.15 -1.08c 0.24 -0.78 0.75 -1.53 1.44 -2.22c 1.2 -1.2 2.85 -2.01 4.47 -2.22z"></path><line x1="152.26" x2="152.26" y1="433.83" y2="464.06" stroke="currentColor" stroke-width="0.6" class="abcjs-stem" data-name="stem"></line></g><g class="" fill="currentColor" stroke="none" data-name="note"><path data-name="c" d="M 172.81994140547206 456.9095c 0.36 -0.03 1.2 0 1.53 0.06c 1.17 0.24 1.89 0.84 2.16 1.83c 0.06 0.18 0.06 0.3 0.06 0.66c 0 0.45 0 0.63 -0.15 1.08c -0.66 2.04 -3.06 3.93 -5.52 4.38c -0.54 0.09 -1.44 0.09 -1.83 0.03c -1.23 -0.27 -1.98 -0.87 -2.25 -1.86c -0.06 -0.18 -0.06 -0.3 -0.06 -0.66c 0 -0.45 0 -0.63 0.15 -1.08c 0.24 -0.78 0.75 -1.53 1.44 -2.22c 1.2 -1.2 2.85 -2.01 4.47 -2.22z"></path><line x1="167.03" x2="167.03" y1="493.9" y2="461.73" stroke="currentColor" stroke-width="0.6" class="abcjs-stem" data-name="stem"></line></g><g class="" fill="currentColor" stroke="none" data-name="note"><path data-name="B" d="M 196.8017280508939 460.7845c 0.36 -0.03 1.2 0 1.53 0.06c 1.17 0.24 1.89 0.84 2.16 1.83c 0.06 0.18 0.06 0.3 0.06 0.66c 0 0.45 0 0.63 -0.15 1.08c -0.66 2.04 -3.06 3.93 -5.52 4.38c -0.54 0.09 -1.44 0.09 -1.83 0.03c -1.23 -0.27 -1.98 -0.87 -2.25 -1.86c -0.06 -0.18 -0.06 -0.3 -0.06 -0.66c 0 -0.45 0 -0.63 0.15 -1.08c 0.24 -0.78 0.75 -1.53 1.44 -2.22c 1.2 -1.2 2.85 -2.01 4.47 -2.22z"></path><line x1="191.01000000000002" x2="191.01000000000002" y1="492.62" y2="465.61" stroke="currentColor" stroke-width="0.6" class="abcjs-stem" data-name="stem"></line></g><g class="" fill="currentColor" stroke="none" data-name="note"><path data-name="c" d="M 220.78351469631573 456.9095c 0.36 -0.03 1.2 0 1.53 0.06c 1.17 0.24 1.89 0.84 2.16 1.83c 0.06 0.18 0.06 0.3 0.06 0.66c 0 0.45 0 0.63 -0.15 1.08c -0.66 2.04 -3.06 3.93 -5.52 4.38c -0.54 0.09 -1.44 0.09 -1.83 0.03c -1.23 -0.27 -1.98 -0.87 -2.25 -1.86c -0.06 -0.18 -0.06 -0.3 -0.06 -0.66c 0 -0.45 0 -0.63 0.15 -1.08c 0.24 -0.78 0.75 -1.53 1.44 -2.22c 1.2 -1.2 2.85 -2.01 4.47 -2.22z"></path><line x1="214.99" x2="214.99" y1="491.34" y2="461.73" stroke="currentColor" stroke-width="0.6" class="abcjs-stem" data-name="stem"></line></g><g class="" fill="currentColor" stroke="none" data-name="note"><path data-name="d" d="M 244.76530134173757 453.0345c 0.36 -0.03 1.2 0 1.53 0.06c 1.17 0.24 1.89 0.84 2.16 1.83c 0.06 0.18 0.06 0.3 0.06 0.66c 0 0.45 0 0.63 -0.15 1.08c -0.66 2.04 -3.06 3.93 -5.52 4.38c -0.54 0.09 -1.44 0.09 -1.83 0.03c -1.23 -0.27 -1.98 -0.87 -2.25 -1.86c -0.06 -0.18 -0.06 -0.3 -0.06 -0.66c 0 -0.45 0 -0.63 0.15 -1.08c 0.24 -0.78 0.75 -1.53 1.44 -2.22c 1.2 -1.2 2.85 -2.01 4.47 -2.22z"></path><line x1="238.98000000000002" x2="238.98000000000002" y1="490.05" y2="457.86" stroke="currentColor" stroke-width="0.6" class="abcjs-stem" data-name="stem"></line></g><g class="" fill="currentColor" stroke="none" data-name="bar"><line x1="262.96000000000004" x2="262.96000000000004" y1="480.33" y2="449.33" stroke="currentColor" stroke-width="0.6" data-name="bar"></line></g><g class="" fill="currentColor" stroke="none" data-name="note"><path data-name="e" d="M 287.04708817789424 449.1595c 0.36 -0.03 1.2 0 1.53 0.06c 1.17 0.24 1.89 0.84 2.16 1.83c 0.06 0.18 0.06 0.3 0.06 0.66c 0 0.45 0 0.63 -0.15 1.08c -0.66 2.04 -3.06 3.93 -5.52 4.38c -0.54 0.09 -1.44 0.09 -1.83 0.03c -1.23 -0.27 -1.98 -0.87 -2.25 -1.86c -0.06 -0.18 -0.06 -0.3 -0.06 -0.66c 0 -0.45 0 -0.63 0.15 -1.08c 0.24 -0.78 0.75 -1.53 1.44 -2.22c 1.2 -1.2 2.85 -2.01 4.47 -2.22z"></path><text stroke="none" font-size="16" font-style="normal" font-family="&quot;Courier New&quot;" font-weight="normal" text-decoration="none" class="" text-anchor="middle" x="285.86" y="427.21" data-name="chord"><tspan x="285.86">A</tspan></text><line x1="281.26" x2="281.26" y1="482.27" y2="453.98" stroke="currentColor" stroke-width="0.6" class="abcjs-stem" data-name="stem"></line></g><g class="" fill="currentColor" stroke="none" data-name="note"><path data-name="f" d="M 311.0288748233161 445.2845c 0.36 -0.03 1.2 0 1.53 0.06c 1.17 0.24 1.89 0.84 2.16 1.83c 0.06 0.18 0.06 0.3 0.06 0.66c 0 0.45 0 0.63 -0.15 1.08c -0.66 2.04 -3.06 3.93 -5.52 4.38c -0.54 0.09 -1.44 0.09 -1.83 0.03c -1.23 -0.27 -1.98 -0.87 -2.25 -1.86c -0.06 -0.18 -0.06 -0.3 -0.06 -0.66c 0 -0.45 0 -0.63 0.15 -1.08c 0.24 -0.78 0.75 -1.53 1.44 -2.22c 1.2 -1.2 2.85 -2.01 4.47 -2.22z"></path><line x1="305.24" x2="305.24" y1="483.55" y2="450.11" stroke="currentColor" stroke-width="0.6" class="abcjs-stem" data-name="stem"></line></g><g class="" fill="currentColor" stroke="none" data-name="note"><path data-name="e" d="M 335.0106614687379 449.1595c 0.36 -0.03 1.2 0 1.53 0.06c 1.17 0.24 1.89 0.84 2.16 1.83c 0.06 0.18 0.06 0.3 0.06 0.66c 0 0.45 0 0.63 -0.15 1.08c -0.66 2.04 -3.06 3.93 -5.52 4.38c -0.54 0.09 -1.44 0.09 -1.83 0.03c -1.23 -0.27 -1.98 -0.87 -2.25 -1.86c -0.06 -0.18 -0.06 -0.3 -0.06 -0.66c 0 -0.45 0 -0.63 0.15 -1.08c 0.24 -0.78 0.75 -1.53 1.44 -2.22c 1.2 -1.2 2.85 -2.01 4.47 -2.22z"></path><line x1="329.22" x2="329.22" y1="484.83" y2="453.98" stroke="currentColor" stroke-width="0.6" class="abcjs-stem" data-name="stem"></line></g><g class="" fill="currentColor" stroke="none" data-name="note"><path data-name="d" d="M 358.99244811415974 453.0345c 0.36 -0.03 1.2 0 1.53 0.06c 1.17 0.24 1.89 0.84 2.16 1.83c 0.06 0.18 0.06 0.3 0.06 0.66c 0 0.45 0 0.63 -0.15 1.08c -0.66 2.04 -3.06 3.93 -5.52 4.38c -0.54 0.09 -1.44 0.09 -1.83 0.03c -1.23 -0.27 -1.98 -0.87 -2.25 -1.86c -0.06 -0.18 -0.06 -0.3 -0.06 -0.66c 0 -0.45 0 -0.63 0.15 -1.08c 0.24 -0.78 0.75 -1.53 1.44 -2.22c 1.2 -1.2 2.85 -2.01 4.47 -2.22z"></path><line x1="353.2" x2="353.2" y1="486.11" y2="457.86" stroke="currentColor" stroke-width="0.6" class="abcjs-stem" data-name="stem"></line></g><g class="" fill="currentColor" stroke="none" data-name="note"><path data-name="c" d="M 382.9742347595816 456.9095c 0.36 -0.03 1.2 0 1.53 0.06c 1.17 0.24 1.89 0.84 2.16 1.83c 0.06 0.18 0.06 0.3 0.06 0.66c 0 0.45 0 0.63 -0.15 1.08c -0.66 2.04 -3.06 3.93 -5.52 4.38c -0.54 0.09 -1.44 0.09 -1.83 0.03c -1.23 -0.27 -1.98 -0.87 -2.25 -1.86c -0.06 -0.18 -0.06 -0.3 -0.06 -0.66c 0 -0.45 0 -0.63 0.15 -1.08c 0.24 -0.78 0.75 -1.53 1.44 -2.22c 1.2 -1.2 2.85 -2.01 4.47 -2.22z"></path><line x1="377.18" x2="377.18" y1="490.02" y2="461.73" stroke="currentColor" stroke-width="0.6" class="abcjs-stem" data-name="stem"></line></g><g class="" fill="currentColor" stroke="none" data-name="note"><path data-name="B" d="M 406.9560214050034 460.7845c 0.36 -0.03 1.2 0 1.53 0.06c 1.17 0.24 1.89 0.84 2.16 1.83c 0.06 0.18 0.06 0.3 0.06 0.66c 0 0.45 0 0.63 -0.15 1.08c -0.66 2.04 -3.06 3.93 -5.52 4.38c -0.54 0.09 -1.44 0.09 -1.83 0.03c -1.23 -0.27 -1.98 -0.87 -2.25 -1.86c -0.06 -0.18 -0.06 -0.3 -0.06 -0.66c 0 -0.45 0 -0.63 0.15 -1.08c 0.24 -0.78 0.75 -1.53 1.44 -2.22c 1.2 -1.2 2.85 -2.01 4.47 -2.22z"></path><line x1="401.17" x2="401.17" y1="493.8" y2="465.61" stroke="currentColor" stroke-width="0.6" class="abcjs-stem" data-name="stem"></line></g><g class="" fill="currentColor" stroke="none" data-name="note"><path data-name="A" d="M 430.93780805042525 464.6595c 0.36 -0.03 1.2 0 1.53 0.06c 1.17 0.24 1.89 0.84 2.16 1.83c 0.06 0.18 0.06 0.3 0.06 0.66c 0 0.45 0 0.63 -0.15 1.08c -0.66 2.04 -3.06 3.93 -5.52 4.38c -0.54 0.09 -1.44 0.09 -1.83 0.03c -1.23 -0.27 -1.98 -0.87 -2.25 -1.86c -0.06 -0.18 -0.06 -0.3 -0.06 -0.66c 0 -0.45 0 -0.63 0.15 -1.08c 0.24 -0.78 0.75 -1.53 1.44 -2.22c 1.2 -1.2 2.85 -2.01 4.47 -2.22z"></path><line x1="434.16" x2="434.16" y1="441.58" y2="467.42" stroke="currentColor" stroke-width="1" class="abcjs-stem" data-name="stem"></line></g><g class="" fill="currentColor" stroke="none" data-name="bar"><line x1="459.06" x2="459.06" y1="480.33" y2="449.33" stroke="currentColor" stroke-width="0.6" data-name="bar"></line></g><g class="" fill="currentColor" stroke="none" data-name="note"><path data-name="c" d="M 483.15317616505365 456.9095c 0.36 -0.03 1.2 0 1.53 0.06c 1.17 0.24 1.89 0.84 2.16 1.83c 0.06 0.18 0.06 0.3 0.06 0.66c 0 0.45 0 0.63 -0.15 1.08c -0.66 2.04 -3.06 3.93 -5.52 4.38c -0.54 0.09 -1.44 0.09 -1.83 0.03c -1.23 -0.27 -1.98 -0.87 -2.25 -1.86c -0.06 -0.18 -0.06 -0.3 -0.06 -0.66c 0 -0.45 0 -0.63 0.15 -1.08c 0.24 -0.78 0.75 -1.53 1.44 -2.22c 1.2 -1.2 2.85 -2.01 4.47 -2.22z"></path><text stroke="none" font-size="16" font-style="normal" font-family="&quot;Courier New&quot;" font-weight="normal" text-decoration="none" class="" text-anchor="middle" x="481.97" y="427.21" data-name="chord"><tspan x="481.97">A</tspan></text><line x1="477.36" x2="477.36" y1="493.9" y2="461.73" stroke="currentColor" stroke-width="0.6" class="abcjs-stem" data-name="stem"></line></g><g class="" fill="currentColor" stroke="none" data-name="note"><path data-name="B" d="M 507.1349628104755 460.7845c 0.36 -0.03 1.2 0 1.53 0.06c 1.17 0.24 1.89 0.84 2.16 1.83c 0.06 0.18 0.06 0.3 0.06 0.66c 0 0.45 0 0.63 -0.15 1.08c -0.66 2.04 -3.06 3.93 -5.52 4.38c -0.54 0.09 -1.44 0.09 -1.83 0.03c -1.23 -0.27 -1.98 -0.87 -2.25 -1.86c -0.06 -0.18 -0.06 -0.3 -0.06 -0.66c 0 -0.45 0 -0.63 0.15 -1.08c 0.24 -0.78 0.75 -1.53 1.44 -2.22c 1.2 -1.2 2.85 -2.01 4.47 -2.22z"></path><line x1="501.34000000000003" x2="501.34000000000003" y1="493.9" y2="465.61" stroke="currentColor" stroke-width="0.6" class="abcjs-stem" data-name="stem"></line></g><g class="" fill="currentColor" stroke="none" data-name="note"><path data-name="A" d="M 531.1167494558973 464.6595c 0.36 -0.03 1.2 0 1.53 0.06c 1.17 0.24 1.89 0.84 2.16 1.83c 0.06 0.18 0.06 0.3 0.06 0.66c 0 0.45 0 0.63 -0.15 1.08c -0.66 2.04 -3.06 3.93 -5.52 4.38c -0.54 0.09 -1.44 0.09 -1.83 0.03c -1.23 -0.27 -1.98 -0.87 -2.25 -1.86c -0.06 -0.18 -0.06 -0.3 -0.06 -0.66c 0 -0.45 0 -0.63 0.15 -1.08c 0.24 -0.78 0.75 -1.53 1.44 -2.22c 1.2 -1.2 2.85 -2.01 4.47 -2.22z"></path><line x1="525.3299999999999" x2="525.3299999999999" y1="493.9" y2="469.48" stroke="currentColor" stroke-width="0.6" class="abcjs-stem" data-name="stem"></line></g><g class="" fill="currentColor" stroke="none" data-name="note"><path data-name="c" d="M 555.0985361013192 456.9095c 0.36 -0.03 1.2 0 1.53 0.06c 1.17 0.24 1.89 0.84 2.16 1.83c 0.06 0.18 0.06 0.3 0.06 0.66c 0 0.45 0 0.63 -0.15 1.08c -0.66 2.04 -3.06 3.93 -5.52 4.38c -0.54 0.09 -1.44 0.09 -1.83 0.03c -1.23 -0.27 -1.98 -0.87 -2.25 -1.86c -0.06 -0.18 -0.06 -0.3 -0.06 -0.66c 0 -0.45 0 -0.63 0.15 -1.08c 0.24 -0.78 0.75 -1.53 1.44 -2.22c 1.2 -1.2 2.85 -2.01 4.47 -2.22z"></path><line x1="549.31" x2="549.31" y1="493.9" y2="461.73" stroke="currentColor" stroke-width="0.6" class="abcjs-stem" data-name="stem"></line></g><g class="" fill="currentColor" stroke="none" data-name="note"><path data-name="B" d="M 579.080322746741 460.7845c 0.36 -0.03 1.2 0 1.53 0.06c 1.17 0.24 1.89 0.84 2.16 1.83c 0.06 0.18 0.06 0.3 0.06 0.66c 0 0.45 0 0.63 -0.15 1.08c -0.66 2.04 -3.06 3.93 -5.52 4.38c -0.54 0.09 -1.44 0.09 -1.83 0.03c -1.23 -0.27 -1.98 -0.87 -2.25 -1.86c -0.06 -0.18 -0.06 -0.3 -0.06 -0.66c 0 -0.45 0 -0.63 0.15 -1.08c 0.24 -0.78 0.75 -1.53 1.44 -2.22c 1.2 -1.2 2.85 -2.01 4.47 -2.22z"></path><text stroke="none" font-size="16" font-style="normal" font-family="&quot;Courier New&quot;" font-weight="normal" text-decoration="none" class="" text-anchor="middle" x="577.9" y="427.21" data-name="chord"><tspan x="577.9">G</tspan></text><line x1="582.5" x2="582.5" y1="433.93" y2="464.06" stroke="currentColor" stroke-width="0.6" class="abcjs-stem" data-name="stem"></line></g><g class="" fill="currentColor" stroke="none" data-name="note"><path data-name="A" d="M 603.0621093921628 464.6595c 0.36 -0.03 1.2 0 1.53 0.06c 1.17 0.24 1.89 0.84 2.16 1.83c 0.06 0.18 0.06 0.3 0.06 0.66c 0 0.45 0 0.63 -0.15 1.08c -0.66 2.04 -3.06 3.93 -5.52 4.38c -0.54 0.09 -1.44 0.09 -1.83 0.03c -1.23 -0.27 -1.98 -0.87 -2.25 -1.86c -0.06 -0.18 -0.06 -0.3 -0.06 -0.66c 0 -0.45 0 -0.63 0.15 -1.08c 0.24 -0.78 0.75 -1.53 1.44 -2.22c 1.2 -1.2 2.85 -2.01 4.47 -2.22z"></path><line x1="606.48" x2="606.48" y1="437.71" y2="467.93" stroke="currentColor" stroke-width="0.6" class="abcjs-stem" data-name="stem"></line></g><g class="" fill="currentColor" stroke="none" data-name="note"><path data-name="G" d="M 627.0438960375847 468.5345c 0.36 -0.03 1.2 0 1.53 0.06c 1.17 0.24 1.89 0.84 2.16 1.83c 0.06 0.18 0.06 0.3 0.06 0.66c 0 0.45 0 0.63 -0.15 1.08c -0.66 2.04 -3.06 3.93 -5.52 4.38c -0.54 0.09 -1.44 0.09 -1.83 0.03c -1.23 -0.27 -1.98 -0.87 -2.25 -1.86c -0.06 -0.18 -0.06 -0.3 -0.06 -0.66c 0 -0.45 0 -0.63 0.15 -1.08c 0.24 -0.78 0.75 -1.53 1.44 -2.22c 1.2 -1.2 2.85 -2.01 4.47 -2.22z"></path><line x1="630.26" x2="630.26" y1="445.46" y2="471.29" stroke="currentColor" stroke-width="1" class="abcjs-stem" data-name="stem"></line></g><g class="" fill="currentColor" stroke="none" data-name="bar"><line x1="655.17" x2="655.17" y1="480.33" y2="449.33" stroke="currentColor" stroke-width="0.6" data-name="bar"></line></g><g class="" fill="currentColor" stroke="none" data-name="note"><path data-name="A" d="M 679.679264152213 464.6595c 0.51 -0.03 2.01 0 2.52 0.03c 1.41 0.18 2.64 0.51 3.72 1.08c 1.2 0.63 1.95 1.41 2.19 2.31c 0.09 0.33 0.09 0.9 0 1.23c -0.24 0.9 -0.99 1.68 -2.19 2.31c -1.08 0.57 -2.28 0.9 -3.75 1.08c -0.66 0.06 -2.31 0.06 -2.97 0c -1.47 -0.18 -2.67 -0.51 -3.75 -1.08c -1.2 -0.63 -1.95 -1.41 -2.19 -2.31c -0.09 -0.33 -0.09 -0.9 0 -1.23c 0.24 -0.9 0.99 -1.68 2.19 -2.31c 1.2 -0.63 2.61 -0.99 4.23 -1.11zm 0.57 0.66c -0.87 -0.15 -1.53 0 -2.04 0.51c -0.15 0.15 -0.24 0.27 -0.33 0.48c -0.24 0.51 -0.36 1.08 -0.33 1.77c 0.03 0.69 0.18 1.26 0.42 1.77c 0.6 1.17 1.74 1.98 3.18 2.22c 1.11 0.21 1.95 -0.15 2.34 -0.99c 0.24 -0.51 0.36 -1.08 0.33 -1.8c -0.06 -1.11 -0.45 -2.04 -1.17 -2.76c -0.63 -0.63 -1.47 -1.05 -2.4 -1.2z"></path><text stroke="none" font-size="16" font-style="normal" font-family="&quot;Courier New&quot;" font-weight="normal" text-decoration="none" class="" text-anchor="middle" x="680.66" y="427.21" data-name="chord"><tspan x="680.66">A</tspan></text></g><g class="" fill="currentColor" stroke="none" data-name="bar"><path data-name="dots.dot" d="M 742.3200000000002 459.2795c 0.09 -0.03 0.27 -0.06 0.39 -0.06c 0.96 0 1.74 0.78 1.74 1.71c 0 0.96 -0.78 1.74 -1.71 1.74c -0.96 0 -1.74 -0.78 -1.74 -1.71c 0 -0.78 0.54 -1.5 1.32 -1.68z"></path><path data-name="dots.dot" d="M 742.3200000000002 467.0295c 0.09 -0.03 0.27 -0.06 0.39 -0.06c 0.96 0 1.74 0.78 1.74 1.71c 0 0.96 -0.78 1.74 -1.71 1.74c -0.96 0 -1.74 -0.78 -1.74 -1.71c 0 -0.78 0.54 -1.5 1.32 -1.68z"></path><line x1="747.3" x2="747.3" y1="480.33" y2="449.33" stroke="currentColor" stroke-width="0.6" data-name="bar"></line><line x1="753" x2="753" y1="480.33" y2="449.33" stroke="currentColor" stroke-width="4" data-name="bar"></line></g><path d="M127.98 437.71 L152.56 433.83L152.56 437.7 L127.98 441.58z" stroke="none" fill="currentColor" class=""></path><path d="M166.73 495.83 L239.28 491.96L239.28 488.08 L166.73 491.95z" stroke="none" fill="currentColor" class=""></path><path d="M280.96 484.21 L353.5 488.08L353.5 484.2 L280.96 480.33z" stroke="none" fill="currentColor" class=""></path><path d="M376.88 491.96 L401.47 495.83L401.47 491.95 L376.88 488.08z" stroke="none" fill="currentColor" class=""></path><path d="M477.06 495.83 L549.61 495.83L549.61 491.95 L477.06 491.95z" stroke="none" fill="currentColor" class=""></path><path d="M582.2 433.83 L606.78 437.71L606.78 441.58 L582.2 437.7z" stroke="none" fill="currentColor" class=""></path></g><g><text stroke="none" font-size="17" font-style="normal" font-family="&quot;Courier New&quot;" font-weight="normal" text-decoration="none" class="" text-anchor="start" x="15" y="519.4" data-name="free-text"><tspan x="15">A-part == | B-part ==</tspan></text></g><g><text stroke="none" font-size="17" font-style="normal" font-family="&quot;Courier New&quot;" font-weight="normal" text-decoration="none" class="" text-anchor="start" x="15" y="549.15" data-name="free-text"><tspan x="15">A A A · E | A A A · G</tspan></text></g><g><text stroke="none" font-size="17" font-style="normal" font-family="&quot;Courier New&quot;" font-weight="normal" text-decoration="none" class="" text-anchor="start" x="15" y="578.9" data-name="free-text"><tspan x="15">A A A/G A | A A A/G A</tspan></text></g><g><text stroke="none" font-size="19" font-style="normal" font-family="Times New Roman" font-weight="normal" text-decoration="none" class="" text-anchor="start" x="15" y="626.15" data-name="description"><tspan x="15">Notes: This is a popular bluegrass tune. Here is a simple version I got from a mandolin lesson.</tspan><tspan x="15" dy="1.2em">Will work with this more in the future.</tspan><tspan x="15" dy="1.2em">Transcription: Cam Cross</tspan><tspan x="15" dy="1.2em"></tspan></text></g></svg>