<?xml version="1.0" standalone="no"?>
<svg xmlns:xlink="http://www.w3.org/1999/xlink" role="img" fill="currentColor" stroke="currentColor" aria-label="Sheet Music for &quot;Rye Straw (variant parts)&quot;" viewBox="0 0 770 457.99097245247117" preserveAspectRatio="xMinYMin meet" style="display: inline-block; position: absolute; top: 0px; left: 0px;" width="1600px" height="951.6711001639381px" xmlns="http://www.w3.org/2000/svg"><style></style><title>Sheet Music for "Rye Straw (variant parts)"</title><g><text stroke="none" font-size="32" font-style="normal" font-family="&quot;Times New Roman&quot;" font-weight="bold" text-decoration="none" class="" text-anchor="middle" x="385" y="54.56" data-name="title"><tspan x="385">Rye Straw (variant parts)</tspan></text><text stroke="none" font-size="17" font-style="normal" font-family="Palatino" font-weight="normal" text-decoration="none" class="" text-anchor="start" x="15" y="87.12" data-name="rhythm"><tspan x="15">reel</tspan></text><text stroke="none" font-size="17" font-style="italic" font-family="&quot;Times New Roman&quot;" font-weight="normal" text-decoration="none" class="" text-anchor="end" x="755" y="87.12" data-name="composer"><tspan x="755">Trad.</tspan></text></g><g><g><line x1="15" x2="755" y1="157.77033358764652" y2="157.77033358764652" stroke="currentColor" stroke-width="0.7" class="abcjs-top-line"></line><line x1="15" x2="755" y1="165.52033358764652" y2="165.52033358764652" stroke="currentColor" stroke-width="0.7"></line><line x1="15" x2="755" y1="173.27033358764652" y2="173.27033358764652" stroke="currentColor" stroke-width="0.7"></line><line x1="15" x2="755" y1="181.02033358764652" y2="181.02033358764652" stroke="currentColor" stroke-width="0.7"></line><line x1="15" x2="755" y1="188.77033358764652" y2="188.77033358764652" stroke="currentColor" stroke-width="0.7"></line></g><g class="" fill="currentColor" stroke="none" data-name="staff-extra clef"><path data-name="clefs.G" d="M 29.689999999999998 143.4353335876465c 0.09 -0.09 0.24 -0.06 0.36 0c 0.12 0.09 0.57 0.6 0.96 1.11c 1.77 2.34 3.21 5.85 3.57 8.73c 0.21 1.56 0.03 3.27 -0.45 4.86c -0.69 2.31 -1.92 4.47 -4.23 7.44c -0.3 0.39 -0.57 0.72 -0.6 0.75c -0.03 0.06 0 0.15 0.18 0.78c 0.54 1.68 1.38 4.44 1.68 5.49l 0.09 0.42l 0.39 0c 1.47 0.09 2.76 0.51 3.96 1.29c 1.83 1.23 3.06 3.21 3.39 5.52c 0.09 0.45 0.12 1.29 0.06 1.74c -0.09 1.02 -0.33 1.83 -0.75 2.73c -0.84 1.71 -2.28 3.06 -4.02 3.72l -0.33 0.12l 0.03 1.26c 0 1.74 -0.06 3.63 -0.21 4.62c -0.45 3.06 -2.19 5.49 -4.47 6.21c -0.57 0.18 -0.9 0.21 -1.59 0.21c -0.69 0 -1.02 -0.03 -1.65 -0.21c -1.14 -0.27 -2.13 -0.84 -2.94 -1.65c -0.99 -0.99 -1.56 -2.16 -1.71 -3.54c -0.09 -0.81 0.06 -1.53 0.45 -2.13c 0.63 -0.99 1.83 -1.56 3 -1.53c 1.5 0.09 2.64 1.32 2.73 2.94c 0.06 1.47 -0.93 2.7 -2.37 2.97c -0.45 0.06 -0.84 0.03 -1.29 -0.09l -0.21 -0.09l 0.09 0.12c 0.39 0.54 0.78 0.93 1.32 1.26c 1.35 0.87 3.06 1.02 4.35 0.36c 1.44 -0.72 2.52 -2.28 2.97 -4.35c 0.15 -0.66 0.24 -1.5 0.3 -3.03c 0.03 -0.84 0.03 -2.94 0 -3c -0.03 0 -0.18 0 -0.36 0.03c -0.66 0.12 -0.99 0.12 -1.83 0.12c -1.05 0 -1.71 -0.06 -2.61 -0.3c -4.02 -0.99 -7.11 -4.35 -7.8 -8.46c -0.12 -0.66 -0.12 -0.99 -0.12 -1.83c 0 -0.84 0 -1.14 0.15 -1.92c 0.36 -2.28 1.41 -4.62 3.3 -7.29l 2.79 -3.6c 0.54 -0.66 0.96 -1.2 0.96 -1.23c 0 -0.03 -0.09 -0.33 -0.18 -0.69c -0.96 -3.21 -1.41 -5.28 -1.59 -7.68c -0.12 -1.38 -0.15 -3.09 -0.06 -3.96c 0.33 -2.67 1.38 -5.07 3.12 -7.08c 0.36 -0.42 0.99 -1.05 1.17 -1.14zm 2.01 4.71c -0.15 -0.3 -0.3 -0.54 -0.3 -0.54c -0.03 0 -0.18 0.09 -0.3 0.21c -2.4 1.74 -3.87 4.2 -4.26 7.11c -0.06 0.54 -0.06 1.41 -0.03 1.89c 0.09 1.29 0.48 3.12 1.08 5.22c 0.15 0.42 0.24 0.78 0.24 0.81c 0 0.03 0.84 -1.11 1.23 -1.68c 1.89 -2.73 2.88 -5.07 3.15 -7.53c 0.09 -0.57 0.12 -1.74 0.06 -2.37c -0.09 -1.23 -0.27 -1.92 -0.87 -3.12zm -2.94 20.7c -0.21 -0.72 -0.39 -1.32 -0.42 -1.32c 0 0 -1.2 1.47 -1.86 2.37c -2.79 3.63 -4.02 6.3 -4.35 9.3c -0.03 0.21 -0.03 0.69 -0.03 1.08c 0 0.69 0 0.75 0.06 1.11c 0.12 0.54 0.27 0.99 0.51 1.47c 0.69 1.38 1.83 2.55 3.42 3.42c 0.96 0.54 2.07 0.9 3.21 1.08c 0.78 0.12 2.04 0.12 2.94 -0.03c 0.51 -0.06 0.45 -0.03 0.42 -0.3c -0.24 -3.33 -0.72 -6.33 -1.62 -10.08c -0.09 -0.39 -0.18 -0.75 -0.18 -0.78c -0.03 -0.03 -0.42 0 -0.81 0.09c -0.9 0.18 -1.65 0.57 -2.22 1.14c -0.72 0.72 -1.08 1.65 -1.05 2.64c 0.06 0.96 0.48 1.83 1.23 2.58c 0.36 0.36 0.72 0.63 1.17 0.9c 0.33 0.18 0.36 0.21 0.42 0.33c 0.18 0.42 -0.18 0.9 -0.6 0.87c -0.18 -0.03 -0.84 -0.36 -1.26 -0.63c -0.78 -0.51 -1.38 -1.11 -1.86 -1.83c -1.77 -2.7 -0.99 -6.42 1.71 -8.19c 0.3 -0.21 0.81 -0.48 1.17 -0.63c 0.3 -0.09 1.02 -0.3 1.14 -0.3c 0.06 0 0.09 0 0.09 -0.03c 0.03 -0.03 -0.51 -1.92 -1.23 -4.26zm 3.78 7.41c -0.18 -0.03 -0.36 -0.06 -0.39 -0.06c -0.03 0 0 0.21 0.18 1.02c 0.75 3.18 1.26 6.3 1.5 9.09c 0.06 0.72 0 0.69 0.51 0.42c 0.78 -0.36 1.44 -0.96 1.98 -1.77c 1.08 -1.62 1.2 -3.69 0.3 -5.55c -0.81 -1.62 -2.31 -2.79 -4.08 -3.15z"></path></g><g class="" fill="currentColor" stroke="none" data-name="staff-extra key-signature"><path data-name="accidentals.sharp" d="M 54.781000000000006 146.4053335876465c 0.21 -0.12 0.54 -0.03 0.66 0.24c 0.06 0.12 0.06 0.21 0.06 2.31c 0 1.23 0 2.22 0.03 2.22c 0 0 0.27 -0.12 0.6 -0.24c 0.69 -0.27 0.78 -0.3 0.96 -0.15c 0.21 0.15 0.21 0.18 0.21 1.38c 0 1.02 0 1.11 -0.06 1.2c -0.03 0.06 -0.09 0.12 -0.12 0.15c -0.06 0.03 -0.42 0.21 -0.84 0.36l -0.75 0.33l -0.03 2.43c 0 1.32 0 2.43 0.03 2.43c 0 0 0.27 -0.12 0.6 -0.24c 0.69 -0.27 0.78 -0.3 0.96 -0.15c 0.21 0.15 0.21 0.18 0.21 1.38c 0 1.02 0 1.11 -0.06 1.2c -0.03 0.06 -0.09 0.12 -0.12 0.15c -0.06 0.03 -0.42 0.21 -0.84 0.36l -0.75 0.33l -0.03 2.52c 0 2.28 -0.03 2.55 -0.06 2.64c -0.21 0.36 -0.72 0.36 -0.93 0c -0.03 -0.09 -0.06 -0.33 -0.06 -2.43l 0 -2.31l -1.29 0.51l -1.26 0.51l 0 2.43c 0 2.58 0 2.52 -0.15 2.67c -0.06 0.09 -0.27 0.18 -0.36 0.18c -0.12 0 -0.33 -0.09 -0.39 -0.18c -0.15 -0.15 -0.15 -0.09 -0.15 -2.43c 0 -1.23 0 -2.22 -0.03 -2.22c 0 0 -0.27 0.12 -0.6 0.24c -0.69 0.27 -0.78 0.3 -0.96 0.15c -0.21 -0.15 -0.21 -0.18 -0.21 -1.38c 0 -1.02 0 -1.11 0.06 -1.2c 0.03 -0.06 0.09 -0.12 0.12 -0.15c 0.06 -0.03 0.42 -0.21 0.84 -0.36l 0.78 -0.33l 0 -2.43c 0 -1.32 0 -2.43 -0.03 -2.43c 0 0 -0.27 0.12 -0.6 0.24c -0.69 0.27 -0.78 0.3 -0.96 0.15c -0.21 -0.15 -0.21 -0.18 -0.21 -1.38c 0 -1.02 0 -1.11 0.06 -1.2c 0.03 -0.06 0.09 -0.12 0.12 -0.15c 0.06 -0.03 0.42 -0.21 0.84 -0.36l 0.78 -0.33l 0 -2.52c 0 -2.28 0.03 -2.55 0.06 -2.64c 0.21 -0.36 0.72 -0.36 0.93 0c 0.03 0.09 0.06 0.33 0.06 2.43l 0.03 2.31l 1.26 -0.51l 1.26 -0.51l 0 -2.43c 0 -2.28 0 -2.43 0.06 -2.55c 0.06 -0.12 0.12 -0.18 0.27 -0.24zm -0.33 10.65l 0 -2.43l -1.29 0.51l -1.26 0.51l 0 2.46l 0 2.43l 0.09 -0.03c 0.06 -0.03 0.63 -0.27 1.29 -0.51l 1.17 -0.48l 0 -2.46z"></path><path data-name="accidentals.sharp" d="M 65.031 158.0303335876465c 0.21 -0.12 0.54 -0.03 0.66 0.24c 0.06 0.12 0.06 0.21 0.06 2.31c 0 1.23 0 2.22 0.03 2.22c 0 0 0.27 -0.12 0.6 -0.24c 0.69 -0.27 0.78 -0.3 0.96 -0.15c 0.21 0.15 0.21 0.18 0.21 1.38c 0 1.02 0 1.11 -0.06 1.2c -0.03 0.06 -0.09 0.12 -0.12 0.15c -0.06 0.03 -0.42 0.21 -0.84 0.36l -0.75 0.33l -0.03 2.43c 0 1.32 0 2.43 0.03 2.43c 0 0 0.27 -0.12 0.6 -0.24c 0.69 -0.27 0.78 -0.3 0.96 -0.15c 0.21 0.15 0.21 0.18 0.21 1.38c 0 1.02 0 1.11 -0.06 1.2c -0.03 0.06 -0.09 0.12 -0.12 0.15c -0.06 0.03 -0.42 0.21 -0.84 0.36l -0.75 0.33l -0.03 2.52c 0 2.28 -0.03 2.55 -0.06 2.64c -0.21 0.36 -0.72 0.36 -0.93 0c -0.03 -0.09 -0.06 -0.33 -0.06 -2.43l 0 -2.31l -1.29 0.51l -1.26 0.51l 0 2.43c 0 2.58 0 2.52 -0.15 2.67c -0.06 0.09 -0.27 0.18 -0.36 0.18c -0.12 0 -0.33 -0.09 -0.39 -0.18c -0.15 -0.15 -0.15 -0.09 -0.15 -2.43c 0 -1.23 0 -2.22 -0.03 -2.22c 0 0 -0.27 0.12 -0.6 0.24c -0.69 0.27 -0.78 0.3 -0.96 0.15c -0.21 -0.15 -0.21 -0.18 -0.21 -1.38c 0 -1.02 0 -1.11 0.06 -1.2c 0.03 -0.06 0.09 -0.12 0.12 -0.15c 0.06 -0.03 0.42 -0.21 0.84 -0.36l 0.78 -0.33l 0 -2.43c 0 -1.32 0 -2.43 -0.03 -2.43c 0 0 -0.27 0.12 -0.6 0.24c -0.69 0.27 -0.78 0.3 -0.96 0.15c -0.21 -0.15 -0.21 -0.18 -0.21 -1.38c 0 -1.02 0 -1.11 0.06 -1.2c 0.03 -0.06 0.09 -0.12 0.12 -0.15c 0.06 -0.03 0.42 -0.21 0.84 -0.36l 0.78 -0.33l 0 -2.52c 0 -2.28 0.03 -2.55 0.06 -2.64c 0.21 -0.36 0.72 -0.36 0.93 0c 0.03 0.09 0.06 0.33 0.06 2.43l 0.03 2.31l 1.26 -0.51l 1.26 -0.51l 0 -2.43c 0 -2.28 0 -2.43 0.06 -2.55c 0.06 -0.12 0.12 -0.18 0.27 -0.24zm -0.33 10.65l 0 -2.43l -1.29 0.51l -1.26 0.51l 0 2.46l 0 2.43l 0.09 -0.03c 0.06 -0.03 0.63 -0.27 1.29 -0.51l 1.17 -0.48l 0 -2.46z"></path></g><g class="" fill="currentColor" stroke="none" data-name="staff-extra time-signature"><path data-name="4" d="M 86.191 158.1553335876465c 0.27 -0.09 0.42 -0.12 0.54 -0.03c 0.09 0.06 0.15 0.21 0.15 0.3c -0.03 0.06 -1.92 2.31 -4.23 5.04c -2.31 2.73 -4.23 4.98 -4.26 5.01c -0.03 0.06 0.12 0.06 2.55 0.06l 2.61 0l 0 -2.37c 0 -2.19 0.03 -2.37 0.06 -2.46c 0.03 -0.06 0.21 -0.18 0.57 -0.42c 1.08 -0.72 1.38 -1.08 1.86 -2.16c 0.12 -0.3 0.24 -0.54 0.27 -0.57c 0.12 -0.12 0.39 -0.06 0.45 0.12c 0.06 0.09 0.06 0.57 0.06 3.96l 0 3.9l 1.08 0c 1.05 0 1.11 0 1.2 0.06c 0.24 0.15 0.24 0.54 0 0.69c -0.09 0.06 -0.15 0.06 -1.2 0.06l -1.08 0l 0 0.33c 0 0.57 0.09 1.11 0.3 1.53c 0.36 0.75 0.93 1.17 1.68 1.26c 0.3 0.03 0.39 0.09 0.39 0.3c 0 0.15 -0.03 0.18 -0.09 0.24c -0.06 0.06 -0.09 0.06 -0.48 0.06c -0.42 0 -0.69 -0.03 -2.1 -0.24c -0.9 -0.15 -1.77 -0.15 -2.67 0c -1.41 0.21 -1.68 0.24 -2.1 0.24c -0.39 0 -0.42 0 -0.48 -0.06c -0.06 -0.06 -0.06 -0.09 -0.06 -0.24c 0 -0.21 0.06 -0.27 0.36 -0.3c 0.75 -0.09 1.32 -0.51 1.68 -1.26c 0.21 -0.42 0.3 -0.96 0.3 -1.53l 0 -0.33l -2.7 0c -2.91 0 -2.85 0 -3.09 -0.15c -0.18 -0.12 -0.3 -0.39 -0.27 -0.54c 0.03 -0.06 0.18 -0.24 0.33 -0.45c 0.75 -0.9 1.59 -2.07 2.13 -3.03c 0.33 -0.54 0.84 -1.62 1.05 -2.16c 0.57 -1.41 0.84 -2.64 0.9 -4.05c 0.03 -0.63 0.06 -0.72 0.24 -0.81l 0.12 -0.06l 0.45 0.12c 0.66 0.18 1.02 0.24 1.47 0.27c 0.6 0.03 1.23 -0.09 2.01 -0.33z"></path><path data-name="4" d="M 86.191 173.6553335876465c 0.27 -0.09 0.42 -0.12 0.54 -0.03c 0.09 0.06 0.15 0.21 0.15 0.3c -0.03 0.06 -1.92 2.31 -4.23 5.04c -2.31 2.73 -4.23 4.98 -4.26 5.01c -0.03 0.06 0.12 0.06 2.55 0.06l 2.61 0l 0 -2.37c 0 -2.19 0.03 -2.37 0.06 -2.46c 0.03 -0.06 0.21 -0.18 0.57 -0.42c 1.08 -0.72 1.38 -1.08 1.86 -2.16c 0.12 -0.3 0.24 -0.54 0.27 -0.57c 0.12 -0.12 0.39 -0.06 0.45 0.12c 0.06 0.09 0.06 0.57 0.06 3.96l 0 3.9l 1.08 0c 1.05 0 1.11 0 1.2 0.06c 0.24 0.15 0.24 0.54 0 0.69c -0.09 0.06 -0.15 0.06 -1.2 0.06l -1.08 0l 0 0.33c 0 0.57 0.09 1.11 0.3 1.53c 0.36 0.75 0.93 1.17 1.68 1.26c 0.3 0.03 0.39 0.09 0.39 0.3c 0 0.15 -0.03 0.18 -0.09 0.24c -0.06 0.06 -0.09 0.06 -0.48 0.06c -0.42 0 -0.69 -0.03 -2.1 -0.24c -0.9 -0.15 -1.77 -0.15 -2.67 0c -1.41 0.21 -1.68 0.24 -2.1 0.24c -0.39 0 -0.42 0 -0.48 -0.06c -0.06 -0.06 -0.06 -0.09 -0.06 -0.24c 0 -0.21 0.06 -0.27 0.36 -0.3c 0.75 -0.09 1.32 -0.51 1.68 -1.26c 0.21 -0.42 0.3 -0.96 0.3 -1.53l 0 -0.33l -2.7 0c -2.91 0 -2.85 0 -3.09 -0.15c -0.18 -0.12 -0.3 -0.39 -0.27 -0.54c 0.03 -0.06 0.18 -0.24 0.33 -0.45c 0.75 -0.9 1.59 -2.07 2.13 -3.03c 0.33 -0.54 0.84 -1.62 1.05 -2.16c 0.57 -1.41 0.84 -2.64 0.9 -4.05c 0.03 -0.63 0.06 -0.72 0.24 -0.81l 0.12 -0.06l 0.45 0.12c 0.66 0.18 1.02 0.24 1.47 0.27c 0.6 0.03 1.23 -0.09 2.01 -0.33z"></path></g><g class="" fill="currentColor" stroke="none" data-name="part"><text stroke="none" font-size="17" font-style="normal" font-family="Helvetica" font-weight="normal" text-decoration="none" class="" text-anchor="start" x="99.35" y="115.68" data-name="A-part"><tspan x="99.35">A-part</tspan></text></g><g class="" fill="currentColor" stroke="none" data-name="note"><path data-name="d" d="M 111.50266660308839 161.2953335876465c 0.36 -0.03 1.2 0 1.53 0.06c 1.17 0.24 1.89 0.84 2.16 1.83c 0.06 0.18 0.06 0.3 0.06 0.66c 0 0.45 0 0.63 -0.15 1.08c -0.66 2.04 -3.06 3.93 -5.52 4.38c -0.54 0.09 -1.44 0.09 -1.83 0.03c -1.23 -0.27 -1.98 -0.87 -2.25 -1.86c -0.06 -0.18 -0.06 -0.3 -0.06 -0.66c 0 -0.45 0 -0.63 0.15 -1.08c 0.24 -0.78 0.75 -1.53 1.44 -2.22c 1.2 -1.2 2.85 -2.01 4.47 -2.22z"></path><line x1="105.91" x2="105.91" y1="192.47" y2="166.64" stroke="currentColor" stroke-width="1" class="abcjs-stem" data-name="stem"></line><text stroke="none" font-size="16" font-style="normal" font-family="&quot;Courier New&quot;" font-weight="normal" text-decoration="none" class="" text-anchor="middle" x="110.32" y="136.29" data-name="chord"><tspan x="110.32">D</tspan></text></g><g class="" fill="currentColor" stroke="none" data-name="note"><path data-name="f" d="M 138.82992619621956 153.5453335876465c 0.36 -0.03 1.2 0 1.53 0.06c 1.17 0.24 1.89 0.84 2.16 1.83c 0.06 0.18 0.06 0.3 0.06 0.66c 0 0.45 0 0.63 -0.15 1.08c -0.66 2.04 -3.06 3.93 -5.52 4.38c -0.54 0.09 -1.44 0.09 -1.83 0.03c -1.23 -0.27 -1.98 -0.87 -2.25 -1.86c -0.06 -0.18 -0.06 -0.3 -0.06 -0.66c 0 -0.45 0 -0.63 0.15 -1.08c 0.24 -0.78 0.75 -1.53 1.44 -2.22c 1.2 -1.2 2.85 -2.01 4.47 -2.22z"></path><line x1="133.04000000000002" x2="133.04000000000002" y1="186.66" y2="158.37" stroke="currentColor" stroke-width="0.6" class="abcjs-stem" data-name="stem"></line></g><g class="" fill="currentColor" stroke="none" data-name="note"><path data-name="g" d="M 158.15321676576775 149.6703335876465c 0.36 -0.03 1.2 0 1.53 0.06c 1.17 0.24 1.89 0.84 2.16 1.83c 0.06 0.18 0.06 0.3 0.06 0.66c 0 0.45 0 0.63 -0.15 1.08c -0.66 2.04 -3.06 3.93 -5.52 4.38c -0.54 0.09 -1.44 0.09 -1.83 0.03c -1.23 -0.27 -1.98 -0.87 -2.25 -1.86c -0.06 -0.18 -0.06 -0.3 -0.06 -0.66c 0 -0.45 0 -0.63 0.15 -1.08c 0.24 -0.78 0.75 -1.53 1.44 -2.22c 1.2 -1.2 2.85 -2.01 4.47 -2.22z"></path><line x1="152.36" x2="152.36" y1="182.9" y2="154.5" stroke="currentColor" stroke-width="0.6" class="abcjs-stem" data-name="stem"></line></g><g class="" fill="currentColor" stroke="none" data-name="note"><path data-name="a" d="M 177.47650733531594 145.7953335876465c 0.36 -0.03 1.2 0 1.53 0.06c 1.17 0.24 1.89 0.84 2.16 1.83c 0.06 0.18 0.06 0.3 0.06 0.66c 0 0.45 0 0.63 -0.15 1.08c -0.66 2.04 -3.06 3.93 -5.52 4.38c -0.54 0.09 -1.44 0.09 -1.83 0.03c -1.23 -0.27 -1.98 -0.87 -2.25 -1.86c -0.06 -0.18 -0.06 -0.3 -0.06 -0.66c 0 -0.45 0 -0.63 0.15 -1.08c 0.24 -0.78 0.75 -1.53 1.44 -2.22c 1.2 -1.2 2.85 -2.01 4.47 -2.22z"></path><line x1="169.39" x2="183.2" y1="150.02033358764652" y2="150.02033358764652" stroke="currentColor" stroke-width="0.7" class="abcjs-ledger" data-name="ledger"></line><line x1="171.69" x2="171.69" y1="186.66" y2="150.62" stroke="currentColor" stroke-width="0.6" class="abcjs-stem" data-name="stem"></line></g><g class="" fill="currentColor" stroke="none" data-name="note"><path data-name="f" d="M 196.79979790486414 153.5453335876465c 0.36 -0.03 1.2 0 1.53 0.06c 1.17 0.24 1.89 0.84 2.16 1.83c 0.06 0.18 0.06 0.3 0.06 0.66c 0 0.45 0 0.63 -0.15 1.08c -0.66 2.04 -3.06 3.93 -5.52 4.38c -0.54 0.09 -1.44 0.09 -1.83 0.03c -1.23 -0.27 -1.98 -0.87 -2.25 -1.86c -0.06 -0.18 -0.06 -0.3 -0.06 -0.66c 0 -0.45 0 -0.63 0.15 -1.08c 0.24 -0.78 0.75 -1.53 1.44 -2.22c 1.2 -1.2 2.85 -2.01 4.47 -2.22z"></path><line x1="191.01000000000002" x2="191.01000000000002" y1="189.21" y2="158.37" stroke="currentColor" stroke-width="0.6" class="abcjs-stem" data-name="stem"></line></g><g class="" fill="currentColor" stroke="none" data-name="note"><path data-name="d" d="M 216.12308847441233 161.2953335876465c 0.36 -0.03 1.2 0 1.53 0.06c 1.17 0.24 1.89 0.84 2.16 1.83c 0.06 0.18 0.06 0.3 0.06 0.66c 0 0.45 0 0.63 -0.15 1.08c -0.66 2.04 -3.06 3.93 -5.52 4.38c -0.54 0.09 -1.44 0.09 -1.83 0.03c -1.23 -0.27 -1.98 -0.87 -2.25 -1.86c -0.06 -0.18 -0.06 -0.3 -0.06 -0.66c 0 -0.45 0 -0.63 0.15 -1.08c 0.24 -0.78 0.75 -1.53 1.44 -2.22c 1.2 -1.2 2.85 -2.01 4.47 -2.22z"></path><line x1="210.33" x2="210.33" y1="191.77" y2="166.12" stroke="currentColor" stroke-width="0.6" class="abcjs-stem" data-name="stem"></line></g><g class="" fill="currentColor" stroke="none" data-name="note"><path data-name="f" d="M 235.44637904396052 153.5453335876465c 0.36 -0.03 1.2 0 1.53 0.06c 1.17 0.24 1.89 0.84 2.16 1.83c 0.06 0.18 0.06 0.3 0.06 0.66c 0 0.45 0 0.63 -0.15 1.08c -0.66 2.04 -3.06 3.93 -5.52 4.38c -0.54 0.09 -1.44 0.09 -1.83 0.03c -1.23 -0.27 -1.98 -0.87 -2.25 -1.86c -0.06 -0.18 -0.06 -0.3 -0.06 -0.66c 0 -0.45 0 -0.63 0.15 -1.08c 0.24 -0.78 0.75 -1.53 1.44 -2.22c 1.2 -1.2 2.85 -2.01 4.47 -2.22z"></path><line x1="229.66000000000003" x2="229.66000000000003" y1="194.33" y2="158.37" stroke="currentColor" stroke-width="0.6" class="abcjs-stem" data-name="stem"></line></g><g class="" fill="currentColor" stroke="none" data-name="bar"><line x1="248.98000000000002" x2="248.98000000000002" y1="188.6" y2="157.6" stroke="currentColor" stroke-width="0.6" data-name="bar"></line></g><g class="" fill="currentColor" stroke="none" data-name="note"><path data-name="g" d="M 271.8363362165971 149.6703335876465c 0.36 -0.03 1.2 0 1.53 0.06c 1.17 0.24 1.89 0.84 2.16 1.83c 0.06 0.18 0.06 0.3 0.06 0.66c 0 0.45 0 0.63 -0.15 1.08c -0.66 2.04 -3.06 3.93 -5.52 4.38c -0.54 0.09 -1.44 0.09 -1.83 0.03c -1.23 -0.27 -1.98 -0.87 -2.25 -1.86c -0.06 -0.18 -0.06 -0.3 -0.06 -0.66c 0 -0.45 0 -0.63 0.15 -1.08c 0.24 -0.78 0.75 -1.53 1.44 -2.22c 1.2 -1.2 2.85 -2.01 4.47 -2.22z"></path><text stroke="none" font-size="16" font-style="normal" font-family="&quot;Courier New&quot;" font-weight="normal" text-decoration="none" class="" text-anchor="middle" x="270.65" y="136.29" data-name="chord"><tspan x="270.65">G</tspan></text><line x1="266.05" x2="266.05" y1="186.66" y2="154.5" stroke="currentColor" stroke-width="0.6" class="abcjs-stem" data-name="stem"></line></g><g class="" fill="currentColor" stroke="none" data-name="note"><path data-name="f" d="M 291.1596267861453 153.5453335876465c 0.36 -0.03 1.2 0 1.53 0.06c 1.17 0.24 1.89 0.84 2.16 1.83c 0.06 0.18 0.06 0.3 0.06 0.66c 0 0.45 0 0.63 -0.15 1.08c -0.66 2.04 -3.06 3.93 -5.52 4.38c -0.54 0.09 -1.44 0.09 -1.83 0.03c -1.23 -0.27 -1.98 -0.87 -2.25 -1.86c -0.06 -0.18 -0.06 -0.3 -0.06 -0.66c 0 -0.45 0 -0.63 0.15 -1.08c 0.24 -0.78 0.75 -1.53 1.44 -2.22c 1.2 -1.2 2.85 -2.01 4.47 -2.22z"></path><line x1="285.37" x2="285.37" y1="186.66" y2="158.37" stroke="currentColor" stroke-width="0.6" class="abcjs-stem" data-name="stem"></line></g><g class="" fill="currentColor" stroke="none" data-name="note"><path data-name="e" d="M 310.4829173556935 157.4203335876465c 0.36 -0.03 1.2 0 1.53 0.06c 1.17 0.24 1.89 0.84 2.16 1.83c 0.06 0.18 0.06 0.3 0.06 0.66c 0 0.45 0 0.63 -0.15 1.08c -0.66 2.04 -3.06 3.93 -5.52 4.38c -0.54 0.09 -1.44 0.09 -1.83 0.03c -1.23 -0.27 -1.98 -0.87 -2.25 -1.86c -0.06 -0.18 -0.06 -0.3 -0.06 -0.66c 0 -0.45 0 -0.63 0.15 -1.08c 0.24 -0.78 0.75 -1.53 1.44 -2.22c 1.2 -1.2 2.85 -2.01 4.47 -2.22z"></path><line x1="304.69" x2="304.69" y1="186.66" y2="162.25" stroke="currentColor" stroke-width="0.6" class="abcjs-stem" data-name="stem"></line></g><g class="" fill="currentColor" stroke="none" data-name="note"><path data-name="g" d="M 329.80620792524167 149.6703335876465c 0.36 -0.03 1.2 0 1.53 0.06c 1.17 0.24 1.89 0.84 2.16 1.83c 0.06 0.18 0.06 0.3 0.06 0.66c 0 0.45 0 0.63 -0.15 1.08c -0.66 2.04 -3.06 3.93 -5.52 4.38c -0.54 0.09 -1.44 0.09 -1.83 0.03c -1.23 -0.27 -1.98 -0.87 -2.25 -1.86c -0.06 -0.18 -0.06 -0.3 -0.06 -0.66c 0 -0.45 0 -0.63 0.15 -1.08c 0.24 -0.78 0.75 -1.53 1.44 -2.22c 1.2 -1.2 2.85 -2.01 4.47 -2.22z"></path><line x1="324.02000000000004" x2="324.02000000000004" y1="186.66" y2="154.5" stroke="currentColor" stroke-width="0.6" class="abcjs-stem" data-name="stem"></line></g><g class="" fill="currentColor" stroke="none" data-name="note"><path data-name="f" d="M 349.12949849478986 153.5453335876465c 0.36 -0.03 1.2 0 1.53 0.06c 1.17 0.24 1.89 0.84 2.16 1.83c 0.06 0.18 0.06 0.3 0.06 0.66c 0 0.45 0 0.63 -0.15 1.08c -0.66 2.04 -3.06 3.93 -5.52 4.38c -0.54 0.09 -1.44 0.09 -1.83 0.03c -1.23 -0.27 -1.98 -0.87 -2.25 -1.86c -0.06 -0.18 -0.06 -0.3 -0.06 -0.66c 0 -0.45 0 -0.63 0.15 -1.08c 0.24 -0.78 0.75 -1.53 1.44 -2.22c 1.2 -1.2 2.85 -2.01 4.47 -2.22z"></path><line x1="343.34000000000003" x2="343.34000000000003" y1="190.53" y2="158.37" stroke="currentColor" stroke-width="0.6" class="abcjs-stem" data-name="stem"></line></g><g class="" fill="currentColor" stroke="none" data-name="note"><path data-name="d" d="M 368.45278906433805 161.2953335876465c 0.36 -0.03 1.2 0 1.53 0.06c 1.17 0.24 1.89 0.84 2.16 1.83c 0.06 0.18 0.06 0.3 0.06 0.66c 0 0.45 0 0.63 -0.15 1.08c -0.66 2.04 -3.06 3.93 -5.52 4.38c -0.54 0.09 -1.44 0.09 -1.83 0.03c -1.23 -0.27 -1.98 -0.87 -2.25 -1.86c -0.06 -0.18 -0.06 -0.3 -0.06 -0.66c 0 -0.45 0 -0.63 0.15 -1.08c 0.24 -0.78 0.75 -1.53 1.44 -2.22c 1.2 -1.2 2.85 -2.01 4.47 -2.22z"></path><line x1="362.66" x2="362.66" y1="194.29" y2="166.12" stroke="currentColor" stroke-width="0.6" class="abcjs-stem" data-name="stem"></line></g><g class="" fill="currentColor" stroke="none" data-name="note"><path data-name="d" d="M 387.77607963388624 161.2953335876465c 0.36 -0.03 1.2 0 1.53 0.06c 1.17 0.24 1.89 0.84 2.16 1.83c 0.06 0.18 0.06 0.3 0.06 0.66c 0 0.45 0 0.63 -0.15 1.08c -0.66 2.04 -3.06 3.93 -5.52 4.38c -0.54 0.09 -1.44 0.09 -1.83 0.03c -1.23 -0.27 -1.98 -0.87 -2.25 -1.86c -0.06 -0.18 -0.06 -0.3 -0.06 -0.66c 0 -0.45 0 -0.63 0.15 -1.08c 0.24 -0.78 0.75 -1.53 1.44 -2.22c 1.2 -1.2 2.85 -2.01 4.47 -2.22z"></path><path data-name="f" d="M 387.77607963388624 153.5453335876465c 0.36 -0.03 1.2 0 1.53 0.06c 1.17 0.24 1.89 0.84 2.16 1.83c 0.06 0.18 0.06 0.3 0.06 0.66c 0 0.45 0 0.63 -0.15 1.08c -0.66 2.04 -3.06 3.93 -5.52 4.38c -0.54 0.09 -1.44 0.09 -1.83 0.03c -1.23 -0.27 -1.98 -0.87 -2.25 -1.86c -0.06 -0.18 -0.06 -0.3 -0.06 -0.66c 0 -0.45 0 -0.63 0.15 -1.08c 0.24 -0.78 0.75 -1.53 1.44 -2.22c 1.2 -1.2 2.85 -2.01 4.47 -2.22z"></path><line x1="382.19" x2="382.19" y1="192.47" y2="158.89" stroke="currentColor" stroke-width="1" class="abcjs-stem" data-name="stem"></line></g><g class="" fill="currentColor" stroke="none" data-name="bar"><line x1="409.31" x2="409.31" y1="188.6" y2="157.6" stroke="currentColor" stroke-width="0.6" data-name="bar"></line></g><g class="" fill="currentColor" stroke="none" data-name="note"><path data-name="d" d="M 432.1700058301058 161.2953335876465c 0.36 -0.03 1.2 0 1.53 0.06c 1.17 0.24 1.89 0.84 2.16 1.83c 0.06 0.18 0.06 0.3 0.06 0.66c 0 0.45 0 0.63 -0.15 1.08c -0.66 2.04 -3.06 3.93 -5.52 4.38c -0.54 0.09 -1.44 0.09 -1.83 0.03c -1.23 -0.27 -1.98 -0.87 -2.25 -1.86c -0.06 -0.18 -0.06 -0.3 -0.06 -0.66c 0 -0.45 0 -0.63 0.15 -1.08c 0.24 -0.78 0.75 -1.53 1.44 -2.22c 1.2 -1.2 2.85 -2.01 4.47 -2.22z"></path><text stroke="none" font-size="16" font-style="normal" font-family="&quot;Courier New&quot;" font-weight="normal" text-decoration="none" class="" text-anchor="middle" x="430.99" y="136.29" data-name="chord"><tspan x="430.99">D</tspan></text><line x1="426.38" x2="426.38" y1="194.41" y2="166.12" stroke="currentColor" stroke-width="0.6" class="abcjs-stem" data-name="stem"></line></g><g class="" fill="currentColor" stroke="none" data-name="note"><path data-name="e" d="M 451.493296399654 157.4203335876465c 0.36 -0.03 1.2 0 1.53 0.06c 1.17 0.24 1.89 0.84 2.16 1.83c 0.06 0.18 0.06 0.3 0.06 0.66c 0 0.45 0 0.63 -0.15 1.08c -0.66 2.04 -3.06 3.93 -5.52 4.38c -0.54 0.09 -1.44 0.09 -1.83 0.03c -1.23 -0.27 -1.98 -0.87 -2.25 -1.86c -0.06 -0.18 -0.06 -0.3 -0.06 -0.66c 0 -0.45 0 -0.63 0.15 -1.08c 0.24 -0.78 0.75 -1.53 1.44 -2.22c 1.2 -1.2 2.85 -2.01 4.47 -2.22z"></path><line x1="445.7" x2="445.7" y1="191.85" y2="162.25" stroke="currentColor" stroke-width="0.6" class="abcjs-stem" data-name="stem"></line></g><g class="" fill="currentColor" stroke="none" data-name="note"><path data-name="f" d="M 470.8165869692022 153.5453335876465c 0.36 -0.03 1.2 0 1.53 0.06c 1.17 0.24 1.89 0.84 2.16 1.83c 0.06 0.18 0.06 0.3 0.06 0.66c 0 0.45 0 0.63 -0.15 1.08c -0.66 2.04 -3.06 3.93 -5.52 4.38c -0.54 0.09 -1.44 0.09 -1.83 0.03c -1.23 -0.27 -1.98 -0.87 -2.25 -1.86c -0.06 -0.18 -0.06 -0.3 -0.06 -0.66c 0 -0.45 0 -0.63 0.15 -1.08c 0.24 -0.78 0.75 -1.53 1.44 -2.22c 1.2 -1.2 2.85 -2.01 4.47 -2.22z"></path><line x1="465.03000000000003" x2="465.03000000000003" y1="189.29" y2="158.37" stroke="currentColor" stroke-width="0.6" class="abcjs-stem" data-name="stem"></line></g><g class="" fill="currentColor" stroke="none" data-name="note"><path data-name="g" d="M 490.1398775387504 149.6703335876465c 0.36 -0.03 1.2 0 1.53 0.06c 1.17 0.24 1.89 0.84 2.16 1.83c 0.06 0.18 0.06 0.3 0.06 0.66c 0 0.45 0 0.63 -0.15 1.08c -0.66 2.04 -3.06 3.93 -5.52 4.38c -0.54 0.09 -1.44 0.09 -1.83 0.03c -1.23 -0.27 -1.98 -0.87 -2.25 -1.86c -0.06 -0.18 -0.06 -0.3 -0.06 -0.66c 0 -0.45 0 -0.63 0.15 -1.08c 0.24 -0.78 0.75 -1.53 1.44 -2.22c 1.2 -1.2 2.85 -2.01 4.47 -2.22z"></path><line x1="484.35" x2="484.35" y1="186.74" y2="154.5" stroke="currentColor" stroke-width="0.6" class="abcjs-stem" data-name="stem"></line></g><g class="" fill="currentColor" stroke="none" data-name="note"><path data-name="a" d="M 509.4631681082986 145.7953335876465c 0.36 -0.03 1.2 0 1.53 0.06c 1.17 0.24 1.89 0.84 2.16 1.83c 0.06 0.18 0.06 0.3 0.06 0.66c 0 0.45 0 0.63 -0.15 1.08c -0.66 2.04 -3.06 3.93 -5.52 4.38c -0.54 0.09 -1.44 0.09 -1.83 0.03c -1.23 -0.27 -1.98 -0.87 -2.25 -1.86c -0.06 -0.18 -0.06 -0.3 -0.06 -0.66c 0 -0.45 0 -0.63 0.15 -1.08c 0.24 -0.78 0.75 -1.53 1.44 -2.22c 1.2 -1.2 2.85 -2.01 4.47 -2.22z"></path><line x1="501.37" x2="515.18" y1="150.02033358764652" y2="150.02033358764652" stroke="currentColor" stroke-width="0.7" class="abcjs-ledger" data-name="ledger"></line><line x1="503.67" x2="503.67" y1="186.66" y2="150.62" stroke="currentColor" stroke-width="0.6" class="abcjs-stem" data-name="stem"></line></g><g class="" fill="currentColor" stroke="none" data-name="note"><path data-name="f" d="M 528.7864586778468 153.5453335876465c 0.36 -0.03 1.2 0 1.53 0.06c 1.17 0.24 1.89 0.84 2.16 1.83c 0.06 0.18 0.06 0.3 0.06 0.66c 0 0.45 0 0.63 -0.15 1.08c -0.66 2.04 -3.06 3.93 -5.52 4.38c -0.54 0.09 -1.44 0.09 -1.83 0.03c -1.23 -0.27 -1.98 -0.87 -2.25 -1.86c -0.06 -0.18 -0.06 -0.3 -0.06 -0.66c 0 -0.45 0 -0.63 0.15 -1.08c 0.24 -0.78 0.75 -1.53 1.44 -2.22c 1.2 -1.2 2.85 -2.01 4.47 -2.22z"></path><line x1="523" x2="523" y1="189.21" y2="158.37" stroke="currentColor" stroke-width="0.6" class="abcjs-stem" data-name="stem"></line></g><g class="" fill="currentColor" stroke="none" data-name="note"><path data-name="d" d="M 548.1097492473949 161.2953335876465c 0.36 -0.03 1.2 0 1.53 0.06c 1.17 0.24 1.89 0.84 2.16 1.83c 0.06 0.18 0.06 0.3 0.06 0.66c 0 0.45 0 0.63 -0.15 1.08c -0.66 2.04 -3.06 3.93 -5.52 4.38c -0.54 0.09 -1.44 0.09 -1.83 0.03c -1.23 -0.27 -1.98 -0.87 -2.25 -1.86c -0.06 -0.18 -0.06 -0.3 -0.06 -0.66c 0 -0.45 0 -0.63 0.15 -1.08c 0.24 -0.78 0.75 -1.53 1.44 -2.22c 1.2 -1.2 2.85 -2.01 4.47 -2.22z"></path><line x1="542.3199999999999" x2="542.3199999999999" y1="191.77" y2="166.12" stroke="currentColor" stroke-width="0.6" class="abcjs-stem" data-name="stem"></line></g><g class="" fill="currentColor" stroke="none" data-name="note"><path data-name="f" d="M 567.433039816943 153.5453335876465c 0.36 -0.03 1.2 0 1.53 0.06c 1.17 0.24 1.89 0.84 2.16 1.83c 0.06 0.18 0.06 0.3 0.06 0.66c 0 0.45 0 0.63 -0.15 1.08c -0.66 2.04 -3.06 3.93 -5.52 4.38c -0.54 0.09 -1.44 0.09 -1.83 0.03c -1.23 -0.27 -1.98 -0.87 -2.25 -1.86c -0.06 -0.18 -0.06 -0.3 -0.06 -0.66c 0 -0.45 0 -0.63 0.15 -1.08c 0.24 -0.78 0.75 -1.53 1.44 -2.22c 1.2 -1.2 2.85 -2.01 4.47 -2.22z"></path><line x1="561.64" x2="561.64" y1="194.33" y2="158.37" stroke="currentColor" stroke-width="0.6" class="abcjs-stem" data-name="stem"></line></g><g class="" fill="currentColor" stroke="none" data-name="bar"><line x1="580.9699999999999" x2="580.9699999999999" y1="188.6" y2="157.6" stroke="currentColor" stroke-width="0.6" data-name="bar"></line></g><g class="" fill="currentColor" stroke="none" data-name="note"><path data-name="g" d="M 603.8229969895796 149.6703335876465c 0.36 -0.03 1.2 0 1.53 0.06c 1.17 0.24 1.89 0.84 2.16 1.83c 0.06 0.18 0.06 0.3 0.06 0.66c 0 0.45 0 0.63 -0.15 1.08c -0.66 2.04 -3.06 3.93 -5.52 4.38c -0.54 0.09 -1.44 0.09 -1.83 0.03c -1.23 -0.27 -1.98 -0.87 -2.25 -1.86c -0.06 -0.18 -0.06 -0.3 -0.06 -0.66c 0 -0.45 0 -0.63 0.15 -1.08c 0.24 -0.78 0.75 -1.53 1.44 -2.22c 1.2 -1.2 2.85 -2.01 4.47 -2.22z"></path><text stroke="none" font-size="16" font-style="normal" font-family="&quot;Courier New&quot;" font-weight="normal" text-decoration="none" class="" text-anchor="middle" x="602.64" y="136.29" data-name="chord"><tspan x="602.64">A</tspan></text><line x1="598.03" x2="598.03" y1="186.66" y2="154.5" stroke="currentColor" stroke-width="0.6" class="abcjs-stem" data-name="stem"></line></g><g class="" fill="currentColor" stroke="none" data-name="note"><path data-name="f" d="M 623.1462875591277 153.5453335876465c 0.36 -0.03 1.2 0 1.53 0.06c 1.17 0.24 1.89 0.84 2.16 1.83c 0.06 0.18 0.06 0.3 0.06 0.66c 0 0.45 0 0.63 -0.15 1.08c -0.66 2.04 -3.06 3.93 -5.52 4.38c -0.54 0.09 -1.44 0.09 -1.83 0.03c -1.23 -0.27 -1.98 -0.87 -2.25 -1.86c -0.06 -0.18 -0.06 -0.3 -0.06 -0.66c 0 -0.45 0 -0.63 0.15 -1.08c 0.24 -0.78 0.75 -1.53 1.44 -2.22c 1.2 -1.2 2.85 -2.01 4.47 -2.22z"></path><line x1="617.3599999999999" x2="617.3599999999999" y1="189.21" y2="158.37" stroke="currentColor" stroke-width="0.6" class="abcjs-stem" data-name="stem"></line></g><g class="" fill="currentColor" stroke="none" data-name="note"><path data-name="e" d="M 642.4695781286758 157.4203335876465c 0.36 -0.03 1.2 0 1.53 0.06c 1.17 0.24 1.89 0.84 2.16 1.83c 0.06 0.18 0.06 0.3 0.06 0.66c 0 0.45 0 0.63 -0.15 1.08c -0.66 2.04 -3.06 3.93 -5.52 4.38c -0.54 0.09 -1.44 0.09 -1.83 0.03c -1.23 -0.27 -1.98 -0.87 -2.25 -1.86c -0.06 -0.18 -0.06 -0.3 -0.06 -0.66c 0 -0.45 0 -0.63 0.15 -1.08c 0.24 -0.78 0.75 -1.53 1.44 -2.22c 1.2 -1.2 2.85 -2.01 4.47 -2.22z"></path><line x1="636.68" x2="636.68" y1="191.77" y2="162.25" stroke="currentColor" stroke-width="0.6" class="abcjs-stem" data-name="stem"></line></g><g class="" fill="currentColor" stroke="none" data-name="note"><path data-name="d" d="M 661.792868698224 161.2953335876465c 0.36 -0.03 1.2 0 1.53 0.06c 1.17 0.24 1.89 0.84 2.16 1.83c 0.06 0.18 0.06 0.3 0.06 0.66c 0 0.45 0 0.63 -0.15 1.08c -0.66 2.04 -3.06 3.93 -5.52 4.38c -0.54 0.09 -1.44 0.09 -1.83 0.03c -1.23 -0.27 -1.98 -0.87 -2.25 -1.86c -0.06 -0.18 -0.06 -0.3 -0.06 -0.66c 0 -0.45 0 -0.63 0.15 -1.08c 0.24 -0.78 0.75 -1.53 1.44 -2.22c 1.2 -1.2 2.85 -2.01 4.47 -2.22z"></path><line x1="656" x2="656" y1="194.33" y2="166.12" stroke="currentColor" stroke-width="0.6" class="abcjs-stem" data-name="stem"></line></g><g class="" fill="currentColor" stroke="none" data-name="note"><path data-name="c" d="M 681.1161592677721 165.1703335876465c 0.36 -0.03 1.2 0 1.53 0.06c 1.17 0.24 1.89 0.84 2.16 1.83c 0.06 0.18 0.06 0.3 0.06 0.66c 0 0.45 0 0.63 -0.15 1.08c -0.66 2.04 -3.06 3.93 -5.52 4.38c -0.54 0.09 -1.44 0.09 -1.83 0.03c -1.23 -0.27 -1.98 -0.87 -2.25 -1.86c -0.06 -0.18 -0.06 -0.3 -0.06 -0.66c 0 -0.45 0 -0.63 0.15 -1.08c 0.24 -0.78 0.75 -1.53 1.44 -2.22c 1.2 -1.2 2.85 -2.01 4.47 -2.22z"></path><line x1="675.3299999999999" x2="675.3299999999999" y1="202.16" y2="170" stroke="currentColor" stroke-width="0.6" class="abcjs-stem" data-name="stem"></line></g><g class="" fill="currentColor" stroke="none" data-name="note"><path data-name="A" d="M 700.4394498373202 172.9203335876465c 0.36 -0.03 1.2 0 1.53 0.06c 1.17 0.24 1.89 0.84 2.16 1.83c 0.06 0.18 0.06 0.3 0.06 0.66c 0 0.45 0 0.63 -0.15 1.08c -0.66 2.04 -3.06 3.93 -5.52 4.38c -0.54 0.09 -1.44 0.09 -1.83 0.03c -1.23 -0.27 -1.98 -0.87 -2.25 -1.86c -0.06 -0.18 -0.06 -0.3 -0.06 -0.66c 0 -0.45 0 -0.63 0.15 -1.08c 0.24 -0.78 0.75 -1.53 1.44 -2.22c 1.2 -1.2 2.85 -2.01 4.47 -2.22z"></path><line x1="694.65" x2="694.65" y1="205.92" y2="177.75" stroke="currentColor" stroke-width="0.6" class="abcjs-stem" data-name="stem"></line></g><g class="" fill="currentColor" stroke="none" data-name="note"><path data-name="A" d="M 719.7627404068684 172.9203335876465c 0.36 -0.03 1.2 0 1.53 0.06c 1.17 0.24 1.89 0.84 2.16 1.83c 0.06 0.18 0.06 0.3 0.06 0.66c 0 0.45 0 0.63 -0.15 1.08c -0.66 2.04 -3.06 3.93 -5.52 4.38c -0.54 0.09 -1.44 0.09 -1.83 0.03c -1.23 -0.27 -1.98 -0.87 -2.25 -1.86c -0.06 -0.18 -0.06 -0.3 -0.06 -0.66c 0 -0.45 0 -0.63 0.15 -1.08c 0.24 -0.78 0.75 -1.53 1.44 -2.22c 1.2 -1.2 2.85 -2.01 4.47 -2.22z"></path><path data-name="c" d="M 719.7627404068684 165.1703335876465c 0.36 -0.03 1.2 0 1.53 0.06c 1.17 0.24 1.89 0.84 2.16 1.83c 0.06 0.18 0.06 0.3 0.06 0.66c 0 0.45 0 0.63 -0.15 1.08c -0.66 2.04 -3.06 3.93 -5.52 4.38c -0.54 0.09 -1.44 0.09 -1.83 0.03c -1.23 -0.27 -1.98 -0.87 -2.25 -1.86c -0.06 -0.18 -0.06 -0.3 -0.06 -0.66c 0 -0.45 0 -0.63 0.15 -1.08c 0.24 -0.78 0.75 -1.53 1.44 -2.22c 1.2 -1.2 2.85 -2.01 4.47 -2.22z"></path><line x1="714.17" x2="714.17" y1="204.1" y2="170.51" stroke="currentColor" stroke-width="1" class="abcjs-stem" data-name="stem"></line></g><g class="" fill="currentColor" stroke="none" data-name="bar"><path data-name="dots.dot" d="M 742.3199999999996 167.5403335876465c 0.09 -0.03 0.27 -0.06 0.39 -0.06c 0.96 0 1.74 0.78 1.74 1.71c 0 0.96 -0.78 1.74 -1.71 1.74c -0.96 0 -1.74 -0.78 -1.74 -1.71c 0 -0.78 0.54 -1.5 1.32 -1.68z"></path><path data-name="dots.dot" d="M 742.3199999999996 175.2903335876465c 0.09 -0.03 0.27 -0.06 0.39 -0.06c 0.96 0 1.74 0.78 1.74 1.71c 0 0.96 -0.78 1.74 -1.71 1.74c -0.96 0 -1.74 -0.78 -1.74 -1.71c 0 -0.78 0.54 -1.5 1.32 -1.68z"></path><line x1="747.3" x2="747.3" y1="188.6" y2="157.6" stroke="currentColor" stroke-width="0.6" data-name="bar"></line><line x1="753" x2="753" y1="188.6" y2="157.6" stroke="currentColor" stroke-width="4" data-name="bar"></line></g><path d="M132.74 188.6 L152.66 184.72L152.66 180.84 L132.74 184.72z" stroke="none" fill="currentColor" class=""></path><path d="M171.39 188.6 L229.96 196.35L229.96 192.47 L171.39 184.72z" stroke="none" fill="currentColor" class=""></path><path d="M265.75 188.6 L324.32 188.6L324.32 184.72 L265.75 184.72z" stroke="none" fill="currentColor" class=""></path><path d="M343.04 192.47 L362.96 196.35L362.96 192.47 L343.04 188.59z" stroke="none" fill="currentColor" class=""></path><path d="M426.08 196.35 L484.65 188.6L484.65 184.72 L426.08 192.47z" stroke="none" fill="currentColor" class=""></path><path d="M503.37 188.6 L561.94 196.35L561.94 192.47 L503.37 184.72z" stroke="none" fill="currentColor" class=""></path><path d="M597.73 188.6 L656.3 196.35L656.3 192.47 L597.73 184.72z" stroke="none" fill="currentColor" class=""></path><path d="M675.03 204.1 L694.95 207.97L694.95 204.09 L675.03 200.22z" stroke="none" fill="currentColor" class=""></path></g><g><g><line x1="15" x2="755" y1="279.6785698138821" y2="279.6785698138821" stroke="currentColor" stroke-width="0.7" class="abcjs-top-line"></line><line x1="15" x2="755" y1="287.4285698138821" y2="287.4285698138821" stroke="currentColor" stroke-width="0.7"></line><line x1="15" x2="755" y1="295.1785698138821" y2="295.1785698138821" stroke="currentColor" stroke-width="0.7"></line><line x1="15" x2="755" y1="302.9285698138821" y2="302.9285698138821" stroke="currentColor" stroke-width="0.7"></line><line x1="15" x2="755" y1="310.6785698138821" y2="310.6785698138821" stroke="currentColor" stroke-width="0.7"></line></g><g class="" fill="currentColor" stroke="none" data-name="staff-extra clef"><path data-name="clefs.G" d="M 29.689999999999998 265.34356981388214c 0.09 -0.09 0.24 -0.06 0.36 0c 0.12 0.09 0.57 0.6 0.96 1.11c 1.77 2.34 3.21 5.85 3.57 8.73c 0.21 1.56 0.03 3.27 -0.45 4.86c -0.69 2.31 -1.92 4.47 -4.23 7.44c -0.3 0.39 -0.57 0.72 -0.6 0.75c -0.03 0.06 0 0.15 0.18 0.78c 0.54 1.68 1.38 4.44 1.68 5.49l 0.09 0.42l 0.39 0c 1.47 0.09 2.76 0.51 3.96 1.29c 1.83 1.23 3.06 3.21 3.39 5.52c 0.09 0.45 0.12 1.29 0.06 1.74c -0.09 1.02 -0.33 1.83 -0.75 2.73c -0.84 1.71 -2.28 3.06 -4.02 3.72l -0.33 0.12l 0.03 1.26c 0 1.74 -0.06 3.63 -0.21 4.62c -0.45 3.06 -2.19 5.49 -4.47 6.21c -0.57 0.18 -0.9 0.21 -1.59 0.21c -0.69 0 -1.02 -0.03 -1.65 -0.21c -1.14 -0.27 -2.13 -0.84 -2.94 -1.65c -0.99 -0.99 -1.56 -2.16 -1.71 -3.54c -0.09 -0.81 0.06 -1.53 0.45 -2.13c 0.63 -0.99 1.83 -1.56 3 -1.53c 1.5 0.09 2.64 1.32 2.73 2.94c 0.06 1.47 -0.93 2.7 -2.37 2.97c -0.45 0.06 -0.84 0.03 -1.29 -0.09l -0.21 -0.09l 0.09 0.12c 0.39 0.54 0.78 0.93 1.32 1.26c 1.35 0.87 3.06 1.02 4.35 0.36c 1.44 -0.72 2.52 -2.28 2.97 -4.35c 0.15 -0.66 0.24 -1.5 0.3 -3.03c 0.03 -0.84 0.03 -2.94 0 -3c -0.03 0 -0.18 0 -0.36 0.03c -0.66 0.12 -0.99 0.12 -1.83 0.12c -1.05 0 -1.71 -0.06 -2.61 -0.3c -4.02 -0.99 -7.11 -4.35 -7.8 -8.46c -0.12 -0.66 -0.12 -0.99 -0.12 -1.83c 0 -0.84 0 -1.14 0.15 -1.92c 0.36 -2.28 1.41 -4.62 3.3 -7.29l 2.79 -3.6c 0.54 -0.66 0.96 -1.2 0.96 -1.23c 0 -0.03 -0.09 -0.33 -0.18 -0.69c -0.96 -3.21 -1.41 -5.28 -1.59 -7.68c -0.12 -1.38 -0.15 -3.09 -0.06 -3.96c 0.33 -2.67 1.38 -5.07 3.12 -7.08c 0.36 -0.42 0.99 -1.05 1.17 -1.14zm 2.01 4.71c -0.15 -0.3 -0.3 -0.54 -0.3 -0.54c -0.03 0 -0.18 0.09 -0.3 0.21c -2.4 1.74 -3.87 4.2 -4.26 7.11c -0.06 0.54 -0.06 1.41 -0.03 1.89c 0.09 1.29 0.48 3.12 1.08 5.22c 0.15 0.42 0.24 0.78 0.24 0.81c 0 0.03 0.84 -1.11 1.23 -1.68c 1.89 -2.73 2.88 -5.07 3.15 -7.53c 0.09 -0.57 0.12 -1.74 0.06 -2.37c -0.09 -1.23 -0.27 -1.92 -0.87 -3.12zm -2.94 20.7c -0.21 -0.72 -0.39 -1.32 -0.42 -1.32c 0 0 -1.2 1.47 -1.86 2.37c -2.79 3.63 -4.02 6.3 -4.35 9.3c -0.03 0.21 -0.03 0.69 -0.03 1.08c 0 0.69 0 0.75 0.06 1.11c 0.12 0.54 0.27 0.99 0.51 1.47c 0.69 1.38 1.83 2.55 3.42 3.42c 0.96 0.54 2.07 0.9 3.21 1.08c 0.78 0.12 2.04 0.12 2.94 -0.03c 0.51 -0.06 0.45 -0.03 0.42 -0.3c -0.24 -3.33 -0.72 -6.33 -1.62 -10.08c -0.09 -0.39 -0.18 -0.75 -0.18 -0.78c -0.03 -0.03 -0.42 0 -0.81 0.09c -0.9 0.18 -1.65 0.57 -2.22 1.14c -0.72 0.72 -1.08 1.65 -1.05 2.64c 0.06 0.96 0.48 1.83 1.23 2.58c 0.36 0.36 0.72 0.63 1.17 0.9c 0.33 0.18 0.36 0.21 0.42 0.33c 0.18 0.42 -0.18 0.9 -0.6 0.87c -0.18 -0.03 -0.84 -0.36 -1.26 -0.63c -0.78 -0.51 -1.38 -1.11 -1.86 -1.83c -1.77 -2.7 -0.99 -6.42 1.71 -8.19c 0.3 -0.21 0.81 -0.48 1.17 -0.63c 0.3 -0.09 1.02 -0.3 1.14 -0.3c 0.06 0 0.09 0 0.09 -0.03c 0.03 -0.03 -0.51 -1.92 -1.23 -4.26zm 3.78 7.41c -0.18 -0.03 -0.36 -0.06 -0.39 -0.06c -0.03 0 0 0.21 0.18 1.02c 0.75 3.18 1.26 6.3 1.5 9.09c 0.06 0.72 0 0.69 0.51 0.42c 0.78 -0.36 1.44 -0.96 1.98 -1.77c 1.08 -1.62 1.2 -3.69 0.3 -5.55c -0.81 -1.62 -2.31 -2.79 -4.08 -3.15z"></path></g><g class="" fill="currentColor" stroke="none" data-name="staff-extra key-signature"><path data-name="accidentals.sharp" d="M 54.781000000000006 268.3135698138821c 0.21 -0.12 0.54 -0.03 0.66 0.24c 0.06 0.12 0.06 0.21 0.06 2.31c 0 1.23 0 2.22 0.03 2.22c 0 0 0.27 -0.12 0.6 -0.24c 0.69 -0.27 0.78 -0.3 0.96 -0.15c 0.21 0.15 0.21 0.18 0.21 1.38c 0 1.02 0 1.11 -0.06 1.2c -0.03 0.06 -0.09 0.12 -0.12 0.15c -0.06 0.03 -0.42 0.21 -0.84 0.36l -0.75 0.33l -0.03 2.43c 0 1.32 0 2.43 0.03 2.43c 0 0 0.27 -0.12 0.6 -0.24c 0.69 -0.27 0.78 -0.3 0.96 -0.15c 0.21 0.15 0.21 0.18 0.21 1.38c 0 1.02 0 1.11 -0.06 1.2c -0.03 0.06 -0.09 0.12 -0.12 0.15c -0.06 0.03 -0.42 0.21 -0.84 0.36l -0.75 0.33l -0.03 2.52c 0 2.28 -0.03 2.55 -0.06 2.64c -0.21 0.36 -0.72 0.36 -0.93 0c -0.03 -0.09 -0.06 -0.33 -0.06 -2.43l 0 -2.31l -1.29 0.51l -1.26 0.51l 0 2.43c 0 2.58 0 2.52 -0.15 2.67c -0.06 0.09 -0.27 0.18 -0.36 0.18c -0.12 0 -0.33 -0.09 -0.39 -0.18c -0.15 -0.15 -0.15 -0.09 -0.15 -2.43c 0 -1.23 0 -2.22 -0.03 -2.22c 0 0 -0.27 0.12 -0.6 0.24c -0.69 0.27 -0.78 0.3 -0.96 0.15c -0.21 -0.15 -0.21 -0.18 -0.21 -1.38c 0 -1.02 0 -1.11 0.06 -1.2c 0.03 -0.06 0.09 -0.12 0.12 -0.15c 0.06 -0.03 0.42 -0.21 0.84 -0.36l 0.78 -0.33l 0 -2.43c 0 -1.32 0 -2.43 -0.03 -2.43c 0 0 -0.27 0.12 -0.6 0.24c -0.69 0.27 -0.78 0.3 -0.96 0.15c -0.21 -0.15 -0.21 -0.18 -0.21 -1.38c 0 -1.02 0 -1.11 0.06 -1.2c 0.03 -0.06 0.09 -0.12 0.12 -0.15c 0.06 -0.03 0.42 -0.21 0.84 -0.36l 0.78 -0.33l 0 -2.52c 0 -2.28 0.03 -2.55 0.06 -2.64c 0.21 -0.36 0.72 -0.36 0.93 0c 0.03 0.09 0.06 0.33 0.06 2.43l 0.03 2.31l 1.26 -0.51l 1.26 -0.51l 0 -2.43c 0 -2.28 0 -2.43 0.06 -2.55c 0.06 -0.12 0.12 -0.18 0.27 -0.24zm -0.33 10.65l 0 -2.43l -1.29 0.51l -1.26 0.51l 0 2.46l 0 2.43l 0.09 -0.03c 0.06 -0.03 0.63 -0.27 1.29 -0.51l 1.17 -0.48l 0 -2.46z"></path><path data-name="accidentals.sharp" d="M 65.031 279.9385698138821c 0.21 -0.12 0.54 -0.03 0.66 0.24c 0.06 0.12 0.06 0.21 0.06 2.31c 0 1.23 0 2.22 0.03 2.22c 0 0 0.27 -0.12 0.6 -0.24c 0.69 -0.27 0.78 -0.3 0.96 -0.15c 0.21 0.15 0.21 0.18 0.21 1.38c 0 1.02 0 1.11 -0.06 1.2c -0.03 0.06 -0.09 0.12 -0.12 0.15c -0.06 0.03 -0.42 0.21 -0.84 0.36l -0.75 0.33l -0.03 2.43c 0 1.32 0 2.43 0.03 2.43c 0 0 0.27 -0.12 0.6 -0.24c 0.69 -0.27 0.78 -0.3 0.96 -0.15c 0.21 0.15 0.21 0.18 0.21 1.38c 0 1.02 0 1.11 -0.06 1.2c -0.03 0.06 -0.09 0.12 -0.12 0.15c -0.06 0.03 -0.42 0.21 -0.84 0.36l -0.75 0.33l -0.03 2.52c 0 2.28 -0.03 2.55 -0.06 2.64c -0.21 0.36 -0.72 0.36 -0.93 0c -0.03 -0.09 -0.06 -0.33 -0.06 -2.43l 0 -2.31l -1.29 0.51l -1.26 0.51l 0 2.43c 0 2.58 0 2.52 -0.15 2.67c -0.06 0.09 -0.27 0.18 -0.36 0.18c -0.12 0 -0.33 -0.09 -0.39 -0.18c -0.15 -0.15 -0.15 -0.09 -0.15 -2.43c 0 -1.23 0 -2.22 -0.03 -2.22c 0 0 -0.27 0.12 -0.6 0.24c -0.69 0.27 -0.78 0.3 -0.96 0.15c -0.21 -0.15 -0.21 -0.18 -0.21 -1.38c 0 -1.02 0 -1.11 0.06 -1.2c 0.03 -0.06 0.09 -0.12 0.12 -0.15c 0.06 -0.03 0.42 -0.21 0.84 -0.36l 0.78 -0.33l 0 -2.43c 0 -1.32 0 -2.43 -0.03 -2.43c 0 0 -0.27 0.12 -0.6 0.24c -0.69 0.27 -0.78 0.3 -0.96 0.15c -0.21 -0.15 -0.21 -0.18 -0.21 -1.38c 0 -1.02 0 -1.11 0.06 -1.2c 0.03 -0.06 0.09 -0.12 0.12 -0.15c 0.06 -0.03 0.42 -0.21 0.84 -0.36l 0.78 -0.33l 0 -2.52c 0 -2.28 0.03 -2.55 0.06 -2.64c 0.21 -0.36 0.72 -0.36 0.93 0c 0.03 0.09 0.06 0.33 0.06 2.43l 0.03 2.31l 1.26 -0.51l 1.26 -0.51l 0 -2.43c 0 -2.28 0 -2.43 0.06 -2.55c 0.06 -0.12 0.12 -0.18 0.27 -0.24zm -0.33 10.65l 0 -2.43l -1.29 0.51l -1.26 0.51l 0 2.46l 0 2.43l 0.09 -0.03c 0.06 -0.03 0.63 -0.27 1.29 -0.51l 1.17 -0.48l 0 -2.46z"></path></g><g class="" fill="currentColor" stroke="none" data-name="part"><text stroke="none" font-size="17" font-style="normal" font-family="Helvetica" font-weight="normal" text-decoration="none" class="" text-anchor="start" x="77.55" y="224.97" data-name="B-part"><tspan x="77.55">B-part</tspan></text></g><g class="" fill="currentColor" stroke="none" data-name="note"><path data-name="flags.d8th" d="M 89.28766660308838 296.6235698138821c 0.24 -0.12 0.54 -0.06 0.69 0.15c 0.06 0.06 0.21 0.36 0.39 0.66c 0.84 1.77 1.26 3.36 1.32 5.1c 0.03 1.29 -0.21 2.37 -0.81 3.63c -0.6 1.23 -1.26 2.13 -3.21 4.38c -1.35 1.53 -1.86 2.19 -2.4 2.97c -0.63 0.93 -1.11 1.92 -1.38 2.79c -0.15 0.54 -0.27 1.35 -0.27 1.8l 0 0.15l -0.21 0l -0.21 0l 0 -3.75l 0 -3.75l 0.21 0l 0.21 0l 0.48 -0.3c 1.83 -1.11 3.12 -2.1 4.17 -3.12c 0.78 -0.81 1.32 -1.53 1.71 -2.31c 0.45 -0.93 0.6 -1.74 0.51 -2.88c -0.12 -1.56 -0.63 -3.18 -1.47 -4.68c -0.12 -0.21 -0.15 -0.33 -0.06 -0.51c 0.06 -0.15 0.15 -0.24 0.33 -0.33z"></path><path data-name="c" d="M 89.70766660308838 287.0785698138821c 0.36 -0.03 1.2 0 1.53 0.06c 1.17 0.24 1.89 0.84 2.16 1.83c 0.06 0.18 0.06 0.3 0.06 0.66c 0 0.45 0 0.63 -0.15 1.08c -0.66 2.04 -3.06 3.93 -5.52 4.38c -0.54 0.09 -1.44 0.09 -1.83 0.03c -1.23 -0.27 -1.98 -0.87 -2.25 -1.86c -0.06 -0.18 -0.06 -0.3 -0.06 -0.66c 0 -0.45 0 -0.63 0.15 -1.08c 0.24 -0.78 0.75 -1.53 1.44 -2.22c 1.2 -1.2 2.85 -2.01 4.47 -2.22z"></path><line x1="84.12" x2="84.12" y1="318.25" y2="292.42" stroke="currentColor" stroke-width="1" class="abcjs-stem" data-name="stem"></line><text stroke="none" font-size="16" font-style="normal" font-family="&quot;Courier New&quot;" font-weight="normal" text-decoration="none" class="" text-anchor="middle" x="88.52" y="245.58" data-name="chord"><tspan x="88.52">A</tspan></text></g><g class="" fill="currentColor" stroke="none" data-name="note"><path data-name="e" d="M 110.14753957437705 279.3285698138821c 0.36 -0.03 1.2 0 1.53 0.06c 1.17 0.24 1.89 0.84 2.16 1.83c 0.06 0.18 0.06 0.3 0.06 0.66c 0 0.45 0 0.63 -0.15 1.08c -0.66 2.04 -3.06 3.93 -5.52 4.38c -0.54 0.09 -1.44 0.09 -1.83 0.03c -1.23 -0.27 -1.98 -0.87 -2.25 -1.86c -0.06 -0.18 -0.06 -0.3 -0.06 -0.66c 0 -0.45 0 -0.63 0.15 -1.08c 0.24 -0.78 0.75 -1.53 1.44 -2.22c 1.2 -1.2 2.85 -2.01 4.47 -2.22z"></path><line x1="104.56" x2="104.56" y1="310.5" y2="284.67" stroke="currentColor" stroke-width="1" class="abcjs-stem" data-name="stem"></line></g><g class="" fill="currentColor" stroke="none" data-name="note"><path data-name="flags.d8th" d="M 138.6338851435567 284.9985698138821c 0.24 -0.12 0.54 -0.06 0.69 0.15c 0.06 0.06 0.21 0.36 0.39 0.66c 0.84 1.77 1.26 3.36 1.32 5.1c 0.03 1.29 -0.21 2.37 -0.81 3.63c -0.6 1.23 -1.26 2.13 -3.21 4.38c -1.35 1.53 -1.86 2.19 -2.4 2.97c -0.63 0.93 -1.11 1.92 -1.38 2.79c -0.15 0.54 -0.27 1.35 -0.27 1.8l 0 0.15l -0.21 0l -0.21 0l 0 -3.75l 0 -3.75l 0.21 0l 0.21 0l 0.48 -0.3c 1.83 -1.11 3.12 -2.1 4.17 -3.12c 0.78 -0.81 1.32 -1.53 1.71 -2.31c 0.45 -0.93 0.6 -1.74 0.51 -2.88c -0.12 -1.56 -0.63 -3.18 -1.47 -4.68c -0.12 -0.21 -0.15 -0.33 -0.06 -0.51c 0.06 -0.15 0.15 -0.24 0.33 -0.33z"></path><path data-name="f" d="M 139.05388514355673 275.4535698138821c 0.36 -0.03 1.2 0 1.53 0.06c 1.17 0.24 1.89 0.84 2.16 1.83c 0.06 0.18 0.06 0.3 0.06 0.66c 0 0.45 0 0.63 -0.15 1.08c -0.66 2.04 -3.06 3.93 -5.52 4.38c -0.54 0.09 -1.44 0.09 -1.83 0.03c -1.23 -0.27 -1.98 -0.87 -2.25 -1.86c -0.06 -0.18 -0.06 -0.3 -0.06 -0.66c 0 -0.45 0 -0.63 0.15 -1.08c 0.24 -0.78 0.75 -1.53 1.44 -2.22c 1.2 -1.2 2.85 -2.01 4.47 -2.22z"></path><line x1="133.46" x2="133.46" y1="306.63" y2="280.8" stroke="currentColor" stroke-width="1" class="abcjs-stem" data-name="stem"></line></g><g class="" fill="currentColor" stroke="none" data-name="note"><path data-name="e" d="M 159.49375811484538 279.3285698138821c 0.36 -0.03 1.2 0 1.53 0.06c 1.17 0.24 1.89 0.84 2.16 1.83c 0.06 0.18 0.06 0.3 0.06 0.66c 0 0.45 0 0.63 -0.15 1.08c -0.66 2.04 -3.06 3.93 -5.52 4.38c -0.54 0.09 -1.44 0.09 -1.83 0.03c -1.23 -0.27 -1.98 -0.87 -2.25 -1.86c -0.06 -0.18 -0.06 -0.3 -0.06 -0.66c 0 -0.45 0 -0.63 0.15 -1.08c 0.24 -0.78 0.75 -1.53 1.44 -2.22c 1.2 -1.2 2.85 -2.01 4.47 -2.22z"></path><line x1="153.70000000000002" x2="153.70000000000002" y1="316.32" y2="284.15" stroke="currentColor" stroke-width="0.6" class="abcjs-stem" data-name="stem"></line></g><g class="" fill="currentColor" stroke="none" data-name="note"><path data-name="d" d="M 179.93363108613403 283.2035698138821c 0.36 -0.03 1.2 0 1.53 0.06c 1.17 0.24 1.89 0.84 2.16 1.83c 0.06 0.18 0.06 0.3 0.06 0.66c 0 0.45 0 0.63 -0.15 1.08c -0.66 2.04 -3.06 3.93 -5.52 4.38c -0.54 0.09 -1.44 0.09 -1.83 0.03c -1.23 -0.27 -1.98 -0.87 -2.25 -1.86c -0.06 -0.18 -0.06 -0.3 -0.06 -0.66c 0 -0.45 0 -0.63 0.15 -1.08c 0.24 -0.78 0.75 -1.53 1.44 -2.22c 1.2 -1.2 2.85 -2.01 4.47 -2.22z"></path><line x1="174.14000000000001" x2="174.14000000000001" y1="318.87" y2="288.03" stroke="currentColor" stroke-width="0.6" class="abcjs-stem" data-name="stem"></line></g><g class="" fill="currentColor" stroke="none" data-name="note"><path data-name="B" d="M 200.37350405742268 290.9535698138821c 0.36 -0.03 1.2 0 1.53 0.06c 1.17 0.24 1.89 0.84 2.16 1.83c 0.06 0.18 0.06 0.3 0.06 0.66c 0 0.45 0 0.63 -0.15 1.08c -0.66 2.04 -3.06 3.93 -5.52 4.38c -0.54 0.09 -1.44 0.09 -1.83 0.03c -1.23 -0.27 -1.98 -0.87 -2.25 -1.86c -0.06 -0.18 -0.06 -0.3 -0.06 -0.66c 0 -0.45 0 -0.63 0.15 -1.08c 0.24 -0.78 0.75 -1.53 1.44 -2.22c 1.2 -1.2 2.85 -2.01 4.47 -2.22z"></path><line x1="194.58" x2="194.58" y1="321.43" y2="295.78" stroke="currentColor" stroke-width="0.6" class="abcjs-stem" data-name="stem"></line></g><g class="" fill="currentColor" stroke="none" data-name="note"><path data-name="c" d="M 220.81337702871133 287.0785698138821c 0.36 -0.03 1.2 0 1.53 0.06c 1.17 0.24 1.89 0.84 2.16 1.83c 0.06 0.18 0.06 0.3 0.06 0.66c 0 0.45 0 0.63 -0.15 1.08c -0.66 2.04 -3.06 3.93 -5.52 4.38c -0.54 0.09 -1.44 0.09 -1.83 0.03c -1.23 -0.27 -1.98 -0.87 -2.25 -1.86c -0.06 -0.18 -0.06 -0.3 -0.06 -0.66c 0 -0.45 0 -0.63 0.15 -1.08c 0.24 -0.78 0.75 -1.53 1.44 -2.22c 1.2 -1.2 2.85 -2.01 4.47 -2.22z"></path><line x1="215.02" x2="215.02" y1="323.99" y2="291.9" stroke="currentColor" stroke-width="0.6" class="abcjs-stem" data-name="stem"></line></g><g class="" fill="currentColor" stroke="none" data-name="bar"><line x1="235.46" x2="235.46" y1="310.5" y2="279.5" stroke="currentColor" stroke-width="0.6" data-name="bar"></line></g><g class="" fill="currentColor" stroke="none" data-name="note"><path data-name="d" d="M 258.31991660308836 283.2035698138821c 0.36 -0.03 1.2 0 1.53 0.06c 1.17 0.24 1.89 0.84 2.16 1.83c 0.06 0.18 0.06 0.3 0.06 0.66c 0 0.45 0 0.63 -0.15 1.08c -0.66 2.04 -3.06 3.93 -5.52 4.38c -0.54 0.09 -1.44 0.09 -1.83 0.03c -1.23 -0.27 -1.98 -0.87 -2.25 -1.86c -0.06 -0.18 -0.06 -0.3 -0.06 -0.66c 0 -0.45 0 -0.63 0.15 -1.08c 0.24 -0.78 0.75 -1.53 1.44 -2.22c 1.2 -1.2 2.85 -2.01 4.47 -2.22z"></path><text stroke="none" font-size="16" font-style="normal" font-family="&quot;Courier New&quot;" font-weight="normal" text-decoration="none" class="" text-anchor="middle" x="257.13" y="245.58" data-name="chord"><tspan x="257.13">D</tspan></text><line x1="252.53" x2="252.53" y1="316.32" y2="288.03" stroke="currentColor" stroke-width="0.6" class="abcjs-stem" data-name="stem"></line></g><g class="" fill="currentColor" stroke="none" data-name="note"><path data-name="d" d="M 278.759789574377 283.2035698138821c 0.36 -0.03 1.2 0 1.53 0.06c 1.17 0.24 1.89 0.84 2.16 1.83c 0.06 0.18 0.06 0.3 0.06 0.66c 0 0.45 0 0.63 -0.15 1.08c -0.66 2.04 -3.06 3.93 -5.52 4.38c -0.54 0.09 -1.44 0.09 -1.83 0.03c -1.23 -0.27 -1.98 -0.87 -2.25 -1.86c -0.06 -0.18 -0.06 -0.3 -0.06 -0.66c 0 -0.45 0 -0.63 0.15 -1.08c 0.24 -0.78 0.75 -1.53 1.44 -2.22c 1.2 -1.2 2.85 -2.01 4.47 -2.22z"></path><line x1="272.97" x2="272.97" y1="313.76" y2="288.03" stroke="currentColor" stroke-width="0.6" class="abcjs-stem" data-name="stem"></line></g><g class="" fill="currentColor" stroke="none" data-name="note"><path data-name="e" d="M 299.19966254566566 279.3285698138821c 0.36 -0.03 1.2 0 1.53 0.06c 1.17 0.24 1.89 0.84 2.16 1.83c 0.06 0.18 0.06 0.3 0.06 0.66c 0 0.45 0 0.63 -0.15 1.08c -0.66 2.04 -3.06 3.93 -5.52 4.38c -0.54 0.09 -1.44 0.09 -1.83 0.03c -1.23 -0.27 -1.98 -0.87 -2.25 -1.86c -0.06 -0.18 -0.06 -0.3 -0.06 -0.66c 0 -0.45 0 -0.63 0.15 -1.08c 0.24 -0.78 0.75 -1.53 1.44 -2.22c 1.2 -1.2 2.85 -2.01 4.47 -2.22z"></path><line x1="293.41" x2="293.41" y1="311.2" y2="284.15" stroke="currentColor" stroke-width="0.6" class="abcjs-stem" data-name="stem"></line></g><g class="" fill="currentColor" stroke="none" data-name="note"><path data-name="g" d="M 319.6395355169543 271.5785698138821c 0.36 -0.03 1.2 0 1.53 0.06c 1.17 0.24 1.89 0.84 2.16 1.83c 0.06 0.18 0.06 0.3 0.06 0.66c 0 0.45 0 0.63 -0.15 1.08c -0.66 2.04 -3.06 3.93 -5.52 4.38c -0.54 0.09 -1.44 0.09 -1.83 0.03c -1.23 -0.27 -1.98 -0.87 -2.25 -1.86c -0.06 -0.18 -0.06 -0.3 -0.06 -0.66c 0 -0.45 0 -0.63 0.15 -1.08c 0.24 -0.78 0.75 -1.53 1.44 -2.22c 1.2 -1.2 2.85 -2.01 4.47 -2.22z"></path><line x1="313.85" x2="313.85" y1="308.64" y2="276.4" stroke="currentColor" stroke-width="0.6" class="abcjs-stem" data-name="stem"></line></g><g class="" fill="currentColor" stroke="none" data-name="note"><path data-name="f" d="M 340.07940848824296 275.4535698138821c 0.36 -0.03 1.2 0 1.53 0.06c 1.17 0.24 1.89 0.84 2.16 1.83c 0.06 0.18 0.06 0.3 0.06 0.66c 0 0.45 0 0.63 -0.15 1.08c -0.66 2.04 -3.06 3.93 -5.52 4.38c -0.54 0.09 -1.44 0.09 -1.83 0.03c -1.23 -0.27 -1.98 -0.87 -2.25 -1.86c -0.06 -0.18 -0.06 -0.3 -0.06 -0.66c 0 -0.45 0 -0.63 0.15 -1.08c 0.24 -0.78 0.75 -1.53 1.44 -2.22c 1.2 -1.2 2.85 -2.01 4.47 -2.22z"></path><line x1="334.29" x2="334.29" y1="312.44" y2="280.28" stroke="currentColor" stroke-width="0.6" class="abcjs-stem" data-name="stem"></line></g><g class="" fill="currentColor" stroke="none" data-name="note"><path data-name="d" d="M 360.5192814595316 283.2035698138821c 0.36 -0.03 1.2 0 1.53 0.06c 1.17 0.24 1.89 0.84 2.16 1.83c 0.06 0.18 0.06 0.3 0.06 0.66c 0 0.45 0 0.63 -0.15 1.08c -0.66 2.04 -3.06 3.93 -5.52 4.38c -0.54 0.09 -1.44 0.09 -1.83 0.03c -1.23 -0.27 -1.98 -0.87 -2.25 -1.86c -0.06 -0.18 -0.06 -0.3 -0.06 -0.66c 0 -0.45 0 -0.63 0.15 -1.08c 0.24 -0.78 0.75 -1.53 1.44 -2.22c 1.2 -1.2 2.85 -2.01 4.47 -2.22z"></path><line x1="354.73" x2="354.73" y1="316.21" y2="288.03" stroke="currentColor" stroke-width="0.6" class="abcjs-stem" data-name="stem"></line></g><g class="" fill="currentColor" stroke="none" data-name="note"><path data-name="d" d="M 380.95915443082026 283.2035698138821c 0.36 -0.03 1.2 0 1.53 0.06c 1.17 0.24 1.89 0.84 2.16 1.83c 0.06 0.18 0.06 0.3 0.06 0.66c 0 0.45 0 0.63 -0.15 1.08c -0.66 2.04 -3.06 3.93 -5.52 4.38c -0.54 0.09 -1.44 0.09 -1.83 0.03c -1.23 -0.27 -1.98 -0.87 -2.25 -1.86c -0.06 -0.18 -0.06 -0.3 -0.06 -0.66c 0 -0.45 0 -0.63 0.15 -1.08c 0.24 -0.78 0.75 -1.53 1.44 -2.22c 1.2 -1.2 2.85 -2.01 4.47 -2.22z"></path><path data-name="f" d="M 380.95915443082026 275.4535698138821c 0.36 -0.03 1.2 0 1.53 0.06c 1.17 0.24 1.89 0.84 2.16 1.83c 0.06 0.18 0.06 0.3 0.06 0.66c 0 0.45 0 0.63 -0.15 1.08c -0.66 2.04 -3.06 3.93 -5.52 4.38c -0.54 0.09 -1.44 0.09 -1.83 0.03c -1.23 -0.27 -1.98 -0.87 -2.25 -1.86c -0.06 -0.18 -0.06 -0.3 -0.06 -0.66c 0 -0.45 0 -0.63 0.15 -1.08c 0.24 -0.78 0.75 -1.53 1.44 -2.22c 1.2 -1.2 2.85 -2.01 4.47 -2.22z"></path><line x1="375.37" x2="375.37" y1="314.38" y2="280.8" stroke="currentColor" stroke-width="1" class="abcjs-stem" data-name="stem"></line></g><g class="" fill="currentColor" stroke="none" data-name="bar"><line x1="404.08" x2="404.08" y1="310.5" y2="279.5" stroke="currentColor" stroke-width="0.6" data-name="bar"></line></g><g class="" fill="currentColor" stroke="none" data-name="note"><path data-name="flags.d8th" d="M 426.51216660308836 296.6235698138821c 0.24 -0.12 0.54 -0.06 0.69 0.15c 0.06 0.06 0.21 0.36 0.39 0.66c 0.84 1.77 1.26 3.36 1.32 5.1c 0.03 1.29 -0.21 2.37 -0.81 3.63c -0.6 1.23 -1.26 2.13 -3.21 4.38c -1.35 1.53 -1.86 2.19 -2.4 2.97c -0.63 0.93 -1.11 1.92 -1.38 2.79c -0.15 0.54 -0.27 1.35 -0.27 1.8l 0 0.15l -0.21 0l -0.21 0l 0 -3.75l 0 -3.75l 0.21 0l 0.21 0l 0.48 -0.3c 1.83 -1.11 3.12 -2.1 4.17 -3.12c 0.78 -0.81 1.32 -1.53 1.71 -2.31c 0.45 -0.93 0.6 -1.74 0.51 -2.88c -0.12 -1.56 -0.63 -3.18 -1.47 -4.68c -0.12 -0.21 -0.15 -0.33 -0.06 -0.51c 0.06 -0.15 0.15 -0.24 0.33 -0.33z"></path><path data-name="c" d="M 426.9321666030883 287.0785698138821c 0.36 -0.03 1.2 0 1.53 0.06c 1.17 0.24 1.89 0.84 2.16 1.83c 0.06 0.18 0.06 0.3 0.06 0.66c 0 0.45 0 0.63 -0.15 1.08c -0.66 2.04 -3.06 3.93 -5.52 4.38c -0.54 0.09 -1.44 0.09 -1.83 0.03c -1.23 -0.27 -1.98 -0.87 -2.25 -1.86c -0.06 -0.18 -0.06 -0.3 -0.06 -0.66c 0 -0.45 0 -0.63 0.15 -1.08c 0.24 -0.78 0.75 -1.53 1.44 -2.22c 1.2 -1.2 2.85 -2.01 4.47 -2.22z"></path><line x1="421.34" x2="421.34" y1="318.25" y2="292.42" stroke="currentColor" stroke-width="1" class="abcjs-stem" data-name="stem"></line><text stroke="none" font-size="16" font-style="normal" font-family="&quot;Courier New&quot;" font-weight="normal" text-decoration="none" class="" text-anchor="middle" x="425.75" y="245.58" data-name="chord"><tspan x="425.75">A</tspan></text></g><g class="" fill="currentColor" stroke="none" data-name="note"><path data-name="e" d="M 447.37203957437697 279.3285698138821c 0.36 -0.03 1.2 0 1.53 0.06c 1.17 0.24 1.89 0.84 2.16 1.83c 0.06 0.18 0.06 0.3 0.06 0.66c 0 0.45 0 0.63 -0.15 1.08c -0.66 2.04 -3.06 3.93 -5.52 4.38c -0.54 0.09 -1.44 0.09 -1.83 0.03c -1.23 -0.27 -1.98 -0.87 -2.25 -1.86c -0.06 -0.18 -0.06 -0.3 -0.06 -0.66c 0 -0.45 0 -0.63 0.15 -1.08c 0.24 -0.78 0.75 -1.53 1.44 -2.22c 1.2 -1.2 2.85 -2.01 4.47 -2.22z"></path><line x1="441.78" x2="441.78" y1="310.5" y2="284.67" stroke="currentColor" stroke-width="1" class="abcjs-stem" data-name="stem"></line></g><g class="" fill="currentColor" stroke="none" data-name="note"><path data-name="flags.d8th" d="M 475.8583851435567 284.9985698138821c 0.24 -0.12 0.54 -0.06 0.69 0.15c 0.06 0.06 0.21 0.36 0.39 0.66c 0.84 1.77 1.26 3.36 1.32 5.1c 0.03 1.29 -0.21 2.37 -0.81 3.63c -0.6 1.23 -1.26 2.13 -3.21 4.38c -1.35 1.53 -1.86 2.19 -2.4 2.97c -0.63 0.93 -1.11 1.92 -1.38 2.79c -0.15 0.54 -0.27 1.35 -0.27 1.8l 0 0.15l -0.21 0l -0.21 0l 0 -3.75l 0 -3.75l 0.21 0l 0.21 0l 0.48 -0.3c 1.83 -1.11 3.12 -2.1 4.17 -3.12c 0.78 -0.81 1.32 -1.53 1.71 -2.31c 0.45 -0.93 0.6 -1.74 0.51 -2.88c -0.12 -1.56 -0.63 -3.18 -1.47 -4.68c -0.12 -0.21 -0.15 -0.33 -0.06 -0.51c 0.06 -0.15 0.15 -0.24 0.33 -0.33z"></path><path data-name="f" d="M 476.27838514355665 275.4535698138821c 0.36 -0.03 1.2 0 1.53 0.06c 1.17 0.24 1.89 0.84 2.16 1.83c 0.06 0.18 0.06 0.3 0.06 0.66c 0 0.45 0 0.63 -0.15 1.08c -0.66 2.04 -3.06 3.93 -5.52 4.38c -0.54 0.09 -1.44 0.09 -1.83 0.03c -1.23 -0.27 -1.98 -0.87 -2.25 -1.86c -0.06 -0.18 -0.06 -0.3 -0.06 -0.66c 0 -0.45 0 -0.63 0.15 -1.08c 0.24 -0.78 0.75 -1.53 1.44 -2.22c 1.2 -1.2 2.85 -2.01 4.47 -2.22z"></path><line x1="470.69" x2="470.69" y1="306.63" y2="280.8" stroke="currentColor" stroke-width="1" class="abcjs-stem" data-name="stem"></line></g><g class="" fill="currentColor" stroke="none" data-name="note"><path data-name="e" d="M 496.7182581148453 279.3285698138821c 0.36 -0.03 1.2 0 1.53 0.06c 1.17 0.24 1.89 0.84 2.16 1.83c 0.06 0.18 0.06 0.3 0.06 0.66c 0 0.45 0 0.63 -0.15 1.08c -0.66 2.04 -3.06 3.93 -5.52 4.38c -0.54 0.09 -1.44 0.09 -1.83 0.03c -1.23 -0.27 -1.98 -0.87 -2.25 -1.86c -0.06 -0.18 -0.06 -0.3 -0.06 -0.66c 0 -0.45 0 -0.63 0.15 -1.08c 0.24 -0.78 0.75 -1.53 1.44 -2.22c 1.2 -1.2 2.85 -2.01 4.47 -2.22z"></path><line x1="490.93" x2="490.93" y1="316.32" y2="284.15" stroke="currentColor" stroke-width="0.6" class="abcjs-stem" data-name="stem"></line></g><g class="" fill="currentColor" stroke="none" data-name="note"><path data-name="d" d="M 517.158131086134 283.2035698138821c 0.36 -0.03 1.2 0 1.53 0.06c 1.17 0.24 1.89 0.84 2.16 1.83c 0.06 0.18 0.06 0.3 0.06 0.66c 0 0.45 0 0.63 -0.15 1.08c -0.66 2.04 -3.06 3.93 -5.52 4.38c -0.54 0.09 -1.44 0.09 -1.83 0.03c -1.23 -0.27 -1.98 -0.87 -2.25 -1.86c -0.06 -0.18 -0.06 -0.3 -0.06 -0.66c 0 -0.45 0 -0.63 0.15 -1.08c 0.24 -0.78 0.75 -1.53 1.44 -2.22c 1.2 -1.2 2.85 -2.01 4.47 -2.22z"></path><line x1="511.37" x2="511.37" y1="318.87" y2="288.03" stroke="currentColor" stroke-width="0.6" class="abcjs-stem" data-name="stem"></line></g><g class="" fill="currentColor" stroke="none" data-name="note"><path data-name="B" d="M 537.5980040574227 290.9535698138821c 0.36 -0.03 1.2 0 1.53 0.06c 1.17 0.24 1.89 0.84 2.16 1.83c 0.06 0.18 0.06 0.3 0.06 0.66c 0 0.45 0 0.63 -0.15 1.08c -0.66 2.04 -3.06 3.93 -5.52 4.38c -0.54 0.09 -1.44 0.09 -1.83 0.03c -1.23 -0.27 -1.98 -0.87 -2.25 -1.86c -0.06 -0.18 -0.06 -0.3 -0.06 -0.66c 0 -0.45 0 -0.63 0.15 -1.08c 0.24 -0.78 0.75 -1.53 1.44 -2.22c 1.2 -1.2 2.85 -2.01 4.47 -2.22z"></path><line x1="531.81" x2="531.81" y1="321.43" y2="295.78" stroke="currentColor" stroke-width="0.6" class="abcjs-stem" data-name="stem"></line></g><g class="" fill="currentColor" stroke="none" data-name="note"><path data-name="c" d="M 558.0378770287114 287.0785698138821c 0.36 -0.03 1.2 0 1.53 0.06c 1.17 0.24 1.89 0.84 2.16 1.83c 0.06 0.18 0.06 0.3 0.06 0.66c 0 0.45 0 0.63 -0.15 1.08c -0.66 2.04 -3.06 3.93 -5.52 4.38c -0.54 0.09 -1.44 0.09 -1.83 0.03c -1.23 -0.27 -1.98 -0.87 -2.25 -1.86c -0.06 -0.18 -0.06 -0.3 -0.06 -0.66c 0 -0.45 0 -0.63 0.15 -1.08c 0.24 -0.78 0.75 -1.53 1.44 -2.22c 1.2 -1.2 2.85 -2.01 4.47 -2.22z"></path><line x1="552.25" x2="552.25" y1="323.99" y2="291.9" stroke="currentColor" stroke-width="0.6" class="abcjs-stem" data-name="stem"></line></g><g class="" fill="currentColor" stroke="none" data-name="bar"><line x1="572.6899999999999" x2="572.6899999999999" y1="310.5" y2="279.5" stroke="currentColor" stroke-width="0.6" data-name="bar"></line></g><g class="" fill="currentColor" stroke="none" data-name="note"><path data-name="d" d="M 595.5444166030884 283.2035698138821c 0.36 -0.03 1.2 0 1.53 0.06c 1.17 0.24 1.89 0.84 2.16 1.83c 0.06 0.18 0.06 0.3 0.06 0.66c 0 0.45 0 0.63 -0.15 1.08c -0.66 2.04 -3.06 3.93 -5.52 4.38c -0.54 0.09 -1.44 0.09 -1.83 0.03c -1.23 -0.27 -1.98 -0.87 -2.25 -1.86c -0.06 -0.18 -0.06 -0.3 -0.06 -0.66c 0 -0.45 0 -0.63 0.15 -1.08c 0.24 -0.78 0.75 -1.53 1.44 -2.22c 1.2 -1.2 2.85 -2.01 4.47 -2.22z"></path><text stroke="none" font-size="16" font-style="normal" font-family="&quot;Courier New&quot;" font-weight="normal" text-decoration="none" class="" text-anchor="middle" x="594.36" y="245.58" data-name="chord"><tspan x="594.36">D</tspan></text><line x1="598.96" x2="598.96" y1="252.45" y2="286.48" stroke="currentColor" stroke-width="0.6" class="abcjs-stem" data-name="stem"></line></g><g class="" fill="currentColor" stroke="none" data-name="note"><path data-name="B" d="M 615.984289574377 290.9535698138821c 0.36 -0.03 1.2 0 1.53 0.06c 1.17 0.24 1.89 0.84 2.16 1.83c 0.06 0.18 0.06 0.3 0.06 0.66c 0 0.45 0 0.63 -0.15 1.08c -0.66 2.04 -3.06 3.93 -5.52 4.38c -0.54 0.09 -1.44 0.09 -1.83 0.03c -1.23 -0.27 -1.98 -0.87 -2.25 -1.86c -0.06 -0.18 -0.06 -0.3 -0.06 -0.66c 0 -0.45 0 -0.63 0.15 -1.08c 0.24 -0.78 0.75 -1.53 1.44 -2.22c 1.2 -1.2 2.85 -2.01 4.47 -2.22z"></path><line x1="619.4000000000001" x2="619.4000000000001" y1="255.01" y2="294.23" stroke="currentColor" stroke-width="0.6" class="abcjs-stem" data-name="stem"></line></g><g class="" fill="currentColor" stroke="none" data-name="note"><path data-name="A" d="M 636.4241625456657 294.8285698138821c 0.36 -0.03 1.2 0 1.53 0.06c 1.17 0.24 1.89 0.84 2.16 1.83c 0.06 0.18 0.06 0.3 0.06 0.66c 0 0.45 0 0.63 -0.15 1.08c -0.66 2.04 -3.06 3.93 -5.52 4.38c -0.54 0.09 -1.44 0.09 -1.83 0.03c -1.23 -0.27 -1.98 -0.87 -2.25 -1.86c -0.06 -0.18 -0.06 -0.3 -0.06 -0.66c 0 -0.45 0 -0.63 0.15 -1.08c 0.24 -0.78 0.75 -1.53 1.44 -2.22c 1.2 -1.2 2.85 -2.01 4.47 -2.22z"></path><line x1="639.84" x2="639.84" y1="257.57" y2="298.1" stroke="currentColor" stroke-width="0.6" class="abcjs-stem" data-name="stem"></line></g><g class="" fill="currentColor" stroke="none" data-name="note"><path data-name="G" d="M 656.8640355169543 298.7035698138821c 0.36 -0.03 1.2 0 1.53 0.06c 1.17 0.24 1.89 0.84 2.16 1.83c 0.06 0.18 0.06 0.3 0.06 0.66c 0 0.45 0 0.63 -0.15 1.08c -0.66 2.04 -3.06 3.93 -5.52 4.38c -0.54 0.09 -1.44 0.09 -1.83 0.03c -1.23 -0.27 -1.98 -0.87 -2.25 -1.86c -0.06 -0.18 -0.06 -0.3 -0.06 -0.66c 0 -0.45 0 -0.63 0.15 -1.08c 0.24 -0.78 0.75 -1.53 1.44 -2.22c 1.2 -1.2 2.85 -2.01 4.47 -2.22z"></path><line x1="660.2800000000001" x2="660.2800000000001" y1="260.13" y2="301.98" stroke="currentColor" stroke-width="0.6" class="abcjs-stem" data-name="stem"></line></g><g class="" fill="currentColor" stroke="none" data-name="note"><path data-name="F" d="M 677.303908488243 302.5785698138821c 0.36 -0.03 1.2 0 1.53 0.06c 1.17 0.24 1.89 0.84 2.16 1.83c 0.06 0.18 0.06 0.3 0.06 0.66c 0 0.45 0 0.63 -0.15 1.08c -0.66 2.04 -3.06 3.93 -5.52 4.38c -0.54 0.09 -1.44 0.09 -1.83 0.03c -1.23 -0.27 -1.98 -0.87 -2.25 -1.86c -0.06 -0.18 -0.06 -0.3 -0.06 -0.66c 0 -0.45 0 -0.63 0.15 -1.08c 0.24 -0.78 0.75 -1.53 1.44 -2.22c 1.2 -1.2 2.85 -2.01 4.47 -2.22z"></path><line x1="680.72" x2="680.72" y1="275.74" y2="305.85" stroke="currentColor" stroke-width="0.6" class="abcjs-stem" data-name="stem"></line></g><g class="" fill="currentColor" stroke="none" data-name="note"><path data-name="D" d="M 697.7437814595316 310.3285698138821c 0.36 -0.03 1.2 0 1.53 0.06c 1.17 0.24 1.89 0.84 2.16 1.83c 0.06 0.18 0.06 0.3 0.06 0.66c 0 0.45 0 0.63 -0.15 1.08c -0.66 2.04 -3.06 3.93 -5.52 4.38c -0.54 0.09 -1.44 0.09 -1.83 0.03c -1.23 -0.27 -1.98 -0.87 -2.25 -1.86c -0.06 -0.18 -0.06 -0.3 -0.06 -0.66c 0 -0.45 0 -0.63 0.15 -1.08c 0.24 -0.78 0.75 -1.53 1.44 -2.22c 1.2 -1.2 2.85 -2.01 4.47 -2.22z"></path><line x1="701.1600000000001" x2="701.1600000000001" y1="279.5" y2="313.6" stroke="currentColor" stroke-width="0.6" class="abcjs-stem" data-name="stem"></line></g><g class="" fill="currentColor" stroke="none" data-name="note"><path data-name="D" d="M 718.1836544308203 310.3285698138821c 0.36 -0.03 1.2 0 1.53 0.06c 1.17 0.24 1.89 0.84 2.16 1.83c 0.06 0.18 0.06 0.3 0.06 0.66c 0 0.45 0 0.63 -0.15 1.08c -0.66 2.04 -3.06 3.93 -5.52 4.38c -0.54 0.09 -1.44 0.09 -1.83 0.03c -1.23 -0.27 -1.98 -0.87 -2.25 -1.86c -0.06 -0.18 -0.06 -0.3 -0.06 -0.66c 0 -0.45 0 -0.63 0.15 -1.08c 0.24 -0.78 0.75 -1.53 1.44 -2.22c 1.2 -1.2 2.85 -2.01 4.47 -2.22z"></path><line x1="721.4" x2="721.4" y1="287.25" y2="313.09" stroke="currentColor" stroke-width="1" class="abcjs-stem" data-name="stem"></line></g><g class="" fill="currentColor" stroke="none" data-name="bar"><path data-name="dots.dot" d="M 742.32 289.4485698138821c 0.09 -0.03 0.27 -0.06 0.39 -0.06c 0.96 0 1.74 0.78 1.74 1.71c 0 0.96 -0.78 1.74 -1.71 1.74c -0.96 0 -1.74 -0.78 -1.74 -1.71c 0 -0.78 0.54 -1.5 1.32 -1.68z"></path><path data-name="dots.dot" d="M 742.32 297.1985698138821c 0.09 -0.03 0.27 -0.06 0.39 -0.06c 0.96 0 1.74 0.78 1.74 1.71c 0 0.96 -0.78 1.74 -1.71 1.74c -0.96 0 -1.74 -0.78 -1.74 -1.71c 0 -0.78 0.54 -1.5 1.32 -1.68z"></path><line x1="747.3" x2="747.3" y1="310.5" y2="279.5" stroke="currentColor" stroke-width="0.6" data-name="bar"></line><line x1="753" x2="753" y1="310.5" y2="279.5" stroke="currentColor" stroke-width="4" data-name="bar"></line></g><path d="M153.4 318.25 L215.32 326L215.32 322.13 L153.4 314.38z" stroke="none" fill="currentColor" class=""></path><path d="M252.23 318.25 L314.15 310.5L314.15 306.63 L252.23 314.38z" stroke="none" fill="currentColor" class=""></path><path d="M333.99 314.38 L355.03 318.25L355.03 314.38 L333.99 310.5z" stroke="none" fill="currentColor" class=""></path><path d="M490.63 318.25 L552.55 326L552.55 322.13 L490.63 314.38z" stroke="none" fill="currentColor" class=""></path><path d="M598.66 252.38 L660.58 260.13L660.58 264 L598.66 256.25z" stroke="none" fill="currentColor" class=""></path><path d="M680.42 275.63 L701.46 279.5L701.46 283.38 L680.42 279.5z" stroke="none" fill="currentColor" class=""></path></g><g><text stroke="none" font-size="19" font-style="normal" font-family="Times New Roman" font-weight="normal" text-decoration="none" class="" text-anchor="start" x="15" y="366.99" data-name="description"><tspan x="15">Source: Nick Pynn, The Devil's Fiddler (2007)</tspan><tspan x="15" dy="1.2em">Notes: These are the parts for Rye Straw that seem to be compressed by Darol Anger - mostly</tspan><tspan x="15" dy="1.2em">here for my reference.</tspan><tspan x="15" dy="1.2em">Transcription: Cam Cross</tspan><tspan x="15" dy="1.2em"></tspan></text></g></svg>