<?xml version="1.0" standalone="no"?>
<svg xmlns:xlink="http://www.w3.org/1999/xlink" role="img" fill="currentColor" stroke="currentColor" aria-label="Sheet Music for &quot;The Butterfly&quot;" viewBox="0 0 836.5477777567963 683.3869417273708" preserveAspectRatio="xMinYMin meet" style="display: inline-block; position: absolute; top: 0px; left: 0px;" width="1600px" height="1307.0677454473475px" xmlns="http://www.w3.org/2000/svg"><style></style><title>Sheet Music for "The Butterfly"</title><g><text stroke="none" font-size="32" font-style="normal" font-family="&quot;Times New Roman&quot;" font-weight="bold" text-decoration="none" class="" text-anchor="middle" x="418.27" y="54.56" data-name="title"><tspan x="418.27">The Butterfly</tspan></text><text stroke="none" font-size="17" font-style="normal" font-family="Palatino" font-weight="normal" text-decoration="none" class="" text-anchor="start" x="15" y="87.12" data-name="rhythm"><tspan x="15">slipjig</tspan></text><text stroke="none" font-size="17" font-style="italic" font-family="&quot;Times New Roman&quot;" font-weight="normal" text-decoration="none" class="" text-anchor="end" x="821.55" y="87.12" data-name="composer"><tspan x="821.55">Tommy Potts</tspan></text></g><g><g><line x1="15" x2="822.42" y1="157.78700000000003" y2="157.78700000000003" stroke="currentColor" stroke-width="0.7" class="abcjs-top-line"></line><line x1="15" x2="822.42" y1="165.53700000000003" y2="165.53700000000003" stroke="currentColor" stroke-width="0.7"></line><line x1="15" x2="822.42" y1="173.28700000000003" y2="173.28700000000003" stroke="currentColor" stroke-width="0.7"></line><line x1="15" x2="822.42" y1="181.03700000000003" y2="181.03700000000003" stroke="currentColor" stroke-width="0.7"></line><line x1="15" x2="822.42" y1="188.78700000000003" y2="188.78700000000003" stroke="currentColor" stroke-width="0.7"></line></g><g class="" fill="currentColor" stroke="none" data-name="staff-extra clef"><path data-name="clefs.G" d="M 29.689999999999998 143.45200000000003c 0.09 -0.09 0.24 -0.06 0.36 0c 0.12 0.09 0.57 0.6 0.96 1.11c 1.77 2.34 3.21 5.85 3.57 8.73c 0.21 1.56 0.03 3.27 -0.45 4.86c -0.69 2.31 -1.92 4.47 -4.23 7.44c -0.3 0.39 -0.57 0.72 -0.6 0.75c -0.03 0.06 0 0.15 0.18 0.78c 0.54 1.68 1.38 4.44 1.68 5.49l 0.09 0.42l 0.39 0c 1.47 0.09 2.76 0.51 3.96 1.29c 1.83 1.23 3.06 3.21 3.39 5.52c 0.09 0.45 0.12 1.29 0.06 1.74c -0.09 1.02 -0.33 1.83 -0.75 2.73c -0.84 1.71 -2.28 3.06 -4.02 3.72l -0.33 0.12l 0.03 1.26c 0 1.74 -0.06 3.63 -0.21 4.62c -0.45 3.06 -2.19 5.49 -4.47 6.21c -0.57 0.18 -0.9 0.21 -1.59 0.21c -0.69 0 -1.02 -0.03 -1.65 -0.21c -1.14 -0.27 -2.13 -0.84 -2.94 -1.65c -0.99 -0.99 -1.56 -2.16 -1.71 -3.54c -0.09 -0.81 0.06 -1.53 0.45 -2.13c 0.63 -0.99 1.83 -1.56 3 -1.53c 1.5 0.09 2.64 1.32 2.73 2.94c 0.06 1.47 -0.93 2.7 -2.37 2.97c -0.45 0.06 -0.84 0.03 -1.29 -0.09l -0.21 -0.09l 0.09 0.12c 0.39 0.54 0.78 0.93 1.32 1.26c 1.35 0.87 3.06 1.02 4.35 0.36c 1.44 -0.72 2.52 -2.28 2.97 -4.35c 0.15 -0.66 0.24 -1.5 0.3 -3.03c 0.03 -0.84 0.03 -2.94 0 -3c -0.03 0 -0.18 0 -0.36 0.03c -0.66 0.12 -0.99 0.12 -1.83 0.12c -1.05 0 -1.71 -0.06 -2.61 -0.3c -4.02 -0.99 -7.11 -4.35 -7.8 -8.46c -0.12 -0.66 -0.12 -0.99 -0.12 -1.83c 0 -0.84 0 -1.14 0.15 -1.92c 0.36 -2.28 1.41 -4.62 3.3 -7.29l 2.79 -3.6c 0.54 -0.66 0.96 -1.2 0.96 -1.23c 0 -0.03 -0.09 -0.33 -0.18 -0.69c -0.96 -3.21 -1.41 -5.28 -1.59 -7.68c -0.12 -1.38 -0.15 -3.09 -0.06 -3.96c 0.33 -2.67 1.38 -5.07 3.12 -7.08c 0.36 -0.42 0.99 -1.05 1.17 -1.14zm 2.01 4.71c -0.15 -0.3 -0.3 -0.54 -0.3 -0.54c -0.03 0 -0.18 0.09 -0.3 0.21c -2.4 1.74 -3.87 4.2 -4.26 7.11c -0.06 0.54 -0.06 1.41 -0.03 1.89c 0.09 1.29 0.48 3.12 1.08 5.22c 0.15 0.42 0.24 0.78 0.24 0.81c 0 0.03 0.84 -1.11 1.23 -1.68c 1.89 -2.73 2.88 -5.07 3.15 -7.53c 0.09 -0.57 0.12 -1.74 0.06 -2.37c -0.09 -1.23 -0.27 -1.92 -0.87 -3.12zm -2.94 20.7c -0.21 -0.72 -0.39 -1.32 -0.42 -1.32c 0 0 -1.2 1.47 -1.86 2.37c -2.79 3.63 -4.02 6.3 -4.35 9.3c -0.03 0.21 -0.03 0.69 -0.03 1.08c 0 0.69 0 0.75 0.06 1.11c 0.12 0.54 0.27 0.99 0.51 1.47c 0.69 1.38 1.83 2.55 3.42 3.42c 0.96 0.54 2.07 0.9 3.21 1.08c 0.78 0.12 2.04 0.12 2.94 -0.03c 0.51 -0.06 0.45 -0.03 0.42 -0.3c -0.24 -3.33 -0.72 -6.33 -1.62 -10.08c -0.09 -0.39 -0.18 -0.75 -0.18 -0.78c -0.03 -0.03 -0.42 0 -0.81 0.09c -0.9 0.18 -1.65 0.57 -2.22 1.14c -0.72 0.72 -1.08 1.65 -1.05 2.64c 0.06 0.96 0.48 1.83 1.23 2.58c 0.36 0.36 0.72 0.63 1.17 0.9c 0.33 0.18 0.36 0.21 0.42 0.33c 0.18 0.42 -0.18 0.9 -0.6 0.87c -0.18 -0.03 -0.84 -0.36 -1.26 -0.63c -0.78 -0.51 -1.38 -1.11 -1.86 -1.83c -1.77 -2.7 -0.99 -6.42 1.71 -8.19c 0.3 -0.21 0.81 -0.48 1.17 -0.63c 0.3 -0.09 1.02 -0.3 1.14 -0.3c 0.06 0 0.09 0 0.09 -0.03c 0.03 -0.03 -0.51 -1.92 -1.23 -4.26zm 3.78 7.41c -0.18 -0.03 -0.36 -0.06 -0.39 -0.06c -0.03 0 0 0.21 0.18 1.02c 0.75 3.18 1.26 6.3 1.5 9.09c 0.06 0.72 0 0.69 0.51 0.42c 0.78 -0.36 1.44 -0.96 1.98 -1.77c 1.08 -1.62 1.2 -3.69 0.3 -5.55c -0.81 -1.62 -2.31 -2.79 -4.08 -3.15z"></path></g><g class="" fill="currentColor" stroke="none" data-name="staff-extra key-signature"><path data-name="accidentals.sharp" d="M 54.781000000000006 146.42200000000003c 0.21 -0.12 0.54 -0.03 0.66 0.24c 0.06 0.12 0.06 0.21 0.06 2.31c 0 1.23 0 2.22 0.03 2.22c 0 0 0.27 -0.12 0.6 -0.24c 0.69 -0.27 0.78 -0.3 0.96 -0.15c 0.21 0.15 0.21 0.18 0.21 1.38c 0 1.02 0 1.11 -0.06 1.2c -0.03 0.06 -0.09 0.12 -0.12 0.15c -0.06 0.03 -0.42 0.21 -0.84 0.36l -0.75 0.33l -0.03 2.43c 0 1.32 0 2.43 0.03 2.43c 0 0 0.27 -0.12 0.6 -0.24c 0.69 -0.27 0.78 -0.3 0.96 -0.15c 0.21 0.15 0.21 0.18 0.21 1.38c 0 1.02 0 1.11 -0.06 1.2c -0.03 0.06 -0.09 0.12 -0.12 0.15c -0.06 0.03 -0.42 0.21 -0.84 0.36l -0.75 0.33l -0.03 2.52c 0 2.28 -0.03 2.55 -0.06 2.64c -0.21 0.36 -0.72 0.36 -0.93 0c -0.03 -0.09 -0.06 -0.33 -0.06 -2.43l 0 -2.31l -1.29 0.51l -1.26 0.51l 0 2.43c 0 2.58 0 2.52 -0.15 2.67c -0.06 0.09 -0.27 0.18 -0.36 0.18c -0.12 0 -0.33 -0.09 -0.39 -0.18c -0.15 -0.15 -0.15 -0.09 -0.15 -2.43c 0 -1.23 0 -2.22 -0.03 -2.22c 0 0 -0.27 0.12 -0.6 0.24c -0.69 0.27 -0.78 0.3 -0.96 0.15c -0.21 -0.15 -0.21 -0.18 -0.21 -1.38c 0 -1.02 0 -1.11 0.06 -1.2c 0.03 -0.06 0.09 -0.12 0.12 -0.15c 0.06 -0.03 0.42 -0.21 0.84 -0.36l 0.78 -0.33l 0 -2.43c 0 -1.32 0 -2.43 -0.03 -2.43c 0 0 -0.27 0.12 -0.6 0.24c -0.69 0.27 -0.78 0.3 -0.96 0.15c -0.21 -0.15 -0.21 -0.18 -0.21 -1.38c 0 -1.02 0 -1.11 0.06 -1.2c 0.03 -0.06 0.09 -0.12 0.12 -0.15c 0.06 -0.03 0.42 -0.21 0.84 -0.36l 0.78 -0.33l 0 -2.52c 0 -2.28 0.03 -2.55 0.06 -2.64c 0.21 -0.36 0.72 -0.36 0.93 0c 0.03 0.09 0.06 0.33 0.06 2.43l 0.03 2.31l 1.26 -0.51l 1.26 -0.51l 0 -2.43c 0 -2.28 0 -2.43 0.06 -2.55c 0.06 -0.12 0.12 -0.18 0.27 -0.24zm -0.33 10.65l 0 -2.43l -1.29 0.51l -1.26 0.51l 0 2.46l 0 2.43l 0.09 -0.03c 0.06 -0.03 0.63 -0.27 1.29 -0.51l 1.17 -0.48l 0 -2.46z"></path></g><g class="" fill="currentColor" stroke="none" data-name="staff-extra time-signature"><path data-name="9" d="M 72.01450000000001 158.14200000000002c 0.42 -0.03 1.29 0 1.62 0.06c 0.51 0.12 0.93 0.3 1.38 0.57c 1.53 1.02 2.52 3.24 2.73 5.94c 0.18 2.55 -0.48 4.98 -1.83 6.57c -1.05 1.26 -2.4 1.89 -3.93 1.83c -1.23 -0.06 -2.31 -0.45 -3.03 -1.14c -0.57 -0.51 -0.87 -1.23 -0.84 -1.98c 0.03 -0.51 0.21 -0.9 0.6 -1.26c 0.24 -0.24 0.45 -0.39 0.75 -0.51c 0.21 -0.06 0.27 -0.06 0.6 -0.06c 0.33 0 0.39 0 0.6 0.06c 0.3 0.12 0.51 0.27 0.75 0.51c 0.39 0.36 0.57 0.78 0.57 1.26c 0 0.27 0 0.3 -0.09 0.42c -0.03 0.09 -0.18 0.21 -0.3 0.3c -0.12 0.09 -0.3 0.21 -0.39 0.27c -0.09 0.06 -0.21 0.18 -0.27 0.24c -0.06 0.12 -0.06 0.15 -0.06 0.33c 0 0.18 0 0.24 0.06 0.36c 0.24 0.39 0.75 0.6 1.38 0.57c 0.54 -0.03 0.9 -0.18 1.23 -0.48c 0.81 -0.72 1.08 -2.16 0.96 -5.37l 0 -0.63l -0.3 0.12c -0.78 0.27 -1.29 0.33 -2.1 0.27c -1.47 -0.12 -2.49 -0.54 -3.27 -1.29c -0.48 -0.51 -0.81 -1.11 -0.96 -1.89c -0.06 -0.27 -0.06 -0.42 -0.06 -0.96c 0 -0.51 0 -0.66 0.06 -0.93c 0.15 -0.78 0.48 -1.38 0.96 -1.89c 0.15 -0.12 0.33 -0.27 0.42 -0.36c 0.69 -0.51 1.62 -0.81 2.76 -0.93zm 1.17 0.66c -0.21 -0.06 -0.57 -0.06 -0.81 -0.03c -0.78 0.12 -1.26 0.69 -1.41 1.74c -0.12 0.63 -0.15 1.95 -0.09 2.79c 0.12 1.71 0.63 2.4 1.77 2.46c 1.08 0.03 1.62 -0.48 1.8 -1.74c 0.06 -0.54 0.06 -3 0 -3.54c -0.15 -1.05 -0.51 -1.53 -1.26 -1.68z"></path><path data-name="8" d="M 72.281 173.64200000000002c 0.33 -0.03 1.02 -0.03 1.32 0c 1.32 0.12 2.49 0.6 3.21 1.32c 0.39 0.39 0.66 0.81 0.78 1.29c 0.09 0.36 0.09 1.08 0 1.44c -0.21 0.84 -0.66 1.59 -1.59 2.55l -0.3 0.3l 0.27 0.18c 1.47 0.93 2.31 2.31 2.25 3.75c -0.03 0.75 -0.24 1.35 -0.63 1.95c -0.45 0.66 -1.02 1.14 -1.83 1.53c -1.8 0.87 -4.2 0.87 -6 0.03c -1.62 -0.78 -2.52 -2.16 -2.46 -3.66c 0.06 -0.99 0.54 -1.77 1.8 -2.97c 0.54 -0.51 0.54 -0.54 0.48 -0.57c -0.39 -0.27 -0.96 -0.78 -1.2 -1.14c -0.75 -1.11 -0.87 -2.4 -0.3 -3.6c 0.69 -1.35 2.25 -2.25 4.2 -2.4zm 1.53 0.69c -0.42 -0.09 -1.11 -0.12 -1.38 -0.06c -0.3 0.06 -0.6 0.18 -0.81 0.3c -0.21 0.12 -0.6 0.51 -0.72 0.72c -0.51 0.87 -0.42 1.89 0.21 2.52c 0.21 0.21 0.36 0.3 1.95 1.23c 0.96 0.54 1.74 0.99 1.77 1.02c 0.09 0 0.63 -0.6 0.99 -1.11c 0.21 -0.36 0.48 -0.87 0.57 -1.23c 0.06 -0.24 0.06 -0.36 0.06 -0.72c 0 -0.45 -0.03 -0.66 -0.15 -0.99c -0.39 -0.81 -1.29 -1.44 -2.49 -1.68zm -1.44 8.07l -1.89 -1.08c -0.03 0 -0.18 0.15 -0.39 0.33c -1.2 1.08 -1.65 1.95 -1.59 3c 0.09 1.59 1.35 2.85 3.21 3.24c 0.33 0.06 0.45 0.06 0.93 0.06c 0.63 0 0.81 -0.03 1.29 -0.27c 0.9 -0.42 1.47 -1.41 1.41 -2.4c -0.06 -0.66 -0.39 -1.29 -0.9 -1.65c -0.12 -0.09 -1.05 -0.63 -2.07 -1.23z"></path></g><g class="" fill="currentColor" stroke="none" data-name="part"><text stroke="none" font-size="17" font-style="normal" font-family="Helvetica" font-weight="normal" text-decoration="none" class="" text-anchor="start" x="88.23" y="115.68" data-name="A-part"><tspan x="88.23">A-part</tspan></text></g><g class="" fill="currentColor" stroke="none" data-name="note"><path data-name="B" d="M 105.41700038146973 169.062c 0.36 -0.03 1.2 0 1.53 0.06c 1.17 0.24 1.89 0.84 2.16 1.83c 0.06 0.18 0.06 0.3 0.06 0.66c 0 0.45 0 0.63 -0.15 1.08c -0.66 2.04 -3.06 3.93 -5.52 4.38c -0.54 0.09 -1.44 0.09 -1.83 0.03c -1.23 -0.27 -1.98 -0.87 -2.25 -1.86c -0.06 -0.18 -0.06 -0.3 -0.06 -0.66c 0 -0.45 0 -0.63 0.15 -1.08c 0.24 -0.78 0.75 -1.53 1.44 -2.22c 1.2 -1.2 2.85 -2.01 4.47 -2.22z"></path><line x1="99.83" x2="99.83" y1="200.24" y2="173.11" stroke="currentColor" stroke-width="1" class="abcjs-stem" data-name="stem"></line><text stroke="none" font-size="16" font-style="normal" font-family="&quot;Courier New&quot;" font-weight="normal" text-decoration="none" class="" text-anchor="middle" x="104.23" y="136.56" data-name="chord"><tspan x="104.23">Em</tspan></text></g><g class="" fill="currentColor" stroke="none" data-name="note"><path data-name="flags.u8th" d="M 138.7521946283486 165.23700000000002l 0 -3.75l 0.21 0l 0.21 0l 0 0.18c 0 0.3 0.06 0.84 0.12 1.23c 0.24 1.53 0.9 3.12 2.13 5.16l 0.99 1.59c 0.87 1.44 1.38 2.34 1.77 3.09c 0.81 1.68 1.2 3.06 1.26 4.53c 0.03 1.53 -0.21 3.27 -0.75 5.01c -0.21 0.69 -0.51 1.5 -0.6 1.59c -0.09 0.12 -0.27 0.21 -0.42 0.21c -0.15 0 -0.42 -0.12 -0.51 -0.21c -0.15 -0.18 -0.18 -0.42 -0.09 -0.66c 0.15 -0.33 0.45 -1.2 0.57 -1.62c 0.42 -1.38 0.6 -2.58 0.6 -3.9c 0 -0.66 0 -0.81 -0.06 -1.11c -0.39 -2.07 -1.8 -4.26 -4.59 -7.14l -0.42 -0.45l -0.21 0l -0.21 0l 0 -3.75z"></path><path data-name="E" d="M 136.0521946283486 184.562c 0.36 -0.03 1.2 0 1.53 0.06c 1.17 0.24 1.89 0.84 2.16 1.83c 0.06 0.18 0.06 0.3 0.06 0.66c 0 0.45 0 0.63 -0.15 1.08c -0.66 2.04 -3.06 3.93 -5.52 4.38c -0.54 0.09 -1.44 0.09 -1.83 0.03c -1.23 -0.27 -1.98 -0.87 -2.25 -1.86c -0.06 -0.18 -0.06 -0.3 -0.06 -0.66c 0 -0.45 0 -0.63 0.15 -1.08c 0.24 -0.78 0.75 -1.53 1.44 -2.22c 1.2 -1.2 2.85 -2.01 4.47 -2.22z"></path><line x1="139.27" x2="139.27" y1="161.49" y2="187.32" stroke="currentColor" stroke-width="1" class="abcjs-stem" data-name="stem"></line></g><g class="" fill="currentColor" stroke="none" data-name="note"><path data-name="G" d="M 157.7145482232837 176.812c 0.36 -0.03 1.2 0 1.53 0.06c 1.17 0.24 1.89 0.84 2.16 1.83c 0.06 0.18 0.06 0.3 0.06 0.66c 0 0.45 0 0.63 -0.15 1.08c -0.66 2.04 -3.06 3.93 -5.52 4.38c -0.54 0.09 -1.44 0.09 -1.83 0.03c -1.23 -0.27 -1.98 -0.87 -2.25 -1.86c -0.06 -0.18 -0.06 -0.3 -0.06 -0.66c 0 -0.45 0 -0.63 0.15 -1.08c 0.24 -0.78 0.75 -1.53 1.44 -2.22c 1.2 -1.2 2.85 -2.01 4.47 -2.22z"></path><line x1="160.93" x2="160.93" y1="153.74" y2="179.57" stroke="currentColor" stroke-width="1" class="abcjs-stem" data-name="stem"></line></g><g class="" fill="currentColor" stroke="none" data-name="note"><path data-name="flags.u8th" d="M 191.04974247016258 165.23700000000002l 0 -3.75l 0.21 0l 0.21 0l 0 0.18c 0 0.3 0.06 0.84 0.12 1.23c 0.24 1.53 0.9 3.12 2.13 5.16l 0.99 1.59c 0.87 1.44 1.38 2.34 1.77 3.09c 0.81 1.68 1.2 3.06 1.26 4.53c 0.03 1.53 -0.21 3.27 -0.75 5.01c -0.21 0.69 -0.51 1.5 -0.6 1.59c -0.09 0.12 -0.27 0.21 -0.42 0.21c -0.15 0 -0.42 -0.12 -0.51 -0.21c -0.15 -0.18 -0.18 -0.42 -0.09 -0.66c 0.15 -0.33 0.45 -1.2 0.57 -1.62c 0.42 -1.38 0.6 -2.58 0.6 -3.9c 0 -0.66 0 -0.81 -0.06 -1.11c -0.39 -2.07 -1.8 -4.26 -4.59 -7.14l -0.42 -0.45l -0.21 0l -0.21 0l 0 -3.75z"></path><path data-name="E" d="M 188.34974247016257 184.562c 0.36 -0.03 1.2 0 1.53 0.06c 1.17 0.24 1.89 0.84 2.16 1.83c 0.06 0.18 0.06 0.3 0.06 0.66c 0 0.45 0 0.63 -0.15 1.08c -0.66 2.04 -3.06 3.93 -5.52 4.38c -0.54 0.09 -1.44 0.09 -1.83 0.03c -1.23 -0.27 -1.98 -0.87 -2.25 -1.86c -0.06 -0.18 -0.06 -0.3 -0.06 -0.66c 0 -0.45 0 -0.63 0.15 -1.08c 0.24 -0.78 0.75 -1.53 1.44 -2.22c 1.2 -1.2 2.85 -2.01 4.47 -2.22z"></path><line x1="191.57" x2="191.57" y1="161.49" y2="187.32" stroke="currentColor" stroke-width="1" class="abcjs-stem" data-name="stem"></line></g><g class="" fill="currentColor" stroke="none" data-name="note"><path data-name="dots.dot" d="M 219.5917426608974 183.05700000000002c 0.09 -0.03 0.27 -0.06 0.39 -0.06c 0.96 0 1.74 0.78 1.74 1.71c 0 0.96 -0.78 1.74 -1.71 1.74c -0.96 0 -1.74 -0.78 -1.74 -1.71c 0 -0.78 0.54 -1.5 1.32 -1.68z"></path><path data-name="F" d="M 211.55174266089742 180.687c 0.36 -0.03 1.2 0 1.53 0.06c 1.17 0.24 1.89 0.84 2.16 1.83c 0.06 0.18 0.06 0.3 0.06 0.66c 0 0.45 0 0.63 -0.15 1.08c -0.66 2.04 -3.06 3.93 -5.52 4.38c -0.54 0.09 -1.44 0.09 -1.83 0.03c -1.23 -0.27 -1.98 -0.87 -2.25 -1.86c -0.06 -0.18 -0.06 -0.3 -0.06 -0.66c 0 -0.45 0 -0.63 0.15 -1.08c 0.24 -0.78 0.75 -1.53 1.44 -2.22c 1.2 -1.2 2.85 -2.01 4.47 -2.22z"></path><line x1="214.77" x2="214.77" y1="157.61" y2="183.45" stroke="currentColor" stroke-width="1" class="abcjs-stem" data-name="stem"></line><text stroke="none" font-size="16" font-style="normal" font-family="&quot;Courier New&quot;" font-weight="normal" text-decoration="none" class="" text-anchor="middle" x="210.37" y="136.56" data-name="chord"><tspan x="210.37">D</tspan></text></g><g class="" fill="currentColor" stroke="none" data-name="bar"><line x1="243.28" x2="243.28" y1="188.61" y2="157.61" stroke="currentColor" stroke-width="0.6" data-name="bar"></line></g><g class="" fill="currentColor" stroke="none" data-name="note"><path data-name="B" d="M 271.1720400803171 169.062c 0.36 -0.03 1.2 0 1.53 0.06c 1.17 0.24 1.89 0.84 2.16 1.83c 0.06 0.18 0.06 0.3 0.06 0.66c 0 0.45 0 0.63 -0.15 1.08c -0.66 2.04 -3.06 3.93 -5.52 4.38c -0.54 0.09 -1.44 0.09 -1.83 0.03c -1.23 -0.27 -1.98 -0.87 -2.25 -1.86c -0.06 -0.18 -0.06 -0.3 -0.06 -0.66c 0 -0.45 0 -0.63 0.15 -1.08c 0.24 -0.78 0.75 -1.53 1.44 -2.22c 1.2 -1.2 2.85 -2.01 4.47 -2.22z"></path><line x1="265.58" x2="265.58" y1="200.24" y2="173.11" stroke="currentColor" stroke-width="1" class="abcjs-stem" data-name="stem"></line><text stroke="none" font-size="16" font-style="normal" font-family="&quot;Courier New&quot;" font-weight="normal" text-decoration="none" class="" text-anchor="middle" x="269.99" y="136.56" data-name="chord"><tspan x="269.99">Em</tspan></text></g><g class="" fill="currentColor" stroke="none" data-name="note"><path data-name="flags.u8th" d="M 304.50723432719593 165.23700000000002l 0 -3.75l 0.21 0l 0.21 0l 0 0.18c 0 0.3 0.06 0.84 0.12 1.23c 0.24 1.53 0.9 3.12 2.13 5.16l 0.99 1.59c 0.87 1.44 1.38 2.34 1.77 3.09c 0.81 1.68 1.2 3.06 1.26 4.53c 0.03 1.53 -0.21 3.27 -0.75 5.01c -0.21 0.69 -0.51 1.5 -0.6 1.59c -0.09 0.12 -0.27 0.21 -0.42 0.21c -0.15 0 -0.42 -0.12 -0.51 -0.21c -0.15 -0.18 -0.18 -0.42 -0.09 -0.66c 0.15 -0.33 0.45 -1.2 0.57 -1.62c 0.42 -1.38 0.6 -2.58 0.6 -3.9c 0 -0.66 0 -0.81 -0.06 -1.11c -0.39 -2.07 -1.8 -4.26 -4.59 -7.14l -0.42 -0.45l -0.21 0l -0.21 0l 0 -3.75z"></path><path data-name="E" d="M 301.80723432719594 184.562c 0.36 -0.03 1.2 0 1.53 0.06c 1.17 0.24 1.89 0.84 2.16 1.83c 0.06 0.18 0.06 0.3 0.06 0.66c 0 0.45 0 0.63 -0.15 1.08c -0.66 2.04 -3.06 3.93 -5.52 4.38c -0.54 0.09 -1.44 0.09 -1.83 0.03c -1.23 -0.27 -1.98 -0.87 -2.25 -1.86c -0.06 -0.18 -0.06 -0.3 -0.06 -0.66c 0 -0.45 0 -0.63 0.15 -1.08c 0.24 -0.78 0.75 -1.53 1.44 -2.22c 1.2 -1.2 2.85 -2.01 4.47 -2.22z"></path><line x1="305.03" x2="305.03" y1="161.49" y2="187.32" stroke="currentColor" stroke-width="1" class="abcjs-stem" data-name="stem"></line></g><g class="" fill="currentColor" stroke="none" data-name="note"><path data-name="G" d="M 323.4695879221311 176.812c 0.36 -0.03 1.2 0 1.53 0.06c 1.17 0.24 1.89 0.84 2.16 1.83c 0.06 0.18 0.06 0.3 0.06 0.66c 0 0.45 0 0.63 -0.15 1.08c -0.66 2.04 -3.06 3.93 -5.52 4.38c -0.54 0.09 -1.44 0.09 -1.83 0.03c -1.23 -0.27 -1.98 -0.87 -2.25 -1.86c -0.06 -0.18 -0.06 -0.3 -0.06 -0.66c 0 -0.45 0 -0.63 0.15 -1.08c 0.24 -0.78 0.75 -1.53 1.44 -2.22c 1.2 -1.2 2.85 -2.01 4.47 -2.22z"></path><line x1="326.69" x2="326.69" y1="153.74" y2="179.57" stroke="currentColor" stroke-width="1" class="abcjs-stem" data-name="stem"></line></g><g class="" fill="currentColor" stroke="none" data-name="note"><path data-name="flags.u8th" d="M 356.8047821690099 165.23700000000002l 0 -3.75l 0.21 0l 0.21 0l 0 0.18c 0 0.3 0.06 0.84 0.12 1.23c 0.24 1.53 0.9 3.12 2.13 5.16l 0.99 1.59c 0.87 1.44 1.38 2.34 1.77 3.09c 0.81 1.68 1.2 3.06 1.26 4.53c 0.03 1.53 -0.21 3.27 -0.75 5.01c -0.21 0.69 -0.51 1.5 -0.6 1.59c -0.09 0.12 -0.27 0.21 -0.42 0.21c -0.15 0 -0.42 -0.12 -0.51 -0.21c -0.15 -0.18 -0.18 -0.42 -0.09 -0.66c 0.15 -0.33 0.45 -1.2 0.57 -1.62c 0.42 -1.38 0.6 -2.58 0.6 -3.9c 0 -0.66 0 -0.81 -0.06 -1.11c -0.39 -2.07 -1.8 -4.26 -4.59 -7.14l -0.42 -0.45l -0.21 0l -0.21 0l 0 -3.75z"></path><path data-name="E" d="M 354.1047821690099 184.562c 0.36 -0.03 1.2 0 1.53 0.06c 1.17 0.24 1.89 0.84 2.16 1.83c 0.06 0.18 0.06 0.3 0.06 0.66c 0 0.45 0 0.63 -0.15 1.08c -0.66 2.04 -3.06 3.93 -5.52 4.38c -0.54 0.09 -1.44 0.09 -1.83 0.03c -1.23 -0.27 -1.98 -0.87 -2.25 -1.86c -0.06 -0.18 -0.06 -0.3 -0.06 -0.66c 0 -0.45 0 -0.63 0.15 -1.08c 0.24 -0.78 0.75 -1.53 1.44 -2.22c 1.2 -1.2 2.85 -2.01 4.47 -2.22z"></path><line x1="357.32" x2="357.32" y1="161.49" y2="187.32" stroke="currentColor" stroke-width="1" class="abcjs-stem" data-name="stem"></line></g><g class="" fill="currentColor" stroke="none" data-name="note"><path data-name="F" d="M 382.10678255047964 180.687c 0.36 -0.03 1.2 0 1.53 0.06c 1.17 0.24 1.89 0.84 2.16 1.83c 0.06 0.18 0.06 0.3 0.06 0.66c 0 0.45 0 0.63 -0.15 1.08c -0.66 2.04 -3.06 3.93 -5.52 4.38c -0.54 0.09 -1.44 0.09 -1.83 0.03c -1.23 -0.27 -1.98 -0.87 -2.25 -1.86c -0.06 -0.18 -0.06 -0.3 -0.06 -0.66c 0 -0.45 0 -0.63 0.15 -1.08c 0.24 -0.78 0.75 -1.53 1.44 -2.22c 1.2 -1.2 2.85 -2.01 4.47 -2.22z"></path><text stroke="none" font-size="16" font-style="normal" font-family="&quot;Courier New&quot;" font-weight="normal" text-decoration="none" class="" text-anchor="middle" x="380.92" y="136.56" data-name="chord"><tspan x="380.92">Bm</tspan></text><line x1="385.53" x2="385.53" y1="153.79" y2="183.96" stroke="currentColor" stroke-width="0.6" class="abcjs-stem" data-name="stem"></line></g><g class="" fill="currentColor" stroke="none" data-name="note"><path data-name="E" d="M 403.7691361454148 184.562c 0.36 -0.03 1.2 0 1.53 0.06c 1.17 0.24 1.89 0.84 2.16 1.83c 0.06 0.18 0.06 0.3 0.06 0.66c 0 0.45 0 0.63 -0.15 1.08c -0.66 2.04 -3.06 3.93 -5.52 4.38c -0.54 0.09 -1.44 0.09 -1.83 0.03c -1.23 -0.27 -1.98 -0.87 -2.25 -1.86c -0.06 -0.18 -0.06 -0.3 -0.06 -0.66c 0 -0.45 0 -0.63 0.15 -1.08c 0.24 -0.78 0.75 -1.53 1.44 -2.22c 1.2 -1.2 2.85 -2.01 4.47 -2.22z"></path><line x1="407.19" x2="407.19" y1="155.7" y2="187.84" stroke="currentColor" stroke-width="0.6" class="abcjs-stem" data-name="stem"></line></g><g class="" fill="currentColor" stroke="none" data-name="note"><path data-name="D" d="M 425.43148974034995 188.437c 0.36 -0.03 1.2 0 1.53 0.06c 1.17 0.24 1.89 0.84 2.16 1.83c 0.06 0.18 0.06 0.3 0.06 0.66c 0 0.45 0 0.63 -0.15 1.08c -0.66 2.04 -3.06 3.93 -5.52 4.38c -0.54 0.09 -1.44 0.09 -1.83 0.03c -1.23 -0.27 -1.98 -0.87 -2.25 -1.86c -0.06 -0.18 -0.06 -0.3 -0.06 -0.66c 0 -0.45 0 -0.63 0.15 -1.08c 0.24 -0.78 0.75 -1.53 1.44 -2.22c 1.2 -1.2 2.85 -2.01 4.47 -2.22z"></path><line x1="428.84999999999997" x2="428.84999999999997" y1="157.61" y2="191.71" stroke="currentColor" stroke-width="0.6" class="abcjs-stem" data-name="stem"></line></g><g class="" fill="currentColor" stroke="none" data-name="bar"><line x1="441.3" x2="441.3" y1="188.61" y2="157.61" stroke="currentColor" stroke-width="0.6" data-name="bar"></line></g><g class="" fill="currentColor" stroke="none" data-name="note"><path data-name="B" d="M 469.1938437167548 169.062c 0.36 -0.03 1.2 0 1.53 0.06c 1.17 0.24 1.89 0.84 2.16 1.83c 0.06 0.18 0.06 0.3 0.06 0.66c 0 0.45 0 0.63 -0.15 1.08c -0.66 2.04 -3.06 3.93 -5.52 4.38c -0.54 0.09 -1.44 0.09 -1.83 0.03c -1.23 -0.27 -1.98 -0.87 -2.25 -1.86c -0.06 -0.18 -0.06 -0.3 -0.06 -0.66c 0 -0.45 0 -0.63 0.15 -1.08c 0.24 -0.78 0.75 -1.53 1.44 -2.22c 1.2 -1.2 2.85 -2.01 4.47 -2.22z"></path><line x1="463.6" x2="463.6" y1="200.24" y2="173.11" stroke="currentColor" stroke-width="1" class="abcjs-stem" data-name="stem"></line><text stroke="none" font-size="16" font-style="normal" font-family="&quot;Courier New&quot;" font-weight="normal" text-decoration="none" class="" text-anchor="middle" x="468.01" y="136.56" data-name="chord"><tspan x="468.01">Em</tspan></text></g><g class="" fill="currentColor" stroke="none" data-name="note"><path data-name="flags.u8th" d="M 502.52903796363364 165.23700000000002l 0 -3.75l 0.21 0l 0.21 0l 0 0.18c 0 0.3 0.06 0.84 0.12 1.23c 0.24 1.53 0.9 3.12 2.13 5.16l 0.99 1.59c 0.87 1.44 1.38 2.34 1.77 3.09c 0.81 1.68 1.2 3.06 1.26 4.53c 0.03 1.53 -0.21 3.27 -0.75 5.01c -0.21 0.69 -0.51 1.5 -0.6 1.59c -0.09 0.12 -0.27 0.21 -0.42 0.21c -0.15 0 -0.42 -0.12 -0.51 -0.21c -0.15 -0.18 -0.18 -0.42 -0.09 -0.66c 0.15 -0.33 0.45 -1.2 0.57 -1.62c 0.42 -1.38 0.6 -2.58 0.6 -3.9c 0 -0.66 0 -0.81 -0.06 -1.11c -0.39 -2.07 -1.8 -4.26 -4.59 -7.14l -0.42 -0.45l -0.21 0l -0.21 0l 0 -3.75z"></path><path data-name="E" d="M 499.82903796363365 184.562c 0.36 -0.03 1.2 0 1.53 0.06c 1.17 0.24 1.89 0.84 2.16 1.83c 0.06 0.18 0.06 0.3 0.06 0.66c 0 0.45 0 0.63 -0.15 1.08c -0.66 2.04 -3.06 3.93 -5.52 4.38c -0.54 0.09 -1.44 0.09 -1.83 0.03c -1.23 -0.27 -1.98 -0.87 -2.25 -1.86c -0.06 -0.18 -0.06 -0.3 -0.06 -0.66c 0 -0.45 0 -0.63 0.15 -1.08c 0.24 -0.78 0.75 -1.53 1.44 -2.22c 1.2 -1.2 2.85 -2.01 4.47 -2.22z"></path><line x1="503.05" x2="503.05" y1="161.49" y2="187.32" stroke="currentColor" stroke-width="1" class="abcjs-stem" data-name="stem"></line></g><g class="" fill="currentColor" stroke="none" data-name="note"><path data-name="G" d="M 521.4913915585688 176.812c 0.36 -0.03 1.2 0 1.53 0.06c 1.17 0.24 1.89 0.84 2.16 1.83c 0.06 0.18 0.06 0.3 0.06 0.66c 0 0.45 0 0.63 -0.15 1.08c -0.66 2.04 -3.06 3.93 -5.52 4.38c -0.54 0.09 -1.44 0.09 -1.83 0.03c -1.23 -0.27 -1.98 -0.87 -2.25 -1.86c -0.06 -0.18 -0.06 -0.3 -0.06 -0.66c 0 -0.45 0 -0.63 0.15 -1.08c 0.24 -0.78 0.75 -1.53 1.44 -2.22c 1.2 -1.2 2.85 -2.01 4.47 -2.22z"></path><line x1="524.71" x2="524.71" y1="153.74" y2="179.57" stroke="currentColor" stroke-width="1" class="abcjs-stem" data-name="stem"></line></g><g class="" fill="currentColor" stroke="none" data-name="note"><path data-name="flags.u8th" d="M 554.8265858054477 165.23700000000002l 0 -3.75l 0.21 0l 0.21 0l 0 0.18c 0 0.3 0.06 0.84 0.12 1.23c 0.24 1.53 0.9 3.12 2.13 5.16l 0.99 1.59c 0.87 1.44 1.38 2.34 1.77 3.09c 0.81 1.68 1.2 3.06 1.26 4.53c 0.03 1.53 -0.21 3.27 -0.75 5.01c -0.21 0.69 -0.51 1.5 -0.6 1.59c -0.09 0.12 -0.27 0.21 -0.42 0.21c -0.15 0 -0.42 -0.12 -0.51 -0.21c -0.15 -0.18 -0.18 -0.42 -0.09 -0.66c 0.15 -0.33 0.45 -1.2 0.57 -1.62c 0.42 -1.38 0.6 -2.58 0.6 -3.9c 0 -0.66 0 -0.81 -0.06 -1.11c -0.39 -2.07 -1.8 -4.26 -4.59 -7.14l -0.42 -0.45l -0.21 0l -0.21 0l 0 -3.75z"></path><path data-name="E" d="M 552.1265858054477 184.562c 0.36 -0.03 1.2 0 1.53 0.06c 1.17 0.24 1.89 0.84 2.16 1.83c 0.06 0.18 0.06 0.3 0.06 0.66c 0 0.45 0 0.63 -0.15 1.08c -0.66 2.04 -3.06 3.93 -5.52 4.38c -0.54 0.09 -1.44 0.09 -1.83 0.03c -1.23 -0.27 -1.98 -0.87 -2.25 -1.86c -0.06 -0.18 -0.06 -0.3 -0.06 -0.66c 0 -0.45 0 -0.63 0.15 -1.08c 0.24 -0.78 0.75 -1.53 1.44 -2.22c 1.2 -1.2 2.85 -2.01 4.47 -2.22z"></path><line x1="555.35" x2="555.35" y1="161.49" y2="187.32" stroke="currentColor" stroke-width="1" class="abcjs-stem" data-name="stem"></line></g><g class="" fill="currentColor" stroke="none" data-name="note"><path data-name="flags.u8th" d="M 578.0285859961826 165.23700000000002l 0 -3.75l 0.21 0l 0.21 0l 0 0.18c 0 0.3 0.06 0.84 0.12 1.23c 0.24 1.53 0.9 3.12 2.13 5.16l 0.99 1.59c 0.87 1.44 1.38 2.34 1.77 3.09c 0.81 1.68 1.2 3.06 1.26 4.53c 0.03 1.53 -0.21 3.27 -0.75 5.01c -0.21 0.69 -0.51 1.5 -0.6 1.59c -0.09 0.12 -0.27 0.21 -0.42 0.21c -0.15 0 -0.42 -0.12 -0.51 -0.21c -0.15 -0.18 -0.18 -0.42 -0.09 -0.66c 0.15 -0.33 0.45 -1.2 0.57 -1.62c 0.42 -1.38 0.6 -2.58 0.6 -3.9c 0 -0.66 0 -0.81 -0.06 -1.11c -0.39 -2.07 -1.8 -4.26 -4.59 -7.14l -0.42 -0.45l -0.21 0l -0.21 0l 0 -3.75z"></path><path data-name="E" d="M 575.3285859961826 184.562c 0.36 -0.03 1.2 0 1.53 0.06c 1.17 0.24 1.89 0.84 2.16 1.83c 0.06 0.18 0.06 0.3 0.06 0.66c 0 0.45 0 0.63 -0.15 1.08c -0.66 2.04 -3.06 3.93 -5.52 4.38c -0.54 0.09 -1.44 0.09 -1.83 0.03c -1.23 -0.27 -1.98 -0.87 -2.25 -1.86c -0.06 -0.18 -0.06 -0.3 -0.06 -0.66c 0 -0.45 0 -0.63 0.15 -1.08c 0.24 -0.78 0.75 -1.53 1.44 -2.22c 1.2 -1.2 2.85 -2.01 4.47 -2.22z"></path><line x1="578.55" x2="578.55" y1="161.49" y2="187.32" stroke="currentColor" stroke-width="1" class="abcjs-stem" data-name="stem"></line><text stroke="none" font-size="16" font-style="normal" font-family="&quot;Courier New&quot;" font-weight="normal" text-decoration="none" class="" text-anchor="middle" x="574.14" y="136.56" data-name="chord"><tspan x="574.14">D</tspan></text></g><g class="" fill="currentColor" stroke="none" data-name="note"><path data-name="F" d="M 596.9909395911177 180.687c 0.36 -0.03 1.2 0 1.53 0.06c 1.17 0.24 1.89 0.84 2.16 1.83c 0.06 0.18 0.06 0.3 0.06 0.66c 0 0.45 0 0.63 -0.15 1.08c -0.66 2.04 -3.06 3.93 -5.52 4.38c -0.54 0.09 -1.44 0.09 -1.83 0.03c -1.23 -0.27 -1.98 -0.87 -2.25 -1.86c -0.06 -0.18 -0.06 -0.3 -0.06 -0.66c 0 -0.45 0 -0.63 0.15 -1.08c 0.24 -0.78 0.75 -1.53 1.44 -2.22c 1.2 -1.2 2.85 -2.01 4.47 -2.22z"></path><line x1="600.21" x2="600.21" y1="157.61" y2="183.45" stroke="currentColor" stroke-width="1" class="abcjs-stem" data-name="stem"></line></g><g class="" fill="currentColor" stroke="none" data-name="bar"><line x1="621.8399999999999" x2="621.8399999999999" y1="188.61" y2="157.61" stroke="currentColor" stroke-width="0.6" data-name="bar"></line></g><g class="" fill="currentColor" stroke="none" data-name="note"><path data-name="B" d="M 644.9261340287314 169.062c 0.36 -0.03 1.2 0 1.53 0.06c 1.17 0.24 1.89 0.84 2.16 1.83c 0.06 0.18 0.06 0.3 0.06 0.66c 0 0.45 0 0.63 -0.15 1.08c -0.66 2.04 -3.06 3.93 -5.52 4.38c -0.54 0.09 -1.44 0.09 -1.83 0.03c -1.23 -0.27 -1.98 -0.87 -2.25 -1.86c -0.06 -0.18 -0.06 -0.3 -0.06 -0.66c 0 -0.45 0 -0.63 0.15 -1.08c 0.24 -0.78 0.75 -1.53 1.44 -2.22c 1.2 -1.2 2.85 -2.01 4.47 -2.22z"></path><line x1="639.34" x2="639.34" y1="200.24" y2="173.11" stroke="currentColor" stroke-width="1" class="abcjs-stem" data-name="stem"></line><text stroke="none" font-size="16" font-style="normal" font-family="&quot;Courier New&quot;" font-weight="normal" text-decoration="none" class="" text-anchor="middle" x="643.74" y="136.56" data-name="chord"><tspan x="643.74">C</tspan></text></g><g class="" fill="currentColor" stroke="none" data-name="note"><path data-name="flags.d8th" d="M 675.1413282756102 170.85700000000003c 0.24 -0.12 0.54 -0.06 0.69 0.15c 0.06 0.06 0.21 0.36 0.39 0.66c 0.84 1.77 1.26 3.36 1.32 5.1c 0.03 1.29 -0.21 2.37 -0.81 3.63c -0.6 1.23 -1.26 2.13 -3.21 4.38c -1.35 1.53 -1.86 2.19 -2.4 2.97c -0.63 0.93 -1.11 1.92 -1.38 2.79c -0.15 0.54 -0.27 1.35 -0.27 1.8l 0 0.15l -0.21 0l -0.21 0l 0 -3.75l 0 -3.75l 0.21 0l 0.21 0l 0.48 -0.3c 1.83 -1.11 3.12 -2.1 4.17 -3.12c 0.78 -0.81 1.32 -1.53 1.71 -2.31c 0.45 -0.93 0.6 -1.74 0.51 -2.88c -0.12 -1.56 -0.63 -3.18 -1.47 -4.68c -0.12 -0.21 -0.15 -0.33 -0.06 -0.51c 0.06 -0.15 0.15 -0.24 0.33 -0.33z"></path><path data-name="d" d="M 675.5613282756103 161.312c 0.36 -0.03 1.2 0 1.53 0.06c 1.17 0.24 1.89 0.84 2.16 1.83c 0.06 0.18 0.06 0.3 0.06 0.66c 0 0.45 0 0.63 -0.15 1.08c -0.66 2.04 -3.06 3.93 -5.52 4.38c -0.54 0.09 -1.44 0.09 -1.83 0.03c -1.23 -0.27 -1.98 -0.87 -2.25 -1.86c -0.06 -0.18 -0.06 -0.3 -0.06 -0.66c 0 -0.45 0 -0.63 0.15 -1.08c 0.24 -0.78 0.75 -1.53 1.44 -2.22c 1.2 -1.2 2.85 -2.01 4.47 -2.22z"></path><line x1="669.97" x2="669.97" y1="192.49" y2="166.65" stroke="currentColor" stroke-width="1" class="abcjs-stem" data-name="stem"></line></g><g class="" fill="currentColor" stroke="none" data-name="note"><path data-name="d" d="M 697.2236818705454 161.312c 0.36 -0.03 1.2 0 1.53 0.06c 1.17 0.24 1.89 0.84 2.16 1.83c 0.06 0.18 0.06 0.3 0.06 0.66c 0 0.45 0 0.63 -0.15 1.08c -0.66 2.04 -3.06 3.93 -5.52 4.38c -0.54 0.09 -1.44 0.09 -1.83 0.03c -1.23 -0.27 -1.98 -0.87 -2.25 -1.86c -0.06 -0.18 -0.06 -0.3 -0.06 -0.66c 0 -0.45 0 -0.63 0.15 -1.08c 0.24 -0.78 0.75 -1.53 1.44 -2.22c 1.2 -1.2 2.85 -2.01 4.47 -2.22z"></path><line x1="691.63" x2="691.63" y1="192.49" y2="166.65" stroke="currentColor" stroke-width="1" class="abcjs-stem" data-name="stem"></line></g><g class="" fill="currentColor" stroke="none" data-name="note"><path data-name="flags.d8th" d="M 727.4388761174242 178.60700000000003c 0.24 -0.12 0.54 -0.06 0.69 0.15c 0.06 0.06 0.21 0.36 0.39 0.66c 0.84 1.77 1.26 3.36 1.32 5.1c 0.03 1.29 -0.21 2.37 -0.81 3.63c -0.6 1.23 -1.26 2.13 -3.21 4.38c -1.35 1.53 -1.86 2.19 -2.4 2.97c -0.63 0.93 -1.11 1.92 -1.38 2.79c -0.15 0.54 -0.27 1.35 -0.27 1.8l 0 0.15l -0.21 0l -0.21 0l 0 -3.75l 0 -3.75l 0.21 0l 0.21 0l 0.48 -0.3c 1.83 -1.11 3.12 -2.1 4.17 -3.12c 0.78 -0.81 1.32 -1.53 1.71 -2.31c 0.45 -0.93 0.6 -1.74 0.51 -2.88c -0.12 -1.56 -0.63 -3.18 -1.47 -4.68c -0.12 -0.21 -0.15 -0.33 -0.06 -0.51c 0.06 -0.15 0.15 -0.24 0.33 -0.33z"></path><path data-name="B" d="M 727.8588761174243 169.062c 0.36 -0.03 1.2 0 1.53 0.06c 1.17 0.24 1.89 0.84 2.16 1.83c 0.06 0.18 0.06 0.3 0.06 0.66c 0 0.45 0 0.63 -0.15 1.08c -0.66 2.04 -3.06 3.93 -5.52 4.38c -0.54 0.09 -1.44 0.09 -1.83 0.03c -1.23 -0.27 -1.98 -0.87 -2.25 -1.86c -0.06 -0.18 -0.06 -0.3 -0.06 -0.66c 0 -0.45 0 -0.63 0.15 -1.08c 0.24 -0.78 0.75 -1.53 1.44 -2.22c 1.2 -1.2 2.85 -2.01 4.47 -2.22z"></path><line x1="722.27" x2="722.27" y1="200.24" y2="173.11" stroke="currentColor" stroke-width="1" class="abcjs-stem" data-name="stem"></line></g><g class="" fill="currentColor" stroke="none" data-name="note"><path data-name="A" d="M 749.5212297123594 172.937c 0.36 -0.03 1.2 0 1.53 0.06c 1.17 0.24 1.89 0.84 2.16 1.83c 0.06 0.18 0.06 0.3 0.06 0.66c 0 0.45 0 0.63 -0.15 1.08c -0.66 2.04 -3.06 3.93 -5.52 4.38c -0.54 0.09 -1.44 0.09 -1.83 0.03c -1.23 -0.27 -1.98 -0.87 -2.25 -1.86c -0.06 -0.18 -0.06 -0.3 -0.06 -0.66c 0 -0.45 0 -0.63 0.15 -1.08c 0.24 -0.78 0.75 -1.53 1.44 -2.22c 1.2 -1.2 2.85 -2.01 4.47 -2.22z"></path><text stroke="none" font-size="16" font-style="normal" font-family="&quot;Courier New&quot;" font-weight="normal" text-decoration="none" class="" text-anchor="middle" x="748.34" y="136.56" data-name="chord"><tspan x="748.34">D</tspan></text><line x1="752.94" x2="752.94" y1="146.04" y2="176.21" stroke="currentColor" stroke-width="0.6" class="abcjs-stem" data-name="stem"></line></g><g class="" fill="currentColor" stroke="none" data-name="note"><path data-name="F" d="M 771.1835833072945 180.687c 0.36 -0.03 1.2 0 1.53 0.06c 1.17 0.24 1.89 0.84 2.16 1.83c 0.06 0.18 0.06 0.3 0.06 0.66c 0 0.45 0 0.63 -0.15 1.08c -0.66 2.04 -3.06 3.93 -5.52 4.38c -0.54 0.09 -1.44 0.09 -1.83 0.03c -1.23 -0.27 -1.98 -0.87 -2.25 -1.86c -0.06 -0.18 -0.06 -0.3 -0.06 -0.66c 0 -0.45 0 -0.63 0.15 -1.08c 0.24 -0.78 0.75 -1.53 1.44 -2.22c 1.2 -1.2 2.85 -2.01 4.47 -2.22z"></path><line x1="774.6" x2="774.6" y1="147.95" y2="183.96" stroke="currentColor" stroke-width="0.6" class="abcjs-stem" data-name="stem"></line></g><g class="" fill="currentColor" stroke="none" data-name="note"><path data-name="D" d="M 792.8459369022296 188.437c 0.36 -0.03 1.2 0 1.53 0.06c 1.17 0.24 1.89 0.84 2.16 1.83c 0.06 0.18 0.06 0.3 0.06 0.66c 0 0.45 0 0.63 -0.15 1.08c -0.66 2.04 -3.06 3.93 -5.52 4.38c -0.54 0.09 -1.44 0.09 -1.83 0.03c -1.23 -0.27 -1.98 -0.87 -2.25 -1.86c -0.06 -0.18 -0.06 -0.3 -0.06 -0.66c 0 -0.45 0 -0.63 0.15 -1.08c 0.24 -0.78 0.75 -1.53 1.44 -2.22c 1.2 -1.2 2.85 -2.01 4.47 -2.22z"></path><line x1="796.2700000000001" x2="796.2700000000001" y1="149.86" y2="191.71" stroke="currentColor" stroke-width="0.6" class="abcjs-stem" data-name="stem"></line></g><g class="" fill="currentColor" stroke="none" data-name="bar"><path data-name="dots.dot" d="M 809.7382904971647 167.55700000000002c 0.09 -0.03 0.27 -0.06 0.39 -0.06c 0.96 0 1.74 0.78 1.74 1.71c 0 0.96 -0.78 1.74 -1.71 1.74c -0.96 0 -1.74 -0.78 -1.74 -1.71c 0 -0.78 0.54 -1.5 1.32 -1.68z"></path><path data-name="dots.dot" d="M 809.7382904971647 175.30700000000002c 0.09 -0.03 0.27 -0.06 0.39 -0.06c 0.96 0 1.74 0.78 1.74 1.71c 0 0.96 -0.78 1.74 -1.71 1.74c -0.96 0 -1.74 -0.78 -1.74 -1.71c 0 -0.78 0.54 -1.5 1.32 -1.68z"></path><line x1="814.7199999999999" x2="814.7199999999999" y1="188.61" y2="157.61" stroke="currentColor" stroke-width="0.6" data-name="bar"></line><line x1="820.42" x2="820.42" y1="188.61" y2="157.61" stroke="currentColor" stroke-width="4" data-name="bar"></line></g><path d="M385.23 153.74 L429.15 157.61L429.15 161.49 L385.23 157.62z" stroke="none" fill="currentColor" class=""></path><path d="M752.64 145.99 L796.57 149.86L796.57 153.74 L752.64 149.87z" stroke="none" fill="currentColor" class=""></path><path d="M 157.62 186.67 C 163.59 197.07 175.86 200.39 186.26 194.42 C 175.34 202.32 163.07 199 157.62 186.67 z" stroke="none" fill="currentColor" class="" data-name="slur"></path><path d="M 323.38 186.67 C 329.35 197.06 341.62 200.39 352.01 194.42 C 341.1 202.32 328.83 198.99 323.38 186.67 z" stroke="none" fill="currentColor" class="" data-name="slur"></path><path d="M 521.4 186.67 C 527.37 197.07 539.64 200.39 550.04 194.42 C 539.12 202.32 526.85 199 521.4 186.67 z" stroke="none" fill="currentColor" class="" data-name="slur"></path><path d="M 575.24 194.42 C 581.96 198.93 590.39 197.27 594.9 190.55 C 590.78 199.23 582.35 200.89 575.24 194.42 z" stroke="none" fill="currentColor" class="" data-name="slur"></path><path d="M 644.84 167.3 C 650.81 156.91 663.08 153.58 673.47 159.55 C 663.6 155.51 651.33 158.84 644.84 167.3 z" stroke="none" fill="currentColor" class="" data-name="slur"></path><path d="M 697.13 159.55 C 707.53 153.58 719.8 156.9 725.77 167.3 C 719.28 158.83 707.01 155.51 697.13 159.55 z" stroke="none" fill="currentColor" class="" data-name="slur"></path></g><g><g><line x1="15" x2="821.55" y1="275.91200000000003" y2="275.91200000000003" stroke="currentColor" stroke-width="0.7" class="abcjs-top-line"></line><line x1="15" x2="821.55" y1="283.66200000000003" y2="283.66200000000003" stroke="currentColor" stroke-width="0.7"></line><line x1="15" x2="821.55" y1="291.41200000000003" y2="291.41200000000003" stroke="currentColor" stroke-width="0.7"></line><line x1="15" x2="821.55" y1="299.16200000000003" y2="299.16200000000003" stroke="currentColor" stroke-width="0.7"></line><line x1="15" x2="821.55" y1="306.91200000000003" y2="306.91200000000003" stroke="currentColor" stroke-width="0.7"></line></g><g class="" fill="currentColor" stroke="none" data-name="staff-extra clef"><path data-name="clefs.G" d="M 29.689999999999998 261.577c 0.09 -0.09 0.24 -0.06 0.36 0c 0.12 0.09 0.57 0.6 0.96 1.11c 1.77 2.34 3.21 5.85 3.57 8.73c 0.21 1.56 0.03 3.27 -0.45 4.86c -0.69 2.31 -1.92 4.47 -4.23 7.44c -0.3 0.39 -0.57 0.72 -0.6 0.75c -0.03 0.06 0 0.15 0.18 0.78c 0.54 1.68 1.38 4.44 1.68 5.49l 0.09 0.42l 0.39 0c 1.47 0.09 2.76 0.51 3.96 1.29c 1.83 1.23 3.06 3.21 3.39 5.52c 0.09 0.45 0.12 1.29 0.06 1.74c -0.09 1.02 -0.33 1.83 -0.75 2.73c -0.84 1.71 -2.28 3.06 -4.02 3.72l -0.33 0.12l 0.03 1.26c 0 1.74 -0.06 3.63 -0.21 4.62c -0.45 3.06 -2.19 5.49 -4.47 6.21c -0.57 0.18 -0.9 0.21 -1.59 0.21c -0.69 0 -1.02 -0.03 -1.65 -0.21c -1.14 -0.27 -2.13 -0.84 -2.94 -1.65c -0.99 -0.99 -1.56 -2.16 -1.71 -3.54c -0.09 -0.81 0.06 -1.53 0.45 -2.13c 0.63 -0.99 1.83 -1.56 3 -1.53c 1.5 0.09 2.64 1.32 2.73 2.94c 0.06 1.47 -0.93 2.7 -2.37 2.97c -0.45 0.06 -0.84 0.03 -1.29 -0.09l -0.21 -0.09l 0.09 0.12c 0.39 0.54 0.78 0.93 1.32 1.26c 1.35 0.87 3.06 1.02 4.35 0.36c 1.44 -0.72 2.52 -2.28 2.97 -4.35c 0.15 -0.66 0.24 -1.5 0.3 -3.03c 0.03 -0.84 0.03 -2.94 0 -3c -0.03 0 -0.18 0 -0.36 0.03c -0.66 0.12 -0.99 0.12 -1.83 0.12c -1.05 0 -1.71 -0.06 -2.61 -0.3c -4.02 -0.99 -7.11 -4.35 -7.8 -8.46c -0.12 -0.66 -0.12 -0.99 -0.12 -1.83c 0 -0.84 0 -1.14 0.15 -1.92c 0.36 -2.28 1.41 -4.62 3.3 -7.29l 2.79 -3.6c 0.54 -0.66 0.96 -1.2 0.96 -1.23c 0 -0.03 -0.09 -0.33 -0.18 -0.69c -0.96 -3.21 -1.41 -5.28 -1.59 -7.68c -0.12 -1.38 -0.15 -3.09 -0.06 -3.96c 0.33 -2.67 1.38 -5.07 3.12 -7.08c 0.36 -0.42 0.99 -1.05 1.17 -1.14zm 2.01 4.71c -0.15 -0.3 -0.3 -0.54 -0.3 -0.54c -0.03 0 -0.18 0.09 -0.3 0.21c -2.4 1.74 -3.87 4.2 -4.26 7.11c -0.06 0.54 -0.06 1.41 -0.03 1.89c 0.09 1.29 0.48 3.12 1.08 5.22c 0.15 0.42 0.24 0.78 0.24 0.81c 0 0.03 0.84 -1.11 1.23 -1.68c 1.89 -2.73 2.88 -5.07 3.15 -7.53c 0.09 -0.57 0.12 -1.74 0.06 -2.37c -0.09 -1.23 -0.27 -1.92 -0.87 -3.12zm -2.94 20.7c -0.21 -0.72 -0.39 -1.32 -0.42 -1.32c 0 0 -1.2 1.47 -1.86 2.37c -2.79 3.63 -4.02 6.3 -4.35 9.3c -0.03 0.21 -0.03 0.69 -0.03 1.08c 0 0.69 0 0.75 0.06 1.11c 0.12 0.54 0.27 0.99 0.51 1.47c 0.69 1.38 1.83 2.55 3.42 3.42c 0.96 0.54 2.07 0.9 3.21 1.08c 0.78 0.12 2.04 0.12 2.94 -0.03c 0.51 -0.06 0.45 -0.03 0.42 -0.3c -0.24 -3.33 -0.72 -6.33 -1.62 -10.08c -0.09 -0.39 -0.18 -0.75 -0.18 -0.78c -0.03 -0.03 -0.42 0 -0.81 0.09c -0.9 0.18 -1.65 0.57 -2.22 1.14c -0.72 0.72 -1.08 1.65 -1.05 2.64c 0.06 0.96 0.48 1.83 1.23 2.58c 0.36 0.36 0.72 0.63 1.17 0.9c 0.33 0.18 0.36 0.21 0.42 0.33c 0.18 0.42 -0.18 0.9 -0.6 0.87c -0.18 -0.03 -0.84 -0.36 -1.26 -0.63c -0.78 -0.51 -1.38 -1.11 -1.86 -1.83c -1.77 -2.7 -0.99 -6.42 1.71 -8.19c 0.3 -0.21 0.81 -0.48 1.17 -0.63c 0.3 -0.09 1.02 -0.3 1.14 -0.3c 0.06 0 0.09 0 0.09 -0.03c 0.03 -0.03 -0.51 -1.92 -1.23 -4.26zm 3.78 7.41c -0.18 -0.03 -0.36 -0.06 -0.39 -0.06c -0.03 0 0 0.21 0.18 1.02c 0.75 3.18 1.26 6.3 1.5 9.09c 0.06 0.72 0 0.69 0.51 0.42c 0.78 -0.36 1.44 -0.96 1.98 -1.77c 1.08 -1.62 1.2 -3.69 0.3 -5.55c -0.81 -1.62 -2.31 -2.79 -4.08 -3.15z"></path></g><g class="" fill="currentColor" stroke="none" data-name="staff-extra key-signature"><path data-name="accidentals.sharp" d="M 54.781000000000006 264.547c 0.21 -0.12 0.54 -0.03 0.66 0.24c 0.06 0.12 0.06 0.21 0.06 2.31c 0 1.23 0 2.22 0.03 2.22c 0 0 0.27 -0.12 0.6 -0.24c 0.69 -0.27 0.78 -0.3 0.96 -0.15c 0.21 0.15 0.21 0.18 0.21 1.38c 0 1.02 0 1.11 -0.06 1.2c -0.03 0.06 -0.09 0.12 -0.12 0.15c -0.06 0.03 -0.42 0.21 -0.84 0.36l -0.75 0.33l -0.03 2.43c 0 1.32 0 2.43 0.03 2.43c 0 0 0.27 -0.12 0.6 -0.24c 0.69 -0.27 0.78 -0.3 0.96 -0.15c 0.21 0.15 0.21 0.18 0.21 1.38c 0 1.02 0 1.11 -0.06 1.2c -0.03 0.06 -0.09 0.12 -0.12 0.15c -0.06 0.03 -0.42 0.21 -0.84 0.36l -0.75 0.33l -0.03 2.52c 0 2.28 -0.03 2.55 -0.06 2.64c -0.21 0.36 -0.72 0.36 -0.93 0c -0.03 -0.09 -0.06 -0.33 -0.06 -2.43l 0 -2.31l -1.29 0.51l -1.26 0.51l 0 2.43c 0 2.58 0 2.52 -0.15 2.67c -0.06 0.09 -0.27 0.18 -0.36 0.18c -0.12 0 -0.33 -0.09 -0.39 -0.18c -0.15 -0.15 -0.15 -0.09 -0.15 -2.43c 0 -1.23 0 -2.22 -0.03 -2.22c 0 0 -0.27 0.12 -0.6 0.24c -0.69 0.27 -0.78 0.3 -0.96 0.15c -0.21 -0.15 -0.21 -0.18 -0.21 -1.38c 0 -1.02 0 -1.11 0.06 -1.2c 0.03 -0.06 0.09 -0.12 0.12 -0.15c 0.06 -0.03 0.42 -0.21 0.84 -0.36l 0.78 -0.33l 0 -2.43c 0 -1.32 0 -2.43 -0.03 -2.43c 0 0 -0.27 0.12 -0.6 0.24c -0.69 0.27 -0.78 0.3 -0.96 0.15c -0.21 -0.15 -0.21 -0.18 -0.21 -1.38c 0 -1.02 0 -1.11 0.06 -1.2c 0.03 -0.06 0.09 -0.12 0.12 -0.15c 0.06 -0.03 0.42 -0.21 0.84 -0.36l 0.78 -0.33l 0 -2.52c 0 -2.28 0.03 -2.55 0.06 -2.64c 0.21 -0.36 0.72 -0.36 0.93 0c 0.03 0.09 0.06 0.33 0.06 2.43l 0.03 2.31l 1.26 -0.51l 1.26 -0.51l 0 -2.43c 0 -2.28 0 -2.43 0.06 -2.55c 0.06 -0.12 0.12 -0.18 0.27 -0.24zm -0.33 10.65l 0 -2.43l -1.29 0.51l -1.26 0.51l 0 2.46l 0 2.43l 0.09 -0.03c 0.06 -0.03 0.63 -0.27 1.29 -0.51l 1.17 -0.48l 0 -2.46z"></path></g><g class="" fill="currentColor" stroke="none" data-name="part"><text stroke="none" font-size="17" font-style="normal" font-family="Helvetica" font-weight="normal" text-decoration="none" class="" text-anchor="start" x="67.3" y="221.11" data-name="B-part"><tspan x="67.3">B-part</tspan></text></g><g class="" fill="currentColor" stroke="none" data-name="note"><path data-name="B" d="M 79.69100019073487 287.187c 0.36 -0.03 1.2 0 1.53 0.06c 1.17 0.24 1.89 0.84 2.16 1.83c 0.06 0.18 0.06 0.3 0.06 0.66c 0 0.45 0 0.63 -0.15 1.08c -0.66 2.04 -3.06 3.93 -5.52 4.38c -0.54 0.09 -1.44 0.09 -1.83 0.03c -1.23 -0.27 -1.98 -0.87 -2.25 -1.86c -0.06 -0.18 -0.06 -0.3 -0.06 -0.66c 0 -0.45 0 -0.63 0.15 -1.08c 0.24 -0.78 0.75 -1.53 1.44 -2.22c 1.2 -1.2 2.85 -2.01 4.47 -2.22z"></path><line x1="74.1" x2="74.1" y1="318.36" y2="291.24" stroke="currentColor" stroke-width="1" class="abcjs-stem" data-name="stem"></line><text stroke="none" font-size="16" font-style="normal" font-family="&quot;Courier New&quot;" font-weight="normal" text-decoration="none" class="" text-anchor="middle" x="78.51" y="241.99" data-name="chord"><tspan x="78.51">C</tspan></text></g><g class="" fill="currentColor" stroke="none" data-name="note"><path data-name="flags.d8th" d="M 110.59575896779747 292.857c 0.24 -0.12 0.54 -0.06 0.69 0.15c 0.06 0.06 0.21 0.36 0.39 0.66c 0.84 1.77 1.26 3.36 1.32 5.1c 0.03 1.29 -0.21 2.37 -0.81 3.63c -0.6 1.23 -1.26 2.13 -3.21 4.38c -1.35 1.53 -1.86 2.19 -2.4 2.97c -0.63 0.93 -1.11 1.92 -1.38 2.79c -0.15 0.54 -0.27 1.35 -0.27 1.8l 0 0.15l -0.21 0l -0.21 0l 0 -3.75l 0 -3.75l 0.21 0l 0.21 0l 0.48 -0.3c 1.83 -1.11 3.12 -2.1 4.17 -3.12c 0.78 -0.81 1.32 -1.53 1.71 -2.31c 0.45 -0.93 0.6 -1.74 0.51 -2.88c -0.12 -1.56 -0.63 -3.18 -1.47 -4.68c -0.12 -0.21 -0.15 -0.33 -0.06 -0.51c 0.06 -0.15 0.15 -0.24 0.33 -0.33z"></path><path data-name="c" d="M 111.01575896779747 283.312c 0.36 -0.03 1.2 0 1.53 0.06c 1.17 0.24 1.89 0.84 2.16 1.83c 0.06 0.18 0.06 0.3 0.06 0.66c 0 0.45 0 0.63 -0.15 1.08c -0.66 2.04 -3.06 3.93 -5.52 4.38c -0.54 0.09 -1.44 0.09 -1.83 0.03c -1.23 -0.27 -1.98 -0.87 -2.25 -1.86c -0.06 -0.18 -0.06 -0.3 -0.06 -0.66c 0 -0.45 0 -0.63 0.15 -1.08c 0.24 -0.78 0.75 -1.53 1.44 -2.22c 1.2 -1.2 2.85 -2.01 4.47 -2.22z"></path><line x1="105.43" x2="105.43" y1="314.49" y2="288.65" stroke="currentColor" stroke-width="1" class="abcjs-stem" data-name="stem"></line></g><g class="" fill="currentColor" stroke="none" data-name="note"><path data-name="e" d="M 133.16570831809125 275.562c 0.36 -0.03 1.2 0 1.53 0.06c 1.17 0.24 1.89 0.84 2.16 1.83c 0.06 0.18 0.06 0.3 0.06 0.66c 0 0.45 0 0.63 -0.15 1.08c -0.66 2.04 -3.06 3.93 -5.52 4.38c -0.54 0.09 -1.44 0.09 -1.83 0.03c -1.23 -0.27 -1.98 -0.87 -2.25 -1.86c -0.06 -0.18 -0.06 -0.3 -0.06 -0.66c 0 -0.45 0 -0.63 0.15 -1.08c 0.24 -0.78 0.75 -1.53 1.44 -2.22c 1.2 -1.2 2.85 -2.01 4.47 -2.22z"></path><line x1="127.58" x2="127.58" y1="306.74" y2="280.9" stroke="currentColor" stroke-width="1" class="abcjs-stem" data-name="stem"></line></g><g class="" fill="currentColor" stroke="none" data-name="note"><path data-name="flags.d8th" d="M 164.07046709515382 281.232c 0.24 -0.12 0.54 -0.06 0.69 0.15c 0.06 0.06 0.21 0.36 0.39 0.66c 0.84 1.77 1.26 3.36 1.32 5.1c 0.03 1.29 -0.21 2.37 -0.81 3.63c -0.6 1.23 -1.26 2.13 -3.21 4.38c -1.35 1.53 -1.86 2.19 -2.4 2.97c -0.63 0.93 -1.11 1.92 -1.38 2.79c -0.15 0.54 -0.27 1.35 -0.27 1.8l 0 0.15l -0.21 0l -0.21 0l 0 -3.75l 0 -3.75l 0.21 0l 0.21 0l 0.48 -0.3c 1.83 -1.11 3.12 -2.1 4.17 -3.12c 0.78 -0.81 1.32 -1.53 1.71 -2.31c 0.45 -0.93 0.6 -1.74 0.51 -2.88c -0.12 -1.56 -0.63 -3.18 -1.47 -4.68c -0.12 -0.21 -0.15 -0.33 -0.06 -0.51c 0.06 -0.15 0.15 -0.24 0.33 -0.33z"></path><path data-name="f" d="M 164.49046709515383 271.687c 0.36 -0.03 1.2 0 1.53 0.06c 1.17 0.24 1.89 0.84 2.16 1.83c 0.06 0.18 0.06 0.3 0.06 0.66c 0 0.45 0 0.63 -0.15 1.08c -0.66 2.04 -3.06 3.93 -5.52 4.38c -0.54 0.09 -1.44 0.09 -1.83 0.03c -1.23 -0.27 -1.98 -0.87 -2.25 -1.86c -0.06 -0.18 -0.06 -0.3 -0.06 -0.66c 0 -0.45 0 -0.63 0.15 -1.08c 0.24 -0.78 0.75 -1.53 1.44 -2.22c 1.2 -1.2 2.85 -2.01 4.47 -2.22z"></path><line x1="158.9" x2="158.9" y1="302.86" y2="277.03" stroke="currentColor" stroke-width="1" class="abcjs-stem" data-name="stem"></line></g><g class="" fill="currentColor" stroke="none" data-name="note"><path data-name="flags.d8th" d="M 186.2204164454476 281.232c 0.24 -0.12 0.54 -0.06 0.69 0.15c 0.06 0.06 0.21 0.36 0.39 0.66c 0.84 1.77 1.26 3.36 1.32 5.1c 0.03 1.29 -0.21 2.37 -0.81 3.63c -0.6 1.23 -1.26 2.13 -3.21 4.38c -1.35 1.53 -1.86 2.19 -2.4 2.97c -0.63 0.93 -1.11 1.92 -1.38 2.79c -0.15 0.54 -0.27 1.35 -0.27 1.8l 0 0.15l -0.21 0l -0.21 0l 0 -3.75l 0 -3.75l 0.21 0l 0.21 0l 0.48 -0.3c 1.83 -1.11 3.12 -2.1 4.17 -3.12c 0.78 -0.81 1.32 -1.53 1.71 -2.31c 0.45 -0.93 0.6 -1.74 0.51 -2.88c -0.12 -1.56 -0.63 -3.18 -1.47 -4.68c -0.12 -0.21 -0.15 -0.33 -0.06 -0.51c 0.06 -0.15 0.15 -0.24 0.33 -0.33z"></path><path data-name="f" d="M 186.6404164454476 271.687c 0.36 -0.03 1.2 0 1.53 0.06c 1.17 0.24 1.89 0.84 2.16 1.83c 0.06 0.18 0.06 0.3 0.06 0.66c 0 0.45 0 0.63 -0.15 1.08c -0.66 2.04 -3.06 3.93 -5.52 4.38c -0.54 0.09 -1.44 0.09 -1.83 0.03c -1.23 -0.27 -1.98 -0.87 -2.25 -1.86c -0.06 -0.18 -0.06 -0.3 -0.06 -0.66c 0 -0.45 0 -0.63 0.15 -1.08c 0.24 -0.78 0.75 -1.53 1.44 -2.22c 1.2 -1.2 2.85 -2.01 4.47 -2.22z"></path><line x1="181.05" x2="181.05" y1="302.86" y2="277.03" stroke="currentColor" stroke-width="1" class="abcjs-stem" data-name="stem"></line></g><g class="" fill="currentColor" stroke="none" data-name="note"><path data-name="g" d="M 208.7903657957414 267.812c 0.36 -0.03 1.2 0 1.53 0.06c 1.17 0.24 1.89 0.84 2.16 1.83c 0.06 0.18 0.06 0.3 0.06 0.66c 0 0.45 0 0.63 -0.15 1.08c -0.66 2.04 -3.06 3.93 -5.52 4.38c -0.54 0.09 -1.44 0.09 -1.83 0.03c -1.23 -0.27 -1.98 -0.87 -2.25 -1.86c -0.06 -0.18 -0.06 -0.3 -0.06 -0.66c 0 -0.45 0 -0.63 0.15 -1.08c 0.24 -0.78 0.75 -1.53 1.44 -2.22c 1.2 -1.2 2.85 -2.01 4.47 -2.22z"></path><line x1="203.2" x2="203.2" y1="298.99" y2="273.15" stroke="currentColor" stroke-width="1" class="abcjs-stem" data-name="stem"></line></g><g class="" fill="currentColor" stroke="none" data-name="bar"><line x1="234.33" x2="234.33" y1="306.74" y2="275.74" stroke="currentColor" stroke-width="0.6" data-name="bar"></line></g><g class="" fill="currentColor" stroke="none" data-name="note"><path data-name="B" d="M 262.2151249542737 287.187c 0.36 -0.03 1.2 0 1.53 0.06c 1.17 0.24 1.89 0.84 2.16 1.83c 0.06 0.18 0.06 0.3 0.06 0.66c 0 0.45 0 0.63 -0.15 1.08c -0.66 2.04 -3.06 3.93 -5.52 4.38c -0.54 0.09 -1.44 0.09 -1.83 0.03c -1.23 -0.27 -1.98 -0.87 -2.25 -1.86c -0.06 -0.18 -0.06 -0.3 -0.06 -0.66c 0 -0.45 0 -0.63 0.15 -1.08c 0.24 -0.78 0.75 -1.53 1.44 -2.22c 1.2 -1.2 2.85 -2.01 4.47 -2.22z"></path><line x1="256.63" x2="256.63" y1="318.36" y2="291.24" stroke="currentColor" stroke-width="1" class="abcjs-stem" data-name="stem"></line><text stroke="none" font-size="16" font-style="normal" font-family="&quot;Courier New&quot;" font-weight="normal" text-decoration="none" class="" text-anchor="middle" x="261.03" y="241.99" data-name="chord"><tspan x="261.03">Bm</tspan></text></g><g class="" fill="currentColor" stroke="none" data-name="note"><path data-name="flags.d8th" d="M 293.1198837313363 288.982c 0.24 -0.12 0.54 -0.06 0.69 0.15c 0.06 0.06 0.21 0.36 0.39 0.66c 0.84 1.77 1.26 3.36 1.32 5.1c 0.03 1.29 -0.21 2.37 -0.81 3.63c -0.6 1.23 -1.26 2.13 -3.21 4.38c -1.35 1.53 -1.86 2.19 -2.4 2.97c -0.63 0.93 -1.11 1.92 -1.38 2.79c -0.15 0.54 -0.27 1.35 -0.27 1.8l 0 0.15l -0.21 0l -0.21 0l 0 -3.75l 0 -3.75l 0.21 0l 0.21 0l 0.48 -0.3c 1.83 -1.11 3.12 -2.1 4.17 -3.12c 0.78 -0.81 1.32 -1.53 1.71 -2.31c 0.45 -0.93 0.6 -1.74 0.51 -2.88c -0.12 -1.56 -0.63 -3.18 -1.47 -4.68c -0.12 -0.21 -0.15 -0.33 -0.06 -0.51c 0.06 -0.15 0.15 -0.24 0.33 -0.33z"></path><path data-name="d" d="M 293.53988373133626 279.437c 0.36 -0.03 1.2 0 1.53 0.06c 1.17 0.24 1.89 0.84 2.16 1.83c 0.06 0.18 0.06 0.3 0.06 0.66c 0 0.45 0 0.63 -0.15 1.08c -0.66 2.04 -3.06 3.93 -5.52 4.38c -0.54 0.09 -1.44 0.09 -1.83 0.03c -1.23 -0.27 -1.98 -0.87 -2.25 -1.86c -0.06 -0.18 -0.06 -0.3 -0.06 -0.66c 0 -0.45 0 -0.63 0.15 -1.08c 0.24 -0.78 0.75 -1.53 1.44 -2.22c 1.2 -1.2 2.85 -2.01 4.47 -2.22z"></path><line x1="287.95" x2="287.95" y1="310.61" y2="284.78" stroke="currentColor" stroke-width="1" class="abcjs-stem" data-name="stem"></line></g><g class="" fill="currentColor" stroke="none" data-name="note"><path data-name="g" d="M 315.68983308163007 267.812c 0.36 -0.03 1.2 0 1.53 0.06c 1.17 0.24 1.89 0.84 2.16 1.83c 0.06 0.18 0.06 0.3 0.06 0.66c 0 0.45 0 0.63 -0.15 1.08c -0.66 2.04 -3.06 3.93 -5.52 4.38c -0.54 0.09 -1.44 0.09 -1.83 0.03c -1.23 -0.27 -1.98 -0.87 -2.25 -1.86c -0.06 -0.18 -0.06 -0.3 -0.06 -0.66c 0 -0.45 0 -0.63 0.15 -1.08c 0.24 -0.78 0.75 -1.53 1.44 -2.22c 1.2 -1.2 2.85 -2.01 4.47 -2.22z"></path><line x1="310.1" x2="310.1" y1="298.99" y2="273.15" stroke="currentColor" stroke-width="1" class="abcjs-stem" data-name="stem"></line></g><g class="" fill="currentColor" stroke="none" data-name="note"><path data-name="flags.d8th" d="M 346.5945918586927 285.107c 0.24 -0.12 0.54 -0.06 0.69 0.15c 0.06 0.06 0.21 0.36 0.39 0.66c 0.84 1.77 1.26 3.36 1.32 5.1c 0.03 1.29 -0.21 2.37 -0.81 3.63c -0.6 1.23 -1.26 2.13 -3.21 4.38c -1.35 1.53 -1.86 2.19 -2.4 2.97c -0.63 0.93 -1.11 1.92 -1.38 2.79c -0.15 0.54 -0.27 1.35 -0.27 1.8l 0 0.15l -0.21 0l -0.21 0l 0 -3.75l 0 -3.75l 0.21 0l 0.21 0l 0.48 -0.3c 1.83 -1.11 3.12 -2.1 4.17 -3.12c 0.78 -0.81 1.32 -1.53 1.71 -2.31c 0.45 -0.93 0.6 -1.74 0.51 -2.88c -0.12 -1.56 -0.63 -3.18 -1.47 -4.68c -0.12 -0.21 -0.15 -0.33 -0.06 -0.51c 0.06 -0.15 0.15 -0.24 0.33 -0.33z"></path><path data-name="e" d="M 347.01459185869265 275.562c 0.36 -0.03 1.2 0 1.53 0.06c 1.17 0.24 1.89 0.84 2.16 1.83c 0.06 0.18 0.06 0.3 0.06 0.66c 0 0.45 0 0.63 -0.15 1.08c -0.66 2.04 -3.06 3.93 -5.52 4.38c -0.54 0.09 -1.44 0.09 -1.83 0.03c -1.23 -0.27 -1.98 -0.87 -2.25 -1.86c -0.06 -0.18 -0.06 -0.3 -0.06 -0.66c 0 -0.45 0 -0.63 0.15 -1.08c 0.24 -0.78 0.75 -1.53 1.44 -2.22c 1.2 -1.2 2.85 -2.01 4.47 -2.22z"></path><line x1="341.42" x2="341.42" y1="306.74" y2="280.9" stroke="currentColor" stroke-width="1" class="abcjs-stem" data-name="stem"></line></g><g class="" fill="currentColor" stroke="none" data-name="note"><path data-name="d" d="M 369.16454120898646 279.437c 0.36 -0.03 1.2 0 1.53 0.06c 1.17 0.24 1.89 0.84 2.16 1.83c 0.06 0.18 0.06 0.3 0.06 0.66c 0 0.45 0 0.63 -0.15 1.08c -0.66 2.04 -3.06 3.93 -5.52 4.38c -0.54 0.09 -1.44 0.09 -1.83 0.03c -1.23 -0.27 -1.98 -0.87 -2.25 -1.86c -0.06 -0.18 -0.06 -0.3 -0.06 -0.66c 0 -0.45 0 -0.63 0.15 -1.08c 0.24 -0.78 0.75 -1.53 1.44 -2.22c 1.2 -1.2 2.85 -2.01 4.47 -2.22z"></path><line x1="363.37" x2="363.37" y1="320.3" y2="284.26" stroke="currentColor" stroke-width="0.6" class="abcjs-stem" data-name="stem"></line></g><g class="" fill="currentColor" stroke="none" data-name="note"><path data-name="B" d="M 391.3144905592803 287.187c 0.36 -0.03 1.2 0 1.53 0.06c 1.17 0.24 1.89 0.84 2.16 1.83c 0.06 0.18 0.06 0.3 0.06 0.66c 0 0.45 0 0.63 -0.15 1.08c -0.66 2.04 -3.06 3.93 -5.52 4.38c -0.54 0.09 -1.44 0.09 -1.83 0.03c -1.23 -0.27 -1.98 -0.87 -2.25 -1.86c -0.06 -0.18 -0.06 -0.3 -0.06 -0.66c 0 -0.45 0 -0.63 0.15 -1.08c 0.24 -0.78 0.75 -1.53 1.44 -2.22c 1.2 -1.2 2.85 -2.01 4.47 -2.22z"></path><line x1="385.52000000000004" x2="385.52000000000004" y1="322.21" y2="292.01" stroke="currentColor" stroke-width="0.6" class="abcjs-stem" data-name="stem"></line></g><g class="" fill="currentColor" stroke="none" data-name="note"><path data-name="A" d="M 413.4644399095741 291.062c 0.36 -0.03 1.2 0 1.53 0.06c 1.17 0.24 1.89 0.84 2.16 1.83c 0.06 0.18 0.06 0.3 0.06 0.66c 0 0.45 0 0.63 -0.15 1.08c -0.66 2.04 -3.06 3.93 -5.52 4.38c -0.54 0.09 -1.44 0.09 -1.83 0.03c -1.23 -0.27 -1.98 -0.87 -2.25 -1.86c -0.06 -0.18 -0.06 -0.3 -0.06 -0.66c 0 -0.45 0 -0.63 0.15 -1.08c 0.24 -0.78 0.75 -1.53 1.44 -2.22c 1.2 -1.2 2.85 -2.01 4.47 -2.22z"></path><line x1="407.67" x2="407.67" y1="324.12" y2="295.89" stroke="currentColor" stroke-width="0.6" class="abcjs-stem" data-name="stem"></line></g><g class="" fill="currentColor" stroke="none" data-name="bar"><line x1="429.82" x2="429.82" y1="306.74" y2="275.74" stroke="currentColor" stroke-width="0.6" data-name="bar"></line></g><g class="" fill="currentColor" stroke="none" data-name="note"><path data-name="B" d="M 462.51438887839817 287.187c 0.36 -0.03 1.2 0 1.53 0.06c 1.17 0.24 1.89 0.84 2.16 1.83c 0.06 0.18 0.06 0.3 0.06 0.66c 0 0.45 0 0.63 -0.15 1.08c -0.66 2.04 -3.06 3.93 -5.52 4.38c -0.54 0.09 -1.44 0.09 -1.83 0.03c -1.23 -0.27 -1.98 -0.87 -2.25 -1.86c -0.06 -0.18 -0.06 -0.3 -0.06 -0.66c 0 -0.45 0 -0.63 0.15 -1.08c 0.24 -0.78 0.75 -1.53 1.44 -2.22c 1.2 -1.2 2.85 -2.01 4.47 -2.22z"></path><line x1="456.92" x2="456.92" y1="318.36" y2="291.24" stroke="currentColor" stroke-width="1" class="abcjs-stem" data-name="stem"></line><text stroke="none" font-size="16" font-style="normal" font-family="&quot;Courier New&quot;" font-weight="normal" text-decoration="none" class="" text-anchor="middle" x="461.33" y="241.99" data-name="chord"><tspan x="461.33">Am7</tspan></text></g><g class="" fill="currentColor" stroke="none" data-name="note"><path data-name="flags.d8th" d="M 493.4191476554608 292.857c 0.24 -0.12 0.54 -0.06 0.69 0.15c 0.06 0.06 0.21 0.36 0.39 0.66c 0.84 1.77 1.26 3.36 1.32 5.1c 0.03 1.29 -0.21 2.37 -0.81 3.63c -0.6 1.23 -1.26 2.13 -3.21 4.38c -1.35 1.53 -1.86 2.19 -2.4 2.97c -0.63 0.93 -1.11 1.92 -1.38 2.79c -0.15 0.54 -0.27 1.35 -0.27 1.8l 0 0.15l -0.21 0l -0.21 0l 0 -3.75l 0 -3.75l 0.21 0l 0.21 0l 0.48 -0.3c 1.83 -1.11 3.12 -2.1 4.17 -3.12c 0.78 -0.81 1.32 -1.53 1.71 -2.31c 0.45 -0.93 0.6 -1.74 0.51 -2.88c -0.12 -1.56 -0.63 -3.18 -1.47 -4.68c -0.12 -0.21 -0.15 -0.33 -0.06 -0.51c 0.06 -0.15 0.15 -0.24 0.33 -0.33z"></path><path data-name="c" d="M 493.83914765546075 283.312c 0.36 -0.03 1.2 0 1.53 0.06c 1.17 0.24 1.89 0.84 2.16 1.83c 0.06 0.18 0.06 0.3 0.06 0.66c 0 0.45 0 0.63 -0.15 1.08c -0.66 2.04 -3.06 3.93 -5.52 4.38c -0.54 0.09 -1.44 0.09 -1.83 0.03c -1.23 -0.27 -1.98 -0.87 -2.25 -1.86c -0.06 -0.18 -0.06 -0.3 -0.06 -0.66c 0 -0.45 0 -0.63 0.15 -1.08c 0.24 -0.78 0.75 -1.53 1.44 -2.22c 1.2 -1.2 2.85 -2.01 4.47 -2.22z"></path><line x1="488.25" x2="488.25" y1="314.49" y2="288.65" stroke="currentColor" stroke-width="1" class="abcjs-stem" data-name="stem"></line></g><g class="" fill="currentColor" stroke="none" data-name="note"><path data-name="e" d="M 515.9890970057546 275.562c 0.36 -0.03 1.2 0 1.53 0.06c 1.17 0.24 1.89 0.84 2.16 1.83c 0.06 0.18 0.06 0.3 0.06 0.66c 0 0.45 0 0.63 -0.15 1.08c -0.66 2.04 -3.06 3.93 -5.52 4.38c -0.54 0.09 -1.44 0.09 -1.83 0.03c -1.23 -0.27 -1.98 -0.87 -2.25 -1.86c -0.06 -0.18 -0.06 -0.3 -0.06 -0.66c 0 -0.45 0 -0.63 0.15 -1.08c 0.24 -0.78 0.75 -1.53 1.44 -2.22c 1.2 -1.2 2.85 -2.01 4.47 -2.22z"></path><line x1="510.4" x2="510.4" y1="306.74" y2="280.9" stroke="currentColor" stroke-width="1" class="abcjs-stem" data-name="stem"></line></g><g class="" fill="currentColor" stroke="none" data-name="note"><path data-name="flags.d8th" d="M 546.8938557828171 281.232c 0.24 -0.12 0.54 -0.06 0.69 0.15c 0.06 0.06 0.21 0.36 0.39 0.66c 0.84 1.77 1.26 3.36 1.32 5.1c 0.03 1.29 -0.21 2.37 -0.81 3.63c -0.6 1.23 -1.26 2.13 -3.21 4.38c -1.35 1.53 -1.86 2.19 -2.4 2.97c -0.63 0.93 -1.11 1.92 -1.38 2.79c -0.15 0.54 -0.27 1.35 -0.27 1.8l 0 0.15l -0.21 0l -0.21 0l 0 -3.75l 0 -3.75l 0.21 0l 0.21 0l 0.48 -0.3c 1.83 -1.11 3.12 -2.1 4.17 -3.12c 0.78 -0.81 1.32 -1.53 1.71 -2.31c 0.45 -0.93 0.6 -1.74 0.51 -2.88c -0.12 -1.56 -0.63 -3.18 -1.47 -4.68c -0.12 -0.21 -0.15 -0.33 -0.06 -0.51c 0.06 -0.15 0.15 -0.24 0.33 -0.33z"></path><path data-name="f" d="M 547.3138557828172 271.687c 0.36 -0.03 1.2 0 1.53 0.06c 1.17 0.24 1.89 0.84 2.16 1.83c 0.06 0.18 0.06 0.3 0.06 0.66c 0 0.45 0 0.63 -0.15 1.08c -0.66 2.04 -3.06 3.93 -5.52 4.38c -0.54 0.09 -1.44 0.09 -1.83 0.03c -1.23 -0.27 -1.98 -0.87 -2.25 -1.86c -0.06 -0.18 -0.06 -0.3 -0.06 -0.66c 0 -0.45 0 -0.63 0.15 -1.08c 0.24 -0.78 0.75 -1.53 1.44 -2.22c 1.2 -1.2 2.85 -2.01 4.47 -2.22z"></path><line x1="541.72" x2="541.72" y1="302.86" y2="277.03" stroke="currentColor" stroke-width="1" class="abcjs-stem" data-name="stem"></line></g><g class="" fill="currentColor" stroke="none" data-name="note"><path data-name="g" d="M 569.463805133111 267.812c 0.36 -0.03 1.2 0 1.53 0.06c 1.17 0.24 1.89 0.84 2.16 1.83c 0.06 0.18 0.06 0.3 0.06 0.66c 0 0.45 0 0.63 -0.15 1.08c -0.66 2.04 -3.06 3.93 -5.52 4.38c -0.54 0.09 -1.44 0.09 -1.83 0.03c -1.23 -0.27 -1.98 -0.87 -2.25 -1.86c -0.06 -0.18 -0.06 -0.3 -0.06 -0.66c 0 -0.45 0 -0.63 0.15 -1.08c 0.24 -0.78 0.75 -1.53 1.44 -2.22c 1.2 -1.2 2.85 -2.01 4.47 -2.22z"></path><line x1="563.87" x2="563.87" y1="298.99" y2="273.15" stroke="currentColor" stroke-width="1" class="abcjs-stem" data-name="stem"></line></g><g class="" fill="currentColor" stroke="none" data-name="note"><path data-name="flags.d8th" d="M 600.3685639101735 273.482c 0.24 -0.12 0.54 -0.06 0.69 0.15c 0.06 0.06 0.21 0.36 0.39 0.66c 0.84 1.77 1.26 3.36 1.32 5.1c 0.03 1.29 -0.21 2.37 -0.81 3.63c -0.6 1.23 -1.26 2.13 -3.21 4.38c -1.35 1.53 -1.86 2.19 -2.4 2.97c -0.63 0.93 -1.11 1.92 -1.38 2.79c -0.15 0.54 -0.27 1.35 -0.27 1.8l 0 0.15l -0.21 0l -0.21 0l 0 -3.75l 0 -3.75l 0.21 0l 0.21 0l 0.48 -0.3c 1.83 -1.11 3.12 -2.1 4.17 -3.12c 0.78 -0.81 1.32 -1.53 1.71 -2.31c 0.45 -0.93 0.6 -1.74 0.51 -2.88c -0.12 -1.56 -0.63 -3.18 -1.47 -4.68c -0.12 -0.21 -0.15 -0.33 -0.06 -0.51c 0.06 -0.15 0.15 -0.24 0.33 -0.33z"></path><path data-name="a" d="M 600.7885639101736 263.937c 0.36 -0.03 1.2 0 1.53 0.06c 1.17 0.24 1.89 0.84 2.16 1.83c 0.06 0.18 0.06 0.3 0.06 0.66c 0 0.45 0 0.63 -0.15 1.08c -0.66 2.04 -3.06 3.93 -5.52 4.38c -0.54 0.09 -1.44 0.09 -1.83 0.03c -1.23 -0.27 -1.98 -0.87 -2.25 -1.86c -0.06 -0.18 -0.06 -0.3 -0.06 -0.66c 0 -0.45 0 -0.63 0.15 -1.08c 0.24 -0.78 0.75 -1.53 1.44 -2.22c 1.2 -1.2 2.85 -2.01 4.47 -2.22z"></path><line x1="595.2" x2="595.2" y1="295.11" y2="269.28" stroke="currentColor" stroke-width="1" class="abcjs-stem" data-name="stem"></line><line x1="592.7" x2="606.51" y1="268.16200000000003" y2="268.16200000000003" stroke="currentColor" stroke-width="0.7" class="abcjs-ledger" data-name="ledger"></line></g><g class="" fill="currentColor" stroke="none" data-name="bar"><line x1="617.15" x2="617.15" y1="306.74" y2="275.74" stroke="currentColor" stroke-width="0.6" data-name="bar"></line></g><g class="" fill="currentColor" stroke="none" data-name="note"><path data-name="b" d="M 640.2385134512023 260.062c 0.36 -0.03 1.2 0 1.53 0.06c 1.17 0.24 1.89 0.84 2.16 1.83c 0.06 0.18 0.06 0.3 0.06 0.66c 0 0.45 0 0.63 -0.15 1.08c -0.66 2.04 -3.06 3.93 -5.52 4.38c -0.54 0.09 -1.44 0.09 -1.83 0.03c -1.23 -0.27 -1.98 -0.87 -2.25 -1.86c -0.06 -0.18 -0.06 -0.3 -0.06 -0.66c 0 -0.45 0 -0.63 0.15 -1.08c 0.24 -0.78 0.75 -1.53 1.44 -2.22c 1.2 -1.2 2.85 -2.01 4.47 -2.22z"></path><line x1="634.65" x2="634.65" y1="291.24" y2="265.4" stroke="currentColor" stroke-width="1" class="abcjs-stem" data-name="stem"></line><line x1="632.15" x2="645.96" y1="268.16200000000003" y2="268.16200000000003" stroke="currentColor" stroke-width="0.7" class="abcjs-ledger" data-name="ledger"></line><text stroke="none" font-size="16" font-style="normal" font-family="&quot;Courier New&quot;" font-weight="normal" text-decoration="none" class="" text-anchor="middle" x="639.05" y="241.99" data-name="chord"><tspan x="639.05">D</tspan></text></g><g class="" fill="currentColor" stroke="none" data-name="note"><path data-name="flags.d8th" d="M 671.1432722282648 273.482c 0.24 -0.12 0.54 -0.06 0.69 0.15c 0.06 0.06 0.21 0.36 0.39 0.66c 0.84 1.77 1.26 3.36 1.32 5.1c 0.03 1.29 -0.21 2.37 -0.81 3.63c -0.6 1.23 -1.26 2.13 -3.21 4.38c -1.35 1.53 -1.86 2.19 -2.4 2.97c -0.63 0.93 -1.11 1.92 -1.38 2.79c -0.15 0.54 -0.27 1.35 -0.27 1.8l 0 0.15l -0.21 0l -0.21 0l 0 -3.75l 0 -3.75l 0.21 0l 0.21 0l 0.48 -0.3c 1.83 -1.11 3.12 -2.1 4.17 -3.12c 0.78 -0.81 1.32 -1.53 1.71 -2.31c 0.45 -0.93 0.6 -1.74 0.51 -2.88c -0.12 -1.56 -0.63 -3.18 -1.47 -4.68c -0.12 -0.21 -0.15 -0.33 -0.06 -0.51c 0.06 -0.15 0.15 -0.24 0.33 -0.33z"></path><path data-name="a" d="M 671.5632722282649 263.937c 0.36 -0.03 1.2 0 1.53 0.06c 1.17 0.24 1.89 0.84 2.16 1.83c 0.06 0.18 0.06 0.3 0.06 0.66c 0 0.45 0 0.63 -0.15 1.08c -0.66 2.04 -3.06 3.93 -5.52 4.38c -0.54 0.09 -1.44 0.09 -1.83 0.03c -1.23 -0.27 -1.98 -0.87 -2.25 -1.86c -0.06 -0.18 -0.06 -0.3 -0.06 -0.66c 0 -0.45 0 -0.63 0.15 -1.08c 0.24 -0.78 0.75 -1.53 1.44 -2.22c 1.2 -1.2 2.85 -2.01 4.47 -2.22z"></path><line x1="665.97" x2="665.97" y1="295.11" y2="269.28" stroke="currentColor" stroke-width="1" class="abcjs-stem" data-name="stem"></line><line x1="663.47" x2="677.28" y1="268.16200000000003" y2="268.16200000000003" stroke="currentColor" stroke-width="0.7" class="abcjs-ledger" data-name="ledger"></line></g><g class="" fill="currentColor" stroke="none" data-name="note"><path data-name="g" d="M 693.7132215785587 267.812c 0.36 -0.03 1.2 0 1.53 0.06c 1.17 0.24 1.89 0.84 2.16 1.83c 0.06 0.18 0.06 0.3 0.06 0.66c 0 0.45 0 0.63 -0.15 1.08c -0.66 2.04 -3.06 3.93 -5.52 4.38c -0.54 0.09 -1.44 0.09 -1.83 0.03c -1.23 -0.27 -1.98 -0.87 -2.25 -1.86c -0.06 -0.18 -0.06 -0.3 -0.06 -0.66c 0 -0.45 0 -0.63 0.15 -1.08c 0.24 -0.78 0.75 -1.53 1.44 -2.22c 1.2 -1.2 2.85 -2.01 4.47 -2.22z"></path><line x1="688.12" x2="688.12" y1="298.99" y2="273.15" stroke="currentColor" stroke-width="1" class="abcjs-stem" data-name="stem"></line></g><g class="" fill="currentColor" stroke="none" data-name="note"><path data-name="flags.d8th" d="M 724.6179803556212 285.107c 0.24 -0.12 0.54 -0.06 0.69 0.15c 0.06 0.06 0.21 0.36 0.39 0.66c 0.84 1.77 1.26 3.36 1.32 5.1c 0.03 1.29 -0.21 2.37 -0.81 3.63c -0.6 1.23 -1.26 2.13 -3.21 4.38c -1.35 1.53 -1.86 2.19 -2.4 2.97c -0.63 0.93 -1.11 1.92 -1.38 2.79c -0.15 0.54 -0.27 1.35 -0.27 1.8l 0 0.15l -0.21 0l -0.21 0l 0 -3.75l 0 -3.75l 0.21 0l 0.21 0l 0.48 -0.3c 1.83 -1.11 3.12 -2.1 4.17 -3.12c 0.78 -0.81 1.32 -1.53 1.71 -2.31c 0.45 -0.93 0.6 -1.74 0.51 -2.88c -0.12 -1.56 -0.63 -3.18 -1.47 -4.68c -0.12 -0.21 -0.15 -0.33 -0.06 -0.51c 0.06 -0.15 0.15 -0.24 0.33 -0.33z"></path><path data-name="e" d="M 725.0379803556212 275.562c 0.36 -0.03 1.2 0 1.53 0.06c 1.17 0.24 1.89 0.84 2.16 1.83c 0.06 0.18 0.06 0.3 0.06 0.66c 0 0.45 0 0.63 -0.15 1.08c -0.66 2.04 -3.06 3.93 -5.52 4.38c -0.54 0.09 -1.44 0.09 -1.83 0.03c -1.23 -0.27 -1.98 -0.87 -2.25 -1.86c -0.06 -0.18 -0.06 -0.3 -0.06 -0.66c 0 -0.45 0 -0.63 0.15 -1.08c 0.24 -0.78 0.75 -1.53 1.44 -2.22c 1.2 -1.2 2.85 -2.01 4.47 -2.22z"></path><line x1="719.45" x2="719.45" y1="306.74" y2="280.9" stroke="currentColor" stroke-width="1" class="abcjs-stem" data-name="stem"></line></g><g class="" fill="currentColor" stroke="none" data-name="note"><path data-name="d" d="M 747.187929705915 279.437c 0.36 -0.03 1.2 0 1.53 0.06c 1.17 0.24 1.89 0.84 2.16 1.83c 0.06 0.18 0.06 0.3 0.06 0.66c 0 0.45 0 0.63 -0.15 1.08c -0.66 2.04 -3.06 3.93 -5.52 4.38c -0.54 0.09 -1.44 0.09 -1.83 0.03c -1.23 -0.27 -1.98 -0.87 -2.25 -1.86c -0.06 -0.18 -0.06 -0.3 -0.06 -0.66c 0 -0.45 0 -0.63 0.15 -1.08c 0.24 -0.78 0.75 -1.53 1.44 -2.22c 1.2 -1.2 2.85 -2.01 4.47 -2.22z"></path><line x1="741.4" x2="741.4" y1="320.3" y2="284.26" stroke="currentColor" stroke-width="0.6" class="abcjs-stem" data-name="stem"></line></g><g class="" fill="currentColor" stroke="none" data-name="note"><path data-name="B" d="M 769.3378790562089 287.187c 0.36 -0.03 1.2 0 1.53 0.06c 1.17 0.24 1.89 0.84 2.16 1.83c 0.06 0.18 0.06 0.3 0.06 0.66c 0 0.45 0 0.63 -0.15 1.08c -0.66 2.04 -3.06 3.93 -5.52 4.38c -0.54 0.09 -1.44 0.09 -1.83 0.03c -1.23 -0.27 -1.98 -0.87 -2.25 -1.86c -0.06 -0.18 -0.06 -0.3 -0.06 -0.66c 0 -0.45 0 -0.63 0.15 -1.08c 0.24 -0.78 0.75 -1.53 1.44 -2.22c 1.2 -1.2 2.85 -2.01 4.47 -2.22z"></path><line x1="763.55" x2="763.55" y1="322.21" y2="292.01" stroke="currentColor" stroke-width="0.6" class="abcjs-stem" data-name="stem"></line></g><g class="" fill="currentColor" stroke="none" data-name="note"><path data-name="A" d="M 791.4878284065027 291.062c 0.36 -0.03 1.2 0 1.53 0.06c 1.17 0.24 1.89 0.84 2.16 1.83c 0.06 0.18 0.06 0.3 0.06 0.66c 0 0.45 0 0.63 -0.15 1.08c -0.66 2.04 -3.06 3.93 -5.52 4.38c -0.54 0.09 -1.44 0.09 -1.83 0.03c -1.23 -0.27 -1.98 -0.87 -2.25 -1.86c -0.06 -0.18 -0.06 -0.3 -0.06 -0.66c 0 -0.45 0 -0.63 0.15 -1.08c 0.24 -0.78 0.75 -1.53 1.44 -2.22c 1.2 -1.2 2.85 -2.01 4.47 -2.22z"></path><line x1="785.6999999999999" x2="785.6999999999999" y1="324.12" y2="295.89" stroke="currentColor" stroke-width="0.6" class="abcjs-stem" data-name="stem"></line></g><g class="" fill="currentColor" stroke="none" data-name="bar"><path data-name="dots.dot" d="M 808.8677777567965 285.682c 0.09 -0.03 0.27 -0.06 0.39 -0.06c 0.96 0 1.74 0.78 1.74 1.71c 0 0.96 -0.78 1.74 -1.71 1.74c -0.96 0 -1.74 -0.78 -1.74 -1.71c 0 -0.78 0.54 -1.5 1.32 -1.68z"></path><path data-name="dots.dot" d="M 808.8677777567965 293.432c 0.09 -0.03 0.27 -0.06 0.39 -0.06c 0.96 0 1.74 0.78 1.74 1.71c 0 0.96 -0.78 1.74 -1.71 1.74c -0.96 0 -1.74 -0.78 -1.74 -1.71c 0 -0.78 0.54 -1.5 1.32 -1.68z"></path><line x1="813.8499999999999" x2="813.8499999999999" y1="306.74" y2="275.74" stroke="currentColor" stroke-width="0.6" data-name="bar"></line><line x1="819.55" x2="819.55" y1="306.74" y2="275.74" stroke="currentColor" stroke-width="4" data-name="bar"></line></g><path d="M363.07 322.24 L407.97 326.11L407.97 322.24 L363.07 318.37z" stroke="none" fill="currentColor" class=""></path><path d="M741.1 322.24 L786 326.11L786 322.24 L741.1 318.37z" stroke="none" fill="currentColor" class=""></path><path d="M 79.6 285.42 C 86.87 275.93 99.44 274.28 108.93 281.55 C 99.7 276.26 87.13 277.91 79.6 285.42 z" stroke="none" fill="currentColor" class="" data-name="slur"></path><path d="M 133.08 273.8 C 140.35 264.31 152.91 262.65 162.4 269.92 C 153.17 264.63 140.61 266.29 133.08 273.8 z" stroke="none" fill="currentColor" class="" data-name="slur"></path><path d="M 186.55 269.92 C 191.2 263.06 199.84 261.4 206.7 266.05 C 200.22 263.36 191.58 265.02 186.55 269.92 z" stroke="none" fill="currentColor" class="" data-name="slur"></path><path d="M 262.13 285.42 C 268.29 274.83 280.86 271.51 291.45 277.67 C 281.37 273.44 268.8 276.76 262.13 285.42 z" stroke="none" fill="currentColor" class="" data-name="slur"></path><path d="M 315.6 266.05 C 326.19 259.89 338.76 263.21 344.92 273.8 C 338.25 265.14 325.68 261.82 315.6 266.05 z" stroke="none" fill="currentColor" class="" data-name="slur"></path><path d="M 462.42 285.42 C 469.69 275.93 482.26 274.28 491.75 281.55 C 482.52 276.26 469.95 277.91 462.42 285.42 z" stroke="none" fill="currentColor" class="" data-name="slur"></path><path d="M 515.9 273.8 C 523.17 264.31 535.73 262.65 545.22 269.92 C 535.99 264.63 523.43 266.29 515.9 273.8 z" stroke="none" fill="currentColor" class="" data-name="slur"></path><path d="M 569.37 266.05 C 576.64 256.56 589.21 254.9 598.7 262.17 C 589.47 256.88 576.9 258.54 569.37 266.05 z" stroke="none" fill="currentColor" class="" data-name="slur"></path><path d="M 640.15 258.3 C 649.63 251.03 662.2 252.69 669.47 262.17 C 661.94 254.67 649.37 253.01 640.15 258.3 z" stroke="none" fill="currentColor" class="" data-name="slur"></path><path d="M 693.62 266.05 C 704.21 259.88 716.78 263.21 722.95 273.8 C 716.27 265.14 703.7 261.81 693.62 266.05 z" stroke="none" fill="currentColor" class="" data-name="slur"></path></g><g><g><line x1="15" x2="821.55" y1="388.17271814598064" y2="388.17271814598064" stroke="currentColor" stroke-width="0.7" class="abcjs-top-line"></line><line x1="15" x2="821.55" y1="395.92271814598064" y2="395.92271814598064" stroke="currentColor" stroke-width="0.7"></line><line x1="15" x2="821.55" y1="403.67271814598064" y2="403.67271814598064" stroke="currentColor" stroke-width="0.7"></line><line x1="15" x2="821.55" y1="411.42271814598064" y2="411.42271814598064" stroke="currentColor" stroke-width="0.7"></line><line x1="15" x2="821.55" y1="419.17271814598064" y2="419.17271814598064" stroke="currentColor" stroke-width="0.7"></line></g><g class="" fill="currentColor" stroke="none" data-name="staff-extra clef"><path data-name="clefs.G" d="M 29.689999999999998 373.8377181459806c 0.09 -0.09 0.24 -0.06 0.36 0c 0.12 0.09 0.57 0.6 0.96 1.11c 1.77 2.34 3.21 5.85 3.57 8.73c 0.21 1.56 0.03 3.27 -0.45 4.86c -0.69 2.31 -1.92 4.47 -4.23 7.44c -0.3 0.39 -0.57 0.72 -0.6 0.75c -0.03 0.06 0 0.15 0.18 0.78c 0.54 1.68 1.38 4.44 1.68 5.49l 0.09 0.42l 0.39 0c 1.47 0.09 2.76 0.51 3.96 1.29c 1.83 1.23 3.06 3.21 3.39 5.52c 0.09 0.45 0.12 1.29 0.06 1.74c -0.09 1.02 -0.33 1.83 -0.75 2.73c -0.84 1.71 -2.28 3.06 -4.02 3.72l -0.33 0.12l 0.03 1.26c 0 1.74 -0.06 3.63 -0.21 4.62c -0.45 3.06 -2.19 5.49 -4.47 6.21c -0.57 0.18 -0.9 0.21 -1.59 0.21c -0.69 0 -1.02 -0.03 -1.65 -0.21c -1.14 -0.27 -2.13 -0.84 -2.94 -1.65c -0.99 -0.99 -1.56 -2.16 -1.71 -3.54c -0.09 -0.81 0.06 -1.53 0.45 -2.13c 0.63 -0.99 1.83 -1.56 3 -1.53c 1.5 0.09 2.64 1.32 2.73 2.94c 0.06 1.47 -0.93 2.7 -2.37 2.97c -0.45 0.06 -0.84 0.03 -1.29 -0.09l -0.21 -0.09l 0.09 0.12c 0.39 0.54 0.78 0.93 1.32 1.26c 1.35 0.87 3.06 1.02 4.35 0.36c 1.44 -0.72 2.52 -2.28 2.97 -4.35c 0.15 -0.66 0.24 -1.5 0.3 -3.03c 0.03 -0.84 0.03 -2.94 0 -3c -0.03 0 -0.18 0 -0.36 0.03c -0.66 0.12 -0.99 0.12 -1.83 0.12c -1.05 0 -1.71 -0.06 -2.61 -0.3c -4.02 -0.99 -7.11 -4.35 -7.8 -8.46c -0.12 -0.66 -0.12 -0.99 -0.12 -1.83c 0 -0.84 0 -1.14 0.15 -1.92c 0.36 -2.28 1.41 -4.62 3.3 -7.29l 2.79 -3.6c 0.54 -0.66 0.96 -1.2 0.96 -1.23c 0 -0.03 -0.09 -0.33 -0.18 -0.69c -0.96 -3.21 -1.41 -5.28 -1.59 -7.68c -0.12 -1.38 -0.15 -3.09 -0.06 -3.96c 0.33 -2.67 1.38 -5.07 3.12 -7.08c 0.36 -0.42 0.99 -1.05 1.17 -1.14zm 2.01 4.71c -0.15 -0.3 -0.3 -0.54 -0.3 -0.54c -0.03 0 -0.18 0.09 -0.3 0.21c -2.4 1.74 -3.87 4.2 -4.26 7.11c -0.06 0.54 -0.06 1.41 -0.03 1.89c 0.09 1.29 0.48 3.12 1.08 5.22c 0.15 0.42 0.24 0.78 0.24 0.81c 0 0.03 0.84 -1.11 1.23 -1.68c 1.89 -2.73 2.88 -5.07 3.15 -7.53c 0.09 -0.57 0.12 -1.74 0.06 -2.37c -0.09 -1.23 -0.27 -1.92 -0.87 -3.12zm -2.94 20.7c -0.21 -0.72 -0.39 -1.32 -0.42 -1.32c 0 0 -1.2 1.47 -1.86 2.37c -2.79 3.63 -4.02 6.3 -4.35 9.3c -0.03 0.21 -0.03 0.69 -0.03 1.08c 0 0.69 0 0.75 0.06 1.11c 0.12 0.54 0.27 0.99 0.51 1.47c 0.69 1.38 1.83 2.55 3.42 3.42c 0.96 0.54 2.07 0.9 3.21 1.08c 0.78 0.12 2.04 0.12 2.94 -0.03c 0.51 -0.06 0.45 -0.03 0.42 -0.3c -0.24 -3.33 -0.72 -6.33 -1.62 -10.08c -0.09 -0.39 -0.18 -0.75 -0.18 -0.78c -0.03 -0.03 -0.42 0 -0.81 0.09c -0.9 0.18 -1.65 0.57 -2.22 1.14c -0.72 0.72 -1.08 1.65 -1.05 2.64c 0.06 0.96 0.48 1.83 1.23 2.58c 0.36 0.36 0.72 0.63 1.17 0.9c 0.33 0.18 0.36 0.21 0.42 0.33c 0.18 0.42 -0.18 0.9 -0.6 0.87c -0.18 -0.03 -0.84 -0.36 -1.26 -0.63c -0.78 -0.51 -1.38 -1.11 -1.86 -1.83c -1.77 -2.7 -0.99 -6.42 1.71 -8.19c 0.3 -0.21 0.81 -0.48 1.17 -0.63c 0.3 -0.09 1.02 -0.3 1.14 -0.3c 0.06 0 0.09 0 0.09 -0.03c 0.03 -0.03 -0.51 -1.92 -1.23 -4.26zm 3.78 7.41c -0.18 -0.03 -0.36 -0.06 -0.39 -0.06c -0.03 0 0 0.21 0.18 1.02c 0.75 3.18 1.26 6.3 1.5 9.09c 0.06 0.72 0 0.69 0.51 0.42c 0.78 -0.36 1.44 -0.96 1.98 -1.77c 1.08 -1.62 1.2 -3.69 0.3 -5.55c -0.81 -1.62 -2.31 -2.79 -4.08 -3.15z"></path></g><g class="" fill="currentColor" stroke="none" data-name="staff-extra key-signature"><path data-name="accidentals.sharp" d="M 54.781000000000006 376.80771814598063c 0.21 -0.12 0.54 -0.03 0.66 0.24c 0.06 0.12 0.06 0.21 0.06 2.31c 0 1.23 0 2.22 0.03 2.22c 0 0 0.27 -0.12 0.6 -0.24c 0.69 -0.27 0.78 -0.3 0.96 -0.15c 0.21 0.15 0.21 0.18 0.21 1.38c 0 1.02 0 1.11 -0.06 1.2c -0.03 0.06 -0.09 0.12 -0.12 0.15c -0.06 0.03 -0.42 0.21 -0.84 0.36l -0.75 0.33l -0.03 2.43c 0 1.32 0 2.43 0.03 2.43c 0 0 0.27 -0.12 0.6 -0.24c 0.69 -0.27 0.78 -0.3 0.96 -0.15c 0.21 0.15 0.21 0.18 0.21 1.38c 0 1.02 0 1.11 -0.06 1.2c -0.03 0.06 -0.09 0.12 -0.12 0.15c -0.06 0.03 -0.42 0.21 -0.84 0.36l -0.75 0.33l -0.03 2.52c 0 2.28 -0.03 2.55 -0.06 2.64c -0.21 0.36 -0.72 0.36 -0.93 0c -0.03 -0.09 -0.06 -0.33 -0.06 -2.43l 0 -2.31l -1.29 0.51l -1.26 0.51l 0 2.43c 0 2.58 0 2.52 -0.15 2.67c -0.06 0.09 -0.27 0.18 -0.36 0.18c -0.12 0 -0.33 -0.09 -0.39 -0.18c -0.15 -0.15 -0.15 -0.09 -0.15 -2.43c 0 -1.23 0 -2.22 -0.03 -2.22c 0 0 -0.27 0.12 -0.6 0.24c -0.69 0.27 -0.78 0.3 -0.96 0.15c -0.21 -0.15 -0.21 -0.18 -0.21 -1.38c 0 -1.02 0 -1.11 0.06 -1.2c 0.03 -0.06 0.09 -0.12 0.12 -0.15c 0.06 -0.03 0.42 -0.21 0.84 -0.36l 0.78 -0.33l 0 -2.43c 0 -1.32 0 -2.43 -0.03 -2.43c 0 0 -0.27 0.12 -0.6 0.24c -0.69 0.27 -0.78 0.3 -0.96 0.15c -0.21 -0.15 -0.21 -0.18 -0.21 -1.38c 0 -1.02 0 -1.11 0.06 -1.2c 0.03 -0.06 0.09 -0.12 0.12 -0.15c 0.06 -0.03 0.42 -0.21 0.84 -0.36l 0.78 -0.33l 0 -2.52c 0 -2.28 0.03 -2.55 0.06 -2.64c 0.21 -0.36 0.72 -0.36 0.93 0c 0.03 0.09 0.06 0.33 0.06 2.43l 0.03 2.31l 1.26 -0.51l 1.26 -0.51l 0 -2.43c 0 -2.28 0 -2.43 0.06 -2.55c 0.06 -0.12 0.12 -0.18 0.27 -0.24zm -0.33 10.65l 0 -2.43l -1.29 0.51l -1.26 0.51l 0 2.46l 0 2.43l 0.09 -0.03c 0.06 -0.03 0.63 -0.27 1.29 -0.51l 1.17 -0.48l 0 -2.46z"></path></g><g class="" fill="currentColor" stroke="none" data-name="part"><text stroke="none" font-size="17" font-style="normal" font-family="Helvetica" font-weight="normal" text-decoration="none" class="" text-anchor="start" x="67.3" y="341.12" data-name="C-part"><tspan x="67.3">C-part</tspan></text></g><g class="" fill="currentColor" stroke="none" data-name="note"><path data-name="dots.dot" d="M 87.73100019073486 397.9427181459806c 0.09 -0.03 0.27 -0.06 0.39 -0.06c 0.96 0 1.74 0.78 1.74 1.71c 0 0.96 -0.78 1.74 -1.71 1.74c -0.96 0 -1.74 -0.78 -1.74 -1.71c 0 -0.78 0.54 -1.5 1.32 -1.68z"></path><path data-name="B" d="M 79.69100019073487 399.4477181459806c 0.36 -0.03 1.2 0 1.53 0.06c 1.17 0.24 1.89 0.84 2.16 1.83c 0.06 0.18 0.06 0.3 0.06 0.66c 0 0.45 0 0.63 -0.15 1.08c -0.66 2.04 -3.06 3.93 -5.52 4.38c -0.54 0.09 -1.44 0.09 -1.83 0.03c -1.23 -0.27 -1.98 -0.87 -2.25 -1.86c -0.06 -0.18 -0.06 -0.3 -0.06 -0.66c 0 -0.45 0 -0.63 0.15 -1.08c 0.24 -0.78 0.75 -1.53 1.44 -2.22c 1.2 -1.2 2.85 -2.01 4.47 -2.22z"></path><line x1="74.1" x2="74.1" y1="430.62" y2="403.5" stroke="currentColor" stroke-width="1" class="abcjs-stem" data-name="stem"></line><text stroke="none" font-size="16" font-style="normal" font-family="&quot;Courier New&quot;" font-weight="normal" text-decoration="none" class="" text-anchor="middle" x="78.51" y="362" data-name="chord"><tspan x="78.51">G</tspan></text></g><g class="" fill="currentColor" stroke="none" data-name="note"><path data-name="B" d="M 120.87930616091205 399.4477181459806c 0.36 -0.03 1.2 0 1.53 0.06c 1.17 0.24 1.89 0.84 2.16 1.83c 0.06 0.18 0.06 0.3 0.06 0.66c 0 0.45 0 0.63 -0.15 1.08c -0.66 2.04 -3.06 3.93 -5.52 4.38c -0.54 0.09 -1.44 0.09 -1.83 0.03c -1.23 -0.27 -1.98 -0.87 -2.25 -1.86c -0.06 -0.18 -0.06 -0.3 -0.06 -0.66c 0 -0.45 0 -0.63 0.15 -1.08c 0.24 -0.78 0.75 -1.53 1.44 -2.22c 1.2 -1.2 2.85 -2.01 4.47 -2.22z"></path><line x1="115.29" x2="115.29" y1="430.62" y2="403.5" stroke="currentColor" stroke-width="1" class="abcjs-stem" data-name="stem"></line></g><g class="" fill="currentColor" stroke="none" data-name="note"><path data-name="flags.u8th" d="M 157.2094171597668 383.9977181459806l 0 -3.75l 0.21 0l 0.21 0l 0 0.18c 0 0.3 0.06 0.84 0.12 1.23c 0.24 1.53 0.9 3.12 2.13 5.16l 0.99 1.59c 0.87 1.44 1.38 2.34 1.77 3.09c 0.81 1.68 1.2 3.06 1.26 4.53c 0.03 1.53 -0.21 3.27 -0.75 5.01c -0.21 0.69 -0.51 1.5 -0.6 1.59c -0.09 0.12 -0.27 0.21 -0.42 0.21c -0.15 0 -0.42 -0.12 -0.51 -0.21c -0.15 -0.18 -0.18 -0.42 -0.09 -0.66c 0.15 -0.33 0.45 -1.2 0.57 -1.62c 0.42 -1.38 0.6 -2.58 0.6 -3.9c 0 -0.66 0 -0.81 -0.06 -1.11c -0.39 -2.07 -1.8 -4.26 -4.59 -7.14l -0.42 -0.45l -0.21 0l -0.21 0l 0 -3.75z"></path><path data-name="A" d="M 154.50941715976677 403.3227181459806c 0.36 -0.03 1.2 0 1.53 0.06c 1.17 0.24 1.89 0.84 2.16 1.83c 0.06 0.18 0.06 0.3 0.06 0.66c 0 0.45 0 0.63 -0.15 1.08c -0.66 2.04 -3.06 3.93 -5.52 4.38c -0.54 0.09 -1.44 0.09 -1.83 0.03c -1.23 -0.27 -1.98 -0.87 -2.25 -1.86c -0.06 -0.18 -0.06 -0.3 -0.06 -0.66c 0 -0.45 0 -0.63 0.15 -1.08c 0.24 -0.78 0.75 -1.53 1.44 -2.22c 1.2 -1.2 2.85 -2.01 4.47 -2.22z"></path><line x1="157.73" x2="157.73" y1="380.25" y2="406.08" stroke="currentColor" stroke-width="1" class="abcjs-stem" data-name="stem"></line></g><g class="" fill="currentColor" stroke="none" data-name="note"><path data-name="G" d="M 178.28949669911324 407.1977181459806c 0.36 -0.03 1.2 0 1.53 0.06c 1.17 0.24 1.89 0.84 2.16 1.83c 0.06 0.18 0.06 0.3 0.06 0.66c 0 0.45 0 0.63 -0.15 1.08c -0.66 2.04 -3.06 3.93 -5.52 4.38c -0.54 0.09 -1.44 0.09 -1.83 0.03c -1.23 -0.27 -1.98 -0.87 -2.25 -1.86c -0.06 -0.18 -0.06 -0.3 -0.06 -0.66c 0 -0.45 0 -0.63 0.15 -1.08c 0.24 -0.78 0.75 -1.53 1.44 -2.22c 1.2 -1.2 2.85 -2.01 4.47 -2.22z"></path><line x1="181.51" x2="181.51" y1="384.12" y2="409.96" stroke="currentColor" stroke-width="1" class="abcjs-stem" data-name="stem"></line></g><g class="" fill="currentColor" stroke="none" data-name="note"><path data-name="flags.u8th" d="M 214.61960769796798 383.9977181459806l 0 -3.75l 0.21 0l 0.21 0l 0 0.18c 0 0.3 0.06 0.84 0.12 1.23c 0.24 1.53 0.9 3.12 2.13 5.16l 0.99 1.59c 0.87 1.44 1.38 2.34 1.77 3.09c 0.81 1.68 1.2 3.06 1.26 4.53c 0.03 1.53 -0.21 3.27 -0.75 5.01c -0.21 0.69 -0.51 1.5 -0.6 1.59c -0.09 0.12 -0.27 0.21 -0.42 0.21c -0.15 0 -0.42 -0.12 -0.51 -0.21c -0.15 -0.18 -0.18 -0.42 -0.09 -0.66c 0.15 -0.33 0.45 -1.2 0.57 -1.62c 0.42 -1.38 0.6 -2.58 0.6 -3.9c 0 -0.66 0 -0.81 -0.06 -1.11c -0.39 -2.07 -1.8 -4.26 -4.59 -7.14l -0.42 -0.45l -0.21 0l -0.21 0l 0 -3.75z"></path><path data-name="A" d="M 211.91960769796796 403.3227181459806c 0.36 -0.03 1.2 0 1.53 0.06c 1.17 0.24 1.89 0.84 2.16 1.83c 0.06 0.18 0.06 0.3 0.06 0.66c 0 0.45 0 0.63 -0.15 1.08c -0.66 2.04 -3.06 3.93 -5.52 4.38c -0.54 0.09 -1.44 0.09 -1.83 0.03c -1.23 -0.27 -1.98 -0.87 -2.25 -1.86c -0.06 -0.18 -0.06 -0.3 -0.06 -0.66c 0 -0.45 0 -0.63 0.15 -1.08c 0.24 -0.78 0.75 -1.53 1.44 -2.22c 1.2 -1.2 2.85 -2.01 4.47 -2.22z"></path><line x1="215.14" x2="215.14" y1="380.25" y2="406.08" stroke="currentColor" stroke-width="1" class="abcjs-stem" data-name="stem"></line></g><g class="" fill="currentColor" stroke="none" data-name="bar"><line x1="229.91000000000003" x2="229.91000000000003" y1="419" y2="388" stroke="currentColor" stroke-width="0.6" data-name="bar"></line></g><g class="" fill="currentColor" stroke="none" data-name="note"><path data-name="dots.dot" d="M 261.03968742804926 397.9427181459806c 0.09 -0.03 0.27 -0.06 0.39 -0.06c 0.96 0 1.74 0.78 1.74 1.71c 0 0.96 -0.78 1.74 -1.71 1.74c -0.96 0 -1.74 -0.78 -1.74 -1.71c 0 -0.78 0.54 -1.5 1.32 -1.68z"></path><path data-name="B" d="M 252.9996874280493 399.4477181459806c 0.36 -0.03 1.2 0 1.53 0.06c 1.17 0.24 1.89 0.84 2.16 1.83c 0.06 0.18 0.06 0.3 0.06 0.66c 0 0.45 0 0.63 -0.15 1.08c -0.66 2.04 -3.06 3.93 -5.52 4.38c -0.54 0.09 -1.44 0.09 -1.83 0.03c -1.23 -0.27 -1.98 -0.87 -2.25 -1.86c -0.06 -0.18 -0.06 -0.3 -0.06 -0.66c 0 -0.45 0 -0.63 0.15 -1.08c 0.24 -0.78 0.75 -1.53 1.44 -2.22c 1.2 -1.2 2.85 -2.01 4.47 -2.22z"></path><line x1="247.41" x2="247.41" y1="430.62" y2="403.5" stroke="currentColor" stroke-width="1" class="abcjs-stem" data-name="stem"></line><text stroke="none" font-size="16" font-style="normal" font-family="&quot;Courier New&quot;" font-weight="normal" text-decoration="none" class="" text-anchor="middle" x="251.81" y="362" data-name="chord"><tspan x="251.81">G</tspan></text></g><g class="" fill="currentColor" stroke="none" data-name="note"><path data-name="B" d="M 294.18799339822647 399.4477181459806c 0.36 -0.03 1.2 0 1.53 0.06c 1.17 0.24 1.89 0.84 2.16 1.83c 0.06 0.18 0.06 0.3 0.06 0.66c 0 0.45 0 0.63 -0.15 1.08c -0.66 2.04 -3.06 3.93 -5.52 4.38c -0.54 0.09 -1.44 0.09 -1.83 0.03c -1.23 -0.27 -1.98 -0.87 -2.25 -1.86c -0.06 -0.18 -0.06 -0.3 -0.06 -0.66c 0 -0.45 0 -0.63 0.15 -1.08c 0.24 -0.78 0.75 -1.53 1.44 -2.22c 1.2 -1.2 2.85 -2.01 4.47 -2.22z"></path><line x1="297.61" x2="297.61" y1="372.5" y2="402.72" stroke="currentColor" stroke-width="0.6" class="abcjs-stem" data-name="stem"></line></g><g class="" fill="currentColor" stroke="none" data-name="note"><path data-name="A" d="M 317.9680729375729 403.3227181459806c 0.36 -0.03 1.2 0 1.53 0.06c 1.17 0.24 1.89 0.84 2.16 1.83c 0.06 0.18 0.06 0.3 0.06 0.66c 0 0.45 0 0.63 -0.15 1.08c -0.66 2.04 -3.06 3.93 -5.52 4.38c -0.54 0.09 -1.44 0.09 -1.83 0.03c -1.23 -0.27 -1.98 -0.87 -2.25 -1.86c -0.06 -0.18 -0.06 -0.3 -0.06 -0.66c 0 -0.45 0 -0.63 0.15 -1.08c 0.24 -0.78 0.75 -1.53 1.44 -2.22c 1.2 -1.2 2.85 -2.01 4.47 -2.22z"></path><line x1="321.39" x2="321.39" y1="372.5" y2="406.6" stroke="currentColor" stroke-width="0.6" class="abcjs-stem" data-name="stem"></line></g><g class="" fill="currentColor" stroke="none" data-name="note"><path data-name="B" d="M 341.74815247691936 399.4477181459806c 0.36 -0.03 1.2 0 1.53 0.06c 1.17 0.24 1.89 0.84 2.16 1.83c 0.06 0.18 0.06 0.3 0.06 0.66c 0 0.45 0 0.63 -0.15 1.08c -0.66 2.04 -3.06 3.93 -5.52 4.38c -0.54 0.09 -1.44 0.09 -1.83 0.03c -1.23 -0.27 -1.98 -0.87 -2.25 -1.86c -0.06 -0.18 -0.06 -0.3 -0.06 -0.66c 0 -0.45 0 -0.63 0.15 -1.08c 0.24 -0.78 0.75 -1.53 1.44 -2.22c 1.2 -1.2 2.85 -2.01 4.47 -2.22z"></path><line x1="345.17" x2="345.17" y1="372.5" y2="402.72" stroke="currentColor" stroke-width="0.6" class="abcjs-stem" data-name="stem"></line></g><g class="" fill="currentColor" stroke="none" data-name="note"><path data-name="d" d="M 365.5282320162658 391.6977181459806c 0.36 -0.03 1.2 0 1.53 0.06c 1.17 0.24 1.89 0.84 2.16 1.83c 0.06 0.18 0.06 0.3 0.06 0.66c 0 0.45 0 0.63 -0.15 1.08c -0.66 2.04 -3.06 3.93 -5.52 4.38c -0.54 0.09 -1.44 0.09 -1.83 0.03c -1.23 -0.27 -1.98 -0.87 -2.25 -1.86c -0.06 -0.18 -0.06 -0.3 -0.06 -0.66c 0 -0.45 0 -0.63 0.15 -1.08c 0.24 -0.78 0.75 -1.53 1.44 -2.22c 1.2 -1.2 2.85 -2.01 4.47 -2.22z"></path><text stroke="none" font-size="16" font-style="normal" font-family="&quot;Courier New&quot;" font-weight="normal" text-decoration="none" class="" text-anchor="middle" x="364.34" y="362" data-name="chord"><tspan x="364.34">D</tspan></text><line x1="359.74" x2="359.74" y1="432.56" y2="396.52" stroke="currentColor" stroke-width="0.6" class="abcjs-stem" data-name="stem"></line></g><g class="" fill="currentColor" stroke="none" data-name="note"><path data-name="B" d="M 389.30831155561225 399.4477181459806c 0.36 -0.03 1.2 0 1.53 0.06c 1.17 0.24 1.89 0.84 2.16 1.83c 0.06 0.18 0.06 0.3 0.06 0.66c 0 0.45 0 0.63 -0.15 1.08c -0.66 2.04 -3.06 3.93 -5.52 4.38c -0.54 0.09 -1.44 0.09 -1.83 0.03c -1.23 -0.27 -1.98 -0.87 -2.25 -1.86c -0.06 -0.18 -0.06 -0.3 -0.06 -0.66c 0 -0.45 0 -0.63 0.15 -1.08c 0.24 -0.78 0.75 -1.53 1.44 -2.22c 1.2 -1.2 2.85 -2.01 4.47 -2.22z"></path><line x1="383.52000000000004" x2="383.52000000000004" y1="434.47" y2="404.27" stroke="currentColor" stroke-width="0.6" class="abcjs-stem" data-name="stem"></line></g><g class="" fill="currentColor" stroke="none" data-name="note"><path data-name="A" d="M 413.0883910949587 403.3227181459806c 0.36 -0.03 1.2 0 1.53 0.06c 1.17 0.24 1.89 0.84 2.16 1.83c 0.06 0.18 0.06 0.3 0.06 0.66c 0 0.45 0 0.63 -0.15 1.08c -0.66 2.04 -3.06 3.93 -5.52 4.38c -0.54 0.09 -1.44 0.09 -1.83 0.03c -1.23 -0.27 -1.98 -0.87 -2.25 -1.86c -0.06 -0.18 -0.06 -0.3 -0.06 -0.66c 0 -0.45 0 -0.63 0.15 -1.08c 0.24 -0.78 0.75 -1.53 1.44 -2.22c 1.2 -1.2 2.85 -2.01 4.47 -2.22z"></path><line x1="407.3" x2="407.3" y1="436.39" y2="408.15" stroke="currentColor" stroke-width="0.6" class="abcjs-stem" data-name="stem"></line></g><g class="" fill="currentColor" stroke="none" data-name="bar"><line x1="431.08" x2="431.08" y1="419" y2="388" stroke="currentColor" stroke-width="0.6" data-name="bar"></line></g><g class="" fill="currentColor" stroke="none" data-name="note"><path data-name="dots.dot" d="M 462.20847082504 397.9427181459806c 0.09 -0.03 0.27 -0.06 0.39 -0.06c 0.96 0 1.74 0.78 1.74 1.71c 0 0.96 -0.78 1.74 -1.71 1.74c -0.96 0 -1.74 -0.78 -1.74 -1.71c 0 -0.78 0.54 -1.5 1.32 -1.68z"></path><path data-name="B" d="M 454.16847082504 399.4477181459806c 0.36 -0.03 1.2 0 1.53 0.06c 1.17 0.24 1.89 0.84 2.16 1.83c 0.06 0.18 0.06 0.3 0.06 0.66c 0 0.45 0 0.63 -0.15 1.08c -0.66 2.04 -3.06 3.93 -5.52 4.38c -0.54 0.09 -1.44 0.09 -1.83 0.03c -1.23 -0.27 -1.98 -0.87 -2.25 -1.86c -0.06 -0.18 -0.06 -0.3 -0.06 -0.66c 0 -0.45 0 -0.63 0.15 -1.08c 0.24 -0.78 0.75 -1.53 1.44 -2.22c 1.2 -1.2 2.85 -2.01 4.47 -2.22z"></path><line x1="448.58" x2="448.58" y1="430.62" y2="403.5" stroke="currentColor" stroke-width="1" class="abcjs-stem" data-name="stem"></line><text stroke="none" font-size="16" font-style="normal" font-family="&quot;Courier New&quot;" font-weight="normal" text-decoration="none" class="" text-anchor="middle" x="452.98" y="362" data-name="chord"><tspan x="452.98">G</tspan></text></g><g class="" fill="currentColor" stroke="none" data-name="note"><path data-name="B" d="M 495.3567767952172 399.4477181459806c 0.36 -0.03 1.2 0 1.53 0.06c 1.17 0.24 1.89 0.84 2.16 1.83c 0.06 0.18 0.06 0.3 0.06 0.66c 0 0.45 0 0.63 -0.15 1.08c -0.66 2.04 -3.06 3.93 -5.52 4.38c -0.54 0.09 -1.44 0.09 -1.83 0.03c -1.23 -0.27 -1.98 -0.87 -2.25 -1.86c -0.06 -0.18 -0.06 -0.3 -0.06 -0.66c 0 -0.45 0 -0.63 0.15 -1.08c 0.24 -0.78 0.75 -1.53 1.44 -2.22c 1.2 -1.2 2.85 -2.01 4.47 -2.22z"></path><line x1="489.77" x2="489.77" y1="430.62" y2="403.5" stroke="currentColor" stroke-width="1" class="abcjs-stem" data-name="stem"></line></g><g class="" fill="currentColor" stroke="none" data-name="note"><path data-name="flags.u8th" d="M 531.686887794072 383.9977181459806l 0 -3.75l 0.21 0l 0.21 0l 0 0.18c 0 0.3 0.06 0.84 0.12 1.23c 0.24 1.53 0.9 3.12 2.13 5.16l 0.99 1.59c 0.87 1.44 1.38 2.34 1.77 3.09c 0.81 1.68 1.2 3.06 1.26 4.53c 0.03 1.53 -0.21 3.27 -0.75 5.01c -0.21 0.69 -0.51 1.5 -0.6 1.59c -0.09 0.12 -0.27 0.21 -0.42 0.21c -0.15 0 -0.42 -0.12 -0.51 -0.21c -0.15 -0.18 -0.18 -0.42 -0.09 -0.66c 0.15 -0.33 0.45 -1.2 0.57 -1.62c 0.42 -1.38 0.6 -2.58 0.6 -3.9c 0 -0.66 0 -0.81 -0.06 -1.11c -0.39 -2.07 -1.8 -4.26 -4.59 -7.14l -0.42 -0.45l -0.21 0l -0.21 0l 0 -3.75z"></path><path data-name="A" d="M 528.986887794072 403.3227181459806c 0.36 -0.03 1.2 0 1.53 0.06c 1.17 0.24 1.89 0.84 2.16 1.83c 0.06 0.18 0.06 0.3 0.06 0.66c 0 0.45 0 0.63 -0.15 1.08c -0.66 2.04 -3.06 3.93 -5.52 4.38c -0.54 0.09 -1.44 0.09 -1.83 0.03c -1.23 -0.27 -1.98 -0.87 -2.25 -1.86c -0.06 -0.18 -0.06 -0.3 -0.06 -0.66c 0 -0.45 0 -0.63 0.15 -1.08c 0.24 -0.78 0.75 -1.53 1.44 -2.22c 1.2 -1.2 2.85 -2.01 4.47 -2.22z"></path><line x1="532.21" x2="532.21" y1="380.25" y2="406.08" stroke="currentColor" stroke-width="1" class="abcjs-stem" data-name="stem"></line></g><g class="" fill="currentColor" stroke="none" data-name="note"><path data-name="G" d="M 552.7669673334185 407.1977181459806c 0.36 -0.03 1.2 0 1.53 0.06c 1.17 0.24 1.89 0.84 2.16 1.83c 0.06 0.18 0.06 0.3 0.06 0.66c 0 0.45 0 0.63 -0.15 1.08c -0.66 2.04 -3.06 3.93 -5.52 4.38c -0.54 0.09 -1.44 0.09 -1.83 0.03c -1.23 -0.27 -1.98 -0.87 -2.25 -1.86c -0.06 -0.18 -0.06 -0.3 -0.06 -0.66c 0 -0.45 0 -0.63 0.15 -1.08c 0.24 -0.78 0.75 -1.53 1.44 -2.22c 1.2 -1.2 2.85 -2.01 4.47 -2.22z"></path><line x1="555.99" x2="555.99" y1="384.12" y2="409.96" stroke="currentColor" stroke-width="1" class="abcjs-stem" data-name="stem"></line></g><g class="" fill="currentColor" stroke="none" data-name="note"><path data-name="flags.u8th" d="M 589.0970783322733 383.9977181459806l 0 -3.75l 0.21 0l 0.21 0l 0 0.18c 0 0.3 0.06 0.84 0.12 1.23c 0.24 1.53 0.9 3.12 2.13 5.16l 0.99 1.59c 0.87 1.44 1.38 2.34 1.77 3.09c 0.81 1.68 1.2 3.06 1.26 4.53c 0.03 1.53 -0.21 3.27 -0.75 5.01c -0.21 0.69 -0.51 1.5 -0.6 1.59c -0.09 0.12 -0.27 0.21 -0.42 0.21c -0.15 0 -0.42 -0.12 -0.51 -0.21c -0.15 -0.18 -0.18 -0.42 -0.09 -0.66c 0.15 -0.33 0.45 -1.2 0.57 -1.62c 0.42 -1.38 0.6 -2.58 0.6 -3.9c 0 -0.66 0 -0.81 -0.06 -1.11c -0.39 -2.07 -1.8 -4.26 -4.59 -7.14l -0.42 -0.45l -0.21 0l -0.21 0l 0 -3.75z"></path><path data-name="A" d="M 586.3970783322733 403.3227181459806c 0.36 -0.03 1.2 0 1.53 0.06c 1.17 0.24 1.89 0.84 2.16 1.83c 0.06 0.18 0.06 0.3 0.06 0.66c 0 0.45 0 0.63 -0.15 1.08c -0.66 2.04 -3.06 3.93 -5.52 4.38c -0.54 0.09 -1.44 0.09 -1.83 0.03c -1.23 -0.27 -1.98 -0.87 -2.25 -1.86c -0.06 -0.18 -0.06 -0.3 -0.06 -0.66c 0 -0.45 0 -0.63 0.15 -1.08c 0.24 -0.78 0.75 -1.53 1.44 -2.22c 1.2 -1.2 2.85 -2.01 4.47 -2.22z"></path><line x1="589.62" x2="589.62" y1="380.25" y2="406.08" stroke="currentColor" stroke-width="1" class="abcjs-stem" data-name="stem"></line></g><g class="" fill="currentColor" stroke="none" data-name="bar"><line x1="604.39" x2="604.39" y1="419" y2="388" stroke="currentColor" stroke-width="0.6" data-name="bar"></line></g><g class="" fill="currentColor" stroke="none" data-name="note"><path data-name="B" d="M 627.4771580623546 399.4477181459806c 0.36 -0.03 1.2 0 1.53 0.06c 1.17 0.24 1.89 0.84 2.16 1.83c 0.06 0.18 0.06 0.3 0.06 0.66c 0 0.45 0 0.63 -0.15 1.08c -0.66 2.04 -3.06 3.93 -5.52 4.38c -0.54 0.09 -1.44 0.09 -1.83 0.03c -1.23 -0.27 -1.98 -0.87 -2.25 -1.86c -0.06 -0.18 -0.06 -0.3 -0.06 -0.66c 0 -0.45 0 -0.63 0.15 -1.08c 0.24 -0.78 0.75 -1.53 1.44 -2.22c 1.2 -1.2 2.85 -2.01 4.47 -2.22z"></path><line x1="621.89" x2="621.89" y1="430.62" y2="403.5" stroke="currentColor" stroke-width="1" class="abcjs-stem" data-name="stem"></line><text stroke="none" font-size="16" font-style="normal" font-family="&quot;Courier New&quot;" font-weight="normal" text-decoration="none" class="" text-anchor="middle" x="626.29" y="362" data-name="chord"><tspan x="626.29">C</tspan></text></g><g class="" fill="currentColor" stroke="none" data-name="note"><path data-name="flags.d8th" d="M 660.6872690612093 401.24271814598063c 0.24 -0.12 0.54 -0.06 0.69 0.15c 0.06 0.06 0.21 0.36 0.39 0.66c 0.84 1.77 1.26 3.36 1.32 5.1c 0.03 1.29 -0.21 2.37 -0.81 3.63c -0.6 1.23 -1.26 2.13 -3.21 4.38c -1.35 1.53 -1.86 2.19 -2.4 2.97c -0.63 0.93 -1.11 1.92 -1.38 2.79c -0.15 0.54 -0.27 1.35 -0.27 1.8l 0 0.15l -0.21 0l -0.21 0l 0 -3.75l 0 -3.75l 0.21 0l 0.21 0l 0.48 -0.3c 1.83 -1.11 3.12 -2.1 4.17 -3.12c 0.78 -0.81 1.32 -1.53 1.71 -2.31c 0.45 -0.93 0.6 -1.74 0.51 -2.88c -0.12 -1.56 -0.63 -3.18 -1.47 -4.68c -0.12 -0.21 -0.15 -0.33 -0.06 -0.51c 0.06 -0.15 0.15 -0.24 0.33 -0.33z"></path><path data-name="d" d="M 661.1072690612094 391.6977181459806c 0.36 -0.03 1.2 0 1.53 0.06c 1.17 0.24 1.89 0.84 2.16 1.83c 0.06 0.18 0.06 0.3 0.06 0.66c 0 0.45 0 0.63 -0.15 1.08c -0.66 2.04 -3.06 3.93 -5.52 4.38c -0.54 0.09 -1.44 0.09 -1.83 0.03c -1.23 -0.27 -1.98 -0.87 -2.25 -1.86c -0.06 -0.18 -0.06 -0.3 -0.06 -0.66c 0 -0.45 0 -0.63 0.15 -1.08c 0.24 -0.78 0.75 -1.53 1.44 -2.22c 1.2 -1.2 2.85 -2.01 4.47 -2.22z"></path><line x1="655.52" x2="655.52" y1="422.87" y2="397.04" stroke="currentColor" stroke-width="1" class="abcjs-stem" data-name="stem"></line></g><g class="" fill="currentColor" stroke="none" data-name="note"><path data-name="g" d="M 684.8873486005559 380.0727181459806c 0.36 -0.03 1.2 0 1.53 0.06c 1.17 0.24 1.89 0.84 2.16 1.83c 0.06 0.18 0.06 0.3 0.06 0.66c 0 0.45 0 0.63 -0.15 1.08c -0.66 2.04 -3.06 3.93 -5.52 4.38c -0.54 0.09 -1.44 0.09 -1.83 0.03c -1.23 -0.27 -1.98 -0.87 -2.25 -1.86c -0.06 -0.18 -0.06 -0.3 -0.06 -0.66c 0 -0.45 0 -0.63 0.15 -1.08c 0.24 -0.78 0.75 -1.53 1.44 -2.22c 1.2 -1.2 2.85 -2.01 4.47 -2.22z"></path><line x1="679.3" x2="679.3" y1="411.25" y2="385.41" stroke="currentColor" stroke-width="1" class="abcjs-stem" data-name="stem"></line></g><g class="" fill="currentColor" stroke="none" data-name="note"><path data-name="flags.d8th" d="M 718.0974595994106 397.36771814598063c 0.24 -0.12 0.54 -0.06 0.69 0.15c 0.06 0.06 0.21 0.36 0.39 0.66c 0.84 1.77 1.26 3.36 1.32 5.1c 0.03 1.29 -0.21 2.37 -0.81 3.63c -0.6 1.23 -1.26 2.13 -3.21 4.38c -1.35 1.53 -1.86 2.19 -2.4 2.97c -0.63 0.93 -1.11 1.92 -1.38 2.79c -0.15 0.54 -0.27 1.35 -0.27 1.8l 0 0.15l -0.21 0l -0.21 0l 0 -3.75l 0 -3.75l 0.21 0l 0.21 0l 0.48 -0.3c 1.83 -1.11 3.12 -2.1 4.17 -3.12c 0.78 -0.81 1.32 -1.53 1.71 -2.31c 0.45 -0.93 0.6 -1.74 0.51 -2.88c -0.12 -1.56 -0.63 -3.18 -1.47 -4.68c -0.12 -0.21 -0.15 -0.33 -0.06 -0.51c 0.06 -0.15 0.15 -0.24 0.33 -0.33z"></path><path data-name="e" d="M 718.5174595994107 387.8227181459806c 0.36 -0.03 1.2 0 1.53 0.06c 1.17 0.24 1.89 0.84 2.16 1.83c 0.06 0.18 0.06 0.3 0.06 0.66c 0 0.45 0 0.63 -0.15 1.08c -0.66 2.04 -3.06 3.93 -5.52 4.38c -0.54 0.09 -1.44 0.09 -1.83 0.03c -1.23 -0.27 -1.98 -0.87 -2.25 -1.86c -0.06 -0.18 -0.06 -0.3 -0.06 -0.66c 0 -0.45 0 -0.63 0.15 -1.08c 0.24 -0.78 0.75 -1.53 1.44 -2.22c 1.2 -1.2 2.85 -2.01 4.47 -2.22z"></path><line x1="712.93" x2="712.93" y1="419" y2="393.16" stroke="currentColor" stroke-width="1" class="abcjs-stem" data-name="stem"></line></g><g class="" fill="currentColor" stroke="none" data-name="note"><path data-name="d" d="M 742.2975391387572 391.6977181459806c 0.36 -0.03 1.2 0 1.53 0.06c 1.17 0.24 1.89 0.84 2.16 1.83c 0.06 0.18 0.06 0.3 0.06 0.66c 0 0.45 0 0.63 -0.15 1.08c -0.66 2.04 -3.06 3.93 -5.52 4.38c -0.54 0.09 -1.44 0.09 -1.83 0.03c -1.23 -0.27 -1.98 -0.87 -2.25 -1.86c -0.06 -0.18 -0.06 -0.3 -0.06 -0.66c 0 -0.45 0 -0.63 0.15 -1.08c 0.24 -0.78 0.75 -1.53 1.44 -2.22c 1.2 -1.2 2.85 -2.01 4.47 -2.22z"></path><text stroke="none" font-size="16" font-style="normal" font-family="&quot;Courier New&quot;" font-weight="normal" text-decoration="none" class="" text-anchor="middle" x="741.11" y="362" data-name="chord"><tspan x="741.11">D</tspan></text><line x1="736.51" x2="736.51" y1="432.56" y2="396.52" stroke="currentColor" stroke-width="0.6" class="abcjs-stem" data-name="stem"></line></g><g class="" fill="currentColor" stroke="none" data-name="note"><path data-name="B" d="M 766.0776186781037 399.4477181459806c 0.36 -0.03 1.2 0 1.53 0.06c 1.17 0.24 1.89 0.84 2.16 1.83c 0.06 0.18 0.06 0.3 0.06 0.66c 0 0.45 0 0.63 -0.15 1.08c -0.66 2.04 -3.06 3.93 -5.52 4.38c -0.54 0.09 -1.44 0.09 -1.83 0.03c -1.23 -0.27 -1.98 -0.87 -2.25 -1.86c -0.06 -0.18 -0.06 -0.3 -0.06 -0.66c 0 -0.45 0 -0.63 0.15 -1.08c 0.24 -0.78 0.75 -1.53 1.44 -2.22c 1.2 -1.2 2.85 -2.01 4.47 -2.22z"></path><line x1="760.29" x2="760.29" y1="434.47" y2="404.27" stroke="currentColor" stroke-width="0.6" class="abcjs-stem" data-name="stem"></line></g><g class="" fill="currentColor" stroke="none" data-name="note"><path data-name="A" d="M 789.8576982174502 403.3227181459806c 0.36 -0.03 1.2 0 1.53 0.06c 1.17 0.24 1.89 0.84 2.16 1.83c 0.06 0.18 0.06 0.3 0.06 0.66c 0 0.45 0 0.63 -0.15 1.08c -0.66 2.04 -3.06 3.93 -5.52 4.38c -0.54 0.09 -1.44 0.09 -1.83 0.03c -1.23 -0.27 -1.98 -0.87 -2.25 -1.86c -0.06 -0.18 -0.06 -0.3 -0.06 -0.66c 0 -0.45 0 -0.63 0.15 -1.08c 0.24 -0.78 0.75 -1.53 1.44 -2.22c 1.2 -1.2 2.85 -2.01 4.47 -2.22z"></path><line x1="784.0699999999999" x2="784.0699999999999" y1="436.39" y2="408.15" stroke="currentColor" stroke-width="0.6" class="abcjs-stem" data-name="stem"></line></g><g class="" fill="currentColor" stroke="none" data-name="bar"><path data-name="dots.dot" d="M 808.8677777567967 397.9427181459806c 0.09 -0.03 0.27 -0.06 0.39 -0.06c 0.96 0 1.74 0.78 1.74 1.71c 0 0.96 -0.78 1.74 -1.71 1.74c -0.96 0 -1.74 -0.78 -1.74 -1.71c 0 -0.78 0.54 -1.5 1.32 -1.68z"></path><path data-name="dots.dot" d="M 808.8677777567967 405.6927181459806c 0.09 -0.03 0.27 -0.06 0.39 -0.06c 0.96 0 1.74 0.78 1.74 1.71c 0 0.96 -0.78 1.74 -1.71 1.74c -0.96 0 -1.74 -0.78 -1.74 -1.71c 0 -0.78 0.54 -1.5 1.32 -1.68z"></path><line x1="813.8499999999999" x2="813.8499999999999" y1="419" y2="388" stroke="currentColor" stroke-width="0.6" data-name="bar"></line><line x1="819.55" x2="819.55" y1="419" y2="388" stroke="currentColor" stroke-width="4" data-name="bar"></line></g><path d="M297.31 372.5 L345.47 372.5L345.47 376.38 L297.31 376.38z" stroke="none" fill="currentColor" class=""></path><path d="M359.44 434.5 L407.6 438.37L407.6 434.5 L359.44 430.63z" stroke="none" fill="currentColor" class=""></path><path d="M736.21 434.5 L784.37 438.37L784.37 434.5 L736.21 430.63z" stroke="none" fill="currentColor" class=""></path><path d="M 120.79 397.69 C 130.93 389.76 144.49 391.42 152.42 401.56 C 144.25 393.41 130.69 391.75 120.79 397.69 z" stroke="none" fill="currentColor" class="" data-name="slur"></path><path d="M 294.1 409.31 C 299.21 416.64 308.55 418.3 315.88 413.19 C 308.2 420.27 298.86 418.61 294.1 409.31 z" stroke="none" fill="currentColor" class="" data-name="slur"></path><path d="M 495.27 397.69 C 505.41 389.76 518.97 391.42 526.9 401.56 C 518.73 393.41 505.17 391.75 495.27 397.69 z" stroke="none" fill="currentColor" class="" data-name="slur"></path><path d="M 684.8 378.31 C 696.05 371.49 709.61 374.81 716.43 386.06 C 709.13 376.75 695.57 373.43 684.8 378.31 z" stroke="none" fill="currentColor" class="" data-name="slur"></path></g><g><text stroke="none" font-size="17" font-style="normal" font-family="&quot;Courier New&quot;" font-weight="normal" text-decoration="none" class="" text-anchor="start" x="15" y="461.89" data-name="free-text"><tspan x="15">Chords:</tspan></text></g><g><text stroke="none" font-size="17" font-style="normal" font-family="&quot;Courier New&quot;" font-weight="normal" text-decoration="none" class="" text-anchor="start" x="15" y="489.89" data-name="free-text"><tspan x="15">A-part: Em/D Em/Bm Em/D C/D :|</tspan></text></g><g><text stroke="none" font-size="17" font-style="normal" font-family="&quot;Courier New&quot;" font-weight="normal" text-decoration="none" class="" text-anchor="start" x="15" y="517.89" data-name="free-text"><tspan x="15">B-part: C ·· Bm ·· Am · D · :|</tspan></text></g><g><text stroke="none" font-size="17" font-style="normal" font-family="&quot;Courier New&quot;" font-weight="normal" text-decoration="none" class="" text-anchor="start" x="15" y="545.89" data-name="free-text"><tspan x="15">C-part: G ·· G/D · G ·· C/D :| (The Gs can be substituted for Ems if preferred)</tspan></text></g><g><text stroke="none" font-size="19" font-style="normal" font-family="Times New Roman" font-weight="normal" text-decoration="none" class="" text-anchor="start" x="15" y="591.39" data-name="description"><tspan x="15">Source: The Good Tune</tspan><tspan x="15" dy="1.2em">Notes: I've modified the bowing to something that makes more sense to me. But of course this is just a</tspan><tspan x="15" dy="1.2em">model to be played with.</tspan><tspan x="15" dy="1.2em">Transcription: Cam Cross</tspan><tspan x="15" dy="1.2em"></tspan></text></g></svg>